M48
;DRILL file {KiCad 4.0.5} date Thursday, March 30, 2017 'AMt' 07:23:19 AM
;FORMAT={-:-/ absolute / inch / decimal}
FMAT,2
INCH,TZ
T1C0.013
T2C0.030
T3C0.031
T4C0.031
T5C0.032
T6C0.039
T7C0.040
T8C0.059
T9C0.071
%
G90
G05
M72
T1
X2.75Y-3.825
X3.08Y-4.42
X3.32Y-4.34
X3.36Y-3.695
X3.41Y-4.61
X3.48Y-3.895
X3.5Y-3.495
X3.5Y-3.935
X3.57Y-4.2
X3.62Y-3.895
X3.71Y-4.6
X3.71Y-4.68
X3.875Y-3.915
X4.02Y-3.48
X4.08Y-5.68
X4.2Y-5.86
X4.23Y-3.81
X4.26Y-3.66
X4.36Y-5.94
X4.38Y-4.93
X4.42Y-4.01
X4.42Y-4.56
X4.5Y-4.36
X4.52Y-3.81
X4.53Y-4.16
X4.62Y-4.03
X4.63Y-3.52
X4.63Y-3.76
X4.64Y-4.78
X4.69Y-4.88
X4.7Y-4.765
X4.78Y-3.96
X4.84Y-3.62
X4.84Y-3.68
X4.84Y-4.74
X4.86Y-3.47
X4.91Y-5.08
X4.94Y-3.81
X4.95Y-4.58
X4.95Y-4.975
X4.96Y-4.88
X4.99Y-3.86
X5.01Y-5.62
X5.025Y-5.025
X5.07Y-4.58
X5.12Y-4.2
X5.16Y-3.8
X5.175Y-4.475
X5.21Y-3.93
X5.22Y-5.17
X5.275Y-4.38
X5.275Y-5.7
X5.29Y-3.47
X5.35Y-4.675
X5.38Y-4.09
X5.42Y-3.65
X5.42Y-3.8
X5.78Y-3.94
X5.84Y-4.6
X5.86Y-5.78
X5.87Y-6.18
X5.96Y-5.26
X6.1Y-5.1
X6.12Y-4.66
X6.22Y-5.42
X6.32Y-4.6
X6.44Y-5.24
X6.5Y-5.14
T2
X3.4Y-5.94
X3.5Y-5.84
X3.6Y-5.94
T3
X3.564Y-5.46
X3.5956Y-5.342
X3.6331Y-5.2931
X3.6331Y-5.6269
X3.682Y-5.6644
X3.7389Y-5.688
X3.764Y-4.3
X3.7956Y-4.182
X3.8Y-5.224
X3.8Y-5.696
X3.8331Y-4.1331
X3.8331Y-4.4669
X3.882Y-4.5044
X3.918Y-5.2556
X3.9389Y-4.528
X3.9669Y-5.2931
X3.9669Y-5.6269
X4.Y-4.064
X4.Y-4.536
X4.0044Y-5.578
X4.036Y-5.46
X4.118Y-4.0956
X4.1669Y-4.1331
X4.1669Y-4.4669
X4.2044Y-4.418
X4.236Y-4.3
X4.664Y-4.3
X4.6956Y-4.182
X4.7331Y-4.1331
X4.7331Y-4.4669
X4.782Y-4.5044
X4.9Y-4.064
X4.9Y-4.536
X5.018Y-4.0956
X5.0669Y-4.1331
X5.0669Y-4.4669
X5.1044Y-4.418
X5.128Y-4.3611
X5.136Y-4.3
T4
X6.05Y-4.3
X6.05Y-4.3984
X6.35Y-4.3
X6.35Y-4.3984
T5
X2.95Y-3.55
X2.95Y-3.85
X3.25Y-3.55
X3.25Y-3.85
T6
X5.6Y-3.6
X5.6Y-4.05
X5.7Y-3.6
X5.7Y-4.05
T7
X3.35Y-6.225
X3.82Y-5.84
X6.39Y-5.98
X6.39Y-6.08
X6.45Y-3.575
X6.45Y-3.675
X6.45Y-3.925
X6.45Y-4.025
T8
X4.32Y-5.64
X6.48Y-5.4
X6.48Y-5.54
X6.48Y-5.68
T9
X4.575Y-5.25
X4.575Y-5.435
X4.575Y-5.62
X5.961Y-3.6
X5.961Y-3.785
X5.961Y-3.97
X6.15Y-3.6
X6.15Y-3.785
X6.15Y-3.97
T0
M30
