G04 #@! TF.FileFunction,Other,User*
%FSLAX46Y46*%
G04 Gerber Fmt 4.6, Leading zero omitted, Abs format (unit mm)*
G04 Created by KiCad (PCBNEW 4.0.5) date Sunday, March 26, 2017 'PMt' 05:08:58 PM*
%MOMM*%
%LPD*%
G01*
G04 APERTURE LIST*
%ADD10C,0.100000*%
%ADD11C,0.050000*%
G04 APERTURE END LIST*
D10*
D11*
X77356000Y-115332000D02*
X82156000Y-115332000D01*
X77356000Y-117332000D02*
X82156000Y-117332000D01*
X77356000Y-115332000D02*
X77356000Y-117332000D01*
X82156000Y-115332000D02*
X82156000Y-117332000D01*
X82156000Y-120380000D02*
X77356000Y-120380000D01*
X82156000Y-118380000D02*
X77356000Y-118380000D01*
X82156000Y-120380000D02*
X82156000Y-118380000D01*
X77356000Y-120380000D02*
X77356000Y-118380000D01*
X77356000Y-120412000D02*
X82156000Y-120412000D01*
X77356000Y-122412000D02*
X82156000Y-122412000D01*
X77356000Y-120412000D02*
X77356000Y-122412000D01*
X82156000Y-120412000D02*
X82156000Y-122412000D01*
X77356000Y-126508000D02*
X82156000Y-126508000D01*
X77356000Y-128508000D02*
X82156000Y-128508000D01*
X77356000Y-126508000D02*
X77356000Y-128508000D01*
X82156000Y-126508000D02*
X82156000Y-128508000D01*
X82156000Y-138668000D02*
X77356000Y-138668000D01*
X82156000Y-136668000D02*
X77356000Y-136668000D01*
X82156000Y-138668000D02*
X82156000Y-136668000D01*
X77356000Y-138668000D02*
X77356000Y-136668000D01*
X77356000Y-145812000D02*
X82156000Y-145812000D01*
X77356000Y-147812000D02*
X82156000Y-147812000D01*
X77356000Y-145812000D02*
X77356000Y-147812000D01*
X82156000Y-145812000D02*
X82156000Y-147812000D01*
X82156000Y-158988000D02*
X77356000Y-158988000D01*
X82156000Y-156988000D02*
X77356000Y-156988000D01*
X82156000Y-158988000D02*
X82156000Y-156988000D01*
X77356000Y-158988000D02*
X77356000Y-156988000D01*
X162842000Y-138966000D02*
X166342000Y-138966000D01*
X166342000Y-138966000D02*
X166342000Y-142466000D01*
X166342000Y-142466000D02*
X162842000Y-142466000D01*
X162842000Y-142466000D02*
X162842000Y-138966000D01*
X162842000Y-135410000D02*
X166342000Y-135410000D01*
X166342000Y-135410000D02*
X166342000Y-138910000D01*
X166342000Y-138910000D02*
X162842000Y-138910000D01*
X162842000Y-138910000D02*
X162842000Y-135410000D01*
X162842000Y-142522000D02*
X166342000Y-142522000D01*
X166342000Y-142522000D02*
X166342000Y-146022000D01*
X166342000Y-146022000D02*
X162842000Y-146022000D01*
X162842000Y-146022000D02*
X162842000Y-142522000D01*
X107978000Y-141506000D02*
X111478000Y-141506000D01*
X111478000Y-141506000D02*
X111478000Y-145006000D01*
X111478000Y-145006000D02*
X107978000Y-145006000D01*
X107978000Y-145006000D02*
X107978000Y-141506000D01*
X105396000Y-149876000D02*
X109996000Y-149876000D01*
X105396000Y-151876000D02*
X109996000Y-151876000D01*
X105396000Y-149876000D02*
X105396000Y-151876000D01*
X109996000Y-149876000D02*
X109996000Y-151876000D01*
X164690000Y-110470000D02*
G75*
G03X164690000Y-110470000I-3400000J0D01*
G01*
X70850000Y-91680000D02*
X70850000Y-96280000D01*
X68850000Y-91680000D02*
X68850000Y-96280000D01*
X70850000Y-91680000D02*
X68850000Y-91680000D01*
X70850000Y-96280000D02*
X68850000Y-96280000D01*
X145782000Y-132350000D02*
X150382000Y-132350000D01*
X145782000Y-134350000D02*
X150382000Y-134350000D01*
X145782000Y-132350000D02*
X145782000Y-134350000D01*
X150382000Y-132350000D02*
X150382000Y-134350000D01*
X157720000Y-132350000D02*
X162320000Y-132350000D01*
X157720000Y-134350000D02*
X162320000Y-134350000D01*
X157720000Y-132350000D02*
X157720000Y-134350000D01*
X162320000Y-132350000D02*
X162320000Y-134350000D01*
X153557000Y-117840000D02*
X148957000Y-117840000D01*
X153557000Y-115840000D02*
X148957000Y-115840000D01*
X153557000Y-117840000D02*
X153557000Y-115840000D01*
X148957000Y-117840000D02*
X148957000Y-115840000D01*
X165495000Y-117840000D02*
X160895000Y-117840000D01*
X165495000Y-115840000D02*
X160895000Y-115840000D01*
X165495000Y-117840000D02*
X165495000Y-115840000D01*
X160895000Y-117840000D02*
X160895000Y-115840000D01*
X154954000Y-147812000D02*
X150354000Y-147812000D01*
X154954000Y-145812000D02*
X150354000Y-145812000D01*
X154954000Y-147812000D02*
X154954000Y-145812000D01*
X150354000Y-147812000D02*
X150354000Y-145812000D01*
X111522000Y-128792000D02*
X111522000Y-124192000D01*
X113522000Y-128792000D02*
X113522000Y-124192000D01*
X111522000Y-128792000D02*
X113522000Y-128792000D01*
X111522000Y-124192000D02*
X113522000Y-124192000D01*
X131050000Y-115840000D02*
X135650000Y-115840000D01*
X131050000Y-117840000D02*
X135650000Y-117840000D01*
X131050000Y-115840000D02*
X131050000Y-117840000D01*
X135650000Y-115840000D02*
X135650000Y-117840000D01*
X123684000Y-140224000D02*
X128284000Y-140224000D01*
X123684000Y-142224000D02*
X128284000Y-142224000D01*
X123684000Y-140224000D02*
X123684000Y-142224000D01*
X128284000Y-140224000D02*
X128284000Y-142224000D01*
X139460000Y-89900000D02*
X134860000Y-89900000D01*
X139460000Y-87900000D02*
X134860000Y-87900000D01*
X139460000Y-89900000D02*
X139460000Y-87900000D01*
X134860000Y-89900000D02*
X134860000Y-87900000D01*
X140095000Y-103235000D02*
X135495000Y-103235000D01*
X140095000Y-101235000D02*
X135495000Y-101235000D01*
X140095000Y-103235000D02*
X140095000Y-101235000D01*
X135495000Y-103235000D02*
X135495000Y-101235000D01*
X128792000Y-89519000D02*
X124192000Y-89519000D01*
X128792000Y-87519000D02*
X124192000Y-87519000D01*
X128792000Y-89519000D02*
X128792000Y-87519000D01*
X124192000Y-89519000D02*
X124192000Y-87519000D01*
X107075000Y-89519000D02*
X102475000Y-89519000D01*
X107075000Y-87519000D02*
X102475000Y-87519000D01*
X107075000Y-89519000D02*
X107075000Y-87519000D01*
X102475000Y-89519000D02*
X102475000Y-87519000D01*
X108825000Y-99584000D02*
X113425000Y-99584000D01*
X108825000Y-101584000D02*
X113425000Y-101584000D01*
X108825000Y-99584000D02*
X108825000Y-101584000D01*
X113425000Y-99584000D02*
X113425000Y-101584000D01*
X108825000Y-113554000D02*
X113425000Y-113554000D01*
X108825000Y-115554000D02*
X113425000Y-115554000D01*
X108825000Y-113554000D02*
X108825000Y-115554000D01*
X113425000Y-113554000D02*
X113425000Y-115554000D01*
X93486000Y-105902000D02*
X88886000Y-105902000D01*
X93486000Y-103902000D02*
X88886000Y-103902000D01*
X93486000Y-105902000D02*
X93486000Y-103902000D01*
X88886000Y-105902000D02*
X88886000Y-103902000D01*
X94375000Y-89519000D02*
X89775000Y-89519000D01*
X94375000Y-87519000D02*
X89775000Y-87519000D01*
X94375000Y-89519000D02*
X94375000Y-87519000D01*
X89775000Y-89519000D02*
X89775000Y-87519000D01*
X83340000Y-156365000D02*
X83340000Y-159865000D01*
X86840000Y-156365000D02*
X86840000Y-159865000D01*
X83340000Y-156365000D02*
X86840000Y-156365000D01*
X83340000Y-159865000D02*
X86840000Y-159865000D01*
X95278000Y-146586000D02*
X95278000Y-150086000D01*
X98778000Y-146586000D02*
X98778000Y-150086000D01*
X95278000Y-146586000D02*
X98778000Y-146586000D01*
X95278000Y-150086000D02*
X98778000Y-150086000D01*
X160556000Y-150142000D02*
X160556000Y-156192000D01*
X164056000Y-150142000D02*
X164056000Y-156192000D01*
X160556000Y-150142000D02*
X164056000Y-150142000D01*
X160556000Y-156192000D02*
X164056000Y-156192000D01*
X144952000Y-125520000D02*
X153752000Y-125520000D01*
X144952000Y-118320000D02*
X144952000Y-125520000D01*
X153752000Y-118320000D02*
X144952000Y-118320000D01*
X153752000Y-125520000D02*
X153752000Y-118320000D01*
X156890000Y-125520000D02*
X165690000Y-125520000D01*
X156890000Y-118320000D02*
X156890000Y-125520000D01*
X165690000Y-118320000D02*
X156890000Y-118320000D01*
X165690000Y-125520000D02*
X165690000Y-118320000D01*
X141110000Y-97425000D02*
X145910000Y-97425000D01*
X141110000Y-99425000D02*
X145910000Y-99425000D01*
X141110000Y-97425000D02*
X141110000Y-99425000D01*
X145910000Y-97425000D02*
X145910000Y-99425000D01*
X141110000Y-94885000D02*
X145910000Y-94885000D01*
X141110000Y-96885000D02*
X145910000Y-96885000D01*
X141110000Y-94885000D02*
X141110000Y-96885000D01*
X145910000Y-94885000D02*
X145910000Y-96885000D01*
X149492000Y-127270000D02*
X154292000Y-127270000D01*
X149492000Y-129270000D02*
X154292000Y-129270000D01*
X149492000Y-127270000D02*
X149492000Y-129270000D01*
X154292000Y-127270000D02*
X154292000Y-129270000D01*
X144412000Y-127270000D02*
X149212000Y-127270000D01*
X144412000Y-129270000D02*
X149212000Y-129270000D01*
X144412000Y-127270000D02*
X144412000Y-129270000D01*
X149212000Y-127270000D02*
X149212000Y-129270000D01*
X161430000Y-127270000D02*
X166230000Y-127270000D01*
X161430000Y-129270000D02*
X166230000Y-129270000D01*
X161430000Y-127270000D02*
X161430000Y-129270000D01*
X166230000Y-127270000D02*
X166230000Y-129270000D01*
X156350000Y-127270000D02*
X161150000Y-127270000D01*
X156350000Y-129270000D02*
X161150000Y-129270000D01*
X156350000Y-127270000D02*
X156350000Y-129270000D01*
X161150000Y-127270000D02*
X161150000Y-129270000D01*
X82156000Y-115300000D02*
X77356000Y-115300000D01*
X82156000Y-113300000D02*
X77356000Y-113300000D01*
X82156000Y-115300000D02*
X82156000Y-113300000D01*
X77356000Y-115300000D02*
X77356000Y-113300000D01*
X82156000Y-124444000D02*
X77356000Y-124444000D01*
X82156000Y-122444000D02*
X77356000Y-122444000D01*
X82156000Y-124444000D02*
X82156000Y-122444000D01*
X77356000Y-124444000D02*
X77356000Y-122444000D01*
X77356000Y-124476000D02*
X82156000Y-124476000D01*
X77356000Y-126476000D02*
X82156000Y-126476000D01*
X77356000Y-124476000D02*
X77356000Y-126476000D01*
X82156000Y-124476000D02*
X82156000Y-126476000D01*
X82156000Y-131556000D02*
X77356000Y-131556000D01*
X82156000Y-129556000D02*
X77356000Y-129556000D01*
X82156000Y-131556000D02*
X82156000Y-129556000D01*
X77356000Y-131556000D02*
X77356000Y-129556000D01*
X77356000Y-131588000D02*
X82156000Y-131588000D01*
X77356000Y-133588000D02*
X82156000Y-133588000D01*
X77356000Y-131588000D02*
X77356000Y-133588000D01*
X82156000Y-131588000D02*
X82156000Y-133588000D01*
X82156000Y-136636000D02*
X77356000Y-136636000D01*
X82156000Y-134636000D02*
X77356000Y-134636000D01*
X82156000Y-136636000D02*
X82156000Y-134636000D01*
X77356000Y-136636000D02*
X77356000Y-134636000D01*
X77356000Y-138700000D02*
X82156000Y-138700000D01*
X77356000Y-140700000D02*
X82156000Y-140700000D01*
X77356000Y-138700000D02*
X77356000Y-140700000D01*
X82156000Y-138700000D02*
X82156000Y-140700000D01*
X82156000Y-143748000D02*
X77356000Y-143748000D01*
X82156000Y-141748000D02*
X77356000Y-141748000D01*
X82156000Y-143748000D02*
X82156000Y-141748000D01*
X77356000Y-143748000D02*
X77356000Y-141748000D01*
X77356000Y-143780000D02*
X82156000Y-143780000D01*
X77356000Y-145780000D02*
X82156000Y-145780000D01*
X77356000Y-143780000D02*
X77356000Y-145780000D01*
X82156000Y-143780000D02*
X82156000Y-145780000D01*
X82156000Y-150860000D02*
X77356000Y-150860000D01*
X82156000Y-148860000D02*
X77356000Y-148860000D01*
X82156000Y-150860000D02*
X82156000Y-148860000D01*
X77356000Y-150860000D02*
X77356000Y-148860000D01*
X77356000Y-150892000D02*
X82156000Y-150892000D01*
X77356000Y-152892000D02*
X82156000Y-152892000D01*
X77356000Y-150892000D02*
X77356000Y-152892000D01*
X82156000Y-150892000D02*
X82156000Y-152892000D01*
X82156000Y-156956000D02*
X77356000Y-156956000D01*
X82156000Y-154956000D02*
X77356000Y-154956000D01*
X82156000Y-156956000D02*
X82156000Y-154956000D01*
X77356000Y-156956000D02*
X77356000Y-154956000D01*
X104254000Y-151876000D02*
X99454000Y-151876000D01*
X104254000Y-149876000D02*
X99454000Y-149876000D01*
X104254000Y-151876000D02*
X104254000Y-149876000D01*
X99454000Y-151876000D02*
X99454000Y-149876000D01*
X105680000Y-144894000D02*
X105680000Y-140094000D01*
X107680000Y-144894000D02*
X107680000Y-140094000D01*
X105680000Y-144894000D02*
X107680000Y-144894000D01*
X105680000Y-140094000D02*
X107680000Y-140094000D01*
X104808000Y-148816000D02*
X99408000Y-148816000D01*
X99408000Y-148816000D02*
X99408000Y-145316000D01*
X99408000Y-145316000D02*
X104808000Y-145316000D01*
X104808000Y-145316000D02*
X104808000Y-148816000D01*
X140740000Y-101320000D02*
X140740000Y-104420000D01*
X140741751Y-101316840D02*
G75*
G02X140740000Y-104420000I2798249J-1553160D01*
G01*
X140740000Y-89890000D02*
X140740000Y-92990000D01*
X140741751Y-89886840D02*
G75*
G02X140740000Y-92990000I2798249J-1553160D01*
G01*
X157070000Y-110470000D02*
G75*
G03X157070000Y-110470000I-3400000J0D01*
G01*
X162080000Y-97945000D02*
X162080000Y-103995000D01*
X165580000Y-97945000D02*
X165580000Y-103995000D01*
X162080000Y-97945000D02*
X165580000Y-97945000D01*
X162080000Y-103995000D02*
X165580000Y-103995000D01*
X162080000Y-89055000D02*
X162080000Y-95105000D01*
X165580000Y-89055000D02*
X165580000Y-95105000D01*
X162080000Y-89055000D02*
X165580000Y-89055000D01*
X162080000Y-95105000D02*
X165580000Y-95105000D01*
M02*
