G04 #@! TF.FileFunction,Soldermask,Top*
%FSLAX46Y46*%
G04 Gerber Fmt 4.6, Leading zero omitted, Abs format (unit mm)*
G04 Created by KiCad (PCBNEW 4.0.5) date Sunday, March 26, 2017 'PMt' 05:08:58 PM*
%MOMM*%
%LPD*%
G01*
G04 APERTURE LIST*
%ADD10C,0.100000*%
%ADD11C,1.924000*%
%ADD12R,1.900000X1.700000*%
%ADD13R,3.400000X3.400000*%
%ADD14R,1.900000X1.650000*%
%ADD15C,1.700000*%
%ADD16R,1.700000X1.700000*%
%ADD17R,1.650000X1.900000*%
%ADD18R,2.635200X2.635200*%
%ADD19R,2.432000X2.432000*%
%ADD20O,2.432000X2.432000*%
%ADD21R,2.051000X2.051000*%
%ADD22C,2.051000*%
%ADD23R,2.400000X4.200000*%
%ADD24R,2.400000X1.900000*%
%ADD25R,1.543000X0.908000*%
%ADD26R,1.700000X1.900000*%
%ADD27R,2.300000X1.200000*%
%ADD28R,2.300000X2.400000*%
%ADD29C,2.300000*%
%ADD30O,1.670000X1.670000*%
%ADD31C,3.400000*%
G04 APERTURE END LIST*
D10*
D11*
X91440000Y-150876000D03*
X88900000Y-148336000D03*
X86360000Y-150876000D03*
D12*
X78406000Y-116332000D03*
X81106000Y-116332000D03*
X81106000Y-119380000D03*
X78406000Y-119380000D03*
X78406000Y-121412000D03*
X81106000Y-121412000D03*
X78406000Y-127508000D03*
X81106000Y-127508000D03*
X81106000Y-137668000D03*
X78406000Y-137668000D03*
X78406000Y-146812000D03*
X81106000Y-146812000D03*
X81106000Y-157988000D03*
X78406000Y-157988000D03*
D13*
X164592000Y-140716000D03*
X164592000Y-137160000D03*
X164592000Y-144272000D03*
X109728000Y-143256000D03*
D14*
X106446000Y-150876000D03*
X108946000Y-150876000D03*
D15*
X161290000Y-111720000D03*
D16*
X161290000Y-109220000D03*
D17*
X69850000Y-92730000D03*
X69850000Y-95230000D03*
D14*
X146832000Y-133350000D03*
X149332000Y-133350000D03*
X158770000Y-133350000D03*
X161270000Y-133350000D03*
X152507000Y-116840000D03*
X150007000Y-116840000D03*
X164445000Y-116840000D03*
X161945000Y-116840000D03*
X153904000Y-146812000D03*
X151404000Y-146812000D03*
D17*
X112522000Y-127742000D03*
X112522000Y-125242000D03*
D14*
X132100000Y-116840000D03*
X134600000Y-116840000D03*
X124734000Y-141224000D03*
X127234000Y-141224000D03*
X138410000Y-88900000D03*
X135910000Y-88900000D03*
X139045000Y-102235000D03*
X136545000Y-102235000D03*
X127742000Y-88519000D03*
X125242000Y-88519000D03*
X106025000Y-88519000D03*
X103525000Y-88519000D03*
X109875000Y-100584000D03*
X112375000Y-100584000D03*
X109875000Y-114554000D03*
X112375000Y-114554000D03*
X92436000Y-104902000D03*
X89936000Y-104902000D03*
X93325000Y-88519000D03*
X90825000Y-88519000D03*
D18*
X85090000Y-158115000D03*
X97028000Y-148336000D03*
D19*
X162306000Y-151892000D03*
D20*
X162306000Y-154432000D03*
D21*
X74930000Y-97790000D03*
D22*
X74930000Y-90170000D03*
X82550000Y-90170000D03*
X82550000Y-97790000D03*
D23*
X146202000Y-121920000D03*
D24*
X152502000Y-121920000D03*
X152502000Y-119620000D03*
X152502000Y-124220000D03*
D23*
X158140000Y-121920000D03*
D24*
X164440000Y-121920000D03*
X164440000Y-119620000D03*
X164440000Y-124220000D03*
D25*
X147828000Y-149352000D03*
X147828000Y-150622000D03*
X147828000Y-151892000D03*
X147828000Y-153162000D03*
X147828000Y-154432000D03*
X147828000Y-155702000D03*
X147828000Y-156972000D03*
X154178000Y-156972000D03*
X154178000Y-155702000D03*
X154178000Y-153162000D03*
X154178000Y-151892000D03*
X154178000Y-150622000D03*
X154178000Y-149352000D03*
X154178000Y-154432000D03*
X121031000Y-127762000D03*
X121031000Y-126492000D03*
X121031000Y-125222000D03*
X121031000Y-123952000D03*
X121031000Y-122682000D03*
X121031000Y-121412000D03*
X121031000Y-120142000D03*
X114681000Y-120142000D03*
X114681000Y-121412000D03*
X114681000Y-123952000D03*
X114681000Y-125222000D03*
X114681000Y-126492000D03*
X114681000Y-127762000D03*
X114681000Y-122682000D03*
X130937000Y-119126000D03*
X130937000Y-121666000D03*
X130937000Y-122936000D03*
X130937000Y-124206000D03*
X130937000Y-125476000D03*
X130937000Y-126746000D03*
X130937000Y-128016000D03*
X124587000Y-128016000D03*
X124587000Y-126746000D03*
X124587000Y-125476000D03*
X124587000Y-124206000D03*
X124587000Y-122936000D03*
X124587000Y-121666000D03*
X124587000Y-120396000D03*
X124587000Y-119126000D03*
X130937000Y-120396000D03*
X131064000Y-138811000D03*
X131064000Y-137541000D03*
X131064000Y-136271000D03*
X131064000Y-135001000D03*
X131064000Y-133731000D03*
X131064000Y-132461000D03*
X131064000Y-131191000D03*
X124714000Y-131191000D03*
X124714000Y-132461000D03*
X124714000Y-135001000D03*
X124714000Y-136271000D03*
X124714000Y-137541000D03*
X124714000Y-138811000D03*
X124714000Y-133731000D03*
X132334000Y-91440000D03*
X132334000Y-92710000D03*
X132334000Y-93980000D03*
X132334000Y-95250000D03*
X132334000Y-96520000D03*
X132334000Y-97790000D03*
X132334000Y-99060000D03*
X138684000Y-99060000D03*
X138684000Y-97790000D03*
X138684000Y-95250000D03*
X138684000Y-93980000D03*
X138684000Y-92710000D03*
X138684000Y-91440000D03*
X138684000Y-96520000D03*
X127635000Y-90805000D03*
X127635000Y-93345000D03*
X127635000Y-94615000D03*
X127635000Y-95885000D03*
X127635000Y-97155000D03*
X127635000Y-98425000D03*
X127635000Y-99695000D03*
X121285000Y-99695000D03*
X121285000Y-98425000D03*
X121285000Y-97155000D03*
X121285000Y-95885000D03*
X121285000Y-94615000D03*
X121285000Y-93345000D03*
X121285000Y-92075000D03*
X121285000Y-90805000D03*
X127635000Y-92075000D03*
X99568000Y-91694000D03*
X99568000Y-92964000D03*
X99568000Y-94234000D03*
X99568000Y-95504000D03*
X99568000Y-96774000D03*
X99568000Y-98044000D03*
X99568000Y-99314000D03*
X105918000Y-99314000D03*
X105918000Y-98044000D03*
X105918000Y-95504000D03*
X105918000Y-94234000D03*
X105918000Y-92964000D03*
X105918000Y-91694000D03*
X105918000Y-96774000D03*
X109855000Y-98044000D03*
X109855000Y-95504000D03*
X109855000Y-94234000D03*
X109855000Y-92964000D03*
X109855000Y-91694000D03*
X109855000Y-90424000D03*
X109855000Y-89154000D03*
X116205000Y-89154000D03*
X116205000Y-90424000D03*
X116205000Y-91694000D03*
X116205000Y-92964000D03*
X116205000Y-94234000D03*
X116205000Y-95504000D03*
X116205000Y-96774000D03*
X116205000Y-98044000D03*
X109855000Y-96774000D03*
X109855000Y-112014000D03*
X109855000Y-109474000D03*
X109855000Y-108204000D03*
X109855000Y-106934000D03*
X109855000Y-105664000D03*
X109855000Y-104394000D03*
X109855000Y-103124000D03*
X116205000Y-103124000D03*
X116205000Y-104394000D03*
X116205000Y-105664000D03*
X116205000Y-106934000D03*
X116205000Y-108204000D03*
X116205000Y-109474000D03*
X116205000Y-110744000D03*
X116205000Y-112014000D03*
X109855000Y-110744000D03*
X92075000Y-107569000D03*
X92075000Y-110109000D03*
X92075000Y-111379000D03*
X92075000Y-112649000D03*
X92075000Y-113919000D03*
X92075000Y-115189000D03*
X92075000Y-116459000D03*
X85725000Y-116459000D03*
X85725000Y-115189000D03*
X85725000Y-113919000D03*
X85725000Y-112649000D03*
X85725000Y-111379000D03*
X85725000Y-110109000D03*
X85725000Y-108839000D03*
X85725000Y-107569000D03*
X92075000Y-108839000D03*
X93345000Y-91059000D03*
X93345000Y-93599000D03*
X93345000Y-94869000D03*
X93345000Y-96139000D03*
X93345000Y-97409000D03*
X93345000Y-98679000D03*
X93345000Y-99949000D03*
X86995000Y-99949000D03*
X86995000Y-98679000D03*
X86995000Y-97409000D03*
X86995000Y-96139000D03*
X86995000Y-94869000D03*
X86995000Y-93599000D03*
X86995000Y-92329000D03*
X86995000Y-91059000D03*
X93345000Y-92329000D03*
D12*
X142160000Y-98425000D03*
X144860000Y-98425000D03*
X142160000Y-95885000D03*
X144860000Y-95885000D03*
X150542000Y-128270000D03*
X153242000Y-128270000D03*
X145462000Y-128270000D03*
X148162000Y-128270000D03*
X162480000Y-128270000D03*
X165180000Y-128270000D03*
X157400000Y-128270000D03*
X160100000Y-128270000D03*
X81106000Y-114300000D03*
X78406000Y-114300000D03*
X81106000Y-123444000D03*
X78406000Y-123444000D03*
X78406000Y-125476000D03*
X81106000Y-125476000D03*
X81106000Y-130556000D03*
X78406000Y-130556000D03*
X78406000Y-132588000D03*
X81106000Y-132588000D03*
X81106000Y-135636000D03*
X78406000Y-135636000D03*
X78406000Y-139700000D03*
X81106000Y-139700000D03*
X81106000Y-142748000D03*
X78406000Y-142748000D03*
X78406000Y-144780000D03*
X81106000Y-144780000D03*
X81106000Y-149860000D03*
X78406000Y-149860000D03*
X78406000Y-151892000D03*
X81106000Y-151892000D03*
X81106000Y-155956000D03*
X78406000Y-155956000D03*
X103204000Y-150876000D03*
X100504000Y-150876000D03*
D26*
X106680000Y-143844000D03*
X106680000Y-141144000D03*
D27*
X103608000Y-148016000D03*
X103608000Y-146116000D03*
X100608000Y-147066000D03*
D28*
X142240000Y-102870000D03*
D29*
X144780000Y-102870000D03*
D28*
X142240000Y-91440000D03*
D29*
X144780000Y-91440000D03*
D15*
X153670000Y-111720000D03*
D16*
X153670000Y-109220000D03*
D19*
X163830000Y-99695000D03*
D20*
X163830000Y-102235000D03*
D19*
X163830000Y-90805000D03*
D20*
X163830000Y-93345000D03*
D25*
X139065000Y-104775000D03*
X139065000Y-107315000D03*
X139065000Y-108585000D03*
X139065000Y-109855000D03*
X139065000Y-111125000D03*
X139065000Y-112395000D03*
X139065000Y-113665000D03*
X132715000Y-113665000D03*
X132715000Y-112395000D03*
X132715000Y-111125000D03*
X132715000Y-109855000D03*
X132715000Y-108585000D03*
X132715000Y-107315000D03*
X132715000Y-106045000D03*
X132715000Y-104775000D03*
X139065000Y-106045000D03*
D30*
X94968536Y-144474145D03*
X93522800Y-143875302D03*
X92281320Y-142922680D03*
X90525600Y-138684000D03*
X91328698Y-135686800D03*
X92281320Y-134445320D03*
X96520000Y-132689600D03*
X99517199Y-133492698D03*
X100758680Y-134445320D03*
X102514400Y-138684000D03*
X101711302Y-141681199D03*
X100758680Y-142922680D03*
X96520000Y-144678400D03*
X100048536Y-115010145D03*
X98602800Y-114411302D03*
X97361320Y-113458680D03*
X95605600Y-109220000D03*
X96408698Y-106222800D03*
X97361320Y-104981320D03*
X101600000Y-103225600D03*
X104597199Y-104028698D03*
X105838680Y-104981320D03*
X107594400Y-109220000D03*
X106791302Y-112217199D03*
X105838680Y-113458680D03*
X101600000Y-115214400D03*
X130250145Y-110771464D03*
X129651302Y-112217200D03*
X128698680Y-113458680D03*
X124460000Y-115214400D03*
X121462800Y-114411302D03*
X120221320Y-113458680D03*
X118465600Y-109220000D03*
X119268698Y-106222801D03*
X120221320Y-104981320D03*
X124460000Y-103225600D03*
X127457199Y-104028698D03*
X128698680Y-104981320D03*
X130454400Y-109220000D03*
D31*
X151409400Y-100838000D03*
X156210000Y-100838000D03*
X151409400Y-96139000D03*
X156210000Y-96139000D03*
X151409400Y-91440000D03*
X156210000Y-91440000D03*
X116205000Y-142748000D03*
X116205000Y-138049000D03*
X116205000Y-133350000D03*
M02*
