G04 #@! TF.FileFunction,Other,ECO1*
%FSLAX46Y46*%
G04 Gerber Fmt 4.6, Leading zero omitted, Abs format (unit mm)*
G04 Created by KiCad (PCBNEW 4.0.5) date Sunday, March 26, 2017 'PMt' 05:08:58 PM*
%MOMM*%
%LPD*%
G01*
G04 APERTURE LIST*
%ADD10C,0.100000*%
%ADD11C,0.300000*%
G04 APERTURE END LIST*
D10*
D11*
X124947430Y-152587144D02*
X124947430Y-152730001D01*
X124876001Y-152872858D01*
X124804572Y-152944287D01*
X124661715Y-153015716D01*
X124376001Y-153087144D01*
X124018858Y-153087144D01*
X123733144Y-153015716D01*
X123590287Y-152944287D01*
X123518858Y-152872858D01*
X123447430Y-152730001D01*
X123447430Y-152587144D01*
X123518858Y-152444287D01*
X123590287Y-152372858D01*
X123733144Y-152301430D01*
X124018858Y-152230001D01*
X124376001Y-152230001D01*
X124661715Y-152301430D01*
X124804572Y-152372858D01*
X124876001Y-152444287D01*
X124947430Y-152587144D01*
X123590287Y-153730001D02*
X123518858Y-153801429D01*
X123447430Y-153730001D01*
X123518858Y-153658572D01*
X123590287Y-153730001D01*
X123447430Y-153730001D01*
X124447430Y-155087144D02*
X123447430Y-155087144D01*
X125018858Y-154730001D02*
X123947430Y-154372858D01*
X123947430Y-155301430D01*
X124947430Y-156158572D02*
X124947430Y-156301429D01*
X124876001Y-156444286D01*
X124804572Y-156515715D01*
X124661715Y-156587144D01*
X124376001Y-156658572D01*
X124018858Y-156658572D01*
X123733144Y-156587144D01*
X123590287Y-156515715D01*
X123518858Y-156444286D01*
X123447430Y-156301429D01*
X123447430Y-156158572D01*
X123518858Y-156015715D01*
X123590287Y-155944286D01*
X123733144Y-155872858D01*
X124018858Y-155801429D01*
X124376001Y-155801429D01*
X124661715Y-155872858D01*
X124804572Y-155944286D01*
X124876001Y-156015715D01*
X124947430Y-156158572D01*
X124947430Y-157587143D02*
X124947430Y-157730000D01*
X124876001Y-157872857D01*
X124804572Y-157944286D01*
X124661715Y-158015715D01*
X124376001Y-158087143D01*
X124018858Y-158087143D01*
X123733144Y-158015715D01*
X123590287Y-157944286D01*
X123518858Y-157872857D01*
X123447430Y-157730000D01*
X123447430Y-157587143D01*
X123518858Y-157444286D01*
X123590287Y-157372857D01*
X123733144Y-157301429D01*
X124018858Y-157230000D01*
X124376001Y-157230000D01*
X124661715Y-157301429D01*
X124804572Y-157372857D01*
X124876001Y-157444286D01*
X124947430Y-157587143D01*
X124947430Y-159015714D02*
X124947430Y-159158571D01*
X124876001Y-159301428D01*
X124804572Y-159372857D01*
X124661715Y-159444286D01*
X124376001Y-159515714D01*
X124018858Y-159515714D01*
X123733144Y-159444286D01*
X123590287Y-159372857D01*
X123518858Y-159301428D01*
X123447430Y-159158571D01*
X123447430Y-159015714D01*
X123518858Y-158872857D01*
X123590287Y-158801428D01*
X123733144Y-158730000D01*
X124018858Y-158658571D01*
X124376001Y-158658571D01*
X124661715Y-158730000D01*
X124804572Y-158801428D01*
X124876001Y-158872857D01*
X124947430Y-159015714D01*
X123447430Y-161301428D02*
X124447430Y-161301428D01*
X124947430Y-161301428D02*
X124876001Y-161229999D01*
X124804572Y-161301428D01*
X124876001Y-161372856D01*
X124947430Y-161301428D01*
X124804572Y-161301428D01*
X124447430Y-162015714D02*
X123447430Y-162015714D01*
X124304572Y-162015714D02*
X124376001Y-162087142D01*
X124447430Y-162230000D01*
X124447430Y-162444285D01*
X124376001Y-162587142D01*
X124233144Y-162658571D01*
X123447430Y-162658571D01*
X125476001Y-152400000D02*
X125476001Y-162560000D01*
X129540000Y-152400000D02*
X122776001Y-152400000D01*
X129540000Y-162560000D02*
X122776001Y-162560000D01*
X125476001Y-162560000D02*
X124889580Y-161433496D01*
X125476001Y-162560000D02*
X126062422Y-161433496D01*
X125476001Y-152400000D02*
X124889580Y-153526504D01*
X125476001Y-152400000D02*
X126062422Y-153526504D01*
X130997144Y-168676571D02*
X131140001Y-168676571D01*
X131282858Y-168748000D01*
X131354287Y-168819429D01*
X131425716Y-168962286D01*
X131497144Y-169248000D01*
X131497144Y-169605143D01*
X131425716Y-169890857D01*
X131354287Y-170033714D01*
X131282858Y-170105143D01*
X131140001Y-170176571D01*
X130997144Y-170176571D01*
X130854287Y-170105143D01*
X130782858Y-170033714D01*
X130711430Y-169890857D01*
X130640001Y-169605143D01*
X130640001Y-169248000D01*
X130711430Y-168962286D01*
X130782858Y-168819429D01*
X130854287Y-168748000D01*
X130997144Y-168676571D01*
X132140001Y-170033714D02*
X132211429Y-170105143D01*
X132140001Y-170176571D01*
X132068572Y-170105143D01*
X132140001Y-170033714D01*
X132140001Y-170176571D01*
X133568573Y-168676571D02*
X132854287Y-168676571D01*
X132782858Y-169390857D01*
X132854287Y-169319429D01*
X132997144Y-169248000D01*
X133354287Y-169248000D01*
X133497144Y-169319429D01*
X133568573Y-169390857D01*
X133640001Y-169533714D01*
X133640001Y-169890857D01*
X133568573Y-170033714D01*
X133497144Y-170105143D01*
X133354287Y-170176571D01*
X132997144Y-170176571D01*
X132854287Y-170105143D01*
X132782858Y-170033714D01*
X134568572Y-168676571D02*
X134711429Y-168676571D01*
X134854286Y-168748000D01*
X134925715Y-168819429D01*
X134997144Y-168962286D01*
X135068572Y-169248000D01*
X135068572Y-169605143D01*
X134997144Y-169890857D01*
X134925715Y-170033714D01*
X134854286Y-170105143D01*
X134711429Y-170176571D01*
X134568572Y-170176571D01*
X134425715Y-170105143D01*
X134354286Y-170033714D01*
X134282858Y-169890857D01*
X134211429Y-169605143D01*
X134211429Y-169248000D01*
X134282858Y-168962286D01*
X134354286Y-168819429D01*
X134425715Y-168748000D01*
X134568572Y-168676571D01*
X135997143Y-168676571D02*
X136140000Y-168676571D01*
X136282857Y-168748000D01*
X136354286Y-168819429D01*
X136425715Y-168962286D01*
X136497143Y-169248000D01*
X136497143Y-169605143D01*
X136425715Y-169890857D01*
X136354286Y-170033714D01*
X136282857Y-170105143D01*
X136140000Y-170176571D01*
X135997143Y-170176571D01*
X135854286Y-170105143D01*
X135782857Y-170033714D01*
X135711429Y-169890857D01*
X135640000Y-169605143D01*
X135640000Y-169248000D01*
X135711429Y-168962286D01*
X135782857Y-168819429D01*
X135854286Y-168748000D01*
X135997143Y-168676571D01*
X137425714Y-168676571D02*
X137568571Y-168676571D01*
X137711428Y-168748000D01*
X137782857Y-168819429D01*
X137854286Y-168962286D01*
X137925714Y-169248000D01*
X137925714Y-169605143D01*
X137854286Y-169890857D01*
X137782857Y-170033714D01*
X137711428Y-170105143D01*
X137568571Y-170176571D01*
X137425714Y-170176571D01*
X137282857Y-170105143D01*
X137211428Y-170033714D01*
X137140000Y-169890857D01*
X137068571Y-169605143D01*
X137068571Y-169248000D01*
X137140000Y-168962286D01*
X137211428Y-168819429D01*
X137282857Y-168748000D01*
X137425714Y-168676571D01*
X139711428Y-170176571D02*
X139711428Y-169176571D01*
X139711428Y-168676571D02*
X139639999Y-168748000D01*
X139711428Y-168819429D01*
X139782856Y-168748000D01*
X139711428Y-168676571D01*
X139711428Y-168819429D01*
X140425714Y-169176571D02*
X140425714Y-170176571D01*
X140425714Y-169319429D02*
X140497142Y-169248000D01*
X140640000Y-169176571D01*
X140854285Y-169176571D01*
X140997142Y-169248000D01*
X141068571Y-169390857D01*
X141068571Y-170176571D01*
X129540000Y-168148000D02*
X142240000Y-168148000D01*
X129540000Y-162560000D02*
X129540000Y-170848000D01*
X142240000Y-162560000D02*
X142240000Y-170848000D01*
X142240000Y-168148000D02*
X141113496Y-168734421D01*
X142240000Y-168148000D02*
X141113496Y-167561579D01*
X129540000Y-168148000D02*
X130666504Y-168734421D01*
X129540000Y-168148000D02*
X130666504Y-167561579D01*
X37428571Y-124036001D02*
X37500000Y-124107430D01*
X37571429Y-124250287D01*
X37571429Y-124607430D01*
X37500000Y-124750287D01*
X37428571Y-124821716D01*
X37285714Y-124893144D01*
X37142857Y-124893144D01*
X36928571Y-124821716D01*
X36071429Y-123964573D01*
X36071429Y-124893144D01*
X36214286Y-125536001D02*
X36142857Y-125607429D01*
X36071429Y-125536001D01*
X36142857Y-125464572D01*
X36214286Y-125536001D01*
X36071429Y-125536001D01*
X37571429Y-126893144D02*
X37571429Y-126607430D01*
X37500000Y-126464573D01*
X37428571Y-126393144D01*
X37214286Y-126250287D01*
X36928571Y-126178858D01*
X36357143Y-126178858D01*
X36214286Y-126250287D01*
X36142857Y-126321715D01*
X36071429Y-126464573D01*
X36071429Y-126750287D01*
X36142857Y-126893144D01*
X36214286Y-126964573D01*
X36357143Y-127036001D01*
X36714286Y-127036001D01*
X36857143Y-126964573D01*
X36928571Y-126893144D01*
X37000000Y-126750287D01*
X37000000Y-126464573D01*
X36928571Y-126321715D01*
X36857143Y-126250287D01*
X36714286Y-126178858D01*
X37428571Y-127607429D02*
X37500000Y-127678858D01*
X37571429Y-127821715D01*
X37571429Y-128178858D01*
X37500000Y-128321715D01*
X37428571Y-128393144D01*
X37285714Y-128464572D01*
X37142857Y-128464572D01*
X36928571Y-128393144D01*
X36071429Y-127536001D01*
X36071429Y-128464572D01*
X37571429Y-129393143D02*
X37571429Y-129536000D01*
X37500000Y-129678857D01*
X37428571Y-129750286D01*
X37285714Y-129821715D01*
X37000000Y-129893143D01*
X36642857Y-129893143D01*
X36357143Y-129821715D01*
X36214286Y-129750286D01*
X36142857Y-129678857D01*
X36071429Y-129536000D01*
X36071429Y-129393143D01*
X36142857Y-129250286D01*
X36214286Y-129178857D01*
X36357143Y-129107429D01*
X36642857Y-129036000D01*
X37000000Y-129036000D01*
X37285714Y-129107429D01*
X37428571Y-129178857D01*
X37500000Y-129250286D01*
X37571429Y-129393143D01*
X37571429Y-130821714D02*
X37571429Y-130964571D01*
X37500000Y-131107428D01*
X37428571Y-131178857D01*
X37285714Y-131250286D01*
X37000000Y-131321714D01*
X36642857Y-131321714D01*
X36357143Y-131250286D01*
X36214286Y-131178857D01*
X36142857Y-131107428D01*
X36071429Y-130964571D01*
X36071429Y-130821714D01*
X36142857Y-130678857D01*
X36214286Y-130607428D01*
X36357143Y-130536000D01*
X36642857Y-130464571D01*
X37000000Y-130464571D01*
X37285714Y-130536000D01*
X37428571Y-130607428D01*
X37500000Y-130678857D01*
X37571429Y-130821714D01*
X36071429Y-133107428D02*
X37071429Y-133107428D01*
X37571429Y-133107428D02*
X37500000Y-133035999D01*
X37428571Y-133107428D01*
X37500000Y-133178856D01*
X37571429Y-133107428D01*
X37428571Y-133107428D01*
X37071429Y-133821714D02*
X36071429Y-133821714D01*
X36928571Y-133821714D02*
X37000000Y-133893142D01*
X37071429Y-134036000D01*
X37071429Y-134250285D01*
X37000000Y-134393142D01*
X36857143Y-134464571D01*
X36071429Y-134464571D01*
X38100000Y-96012000D02*
X38100000Y-162560000D01*
X153924000Y-96012000D02*
X35400000Y-96012000D01*
X153924000Y-162560000D02*
X35400000Y-162560000D01*
X38100000Y-162560000D02*
X37513579Y-161433496D01*
X38100000Y-162560000D02*
X38686421Y-161433496D01*
X38100000Y-96012000D02*
X37513579Y-97138504D01*
X38100000Y-96012000D02*
X38686421Y-97138504D01*
X195600571Y-129781427D02*
X195600571Y-128852856D01*
X196172000Y-129352856D01*
X196172000Y-129138570D01*
X196243429Y-128995713D01*
X196314857Y-128924284D01*
X196457714Y-128852856D01*
X196814857Y-128852856D01*
X196957714Y-128924284D01*
X197029143Y-128995713D01*
X197100571Y-129138570D01*
X197100571Y-129567142D01*
X197029143Y-129709999D01*
X196957714Y-129781427D01*
X196957714Y-128209999D02*
X197029143Y-128138571D01*
X197100571Y-128209999D01*
X197029143Y-128281428D01*
X196957714Y-128209999D01*
X197100571Y-128209999D01*
X195600571Y-127209999D02*
X195600571Y-127067142D01*
X195672000Y-126924285D01*
X195743429Y-126852856D01*
X195886286Y-126781427D01*
X196172000Y-126709999D01*
X196529143Y-126709999D01*
X196814857Y-126781427D01*
X196957714Y-126852856D01*
X197029143Y-126924285D01*
X197100571Y-127067142D01*
X197100571Y-127209999D01*
X197029143Y-127352856D01*
X196957714Y-127424285D01*
X196814857Y-127495713D01*
X196529143Y-127567142D01*
X196172000Y-127567142D01*
X195886286Y-127495713D01*
X195743429Y-127424285D01*
X195672000Y-127352856D01*
X195600571Y-127209999D01*
X195600571Y-125781428D02*
X195600571Y-125638571D01*
X195672000Y-125495714D01*
X195743429Y-125424285D01*
X195886286Y-125352856D01*
X196172000Y-125281428D01*
X196529143Y-125281428D01*
X196814857Y-125352856D01*
X196957714Y-125424285D01*
X197029143Y-125495714D01*
X197100571Y-125638571D01*
X197100571Y-125781428D01*
X197029143Y-125924285D01*
X196957714Y-125995714D01*
X196814857Y-126067142D01*
X196529143Y-126138571D01*
X196172000Y-126138571D01*
X195886286Y-126067142D01*
X195743429Y-125995714D01*
X195672000Y-125924285D01*
X195600571Y-125781428D01*
X195600571Y-124352857D02*
X195600571Y-124210000D01*
X195672000Y-124067143D01*
X195743429Y-123995714D01*
X195886286Y-123924285D01*
X196172000Y-123852857D01*
X196529143Y-123852857D01*
X196814857Y-123924285D01*
X196957714Y-123995714D01*
X197029143Y-124067143D01*
X197100571Y-124210000D01*
X197100571Y-124352857D01*
X197029143Y-124495714D01*
X196957714Y-124567143D01*
X196814857Y-124638571D01*
X196529143Y-124710000D01*
X196172000Y-124710000D01*
X195886286Y-124638571D01*
X195743429Y-124567143D01*
X195672000Y-124495714D01*
X195600571Y-124352857D01*
X195600571Y-122924286D02*
X195600571Y-122781429D01*
X195672000Y-122638572D01*
X195743429Y-122567143D01*
X195886286Y-122495714D01*
X196172000Y-122424286D01*
X196529143Y-122424286D01*
X196814857Y-122495714D01*
X196957714Y-122567143D01*
X197029143Y-122638572D01*
X197100571Y-122781429D01*
X197100571Y-122924286D01*
X197029143Y-123067143D01*
X196957714Y-123138572D01*
X196814857Y-123210000D01*
X196529143Y-123281429D01*
X196172000Y-123281429D01*
X195886286Y-123210000D01*
X195743429Y-123138572D01*
X195672000Y-123067143D01*
X195600571Y-122924286D01*
X197100571Y-120638572D02*
X196100571Y-120638572D01*
X195600571Y-120638572D02*
X195672000Y-120710001D01*
X195743429Y-120638572D01*
X195672000Y-120567144D01*
X195600571Y-120638572D01*
X195743429Y-120638572D01*
X196100571Y-119924286D02*
X197100571Y-119924286D01*
X196243429Y-119924286D02*
X196172000Y-119852858D01*
X196100571Y-119710000D01*
X196100571Y-119495715D01*
X196172000Y-119352858D01*
X196314857Y-119281429D01*
X197100571Y-119281429D01*
X195072000Y-162560000D02*
X195072000Y-86360000D01*
X167640000Y-162560000D02*
X197772000Y-162560000D01*
X167640000Y-86360000D02*
X197772000Y-86360000D01*
X195072000Y-86360000D02*
X195658421Y-87486504D01*
X195072000Y-86360000D02*
X194485579Y-87486504D01*
X195072000Y-162560000D02*
X195658421Y-161433496D01*
X195072000Y-162560000D02*
X194485579Y-161433496D01*
X45048571Y-130640001D02*
X45120000Y-130711430D01*
X45191429Y-130854287D01*
X45191429Y-131211430D01*
X45120000Y-131354287D01*
X45048571Y-131425716D01*
X44905714Y-131497144D01*
X44762857Y-131497144D01*
X44548571Y-131425716D01*
X43691429Y-130568573D01*
X43691429Y-131497144D01*
X43834286Y-132140001D02*
X43762857Y-132211429D01*
X43691429Y-132140001D01*
X43762857Y-132068572D01*
X43834286Y-132140001D01*
X43691429Y-132140001D01*
X43691429Y-133640001D02*
X43691429Y-132782858D01*
X43691429Y-133211430D02*
X45191429Y-133211430D01*
X44977143Y-133068573D01*
X44834286Y-132925715D01*
X44762857Y-132782858D01*
X45191429Y-134568572D02*
X45191429Y-134711429D01*
X45120000Y-134854286D01*
X45048571Y-134925715D01*
X44905714Y-134997144D01*
X44620000Y-135068572D01*
X44262857Y-135068572D01*
X43977143Y-134997144D01*
X43834286Y-134925715D01*
X43762857Y-134854286D01*
X43691429Y-134711429D01*
X43691429Y-134568572D01*
X43762857Y-134425715D01*
X43834286Y-134354286D01*
X43977143Y-134282858D01*
X44262857Y-134211429D01*
X44620000Y-134211429D01*
X44905714Y-134282858D01*
X45048571Y-134354286D01*
X45120000Y-134425715D01*
X45191429Y-134568572D01*
X45191429Y-135997143D02*
X45191429Y-136140000D01*
X45120000Y-136282857D01*
X45048571Y-136354286D01*
X44905714Y-136425715D01*
X44620000Y-136497143D01*
X44262857Y-136497143D01*
X43977143Y-136425715D01*
X43834286Y-136354286D01*
X43762857Y-136282857D01*
X43691429Y-136140000D01*
X43691429Y-135997143D01*
X43762857Y-135854286D01*
X43834286Y-135782857D01*
X43977143Y-135711429D01*
X44262857Y-135640000D01*
X44620000Y-135640000D01*
X44905714Y-135711429D01*
X45048571Y-135782857D01*
X45120000Y-135854286D01*
X45191429Y-135997143D01*
X45191429Y-137425714D02*
X45191429Y-137568571D01*
X45120000Y-137711428D01*
X45048571Y-137782857D01*
X44905714Y-137854286D01*
X44620000Y-137925714D01*
X44262857Y-137925714D01*
X43977143Y-137854286D01*
X43834286Y-137782857D01*
X43762857Y-137711428D01*
X43691429Y-137568571D01*
X43691429Y-137425714D01*
X43762857Y-137282857D01*
X43834286Y-137211428D01*
X43977143Y-137140000D01*
X44262857Y-137068571D01*
X44620000Y-137068571D01*
X44905714Y-137140000D01*
X45048571Y-137211428D01*
X45120000Y-137282857D01*
X45191429Y-137425714D01*
X43691429Y-139711428D02*
X44691429Y-139711428D01*
X45191429Y-139711428D02*
X45120000Y-139639999D01*
X45048571Y-139711428D01*
X45120000Y-139782856D01*
X45191429Y-139711428D01*
X45048571Y-139711428D01*
X44691429Y-140425714D02*
X43691429Y-140425714D01*
X44548571Y-140425714D02*
X44620000Y-140497142D01*
X44691429Y-140640000D01*
X44691429Y-140854285D01*
X44620000Y-140997142D01*
X44477143Y-141068571D01*
X43691429Y-141068571D01*
X45720000Y-109220000D02*
X45720000Y-162560000D01*
X101600000Y-109220000D02*
X43020000Y-109220000D01*
X101600000Y-162560000D02*
X43020000Y-162560000D01*
X45720000Y-162560000D02*
X45133579Y-161433496D01*
X45720000Y-162560000D02*
X46306421Y-161433496D01*
X45720000Y-109220000D02*
X45133579Y-110346504D01*
X45720000Y-109220000D02*
X46306421Y-110346504D01*
X55351429Y-145475144D02*
X55351429Y-145618001D01*
X55280000Y-145760858D01*
X55208571Y-145832287D01*
X55065714Y-145903716D01*
X54780000Y-145975144D01*
X54422857Y-145975144D01*
X54137143Y-145903716D01*
X53994286Y-145832287D01*
X53922857Y-145760858D01*
X53851429Y-145618001D01*
X53851429Y-145475144D01*
X53922857Y-145332287D01*
X53994286Y-145260858D01*
X54137143Y-145189430D01*
X54422857Y-145118001D01*
X54780000Y-145118001D01*
X55065714Y-145189430D01*
X55208571Y-145260858D01*
X55280000Y-145332287D01*
X55351429Y-145475144D01*
X53994286Y-146618001D02*
X53922857Y-146689429D01*
X53851429Y-146618001D01*
X53922857Y-146546572D01*
X53994286Y-146618001D01*
X53851429Y-146618001D01*
X53851429Y-147403715D02*
X53851429Y-147689430D01*
X53922857Y-147832287D01*
X53994286Y-147903715D01*
X54208571Y-148046573D01*
X54494286Y-148118001D01*
X55065714Y-148118001D01*
X55208571Y-148046573D01*
X55280000Y-147975144D01*
X55351429Y-147832287D01*
X55351429Y-147546573D01*
X55280000Y-147403715D01*
X55208571Y-147332287D01*
X55065714Y-147260858D01*
X54708571Y-147260858D01*
X54565714Y-147332287D01*
X54494286Y-147403715D01*
X54422857Y-147546573D01*
X54422857Y-147832287D01*
X54494286Y-147975144D01*
X54565714Y-148046573D01*
X54708571Y-148118001D01*
X55351429Y-149403715D02*
X55351429Y-149118001D01*
X55280000Y-148975144D01*
X55208571Y-148903715D01*
X54994286Y-148760858D01*
X54708571Y-148689429D01*
X54137143Y-148689429D01*
X53994286Y-148760858D01*
X53922857Y-148832286D01*
X53851429Y-148975144D01*
X53851429Y-149260858D01*
X53922857Y-149403715D01*
X53994286Y-149475144D01*
X54137143Y-149546572D01*
X54494286Y-149546572D01*
X54637143Y-149475144D01*
X54708571Y-149403715D01*
X54780000Y-149260858D01*
X54780000Y-148975144D01*
X54708571Y-148832286D01*
X54637143Y-148760858D01*
X54494286Y-148689429D01*
X55351429Y-150475143D02*
X55351429Y-150618000D01*
X55280000Y-150760857D01*
X55208571Y-150832286D01*
X55065714Y-150903715D01*
X54780000Y-150975143D01*
X54422857Y-150975143D01*
X54137143Y-150903715D01*
X53994286Y-150832286D01*
X53922857Y-150760857D01*
X53851429Y-150618000D01*
X53851429Y-150475143D01*
X53922857Y-150332286D01*
X53994286Y-150260857D01*
X54137143Y-150189429D01*
X54422857Y-150118000D01*
X54780000Y-150118000D01*
X55065714Y-150189429D01*
X55208571Y-150260857D01*
X55280000Y-150332286D01*
X55351429Y-150475143D01*
X55351429Y-151903714D02*
X55351429Y-152046571D01*
X55280000Y-152189428D01*
X55208571Y-152260857D01*
X55065714Y-152332286D01*
X54780000Y-152403714D01*
X54422857Y-152403714D01*
X54137143Y-152332286D01*
X53994286Y-152260857D01*
X53922857Y-152189428D01*
X53851429Y-152046571D01*
X53851429Y-151903714D01*
X53922857Y-151760857D01*
X53994286Y-151689428D01*
X54137143Y-151618000D01*
X54422857Y-151546571D01*
X54780000Y-151546571D01*
X55065714Y-151618000D01*
X55208571Y-151689428D01*
X55280000Y-151760857D01*
X55351429Y-151903714D01*
X53851429Y-154189428D02*
X54851429Y-154189428D01*
X55351429Y-154189428D02*
X55280000Y-154117999D01*
X55208571Y-154189428D01*
X55280000Y-154260856D01*
X55351429Y-154189428D01*
X55208571Y-154189428D01*
X54851429Y-154903714D02*
X53851429Y-154903714D01*
X54708571Y-154903714D02*
X54780000Y-154975142D01*
X54851429Y-155118000D01*
X54851429Y-155332285D01*
X54780000Y-155475142D01*
X54637143Y-155546571D01*
X53851429Y-155546571D01*
X55880000Y-138176000D02*
X55880000Y-162560000D01*
X116332000Y-138176000D02*
X53180000Y-138176000D01*
X116332000Y-162560000D02*
X53180000Y-162560000D01*
X55880000Y-162560000D02*
X55293579Y-161433496D01*
X55880000Y-162560000D02*
X56466421Y-161433496D01*
X55880000Y-138176000D02*
X55293579Y-139302504D01*
X55880000Y-138176000D02*
X56466421Y-139302504D01*
X58907429Y-145729144D02*
X58907429Y-145872001D01*
X58836000Y-146014858D01*
X58764571Y-146086287D01*
X58621714Y-146157716D01*
X58336000Y-146229144D01*
X57978857Y-146229144D01*
X57693143Y-146157716D01*
X57550286Y-146086287D01*
X57478857Y-146014858D01*
X57407429Y-145872001D01*
X57407429Y-145729144D01*
X57478857Y-145586287D01*
X57550286Y-145514858D01*
X57693143Y-145443430D01*
X57978857Y-145372001D01*
X58336000Y-145372001D01*
X58621714Y-145443430D01*
X58764571Y-145514858D01*
X58836000Y-145586287D01*
X58907429Y-145729144D01*
X57550286Y-146872001D02*
X57478857Y-146943429D01*
X57407429Y-146872001D01*
X57478857Y-146800572D01*
X57550286Y-146872001D01*
X57407429Y-146872001D01*
X57407429Y-147657715D02*
X57407429Y-147943430D01*
X57478857Y-148086287D01*
X57550286Y-148157715D01*
X57764571Y-148300573D01*
X58050286Y-148372001D01*
X58621714Y-148372001D01*
X58764571Y-148300573D01*
X58836000Y-148229144D01*
X58907429Y-148086287D01*
X58907429Y-147800573D01*
X58836000Y-147657715D01*
X58764571Y-147586287D01*
X58621714Y-147514858D01*
X58264571Y-147514858D01*
X58121714Y-147586287D01*
X58050286Y-147657715D01*
X57978857Y-147800573D01*
X57978857Y-148086287D01*
X58050286Y-148229144D01*
X58121714Y-148300573D01*
X58264571Y-148372001D01*
X58407429Y-149657715D02*
X57407429Y-149657715D01*
X58978857Y-149300572D02*
X57907429Y-148943429D01*
X57907429Y-149872001D01*
X58907429Y-150729143D02*
X58907429Y-150872000D01*
X58836000Y-151014857D01*
X58764571Y-151086286D01*
X58621714Y-151157715D01*
X58336000Y-151229143D01*
X57978857Y-151229143D01*
X57693143Y-151157715D01*
X57550286Y-151086286D01*
X57478857Y-151014857D01*
X57407429Y-150872000D01*
X57407429Y-150729143D01*
X57478857Y-150586286D01*
X57550286Y-150514857D01*
X57693143Y-150443429D01*
X57978857Y-150372000D01*
X58336000Y-150372000D01*
X58621714Y-150443429D01*
X58764571Y-150514857D01*
X58836000Y-150586286D01*
X58907429Y-150729143D01*
X58907429Y-152157714D02*
X58907429Y-152300571D01*
X58836000Y-152443428D01*
X58764571Y-152514857D01*
X58621714Y-152586286D01*
X58336000Y-152657714D01*
X57978857Y-152657714D01*
X57693143Y-152586286D01*
X57550286Y-152514857D01*
X57478857Y-152443428D01*
X57407429Y-152300571D01*
X57407429Y-152157714D01*
X57478857Y-152014857D01*
X57550286Y-151943428D01*
X57693143Y-151872000D01*
X57978857Y-151800571D01*
X58336000Y-151800571D01*
X58621714Y-151872000D01*
X58764571Y-151943428D01*
X58836000Y-152014857D01*
X58907429Y-152157714D01*
X57407429Y-154443428D02*
X58407429Y-154443428D01*
X58907429Y-154443428D02*
X58836000Y-154371999D01*
X58764571Y-154443428D01*
X58836000Y-154514856D01*
X58907429Y-154443428D01*
X58764571Y-154443428D01*
X58407429Y-155157714D02*
X57407429Y-155157714D01*
X58264571Y-155157714D02*
X58336000Y-155229142D01*
X58407429Y-155372000D01*
X58407429Y-155586285D01*
X58336000Y-155729142D01*
X58193143Y-155800571D01*
X57407429Y-155800571D01*
X59436000Y-138684000D02*
X59436000Y-162560000D01*
X96520000Y-138684000D02*
X56736000Y-138684000D01*
X96520000Y-162560000D02*
X56736000Y-162560000D01*
X59436000Y-162560000D02*
X58849579Y-161433496D01*
X59436000Y-162560000D02*
X60022421Y-161433496D01*
X59436000Y-138684000D02*
X58849579Y-139810504D01*
X59436000Y-138684000D02*
X60022421Y-139810504D01*
X62971429Y-152079144D02*
X62971429Y-152222001D01*
X62900000Y-152364858D01*
X62828571Y-152436287D01*
X62685714Y-152507716D01*
X62400000Y-152579144D01*
X62042857Y-152579144D01*
X61757143Y-152507716D01*
X61614286Y-152436287D01*
X61542857Y-152364858D01*
X61471429Y-152222001D01*
X61471429Y-152079144D01*
X61542857Y-151936287D01*
X61614286Y-151864858D01*
X61757143Y-151793430D01*
X62042857Y-151722001D01*
X62400000Y-151722001D01*
X62685714Y-151793430D01*
X62828571Y-151864858D01*
X62900000Y-151936287D01*
X62971429Y-152079144D01*
X61614286Y-153222001D02*
X61542857Y-153293429D01*
X61471429Y-153222001D01*
X61542857Y-153150572D01*
X61614286Y-153222001D01*
X61471429Y-153222001D01*
X62471429Y-154579144D02*
X61471429Y-154579144D01*
X63042857Y-154222001D02*
X61971429Y-153864858D01*
X61971429Y-154793430D01*
X62471429Y-156007715D02*
X61471429Y-156007715D01*
X63042857Y-155650572D02*
X61971429Y-155293429D01*
X61971429Y-156222001D01*
X62971429Y-157079143D02*
X62971429Y-157222000D01*
X62900000Y-157364857D01*
X62828571Y-157436286D01*
X62685714Y-157507715D01*
X62400000Y-157579143D01*
X62042857Y-157579143D01*
X61757143Y-157507715D01*
X61614286Y-157436286D01*
X61542857Y-157364857D01*
X61471429Y-157222000D01*
X61471429Y-157079143D01*
X61542857Y-156936286D01*
X61614286Y-156864857D01*
X61757143Y-156793429D01*
X62042857Y-156722000D01*
X62400000Y-156722000D01*
X62685714Y-156793429D01*
X62828571Y-156864857D01*
X62900000Y-156936286D01*
X62971429Y-157079143D01*
X62971429Y-158507714D02*
X62971429Y-158650571D01*
X62900000Y-158793428D01*
X62828571Y-158864857D01*
X62685714Y-158936286D01*
X62400000Y-159007714D01*
X62042857Y-159007714D01*
X61757143Y-158936286D01*
X61614286Y-158864857D01*
X61542857Y-158793428D01*
X61471429Y-158650571D01*
X61471429Y-158507714D01*
X61542857Y-158364857D01*
X61614286Y-158293428D01*
X61757143Y-158222000D01*
X62042857Y-158150571D01*
X62400000Y-158150571D01*
X62685714Y-158222000D01*
X62828571Y-158293428D01*
X62900000Y-158364857D01*
X62971429Y-158507714D01*
X61471429Y-160793428D02*
X62471429Y-160793428D01*
X62971429Y-160793428D02*
X62900000Y-160721999D01*
X62828571Y-160793428D01*
X62900000Y-160864856D01*
X62971429Y-160793428D01*
X62828571Y-160793428D01*
X62471429Y-161507714D02*
X61471429Y-161507714D01*
X62328571Y-161507714D02*
X62400000Y-161579142D01*
X62471429Y-161722000D01*
X62471429Y-161936285D01*
X62400000Y-162079142D01*
X62257143Y-162150571D01*
X61471429Y-162150571D01*
X63500000Y-151384000D02*
X63500000Y-162560000D01*
X88900000Y-151384000D02*
X60800000Y-151384000D01*
X88900000Y-162560000D02*
X60800000Y-162560000D01*
X63500000Y-162560000D02*
X62913579Y-161433496D01*
X63500000Y-162560000D02*
X64086421Y-161433496D01*
X63500000Y-151384000D02*
X62913579Y-152510504D01*
X63500000Y-151384000D02*
X64086421Y-152510504D01*
X72577144Y-76568571D02*
X72720001Y-76568571D01*
X72862858Y-76640000D01*
X72934287Y-76711429D01*
X73005716Y-76854286D01*
X73077144Y-77140000D01*
X73077144Y-77497143D01*
X73005716Y-77782857D01*
X72934287Y-77925714D01*
X72862858Y-77997143D01*
X72720001Y-78068571D01*
X72577144Y-78068571D01*
X72434287Y-77997143D01*
X72362858Y-77925714D01*
X72291430Y-77782857D01*
X72220001Y-77497143D01*
X72220001Y-77140000D01*
X72291430Y-76854286D01*
X72362858Y-76711429D01*
X72434287Y-76640000D01*
X72577144Y-76568571D01*
X73720001Y-77925714D02*
X73791429Y-77997143D01*
X73720001Y-78068571D01*
X73648572Y-77997143D01*
X73720001Y-77925714D01*
X73720001Y-78068571D01*
X74505715Y-78068571D02*
X74791430Y-78068571D01*
X74934287Y-77997143D01*
X75005715Y-77925714D01*
X75148573Y-77711429D01*
X75220001Y-77425714D01*
X75220001Y-76854286D01*
X75148573Y-76711429D01*
X75077144Y-76640000D01*
X74934287Y-76568571D01*
X74648573Y-76568571D01*
X74505715Y-76640000D01*
X74434287Y-76711429D01*
X74362858Y-76854286D01*
X74362858Y-77211429D01*
X74434287Y-77354286D01*
X74505715Y-77425714D01*
X74648573Y-77497143D01*
X74934287Y-77497143D01*
X75077144Y-77425714D01*
X75148573Y-77354286D01*
X75220001Y-77211429D01*
X76148572Y-76568571D02*
X76291429Y-76568571D01*
X76434286Y-76640000D01*
X76505715Y-76711429D01*
X76577144Y-76854286D01*
X76648572Y-77140000D01*
X76648572Y-77497143D01*
X76577144Y-77782857D01*
X76505715Y-77925714D01*
X76434286Y-77997143D01*
X76291429Y-78068571D01*
X76148572Y-78068571D01*
X76005715Y-77997143D01*
X75934286Y-77925714D01*
X75862858Y-77782857D01*
X75791429Y-77497143D01*
X75791429Y-77140000D01*
X75862858Y-76854286D01*
X75934286Y-76711429D01*
X76005715Y-76640000D01*
X76148572Y-76568571D01*
X77577143Y-76568571D02*
X77720000Y-76568571D01*
X77862857Y-76640000D01*
X77934286Y-76711429D01*
X78005715Y-76854286D01*
X78077143Y-77140000D01*
X78077143Y-77497143D01*
X78005715Y-77782857D01*
X77934286Y-77925714D01*
X77862857Y-77997143D01*
X77720000Y-78068571D01*
X77577143Y-78068571D01*
X77434286Y-77997143D01*
X77362857Y-77925714D01*
X77291429Y-77782857D01*
X77220000Y-77497143D01*
X77220000Y-77140000D01*
X77291429Y-76854286D01*
X77362857Y-76711429D01*
X77434286Y-76640000D01*
X77577143Y-76568571D01*
X79005714Y-76568571D02*
X79148571Y-76568571D01*
X79291428Y-76640000D01*
X79362857Y-76711429D01*
X79434286Y-76854286D01*
X79505714Y-77140000D01*
X79505714Y-77497143D01*
X79434286Y-77782857D01*
X79362857Y-77925714D01*
X79291428Y-77997143D01*
X79148571Y-78068571D01*
X79005714Y-78068571D01*
X78862857Y-77997143D01*
X78791428Y-77925714D01*
X78720000Y-77782857D01*
X78648571Y-77497143D01*
X78648571Y-77140000D01*
X78720000Y-76854286D01*
X78791428Y-76711429D01*
X78862857Y-76640000D01*
X79005714Y-76568571D01*
X81291428Y-78068571D02*
X81291428Y-77068571D01*
X81291428Y-76568571D02*
X81219999Y-76640000D01*
X81291428Y-76711429D01*
X81362856Y-76640000D01*
X81291428Y-76568571D01*
X81291428Y-76711429D01*
X82005714Y-77068571D02*
X82005714Y-78068571D01*
X82005714Y-77211429D02*
X82077142Y-77140000D01*
X82220000Y-77068571D01*
X82434285Y-77068571D01*
X82577142Y-77140000D01*
X82648571Y-77282857D01*
X82648571Y-78068571D01*
X88900000Y-78740000D02*
X66040000Y-78740000D01*
X88900000Y-151384000D02*
X88900000Y-76040000D01*
X66040000Y-151384000D02*
X66040000Y-76040000D01*
X66040000Y-78740000D02*
X67166504Y-78153579D01*
X66040000Y-78740000D02*
X67166504Y-79326421D01*
X88900000Y-78740000D02*
X87773496Y-78153579D01*
X88900000Y-78740000D02*
X87773496Y-79326421D01*
X86793144Y-62320571D02*
X85936001Y-62320571D01*
X86364573Y-62320571D02*
X86364573Y-60820571D01*
X86221716Y-61034857D01*
X86078858Y-61177714D01*
X85936001Y-61249143D01*
X87436001Y-62177714D02*
X87507429Y-62249143D01*
X87436001Y-62320571D01*
X87364572Y-62249143D01*
X87436001Y-62177714D01*
X87436001Y-62320571D01*
X88221715Y-62320571D02*
X88507430Y-62320571D01*
X88650287Y-62249143D01*
X88721715Y-62177714D01*
X88864573Y-61963429D01*
X88936001Y-61677714D01*
X88936001Y-61106286D01*
X88864573Y-60963429D01*
X88793144Y-60892000D01*
X88650287Y-60820571D01*
X88364573Y-60820571D01*
X88221715Y-60892000D01*
X88150287Y-60963429D01*
X88078858Y-61106286D01*
X88078858Y-61463429D01*
X88150287Y-61606286D01*
X88221715Y-61677714D01*
X88364573Y-61749143D01*
X88650287Y-61749143D01*
X88793144Y-61677714D01*
X88864573Y-61606286D01*
X88936001Y-61463429D01*
X89793144Y-61463429D02*
X89650286Y-61392000D01*
X89578858Y-61320571D01*
X89507429Y-61177714D01*
X89507429Y-61106286D01*
X89578858Y-60963429D01*
X89650286Y-60892000D01*
X89793144Y-60820571D01*
X90078858Y-60820571D01*
X90221715Y-60892000D01*
X90293144Y-60963429D01*
X90364572Y-61106286D01*
X90364572Y-61177714D01*
X90293144Y-61320571D01*
X90221715Y-61392000D01*
X90078858Y-61463429D01*
X89793144Y-61463429D01*
X89650286Y-61534857D01*
X89578858Y-61606286D01*
X89507429Y-61749143D01*
X89507429Y-62034857D01*
X89578858Y-62177714D01*
X89650286Y-62249143D01*
X89793144Y-62320571D01*
X90078858Y-62320571D01*
X90221715Y-62249143D01*
X90293144Y-62177714D01*
X90364572Y-62034857D01*
X90364572Y-61749143D01*
X90293144Y-61606286D01*
X90221715Y-61534857D01*
X90078858Y-61463429D01*
X91293143Y-60820571D02*
X91436000Y-60820571D01*
X91578857Y-60892000D01*
X91650286Y-60963429D01*
X91721715Y-61106286D01*
X91793143Y-61392000D01*
X91793143Y-61749143D01*
X91721715Y-62034857D01*
X91650286Y-62177714D01*
X91578857Y-62249143D01*
X91436000Y-62320571D01*
X91293143Y-62320571D01*
X91150286Y-62249143D01*
X91078857Y-62177714D01*
X91007429Y-62034857D01*
X90936000Y-61749143D01*
X90936000Y-61392000D01*
X91007429Y-61106286D01*
X91078857Y-60963429D01*
X91150286Y-60892000D01*
X91293143Y-60820571D01*
X92721714Y-60820571D02*
X92864571Y-60820571D01*
X93007428Y-60892000D01*
X93078857Y-60963429D01*
X93150286Y-61106286D01*
X93221714Y-61392000D01*
X93221714Y-61749143D01*
X93150286Y-62034857D01*
X93078857Y-62177714D01*
X93007428Y-62249143D01*
X92864571Y-62320571D01*
X92721714Y-62320571D01*
X92578857Y-62249143D01*
X92507428Y-62177714D01*
X92436000Y-62034857D01*
X92364571Y-61749143D01*
X92364571Y-61392000D01*
X92436000Y-61106286D01*
X92507428Y-60963429D01*
X92578857Y-60892000D01*
X92721714Y-60820571D01*
X95007428Y-62320571D02*
X95007428Y-61320571D01*
X95007428Y-60820571D02*
X94935999Y-60892000D01*
X95007428Y-60963429D01*
X95078856Y-60892000D01*
X95007428Y-60820571D01*
X95007428Y-60963429D01*
X95721714Y-61320571D02*
X95721714Y-62320571D01*
X95721714Y-61463429D02*
X95793142Y-61392000D01*
X95936000Y-61320571D01*
X96150285Y-61320571D01*
X96293142Y-61392000D01*
X96364571Y-61534857D01*
X96364571Y-62320571D01*
X116332000Y-62992000D02*
X66040000Y-62992000D01*
X116332000Y-138176000D02*
X116332000Y-60292000D01*
X66040000Y-138176000D02*
X66040000Y-60292000D01*
X66040000Y-62992000D02*
X67166504Y-62405579D01*
X66040000Y-62992000D02*
X67166504Y-63578421D01*
X116332000Y-62992000D02*
X115205496Y-62405579D01*
X116332000Y-62992000D02*
X115205496Y-63578421D01*
X104660573Y-44564571D02*
X105589144Y-44564571D01*
X105089144Y-45136000D01*
X105303430Y-45136000D01*
X105446287Y-45207429D01*
X105517716Y-45278857D01*
X105589144Y-45421714D01*
X105589144Y-45778857D01*
X105517716Y-45921714D01*
X105446287Y-45993143D01*
X105303430Y-46064571D01*
X104874858Y-46064571D01*
X104732001Y-45993143D01*
X104660573Y-45921714D01*
X106232001Y-45921714D02*
X106303429Y-45993143D01*
X106232001Y-46064571D01*
X106160572Y-45993143D01*
X106232001Y-45921714D01*
X106232001Y-46064571D01*
X107589144Y-45064571D02*
X107589144Y-46064571D01*
X107232001Y-44493143D02*
X106874858Y-45564571D01*
X107803430Y-45564571D01*
X109017715Y-44564571D02*
X108732001Y-44564571D01*
X108589144Y-44636000D01*
X108517715Y-44707429D01*
X108374858Y-44921714D01*
X108303429Y-45207429D01*
X108303429Y-45778857D01*
X108374858Y-45921714D01*
X108446286Y-45993143D01*
X108589144Y-46064571D01*
X108874858Y-46064571D01*
X109017715Y-45993143D01*
X109089144Y-45921714D01*
X109160572Y-45778857D01*
X109160572Y-45421714D01*
X109089144Y-45278857D01*
X109017715Y-45207429D01*
X108874858Y-45136000D01*
X108589144Y-45136000D01*
X108446286Y-45207429D01*
X108374858Y-45278857D01*
X108303429Y-45421714D01*
X110089143Y-44564571D02*
X110232000Y-44564571D01*
X110374857Y-44636000D01*
X110446286Y-44707429D01*
X110517715Y-44850286D01*
X110589143Y-45136000D01*
X110589143Y-45493143D01*
X110517715Y-45778857D01*
X110446286Y-45921714D01*
X110374857Y-45993143D01*
X110232000Y-46064571D01*
X110089143Y-46064571D01*
X109946286Y-45993143D01*
X109874857Y-45921714D01*
X109803429Y-45778857D01*
X109732000Y-45493143D01*
X109732000Y-45136000D01*
X109803429Y-44850286D01*
X109874857Y-44707429D01*
X109946286Y-44636000D01*
X110089143Y-44564571D01*
X111517714Y-44564571D02*
X111660571Y-44564571D01*
X111803428Y-44636000D01*
X111874857Y-44707429D01*
X111946286Y-44850286D01*
X112017714Y-45136000D01*
X112017714Y-45493143D01*
X111946286Y-45778857D01*
X111874857Y-45921714D01*
X111803428Y-45993143D01*
X111660571Y-46064571D01*
X111517714Y-46064571D01*
X111374857Y-45993143D01*
X111303428Y-45921714D01*
X111232000Y-45778857D01*
X111160571Y-45493143D01*
X111160571Y-45136000D01*
X111232000Y-44850286D01*
X111303428Y-44707429D01*
X111374857Y-44636000D01*
X111517714Y-44564571D01*
X113803428Y-46064571D02*
X113803428Y-45064571D01*
X113803428Y-44564571D02*
X113731999Y-44636000D01*
X113803428Y-44707429D01*
X113874856Y-44636000D01*
X113803428Y-44564571D01*
X113803428Y-44707429D01*
X114517714Y-45064571D02*
X114517714Y-46064571D01*
X114517714Y-45207429D02*
X114589142Y-45136000D01*
X114732000Y-45064571D01*
X114946285Y-45064571D01*
X115089142Y-45136000D01*
X115160571Y-45278857D01*
X115160571Y-46064571D01*
X153924000Y-46736000D02*
X66040000Y-46736000D01*
X153924000Y-96012000D02*
X153924000Y-44036000D01*
X66040000Y-96012000D02*
X66040000Y-44036000D01*
X66040000Y-46736000D02*
X67166504Y-46149579D01*
X66040000Y-46736000D02*
X67166504Y-47322421D01*
X153924000Y-46736000D02*
X152797496Y-46149579D01*
X153924000Y-46736000D02*
X152797496Y-47322421D01*
X99580573Y-51168571D02*
X100509144Y-51168571D01*
X100009144Y-51740000D01*
X100223430Y-51740000D01*
X100366287Y-51811429D01*
X100437716Y-51882857D01*
X100509144Y-52025714D01*
X100509144Y-52382857D01*
X100437716Y-52525714D01*
X100366287Y-52597143D01*
X100223430Y-52668571D01*
X99794858Y-52668571D01*
X99652001Y-52597143D01*
X99580573Y-52525714D01*
X101152001Y-52525714D02*
X101223429Y-52597143D01*
X101152001Y-52668571D01*
X101080572Y-52597143D01*
X101152001Y-52525714D01*
X101152001Y-52668571D01*
X102152001Y-51168571D02*
X102294858Y-51168571D01*
X102437715Y-51240000D01*
X102509144Y-51311429D01*
X102580573Y-51454286D01*
X102652001Y-51740000D01*
X102652001Y-52097143D01*
X102580573Y-52382857D01*
X102509144Y-52525714D01*
X102437715Y-52597143D01*
X102294858Y-52668571D01*
X102152001Y-52668571D01*
X102009144Y-52597143D01*
X101937715Y-52525714D01*
X101866287Y-52382857D01*
X101794858Y-52097143D01*
X101794858Y-51740000D01*
X101866287Y-51454286D01*
X101937715Y-51311429D01*
X102009144Y-51240000D01*
X102152001Y-51168571D01*
X103937715Y-51168571D02*
X103652001Y-51168571D01*
X103509144Y-51240000D01*
X103437715Y-51311429D01*
X103294858Y-51525714D01*
X103223429Y-51811429D01*
X103223429Y-52382857D01*
X103294858Y-52525714D01*
X103366286Y-52597143D01*
X103509144Y-52668571D01*
X103794858Y-52668571D01*
X103937715Y-52597143D01*
X104009144Y-52525714D01*
X104080572Y-52382857D01*
X104080572Y-52025714D01*
X104009144Y-51882857D01*
X103937715Y-51811429D01*
X103794858Y-51740000D01*
X103509144Y-51740000D01*
X103366286Y-51811429D01*
X103294858Y-51882857D01*
X103223429Y-52025714D01*
X105009143Y-51168571D02*
X105152000Y-51168571D01*
X105294857Y-51240000D01*
X105366286Y-51311429D01*
X105437715Y-51454286D01*
X105509143Y-51740000D01*
X105509143Y-52097143D01*
X105437715Y-52382857D01*
X105366286Y-52525714D01*
X105294857Y-52597143D01*
X105152000Y-52668571D01*
X105009143Y-52668571D01*
X104866286Y-52597143D01*
X104794857Y-52525714D01*
X104723429Y-52382857D01*
X104652000Y-52097143D01*
X104652000Y-51740000D01*
X104723429Y-51454286D01*
X104794857Y-51311429D01*
X104866286Y-51240000D01*
X105009143Y-51168571D01*
X106437714Y-51168571D02*
X106580571Y-51168571D01*
X106723428Y-51240000D01*
X106794857Y-51311429D01*
X106866286Y-51454286D01*
X106937714Y-51740000D01*
X106937714Y-52097143D01*
X106866286Y-52382857D01*
X106794857Y-52525714D01*
X106723428Y-52597143D01*
X106580571Y-52668571D01*
X106437714Y-52668571D01*
X106294857Y-52597143D01*
X106223428Y-52525714D01*
X106152000Y-52382857D01*
X106080571Y-52097143D01*
X106080571Y-51740000D01*
X106152000Y-51454286D01*
X106223428Y-51311429D01*
X106294857Y-51240000D01*
X106437714Y-51168571D01*
X108723428Y-52668571D02*
X108723428Y-51668571D01*
X108723428Y-51168571D02*
X108651999Y-51240000D01*
X108723428Y-51311429D01*
X108794856Y-51240000D01*
X108723428Y-51168571D01*
X108723428Y-51311429D01*
X109437714Y-51668571D02*
X109437714Y-52668571D01*
X109437714Y-51811429D02*
X109509142Y-51740000D01*
X109652000Y-51668571D01*
X109866285Y-51668571D01*
X110009142Y-51740000D01*
X110080571Y-51882857D01*
X110080571Y-52668571D01*
X143764000Y-53340000D02*
X66040000Y-53340000D01*
X143764000Y-91440000D02*
X143764000Y-50640000D01*
X66040000Y-91440000D02*
X66040000Y-50640000D01*
X66040000Y-53340000D02*
X67166504Y-52753579D01*
X66040000Y-53340000D02*
X67166504Y-53926421D01*
X143764000Y-53340000D02*
X142637496Y-52753579D01*
X143764000Y-53340000D02*
X142637496Y-53926421D01*
X90000001Y-58423429D02*
X90071430Y-58352000D01*
X90214287Y-58280571D01*
X90571430Y-58280571D01*
X90714287Y-58352000D01*
X90785716Y-58423429D01*
X90857144Y-58566286D01*
X90857144Y-58709143D01*
X90785716Y-58923429D01*
X89928573Y-59780571D01*
X90857144Y-59780571D01*
X91500001Y-59637714D02*
X91571429Y-59709143D01*
X91500001Y-59780571D01*
X91428572Y-59709143D01*
X91500001Y-59637714D01*
X91500001Y-59780571D01*
X92071430Y-58280571D02*
X93000001Y-58280571D01*
X92500001Y-58852000D01*
X92714287Y-58852000D01*
X92857144Y-58923429D01*
X92928573Y-58994857D01*
X93000001Y-59137714D01*
X93000001Y-59494857D01*
X92928573Y-59637714D01*
X92857144Y-59709143D01*
X92714287Y-59780571D01*
X92285715Y-59780571D01*
X92142858Y-59709143D01*
X92071430Y-59637714D01*
X93928572Y-58280571D02*
X94071429Y-58280571D01*
X94214286Y-58352000D01*
X94285715Y-58423429D01*
X94357144Y-58566286D01*
X94428572Y-58852000D01*
X94428572Y-59209143D01*
X94357144Y-59494857D01*
X94285715Y-59637714D01*
X94214286Y-59709143D01*
X94071429Y-59780571D01*
X93928572Y-59780571D01*
X93785715Y-59709143D01*
X93714286Y-59637714D01*
X93642858Y-59494857D01*
X93571429Y-59209143D01*
X93571429Y-58852000D01*
X93642858Y-58566286D01*
X93714286Y-58423429D01*
X93785715Y-58352000D01*
X93928572Y-58280571D01*
X95357143Y-58280571D02*
X95500000Y-58280571D01*
X95642857Y-58352000D01*
X95714286Y-58423429D01*
X95785715Y-58566286D01*
X95857143Y-58852000D01*
X95857143Y-59209143D01*
X95785715Y-59494857D01*
X95714286Y-59637714D01*
X95642857Y-59709143D01*
X95500000Y-59780571D01*
X95357143Y-59780571D01*
X95214286Y-59709143D01*
X95142857Y-59637714D01*
X95071429Y-59494857D01*
X95000000Y-59209143D01*
X95000000Y-58852000D01*
X95071429Y-58566286D01*
X95142857Y-58423429D01*
X95214286Y-58352000D01*
X95357143Y-58280571D01*
X96785714Y-58280571D02*
X96928571Y-58280571D01*
X97071428Y-58352000D01*
X97142857Y-58423429D01*
X97214286Y-58566286D01*
X97285714Y-58852000D01*
X97285714Y-59209143D01*
X97214286Y-59494857D01*
X97142857Y-59637714D01*
X97071428Y-59709143D01*
X96928571Y-59780571D01*
X96785714Y-59780571D01*
X96642857Y-59709143D01*
X96571428Y-59637714D01*
X96500000Y-59494857D01*
X96428571Y-59209143D01*
X96428571Y-58852000D01*
X96500000Y-58566286D01*
X96571428Y-58423429D01*
X96642857Y-58352000D01*
X96785714Y-58280571D01*
X99071428Y-59780571D02*
X99071428Y-58780571D01*
X99071428Y-58280571D02*
X98999999Y-58352000D01*
X99071428Y-58423429D01*
X99142856Y-58352000D01*
X99071428Y-58280571D01*
X99071428Y-58423429D01*
X99785714Y-58780571D02*
X99785714Y-59780571D01*
X99785714Y-58923429D02*
X99857142Y-58852000D01*
X100000000Y-58780571D01*
X100214285Y-58780571D01*
X100357142Y-58852000D01*
X100428571Y-58994857D01*
X100428571Y-59780571D01*
X124460000Y-60452000D02*
X66040000Y-60452000D01*
X124460000Y-109220000D02*
X124460000Y-57752000D01*
X66040000Y-109220000D02*
X66040000Y-57752000D01*
X66040000Y-60452000D02*
X67166504Y-59865579D01*
X66040000Y-60452000D02*
X67166504Y-61038421D01*
X124460000Y-60452000D02*
X123333496Y-59865579D01*
X124460000Y-60452000D02*
X123333496Y-61038421D01*
X79427144Y-64860571D02*
X78570001Y-64860571D01*
X78998573Y-64860571D02*
X78998573Y-63360571D01*
X78855716Y-63574857D01*
X78712858Y-63717714D01*
X78570001Y-63789143D01*
X80070001Y-64717714D02*
X80141429Y-64789143D01*
X80070001Y-64860571D01*
X79998572Y-64789143D01*
X80070001Y-64717714D01*
X80070001Y-64860571D01*
X81427144Y-63860571D02*
X81427144Y-64860571D01*
X81070001Y-63289143D02*
X80712858Y-64360571D01*
X81641430Y-64360571D01*
X82498572Y-63360571D02*
X82641429Y-63360571D01*
X82784286Y-63432000D01*
X82855715Y-63503429D01*
X82927144Y-63646286D01*
X82998572Y-63932000D01*
X82998572Y-64289143D01*
X82927144Y-64574857D01*
X82855715Y-64717714D01*
X82784286Y-64789143D01*
X82641429Y-64860571D01*
X82498572Y-64860571D01*
X82355715Y-64789143D01*
X82284286Y-64717714D01*
X82212858Y-64574857D01*
X82141429Y-64289143D01*
X82141429Y-63932000D01*
X82212858Y-63646286D01*
X82284286Y-63503429D01*
X82355715Y-63432000D01*
X82498572Y-63360571D01*
X83927143Y-63360571D02*
X84070000Y-63360571D01*
X84212857Y-63432000D01*
X84284286Y-63503429D01*
X84355715Y-63646286D01*
X84427143Y-63932000D01*
X84427143Y-64289143D01*
X84355715Y-64574857D01*
X84284286Y-64717714D01*
X84212857Y-64789143D01*
X84070000Y-64860571D01*
X83927143Y-64860571D01*
X83784286Y-64789143D01*
X83712857Y-64717714D01*
X83641429Y-64574857D01*
X83570000Y-64289143D01*
X83570000Y-63932000D01*
X83641429Y-63646286D01*
X83712857Y-63503429D01*
X83784286Y-63432000D01*
X83927143Y-63360571D01*
X85355714Y-63360571D02*
X85498571Y-63360571D01*
X85641428Y-63432000D01*
X85712857Y-63503429D01*
X85784286Y-63646286D01*
X85855714Y-63932000D01*
X85855714Y-64289143D01*
X85784286Y-64574857D01*
X85712857Y-64717714D01*
X85641428Y-64789143D01*
X85498571Y-64860571D01*
X85355714Y-64860571D01*
X85212857Y-64789143D01*
X85141428Y-64717714D01*
X85070000Y-64574857D01*
X84998571Y-64289143D01*
X84998571Y-63932000D01*
X85070000Y-63646286D01*
X85141428Y-63503429D01*
X85212857Y-63432000D01*
X85355714Y-63360571D01*
X87641428Y-64860571D02*
X87641428Y-63860571D01*
X87641428Y-63360571D02*
X87569999Y-63432000D01*
X87641428Y-63503429D01*
X87712856Y-63432000D01*
X87641428Y-63360571D01*
X87641428Y-63503429D01*
X88355714Y-63860571D02*
X88355714Y-64860571D01*
X88355714Y-64003429D02*
X88427142Y-63932000D01*
X88570000Y-63860571D01*
X88784285Y-63860571D01*
X88927142Y-63932000D01*
X88998571Y-64074857D01*
X88998571Y-64860571D01*
X101600000Y-65532000D02*
X66040000Y-65532000D01*
X101600000Y-109220000D02*
X101600000Y-62832000D01*
X66040000Y-109220000D02*
X66040000Y-62832000D01*
X66040000Y-65532000D02*
X67166504Y-64945579D01*
X66040000Y-65532000D02*
X67166504Y-66118421D01*
X101600000Y-65532000D02*
X100473496Y-64945579D01*
X101600000Y-65532000D02*
X100473496Y-66118421D01*
X76887144Y-70448571D02*
X76030001Y-70448571D01*
X76458573Y-70448571D02*
X76458573Y-68948571D01*
X76315716Y-69162857D01*
X76172858Y-69305714D01*
X76030001Y-69377143D01*
X77530001Y-70305714D02*
X77601429Y-70377143D01*
X77530001Y-70448571D01*
X77458572Y-70377143D01*
X77530001Y-70305714D01*
X77530001Y-70448571D01*
X78172858Y-69091429D02*
X78244287Y-69020000D01*
X78387144Y-68948571D01*
X78744287Y-68948571D01*
X78887144Y-69020000D01*
X78958573Y-69091429D01*
X79030001Y-69234286D01*
X79030001Y-69377143D01*
X78958573Y-69591429D01*
X78101430Y-70448571D01*
X79030001Y-70448571D01*
X79958572Y-68948571D02*
X80101429Y-68948571D01*
X80244286Y-69020000D01*
X80315715Y-69091429D01*
X80387144Y-69234286D01*
X80458572Y-69520000D01*
X80458572Y-69877143D01*
X80387144Y-70162857D01*
X80315715Y-70305714D01*
X80244286Y-70377143D01*
X80101429Y-70448571D01*
X79958572Y-70448571D01*
X79815715Y-70377143D01*
X79744286Y-70305714D01*
X79672858Y-70162857D01*
X79601429Y-69877143D01*
X79601429Y-69520000D01*
X79672858Y-69234286D01*
X79744286Y-69091429D01*
X79815715Y-69020000D01*
X79958572Y-68948571D01*
X81387143Y-68948571D02*
X81530000Y-68948571D01*
X81672857Y-69020000D01*
X81744286Y-69091429D01*
X81815715Y-69234286D01*
X81887143Y-69520000D01*
X81887143Y-69877143D01*
X81815715Y-70162857D01*
X81744286Y-70305714D01*
X81672857Y-70377143D01*
X81530000Y-70448571D01*
X81387143Y-70448571D01*
X81244286Y-70377143D01*
X81172857Y-70305714D01*
X81101429Y-70162857D01*
X81030000Y-69877143D01*
X81030000Y-69520000D01*
X81101429Y-69234286D01*
X81172857Y-69091429D01*
X81244286Y-69020000D01*
X81387143Y-68948571D01*
X82815714Y-68948571D02*
X82958571Y-68948571D01*
X83101428Y-69020000D01*
X83172857Y-69091429D01*
X83244286Y-69234286D01*
X83315714Y-69520000D01*
X83315714Y-69877143D01*
X83244286Y-70162857D01*
X83172857Y-70305714D01*
X83101428Y-70377143D01*
X82958571Y-70448571D01*
X82815714Y-70448571D01*
X82672857Y-70377143D01*
X82601428Y-70305714D01*
X82530000Y-70162857D01*
X82458571Y-69877143D01*
X82458571Y-69520000D01*
X82530000Y-69234286D01*
X82601428Y-69091429D01*
X82672857Y-69020000D01*
X82815714Y-68948571D01*
X85101428Y-70448571D02*
X85101428Y-69448571D01*
X85101428Y-68948571D02*
X85029999Y-69020000D01*
X85101428Y-69091429D01*
X85172856Y-69020000D01*
X85101428Y-68948571D01*
X85101428Y-69091429D01*
X85815714Y-69448571D02*
X85815714Y-70448571D01*
X85815714Y-69591429D02*
X85887142Y-69520000D01*
X86030000Y-69448571D01*
X86244285Y-69448571D01*
X86387142Y-69520000D01*
X86458571Y-69662857D01*
X86458571Y-70448571D01*
X96520000Y-71120000D02*
X66040000Y-71120000D01*
X96520000Y-138684000D02*
X96520000Y-68420000D01*
X66040000Y-138684000D02*
X66040000Y-68420000D01*
X66040000Y-71120000D02*
X67166504Y-70533579D01*
X66040000Y-71120000D02*
X67166504Y-71706421D01*
X96520000Y-71120000D02*
X95393496Y-70533579D01*
X96520000Y-71120000D02*
X95393496Y-71706421D01*
X112304287Y-176288570D02*
X112304287Y-177288570D01*
X111947144Y-175717142D02*
X111590001Y-176788570D01*
X112518573Y-176788570D01*
X113090001Y-177145713D02*
X113161429Y-177217142D01*
X113090001Y-177288570D01*
X113018572Y-177217142D01*
X113090001Y-177145713D01*
X113090001Y-177288570D01*
X114090001Y-175788570D02*
X114232858Y-175788570D01*
X114375715Y-175859999D01*
X114447144Y-175931428D01*
X114518573Y-176074285D01*
X114590001Y-176359999D01*
X114590001Y-176717142D01*
X114518573Y-177002856D01*
X114447144Y-177145713D01*
X114375715Y-177217142D01*
X114232858Y-177288570D01*
X114090001Y-177288570D01*
X113947144Y-177217142D01*
X113875715Y-177145713D01*
X113804287Y-177002856D01*
X113732858Y-176717142D01*
X113732858Y-176359999D01*
X113804287Y-176074285D01*
X113875715Y-175931428D01*
X113947144Y-175859999D01*
X114090001Y-175788570D01*
X115518572Y-175788570D02*
X115661429Y-175788570D01*
X115804286Y-175859999D01*
X115875715Y-175931428D01*
X115947144Y-176074285D01*
X116018572Y-176359999D01*
X116018572Y-176717142D01*
X115947144Y-177002856D01*
X115875715Y-177145713D01*
X115804286Y-177217142D01*
X115661429Y-177288570D01*
X115518572Y-177288570D01*
X115375715Y-177217142D01*
X115304286Y-177145713D01*
X115232858Y-177002856D01*
X115161429Y-176717142D01*
X115161429Y-176359999D01*
X115232858Y-176074285D01*
X115304286Y-175931428D01*
X115375715Y-175859999D01*
X115518572Y-175788570D01*
X116947143Y-175788570D02*
X117090000Y-175788570D01*
X117232857Y-175859999D01*
X117304286Y-175931428D01*
X117375715Y-176074285D01*
X117447143Y-176359999D01*
X117447143Y-176717142D01*
X117375715Y-177002856D01*
X117304286Y-177145713D01*
X117232857Y-177217142D01*
X117090000Y-177288570D01*
X116947143Y-177288570D01*
X116804286Y-177217142D01*
X116732857Y-177145713D01*
X116661429Y-177002856D01*
X116590000Y-176717142D01*
X116590000Y-176359999D01*
X116661429Y-176074285D01*
X116732857Y-175931428D01*
X116804286Y-175859999D01*
X116947143Y-175788570D01*
X118375714Y-175788570D02*
X118518571Y-175788570D01*
X118661428Y-175859999D01*
X118732857Y-175931428D01*
X118804286Y-176074285D01*
X118875714Y-176359999D01*
X118875714Y-176717142D01*
X118804286Y-177002856D01*
X118732857Y-177145713D01*
X118661428Y-177217142D01*
X118518571Y-177288570D01*
X118375714Y-177288570D01*
X118232857Y-177217142D01*
X118161428Y-177145713D01*
X118090000Y-177002856D01*
X118018571Y-176717142D01*
X118018571Y-176359999D01*
X118090000Y-176074285D01*
X118161428Y-175931428D01*
X118232857Y-175859999D01*
X118375714Y-175788570D01*
X120661428Y-177288570D02*
X120661428Y-176288570D01*
X120661428Y-175788570D02*
X120589999Y-175859999D01*
X120661428Y-175931428D01*
X120732856Y-175859999D01*
X120661428Y-175788570D01*
X120661428Y-175931428D01*
X121375714Y-176288570D02*
X121375714Y-177288570D01*
X121375714Y-176431428D02*
X121447142Y-176359999D01*
X121590000Y-176288570D01*
X121804285Y-176288570D01*
X121947142Y-176359999D01*
X122018571Y-176502856D01*
X122018571Y-177288570D01*
X66040000Y-175259999D02*
X167640000Y-175259999D01*
X66040000Y-162560000D02*
X66040000Y-177959999D01*
X167640000Y-162560000D02*
X167640000Y-177959999D01*
X167640000Y-175259999D02*
X166513496Y-175846420D01*
X167640000Y-175259999D02*
X166513496Y-174673578D01*
X66040000Y-175259999D02*
X67166504Y-175846420D01*
X66040000Y-175259999D02*
X67166504Y-174673578D01*
M02*
