G04 #@! TF.FileFunction,Soldermask,Bot*
%FSLAX46Y46*%
G04 Gerber Fmt 4.6, Leading zero omitted, Abs format (unit mm)*
G04 Created by KiCad (PCBNEW 4.0.5) date Sunday, March 26, 2017 'PMt' 05:08:58 PM*
%MOMM*%
%LPD*%
G01*
G04 APERTURE LIST*
%ADD10C,0.100000*%
%ADD11C,1.924000*%
%ADD12R,3.400000X3.400000*%
%ADD13C,1.700000*%
%ADD14R,1.700000X1.700000*%
%ADD15R,2.635200X2.635200*%
%ADD16R,2.432000X2.432000*%
%ADD17O,2.432000X2.432000*%
%ADD18R,2.051000X2.051000*%
%ADD19C,2.051000*%
%ADD20R,2.300000X2.400000*%
%ADD21C,2.300000*%
%ADD22O,1.670000X1.670000*%
%ADD23C,3.400000*%
G04 APERTURE END LIST*
D10*
D11*
X91440000Y-150876000D03*
X88900000Y-148336000D03*
X86360000Y-150876000D03*
D12*
X164592000Y-140716000D03*
X164592000Y-137160000D03*
X164592000Y-144272000D03*
X109728000Y-143256000D03*
D13*
X161290000Y-111720000D03*
D14*
X161290000Y-109220000D03*
D15*
X85090000Y-158115000D03*
X97028000Y-148336000D03*
D16*
X162306000Y-151892000D03*
D17*
X162306000Y-154432000D03*
D18*
X74930000Y-97790000D03*
D19*
X74930000Y-90170000D03*
X82550000Y-90170000D03*
X82550000Y-97790000D03*
D20*
X142240000Y-102870000D03*
D21*
X144780000Y-102870000D03*
D20*
X142240000Y-91440000D03*
D21*
X144780000Y-91440000D03*
D13*
X153670000Y-111720000D03*
D14*
X153670000Y-109220000D03*
D16*
X163830000Y-99695000D03*
D17*
X163830000Y-102235000D03*
D16*
X163830000Y-90805000D03*
D17*
X163830000Y-93345000D03*
D22*
X94968536Y-144474145D03*
X93522800Y-143875302D03*
X92281320Y-142922680D03*
X90525600Y-138684000D03*
X91328698Y-135686800D03*
X92281320Y-134445320D03*
X96520000Y-132689600D03*
X99517199Y-133492698D03*
X100758680Y-134445320D03*
X102514400Y-138684000D03*
X101711302Y-141681199D03*
X100758680Y-142922680D03*
X96520000Y-144678400D03*
X100048536Y-115010145D03*
X98602800Y-114411302D03*
X97361320Y-113458680D03*
X95605600Y-109220000D03*
X96408698Y-106222800D03*
X97361320Y-104981320D03*
X101600000Y-103225600D03*
X104597199Y-104028698D03*
X105838680Y-104981320D03*
X107594400Y-109220000D03*
X106791302Y-112217199D03*
X105838680Y-113458680D03*
X101600000Y-115214400D03*
X130250145Y-110771464D03*
X129651302Y-112217200D03*
X128698680Y-113458680D03*
X124460000Y-115214400D03*
X121462800Y-114411302D03*
X120221320Y-113458680D03*
X118465600Y-109220000D03*
X119268698Y-106222801D03*
X120221320Y-104981320D03*
X124460000Y-103225600D03*
X127457199Y-104028698D03*
X128698680Y-104981320D03*
X130454400Y-109220000D03*
D23*
X151409400Y-100838000D03*
X156210000Y-100838000D03*
X151409400Y-96139000D03*
X156210000Y-96139000D03*
X151409400Y-91440000D03*
X156210000Y-91440000D03*
X116205000Y-142748000D03*
X116205000Y-138049000D03*
X116205000Y-133350000D03*
M02*
