G04 #@! TF.FileFunction,Other,Fab,Top*
%FSLAX46Y46*%
G04 Gerber Fmt 4.6, Leading zero omitted, Abs format (unit mm)*
G04 Created by KiCad (PCBNEW 4.0.5) date Monday, May 22, 2017 'PMt' 09:48:53 PM*
%MOMM*%
%LPD*%
G01*
G04 APERTURE LIST*
%ADD10C,0.100000*%
%ADD11C,0.150000*%
%ADD12C,0.300000*%
%ADD13C,0.400000*%
G04 APERTURE END LIST*
D10*
D11*
X177002200Y-166007200D02*
X177002200Y-198007200D01*
X285002200Y-198007200D01*
X285002200Y-166007200D01*
X177002200Y-166007200D01*
D10*
D11*
X10000000Y-10000000D02*
X10000000Y-200007200D01*
X287002200Y-200007200D01*
X287002200Y-10000000D01*
X10000000Y-10000000D01*
D10*
D11*
X12000000Y-12000000D02*
X12000000Y-198007200D01*
X285002200Y-198007200D01*
X285002200Y-12000000D01*
X12000000Y-12000000D01*
D10*
D11*
X60000000Y-12000000D02*
X60000000Y-10000000D01*
D10*
D11*
X110000000Y-12000000D02*
X110000000Y-10000000D01*
D10*
D11*
X160000000Y-12000000D02*
X160000000Y-10000000D01*
D10*
D11*
X210000000Y-12000000D02*
X210000000Y-10000000D01*
D10*
D11*
X260000000Y-12000000D02*
X260000000Y-10000000D01*
D10*
D11*
X35990476Y-11588095D02*
X35247619Y-11588095D01*
X35619048Y-11588095D02*
X35619048Y-10288095D01*
X35495238Y-10473810D01*
X35371429Y-10597619D01*
X35247619Y-10659524D01*
D10*
D11*
X85247619Y-10411905D02*
X85309524Y-10350000D01*
X85433333Y-10288095D01*
X85742857Y-10288095D01*
X85866667Y-10350000D01*
X85928571Y-10411905D01*
X85990476Y-10535714D01*
X85990476Y-10659524D01*
X85928571Y-10845238D01*
X85185714Y-11588095D01*
X85990476Y-11588095D01*
D10*
D11*
X135185714Y-10288095D02*
X135990476Y-10288095D01*
X135557143Y-10783333D01*
X135742857Y-10783333D01*
X135866667Y-10845238D01*
X135928571Y-10907143D01*
X135990476Y-11030952D01*
X135990476Y-11340476D01*
X135928571Y-11464286D01*
X135866667Y-11526190D01*
X135742857Y-11588095D01*
X135371429Y-11588095D01*
X135247619Y-11526190D01*
X135185714Y-11464286D01*
D10*
D11*
X185866667Y-10721429D02*
X185866667Y-11588095D01*
X185557143Y-10226190D02*
X185247619Y-11154762D01*
X186052381Y-11154762D01*
D10*
D11*
X235928571Y-10288095D02*
X235309524Y-10288095D01*
X235247619Y-10907143D01*
X235309524Y-10845238D01*
X235433333Y-10783333D01*
X235742857Y-10783333D01*
X235866667Y-10845238D01*
X235928571Y-10907143D01*
X235990476Y-11030952D01*
X235990476Y-11340476D01*
X235928571Y-11464286D01*
X235866667Y-11526190D01*
X235742857Y-11588095D01*
X235433333Y-11588095D01*
X235309524Y-11526190D01*
X235247619Y-11464286D01*
D10*
D11*
X285866667Y-10288095D02*
X285619048Y-10288095D01*
X285495238Y-10350000D01*
X285433333Y-10411905D01*
X285309524Y-10597619D01*
X285247619Y-10845238D01*
X285247619Y-11340476D01*
X285309524Y-11464286D01*
X285371429Y-11526190D01*
X285495238Y-11588095D01*
X285742857Y-11588095D01*
X285866667Y-11526190D01*
X285928571Y-11464286D01*
X285990476Y-11340476D01*
X285990476Y-11030952D01*
X285928571Y-10907143D01*
X285866667Y-10845238D01*
X285742857Y-10783333D01*
X285495238Y-10783333D01*
X285371429Y-10845238D01*
X285309524Y-10907143D01*
X285247619Y-11030952D01*
D10*
D11*
X60000000Y-198007200D02*
X60000000Y-200007200D01*
D10*
D11*
X110000000Y-198007200D02*
X110000000Y-200007200D01*
D10*
D11*
X160000000Y-198007200D02*
X160000000Y-200007200D01*
D10*
D11*
X210000000Y-198007200D02*
X210000000Y-200007200D01*
D10*
D11*
X260000000Y-198007200D02*
X260000000Y-200007200D01*
D10*
D11*
X35990476Y-199595295D02*
X35247619Y-199595295D01*
X35619048Y-199595295D02*
X35619048Y-198295295D01*
X35495238Y-198481010D01*
X35371429Y-198604819D01*
X35247619Y-198666724D01*
D10*
D11*
X85247619Y-198419105D02*
X85309524Y-198357200D01*
X85433333Y-198295295D01*
X85742857Y-198295295D01*
X85866667Y-198357200D01*
X85928571Y-198419105D01*
X85990476Y-198542914D01*
X85990476Y-198666724D01*
X85928571Y-198852438D01*
X85185714Y-199595295D01*
X85990476Y-199595295D01*
D10*
D11*
X135185714Y-198295295D02*
X135990476Y-198295295D01*
X135557143Y-198790533D01*
X135742857Y-198790533D01*
X135866667Y-198852438D01*
X135928571Y-198914343D01*
X135990476Y-199038152D01*
X135990476Y-199347676D01*
X135928571Y-199471486D01*
X135866667Y-199533390D01*
X135742857Y-199595295D01*
X135371429Y-199595295D01*
X135247619Y-199533390D01*
X135185714Y-199471486D01*
D10*
D11*
X185866667Y-198728629D02*
X185866667Y-199595295D01*
X185557143Y-198233390D02*
X185247619Y-199161962D01*
X186052381Y-199161962D01*
D10*
D11*
X235928571Y-198295295D02*
X235309524Y-198295295D01*
X235247619Y-198914343D01*
X235309524Y-198852438D01*
X235433333Y-198790533D01*
X235742857Y-198790533D01*
X235866667Y-198852438D01*
X235928571Y-198914343D01*
X235990476Y-199038152D01*
X235990476Y-199347676D01*
X235928571Y-199471486D01*
X235866667Y-199533390D01*
X235742857Y-199595295D01*
X235433333Y-199595295D01*
X235309524Y-199533390D01*
X235247619Y-199471486D01*
D10*
D11*
X285866667Y-198295295D02*
X285619048Y-198295295D01*
X285495238Y-198357200D01*
X285433333Y-198419105D01*
X285309524Y-198604819D01*
X285247619Y-198852438D01*
X285247619Y-199347676D01*
X285309524Y-199471486D01*
X285371429Y-199533390D01*
X285495238Y-199595295D01*
X285742857Y-199595295D01*
X285866667Y-199533390D01*
X285928571Y-199471486D01*
X285990476Y-199347676D01*
X285990476Y-199038152D01*
X285928571Y-198914343D01*
X285866667Y-198852438D01*
X285742857Y-198790533D01*
X285495238Y-198790533D01*
X285371429Y-198852438D01*
X285309524Y-198914343D01*
X285247619Y-199038152D01*
D10*
D11*
X10000000Y-60000000D02*
X12000000Y-60000000D01*
D10*
D11*
X10000000Y-110000000D02*
X12000000Y-110000000D01*
D10*
D11*
X10000000Y-160000000D02*
X12000000Y-160000000D01*
D10*
D11*
X10690476Y-35216667D02*
X11309524Y-35216667D01*
X10566667Y-35588095D02*
X11000000Y-34288095D01*
X11433333Y-35588095D01*
D10*
D11*
X11092857Y-84907143D02*
X11278571Y-84969048D01*
X11340476Y-85030952D01*
X11402381Y-85154762D01*
X11402381Y-85340476D01*
X11340476Y-85464286D01*
X11278571Y-85526190D01*
X11154762Y-85588095D01*
X10659524Y-85588095D01*
X10659524Y-84288095D01*
X11092857Y-84288095D01*
X11216667Y-84350000D01*
X11278571Y-84411905D01*
X11340476Y-84535714D01*
X11340476Y-84659524D01*
X11278571Y-84783333D01*
X11216667Y-84845238D01*
X11092857Y-84907143D01*
X10659524Y-84907143D01*
D10*
D11*
X11402381Y-135464286D02*
X11340476Y-135526190D01*
X11154762Y-135588095D01*
X11030952Y-135588095D01*
X10845238Y-135526190D01*
X10721429Y-135402381D01*
X10659524Y-135278571D01*
X10597619Y-135030952D01*
X10597619Y-134845238D01*
X10659524Y-134597619D01*
X10721429Y-134473810D01*
X10845238Y-134350000D01*
X11030952Y-134288095D01*
X11154762Y-134288095D01*
X11340476Y-134350000D01*
X11402381Y-134411905D01*
D10*
D11*
X10659524Y-185588095D02*
X10659524Y-184288095D01*
X10969048Y-184288095D01*
X11154762Y-184350000D01*
X11278571Y-184473810D01*
X11340476Y-184597619D01*
X11402381Y-184845238D01*
X11402381Y-185030952D01*
X11340476Y-185278571D01*
X11278571Y-185402381D01*
X11154762Y-185526190D01*
X10969048Y-185588095D01*
X10659524Y-185588095D01*
D10*
D11*
X287002200Y-60000000D02*
X285002200Y-60000000D01*
D10*
D11*
X287002200Y-110000000D02*
X285002200Y-110000000D01*
D10*
D11*
X287002200Y-160000000D02*
X285002200Y-160000000D01*
D10*
D11*
X285692676Y-35216667D02*
X286311724Y-35216667D01*
X285568867Y-35588095D02*
X286002200Y-34288095D01*
X286435533Y-35588095D01*
D10*
D11*
X286095057Y-84907143D02*
X286280771Y-84969048D01*
X286342676Y-85030952D01*
X286404581Y-85154762D01*
X286404581Y-85340476D01*
X286342676Y-85464286D01*
X286280771Y-85526190D01*
X286156962Y-85588095D01*
X285661724Y-85588095D01*
X285661724Y-84288095D01*
X286095057Y-84288095D01*
X286218867Y-84350000D01*
X286280771Y-84411905D01*
X286342676Y-84535714D01*
X286342676Y-84659524D01*
X286280771Y-84783333D01*
X286218867Y-84845238D01*
X286095057Y-84907143D01*
X285661724Y-84907143D01*
D10*
D11*
X286404581Y-135464286D02*
X286342676Y-135526190D01*
X286156962Y-135588095D01*
X286033152Y-135588095D01*
X285847438Y-135526190D01*
X285723629Y-135402381D01*
X285661724Y-135278571D01*
X285599819Y-135030952D01*
X285599819Y-134845238D01*
X285661724Y-134597619D01*
X285723629Y-134473810D01*
X285847438Y-134350000D01*
X286033152Y-134288095D01*
X286156962Y-134288095D01*
X286342676Y-134350000D01*
X286404581Y-134411905D01*
D10*
D11*
X285661724Y-185588095D02*
X285661724Y-184288095D01*
X285971248Y-184288095D01*
X286156962Y-184350000D01*
X286280771Y-184473810D01*
X286342676Y-184597619D01*
X286404581Y-184845238D01*
X286404581Y-185030952D01*
X286342676Y-185278571D01*
X286280771Y-185402381D01*
X286156962Y-185526190D01*
X285971248Y-185588095D01*
X285661724Y-185588095D01*
D10*
D11*
X200359343Y-193785771D02*
X200359343Y-192285771D01*
X200716486Y-192285771D01*
X200930771Y-192357200D01*
X201073629Y-192500057D01*
X201145057Y-192642914D01*
X201216486Y-192928629D01*
X201216486Y-193142914D01*
X201145057Y-193428629D01*
X201073629Y-193571486D01*
X200930771Y-193714343D01*
X200716486Y-193785771D01*
X200359343Y-193785771D01*
X202502200Y-193785771D02*
X202502200Y-193000057D01*
X202430771Y-192857200D01*
X202287914Y-192785771D01*
X202002200Y-192785771D01*
X201859343Y-192857200D01*
X202502200Y-193714343D02*
X202359343Y-193785771D01*
X202002200Y-193785771D01*
X201859343Y-193714343D01*
X201787914Y-193571486D01*
X201787914Y-193428629D01*
X201859343Y-193285771D01*
X202002200Y-193214343D01*
X202359343Y-193214343D01*
X202502200Y-193142914D01*
X203002200Y-192785771D02*
X203573629Y-192785771D01*
X203216486Y-192285771D02*
X203216486Y-193571486D01*
X203287914Y-193714343D01*
X203430772Y-193785771D01*
X203573629Y-193785771D01*
X204645057Y-193714343D02*
X204502200Y-193785771D01*
X204216486Y-193785771D01*
X204073629Y-193714343D01*
X204002200Y-193571486D01*
X204002200Y-193000057D01*
X204073629Y-192857200D01*
X204216486Y-192785771D01*
X204502200Y-192785771D01*
X204645057Y-192857200D01*
X204716486Y-193000057D01*
X204716486Y-193142914D01*
X204002200Y-193285771D01*
X205359343Y-193642914D02*
X205430771Y-193714343D01*
X205359343Y-193785771D01*
X205287914Y-193714343D01*
X205359343Y-193642914D01*
X205359343Y-193785771D01*
X205359343Y-192857200D02*
X205430771Y-192928629D01*
X205359343Y-193000057D01*
X205287914Y-192928629D01*
X205359343Y-192857200D01*
X205359343Y-193000057D01*
D10*
D11*
X177002200Y-194507200D02*
X285002200Y-194507200D01*
D10*
D11*
X178359343Y-196585771D02*
X178359343Y-195085771D01*
X179216486Y-196585771D02*
X178573629Y-195728629D01*
X179216486Y-195085771D02*
X178359343Y-195942914D01*
X179859343Y-196585771D02*
X179859343Y-195585771D01*
X179859343Y-195085771D02*
X179787914Y-195157200D01*
X179859343Y-195228629D01*
X179930771Y-195157200D01*
X179859343Y-195085771D01*
X179859343Y-195228629D01*
X181430772Y-196442914D02*
X181359343Y-196514343D01*
X181145057Y-196585771D01*
X181002200Y-196585771D01*
X180787915Y-196514343D01*
X180645057Y-196371486D01*
X180573629Y-196228629D01*
X180502200Y-195942914D01*
X180502200Y-195728629D01*
X180573629Y-195442914D01*
X180645057Y-195300057D01*
X180787915Y-195157200D01*
X181002200Y-195085771D01*
X181145057Y-195085771D01*
X181359343Y-195157200D01*
X181430772Y-195228629D01*
X182716486Y-196585771D02*
X182716486Y-195800057D01*
X182645057Y-195657200D01*
X182502200Y-195585771D01*
X182216486Y-195585771D01*
X182073629Y-195657200D01*
X182716486Y-196514343D02*
X182573629Y-196585771D01*
X182216486Y-196585771D01*
X182073629Y-196514343D01*
X182002200Y-196371486D01*
X182002200Y-196228629D01*
X182073629Y-196085771D01*
X182216486Y-196014343D01*
X182573629Y-196014343D01*
X182716486Y-195942914D01*
X184073629Y-196585771D02*
X184073629Y-195085771D01*
X184073629Y-196514343D02*
X183930772Y-196585771D01*
X183645058Y-196585771D01*
X183502200Y-196514343D01*
X183430772Y-196442914D01*
X183359343Y-196300057D01*
X183359343Y-195871486D01*
X183430772Y-195728629D01*
X183502200Y-195657200D01*
X183645058Y-195585771D01*
X183930772Y-195585771D01*
X184073629Y-195657200D01*
X185930772Y-195800057D02*
X186430772Y-195800057D01*
X186645058Y-196585771D02*
X185930772Y-196585771D01*
X185930772Y-195085771D01*
X186645058Y-195085771D01*
X187287915Y-196442914D02*
X187359343Y-196514343D01*
X187287915Y-196585771D01*
X187216486Y-196514343D01*
X187287915Y-196442914D01*
X187287915Y-196585771D01*
X188002201Y-196585771D02*
X188002201Y-195085771D01*
X188359344Y-195085771D01*
X188573629Y-195157200D01*
X188716487Y-195300057D01*
X188787915Y-195442914D01*
X188859344Y-195728629D01*
X188859344Y-195942914D01*
X188787915Y-196228629D01*
X188716487Y-196371486D01*
X188573629Y-196514343D01*
X188359344Y-196585771D01*
X188002201Y-196585771D01*
X189502201Y-196442914D02*
X189573629Y-196514343D01*
X189502201Y-196585771D01*
X189430772Y-196514343D01*
X189502201Y-196442914D01*
X189502201Y-196585771D01*
X190145058Y-196157200D02*
X190859344Y-196157200D01*
X190002201Y-196585771D02*
X190502201Y-195085771D01*
X191002201Y-196585771D01*
X191502201Y-196442914D02*
X191573629Y-196514343D01*
X191502201Y-196585771D01*
X191430772Y-196514343D01*
X191502201Y-196442914D01*
X191502201Y-196585771D01*
X194502201Y-196585771D02*
X194502201Y-195085771D01*
X194645058Y-196014343D02*
X195073629Y-196585771D01*
X195073629Y-195585771D02*
X194502201Y-196157200D01*
X195716487Y-196585771D02*
X195716487Y-195585771D01*
X195716487Y-195085771D02*
X195645058Y-195157200D01*
X195716487Y-195228629D01*
X195787915Y-195157200D01*
X195716487Y-195085771D01*
X195716487Y-195228629D01*
X197073630Y-196514343D02*
X196930773Y-196585771D01*
X196645059Y-196585771D01*
X196502201Y-196514343D01*
X196430773Y-196442914D01*
X196359344Y-196300057D01*
X196359344Y-195871486D01*
X196430773Y-195728629D01*
X196502201Y-195657200D01*
X196645059Y-195585771D01*
X196930773Y-195585771D01*
X197073630Y-195657200D01*
X198359344Y-196585771D02*
X198359344Y-195800057D01*
X198287915Y-195657200D01*
X198145058Y-195585771D01*
X197859344Y-195585771D01*
X197716487Y-195657200D01*
X198359344Y-196514343D02*
X198216487Y-196585771D01*
X197859344Y-196585771D01*
X197716487Y-196514343D01*
X197645058Y-196371486D01*
X197645058Y-196228629D01*
X197716487Y-196085771D01*
X197859344Y-196014343D01*
X198216487Y-196014343D01*
X198359344Y-195942914D01*
X199716487Y-196585771D02*
X199716487Y-195085771D01*
X199716487Y-196514343D02*
X199573630Y-196585771D01*
X199287916Y-196585771D01*
X199145058Y-196514343D01*
X199073630Y-196442914D01*
X199002201Y-196300057D01*
X199002201Y-195871486D01*
X199073630Y-195728629D01*
X199145058Y-195657200D01*
X199287916Y-195585771D01*
X199573630Y-195585771D01*
X199716487Y-195657200D01*
X202216487Y-195585771D02*
X202216487Y-196585771D01*
X201859344Y-195014343D02*
X201502201Y-196085771D01*
X202430773Y-196085771D01*
X203002201Y-196442914D02*
X203073629Y-196514343D01*
X203002201Y-196585771D01*
X202930772Y-196514343D01*
X203002201Y-196442914D01*
X203002201Y-196585771D01*
X204002201Y-195085771D02*
X204145058Y-195085771D01*
X204287915Y-195157200D01*
X204359344Y-195228629D01*
X204430773Y-195371486D01*
X204502201Y-195657200D01*
X204502201Y-196014343D01*
X204430773Y-196300057D01*
X204359344Y-196442914D01*
X204287915Y-196514343D01*
X204145058Y-196585771D01*
X204002201Y-196585771D01*
X203859344Y-196514343D01*
X203787915Y-196442914D01*
X203716487Y-196300057D01*
X203645058Y-196014343D01*
X203645058Y-195657200D01*
X203716487Y-195371486D01*
X203787915Y-195228629D01*
X203859344Y-195157200D01*
X204002201Y-195085771D01*
X205145058Y-196442914D02*
X205216486Y-196514343D01*
X205145058Y-196585771D01*
X205073629Y-196514343D01*
X205145058Y-196442914D01*
X205145058Y-196585771D01*
X206573630Y-195085771D02*
X205859344Y-195085771D01*
X205787915Y-195800057D01*
X205859344Y-195728629D01*
X206002201Y-195657200D01*
X206359344Y-195657200D01*
X206502201Y-195728629D01*
X206573630Y-195800057D01*
X206645058Y-195942914D01*
X206645058Y-196300057D01*
X206573630Y-196442914D01*
X206502201Y-196514343D01*
X206359344Y-196585771D01*
X206002201Y-196585771D01*
X205859344Y-196514343D01*
X205787915Y-196442914D01*
D10*
D11*
X177002200Y-191507200D02*
X285002200Y-191507200D01*
D10*
D12*
X264216486Y-193785771D02*
X263716486Y-193071486D01*
X263359343Y-193785771D02*
X263359343Y-192285771D01*
X263930771Y-192285771D01*
X264073629Y-192357200D01*
X264145057Y-192428629D01*
X264216486Y-192571486D01*
X264216486Y-192785771D01*
X264145057Y-192928629D01*
X264073629Y-193000057D01*
X263930771Y-193071486D01*
X263359343Y-193071486D01*
X265430771Y-193714343D02*
X265287914Y-193785771D01*
X265002200Y-193785771D01*
X264859343Y-193714343D01*
X264787914Y-193571486D01*
X264787914Y-193000057D01*
X264859343Y-192857200D01*
X265002200Y-192785771D01*
X265287914Y-192785771D01*
X265430771Y-192857200D01*
X265502200Y-193000057D01*
X265502200Y-193142914D01*
X264787914Y-193285771D01*
X266002200Y-192785771D02*
X266359343Y-193785771D01*
X266716485Y-192785771D01*
X267287914Y-193642914D02*
X267359342Y-193714343D01*
X267287914Y-193785771D01*
X267216485Y-193714343D01*
X267287914Y-193642914D01*
X267287914Y-193785771D01*
X267287914Y-192857200D02*
X267359342Y-192928629D01*
X267287914Y-193000057D01*
X267216485Y-192928629D01*
X267287914Y-192857200D01*
X267287914Y-193000057D01*
X269073628Y-192428629D02*
X269145057Y-192357200D01*
X269287914Y-192285771D01*
X269645057Y-192285771D01*
X269787914Y-192357200D01*
X269859343Y-192428629D01*
X269930771Y-192571486D01*
X269930771Y-192714343D01*
X269859343Y-192928629D01*
X269002200Y-193785771D01*
X269930771Y-193785771D01*
D10*
D11*
X178287914Y-193714343D02*
X178502200Y-193785771D01*
X178859343Y-193785771D01*
X179002200Y-193714343D01*
X179073629Y-193642914D01*
X179145057Y-193500057D01*
X179145057Y-193357200D01*
X179073629Y-193214343D01*
X179002200Y-193142914D01*
X178859343Y-193071486D01*
X178573629Y-193000057D01*
X178430771Y-192928629D01*
X178359343Y-192857200D01*
X178287914Y-192714343D01*
X178287914Y-192571486D01*
X178359343Y-192428629D01*
X178430771Y-192357200D01*
X178573629Y-192285771D01*
X178930771Y-192285771D01*
X179145057Y-192357200D01*
X179787914Y-193785771D02*
X179787914Y-192785771D01*
X179787914Y-192285771D02*
X179716485Y-192357200D01*
X179787914Y-192428629D01*
X179859342Y-192357200D01*
X179787914Y-192285771D01*
X179787914Y-192428629D01*
X180359343Y-192785771D02*
X181145057Y-192785771D01*
X180359343Y-193785771D01*
X181145057Y-193785771D01*
X182287914Y-193714343D02*
X182145057Y-193785771D01*
X181859343Y-193785771D01*
X181716486Y-193714343D01*
X181645057Y-193571486D01*
X181645057Y-193000057D01*
X181716486Y-192857200D01*
X181859343Y-192785771D01*
X182145057Y-192785771D01*
X182287914Y-192857200D01*
X182359343Y-193000057D01*
X182359343Y-193142914D01*
X181645057Y-193285771D01*
X183002200Y-193642914D02*
X183073628Y-193714343D01*
X183002200Y-193785771D01*
X182930771Y-193714343D01*
X183002200Y-193642914D01*
X183002200Y-193785771D01*
X183002200Y-192857200D02*
X183073628Y-192928629D01*
X183002200Y-193000057D01*
X182930771Y-192928629D01*
X183002200Y-192857200D01*
X183002200Y-193000057D01*
X184787914Y-193357200D02*
X185502200Y-193357200D01*
X184645057Y-193785771D02*
X185145057Y-192285771D01*
X185645057Y-193785771D01*
X186787914Y-192785771D02*
X186787914Y-193785771D01*
X186430771Y-192214343D02*
X186073628Y-193285771D01*
X187002200Y-193285771D01*
D10*
D11*
X263359343Y-196585771D02*
X263359343Y-195085771D01*
X264716486Y-196585771D02*
X264716486Y-195085771D01*
X264716486Y-196514343D02*
X264573629Y-196585771D01*
X264287915Y-196585771D01*
X264145057Y-196514343D01*
X264073629Y-196442914D01*
X264002200Y-196300057D01*
X264002200Y-195871486D01*
X264073629Y-195728629D01*
X264145057Y-195657200D01*
X264287915Y-195585771D01*
X264573629Y-195585771D01*
X264716486Y-195657200D01*
X265430772Y-196442914D02*
X265502200Y-196514343D01*
X265430772Y-196585771D01*
X265359343Y-196514343D01*
X265430772Y-196442914D01*
X265430772Y-196585771D01*
X265430772Y-195657200D02*
X265502200Y-195728629D01*
X265430772Y-195800057D01*
X265359343Y-195728629D01*
X265430772Y-195657200D01*
X265430772Y-195800057D01*
X268073629Y-196585771D02*
X267216486Y-196585771D01*
X267645058Y-196585771D02*
X267645058Y-195085771D01*
X267502201Y-195300057D01*
X267359343Y-195442914D01*
X267216486Y-195514343D01*
X269787914Y-195014343D02*
X268502200Y-196942914D01*
X271073629Y-196585771D02*
X270216486Y-196585771D01*
X270645058Y-196585771D02*
X270645058Y-195085771D01*
X270502201Y-195300057D01*
X270359343Y-195442914D01*
X270216486Y-195514343D01*
D10*
D11*
X177002200Y-187507200D02*
X285002200Y-187507200D01*
D10*
D13*
X178454581Y-188211962D02*
X179597438Y-188211962D01*
X178776010Y-190211962D02*
X179026010Y-188211962D01*
X180014105Y-190211962D02*
X180180771Y-188878629D01*
X180264105Y-188211962D02*
X180156962Y-188307200D01*
X180240295Y-188402438D01*
X180347439Y-188307200D01*
X180264105Y-188211962D01*
X180240295Y-188402438D01*
X180847438Y-188878629D02*
X181609343Y-188878629D01*
X181216486Y-188211962D02*
X181002200Y-189926248D01*
X181073630Y-190116724D01*
X181252201Y-190211962D01*
X181442677Y-190211962D01*
X182395058Y-190211962D02*
X182216487Y-190116724D01*
X182145057Y-189926248D01*
X182359343Y-188211962D01*
X183930772Y-190116724D02*
X183728391Y-190211962D01*
X183347439Y-190211962D01*
X183168867Y-190116724D01*
X183097438Y-189926248D01*
X183192676Y-189164343D01*
X183311724Y-188973867D01*
X183514105Y-188878629D01*
X183895057Y-188878629D01*
X184073629Y-188973867D01*
X184145057Y-189164343D01*
X184121248Y-189354819D01*
X183145057Y-189545295D01*
X184895057Y-190021486D02*
X184978392Y-190116724D01*
X184871248Y-190211962D01*
X184787915Y-190116724D01*
X184895057Y-190021486D01*
X184871248Y-190211962D01*
X185026010Y-188973867D02*
X185109344Y-189069105D01*
X185002200Y-189164343D01*
X184918867Y-189069105D01*
X185026010Y-188973867D01*
X185002200Y-189164343D01*
X188216487Y-190116724D02*
X188014106Y-190211962D01*
X187633154Y-190211962D01*
X187454583Y-190116724D01*
X187371248Y-190021486D01*
X187299820Y-189831010D01*
X187371248Y-189259581D01*
X187490296Y-189069105D01*
X187597440Y-188973867D01*
X187799820Y-188878629D01*
X188180772Y-188878629D01*
X188359344Y-188973867D01*
X189918868Y-190211962D02*
X190049820Y-189164343D01*
X189978392Y-188973867D01*
X189799820Y-188878629D01*
X189418868Y-188878629D01*
X189216487Y-188973867D01*
X189930773Y-190116724D02*
X189728392Y-190211962D01*
X189252202Y-190211962D01*
X189073630Y-190116724D01*
X189002201Y-189926248D01*
X189026011Y-189735771D01*
X189145058Y-189545295D01*
X189347440Y-189450057D01*
X189823630Y-189450057D01*
X190026011Y-189354819D01*
X191156964Y-190211962D02*
X190978393Y-190116724D01*
X190906963Y-189926248D01*
X191121249Y-188211962D01*
X191918868Y-190211962D02*
X192168868Y-188211962D01*
X192073630Y-188973867D02*
X192276011Y-188878629D01*
X192656963Y-188878629D01*
X192835535Y-188973867D01*
X192918868Y-189069105D01*
X192990296Y-189259581D01*
X192918868Y-189831010D01*
X192799820Y-190021486D01*
X192692678Y-190116724D01*
X192490297Y-190211962D01*
X192109345Y-190211962D01*
X191930773Y-190116724D01*
X194014107Y-190211962D02*
X193835536Y-190116724D01*
X193752201Y-190021486D01*
X193680773Y-189831010D01*
X193752201Y-189259581D01*
X193871249Y-189069105D01*
X193978393Y-188973867D01*
X194180773Y-188878629D01*
X194466487Y-188878629D01*
X194645059Y-188973867D01*
X194728392Y-189069105D01*
X194799820Y-189259581D01*
X194728392Y-189831010D01*
X194609344Y-190021486D01*
X194502202Y-190116724D01*
X194299821Y-190211962D01*
X194014107Y-190211962D01*
X195347440Y-190211962D02*
X196561725Y-188878629D01*
X195514106Y-188878629D02*
X196395059Y-190211962D01*
D10*
D11*
X178859343Y-185600057D02*
X178359343Y-185600057D01*
X178359343Y-186385771D02*
X178359343Y-184885771D01*
X179073629Y-184885771D01*
X179645057Y-186385771D02*
X179645057Y-185385771D01*
X179645057Y-184885771D02*
X179573628Y-184957200D01*
X179645057Y-185028629D01*
X179716485Y-184957200D01*
X179645057Y-184885771D01*
X179645057Y-185028629D01*
X180573629Y-186385771D02*
X180430771Y-186314343D01*
X180359343Y-186171486D01*
X180359343Y-184885771D01*
X181716485Y-186314343D02*
X181573628Y-186385771D01*
X181287914Y-186385771D01*
X181145057Y-186314343D01*
X181073628Y-186171486D01*
X181073628Y-185600057D01*
X181145057Y-185457200D01*
X181287914Y-185385771D01*
X181573628Y-185385771D01*
X181716485Y-185457200D01*
X181787914Y-185600057D01*
X181787914Y-185742914D01*
X181073628Y-185885771D01*
X182430771Y-186242914D02*
X182502199Y-186314343D01*
X182430771Y-186385771D01*
X182359342Y-186314343D01*
X182430771Y-186242914D01*
X182430771Y-186385771D01*
X182430771Y-185457200D02*
X182502199Y-185528629D01*
X182430771Y-185600057D01*
X182359342Y-185528629D01*
X182430771Y-185457200D01*
X182430771Y-185600057D01*
X184930771Y-186314343D02*
X184787914Y-186385771D01*
X184502200Y-186385771D01*
X184359342Y-186314343D01*
X184287914Y-186242914D01*
X184216485Y-186100057D01*
X184216485Y-185671486D01*
X184287914Y-185528629D01*
X184359342Y-185457200D01*
X184502200Y-185385771D01*
X184787914Y-185385771D01*
X184930771Y-185457200D01*
X186216485Y-186385771D02*
X186216485Y-185600057D01*
X186145056Y-185457200D01*
X186002199Y-185385771D01*
X185716485Y-185385771D01*
X185573628Y-185457200D01*
X186216485Y-186314343D02*
X186073628Y-186385771D01*
X185716485Y-186385771D01*
X185573628Y-186314343D01*
X185502199Y-186171486D01*
X185502199Y-186028629D01*
X185573628Y-185885771D01*
X185716485Y-185814343D01*
X186073628Y-185814343D01*
X186216485Y-185742914D01*
X187145057Y-186385771D02*
X187002199Y-186314343D01*
X186930771Y-186171486D01*
X186930771Y-184885771D01*
X187716485Y-186385771D02*
X187716485Y-184885771D01*
X187716485Y-185457200D02*
X187859342Y-185385771D01*
X188145056Y-185385771D01*
X188287913Y-185457200D01*
X188359342Y-185528629D01*
X188430771Y-185671486D01*
X188430771Y-186100057D01*
X188359342Y-186242914D01*
X188287913Y-186314343D01*
X188145056Y-186385771D01*
X187859342Y-186385771D01*
X187716485Y-186314343D01*
X189287914Y-186385771D02*
X189145056Y-186314343D01*
X189073628Y-186242914D01*
X189002199Y-186100057D01*
X189002199Y-185671486D01*
X189073628Y-185528629D01*
X189145056Y-185457200D01*
X189287914Y-185385771D01*
X189502199Y-185385771D01*
X189645056Y-185457200D01*
X189716485Y-185528629D01*
X189787914Y-185671486D01*
X189787914Y-186100057D01*
X189716485Y-186242914D01*
X189645056Y-186314343D01*
X189502199Y-186385771D01*
X189287914Y-186385771D01*
X190287914Y-186385771D02*
X191073628Y-185385771D01*
X190287914Y-185385771D02*
X191073628Y-186385771D01*
X191645057Y-186242914D02*
X191716485Y-186314343D01*
X191645057Y-186385771D01*
X191573628Y-186314343D01*
X191645057Y-186242914D01*
X191645057Y-186385771D01*
X192359343Y-186385771D02*
X192359343Y-184885771D01*
X192502200Y-185814343D02*
X192930771Y-186385771D01*
X192930771Y-185385771D02*
X192359343Y-185957200D01*
X193573629Y-186385771D02*
X193573629Y-185385771D01*
X193573629Y-184885771D02*
X193502200Y-184957200D01*
X193573629Y-185028629D01*
X193645057Y-184957200D01*
X193573629Y-184885771D01*
X193573629Y-185028629D01*
X194930772Y-186314343D02*
X194787915Y-186385771D01*
X194502201Y-186385771D01*
X194359343Y-186314343D01*
X194287915Y-186242914D01*
X194216486Y-186100057D01*
X194216486Y-185671486D01*
X194287915Y-185528629D01*
X194359343Y-185457200D01*
X194502201Y-185385771D01*
X194787915Y-185385771D01*
X194930772Y-185457200D01*
X196216486Y-186385771D02*
X196216486Y-185600057D01*
X196145057Y-185457200D01*
X196002200Y-185385771D01*
X195716486Y-185385771D01*
X195573629Y-185457200D01*
X196216486Y-186314343D02*
X196073629Y-186385771D01*
X195716486Y-186385771D01*
X195573629Y-186314343D01*
X195502200Y-186171486D01*
X195502200Y-186028629D01*
X195573629Y-185885771D01*
X195716486Y-185814343D01*
X196073629Y-185814343D01*
X196216486Y-185742914D01*
X197573629Y-186385771D02*
X197573629Y-184885771D01*
X197573629Y-186314343D02*
X197430772Y-186385771D01*
X197145058Y-186385771D01*
X197002200Y-186314343D01*
X196930772Y-186242914D01*
X196859343Y-186100057D01*
X196859343Y-185671486D01*
X196930772Y-185528629D01*
X197002200Y-185457200D01*
X197145058Y-185385771D01*
X197430772Y-185385771D01*
X197573629Y-185457200D01*
X197930772Y-186528629D02*
X199073629Y-186528629D01*
X199430772Y-185385771D02*
X199430772Y-186885771D01*
X199430772Y-185457200D02*
X199573629Y-185385771D01*
X199859343Y-185385771D01*
X200002200Y-185457200D01*
X200073629Y-185528629D01*
X200145058Y-185671486D01*
X200145058Y-186100057D01*
X200073629Y-186242914D01*
X200002200Y-186314343D01*
X199859343Y-186385771D01*
X199573629Y-186385771D01*
X199430772Y-186314343D01*
X201430772Y-186314343D02*
X201287915Y-186385771D01*
X201002201Y-186385771D01*
X200859343Y-186314343D01*
X200787915Y-186242914D01*
X200716486Y-186100057D01*
X200716486Y-185671486D01*
X200787915Y-185528629D01*
X200859343Y-185457200D01*
X201002201Y-185385771D01*
X201287915Y-185385771D01*
X201430772Y-185457200D01*
X202073629Y-186385771D02*
X202073629Y-184885771D01*
X202073629Y-185457200D02*
X202216486Y-185385771D01*
X202502200Y-185385771D01*
X202645057Y-185457200D01*
X202716486Y-185528629D01*
X202787915Y-185671486D01*
X202787915Y-186100057D01*
X202716486Y-186242914D01*
X202645057Y-186314343D01*
X202502200Y-186385771D01*
X202216486Y-186385771D01*
X202073629Y-186314343D01*
D10*
D11*
X177002200Y-181507200D02*
X285002200Y-181507200D01*
D10*
D11*
X178287914Y-183614343D02*
X178502200Y-183685771D01*
X178859343Y-183685771D01*
X179002200Y-183614343D01*
X179073629Y-183542914D01*
X179145057Y-183400057D01*
X179145057Y-183257200D01*
X179073629Y-183114343D01*
X179002200Y-183042914D01*
X178859343Y-182971486D01*
X178573629Y-182900057D01*
X178430771Y-182828629D01*
X178359343Y-182757200D01*
X178287914Y-182614343D01*
X178287914Y-182471486D01*
X178359343Y-182328629D01*
X178430771Y-182257200D01*
X178573629Y-182185771D01*
X178930771Y-182185771D01*
X179145057Y-182257200D01*
X179787914Y-183685771D02*
X179787914Y-182185771D01*
X180430771Y-183685771D02*
X180430771Y-182900057D01*
X180359342Y-182757200D01*
X180216485Y-182685771D01*
X180002200Y-182685771D01*
X179859342Y-182757200D01*
X179787914Y-182828629D01*
X181716485Y-183614343D02*
X181573628Y-183685771D01*
X181287914Y-183685771D01*
X181145057Y-183614343D01*
X181073628Y-183471486D01*
X181073628Y-182900057D01*
X181145057Y-182757200D01*
X181287914Y-182685771D01*
X181573628Y-182685771D01*
X181716485Y-182757200D01*
X181787914Y-182900057D01*
X181787914Y-183042914D01*
X181073628Y-183185771D01*
X183002199Y-183614343D02*
X182859342Y-183685771D01*
X182573628Y-183685771D01*
X182430771Y-183614343D01*
X182359342Y-183471486D01*
X182359342Y-182900057D01*
X182430771Y-182757200D01*
X182573628Y-182685771D01*
X182859342Y-182685771D01*
X183002199Y-182757200D01*
X183073628Y-182900057D01*
X183073628Y-183042914D01*
X182359342Y-183185771D01*
X183502199Y-182685771D02*
X184073628Y-182685771D01*
X183716485Y-182185771D02*
X183716485Y-183471486D01*
X183787913Y-183614343D01*
X183930771Y-183685771D01*
X184073628Y-183685771D01*
X184573628Y-183542914D02*
X184645056Y-183614343D01*
X184573628Y-183685771D01*
X184502199Y-183614343D01*
X184573628Y-183542914D01*
X184573628Y-183685771D01*
X184573628Y-182757200D02*
X184645056Y-182828629D01*
X184573628Y-182900057D01*
X184502199Y-182828629D01*
X184573628Y-182757200D01*
X184573628Y-182900057D01*
D10*
D11*
X197002200Y-191507200D02*
X197002200Y-194507200D01*
D10*
D11*
X261002200Y-191507200D02*
X261002200Y-198007200D01*
D12*
X169506285Y-151224143D02*
X169720571Y-151295571D01*
X170077714Y-151295571D01*
X170220571Y-151224143D01*
X170292000Y-151152714D01*
X170363428Y-151009857D01*
X170363428Y-150867000D01*
X170292000Y-150724143D01*
X170220571Y-150652714D01*
X170077714Y-150581286D01*
X169792000Y-150509857D01*
X169649142Y-150438429D01*
X169577714Y-150367000D01*
X169506285Y-150224143D01*
X169506285Y-150081286D01*
X169577714Y-149938429D01*
X169649142Y-149867000D01*
X169792000Y-149795571D01*
X170149142Y-149795571D01*
X170363428Y-149867000D01*
X171291999Y-149795571D02*
X171577713Y-149795571D01*
X171720571Y-149867000D01*
X171863428Y-150009857D01*
X171934856Y-150295571D01*
X171934856Y-150795571D01*
X171863428Y-151081286D01*
X171720571Y-151224143D01*
X171577713Y-151295571D01*
X171291999Y-151295571D01*
X171149142Y-151224143D01*
X171006285Y-151081286D01*
X170934856Y-150795571D01*
X170934856Y-150295571D01*
X171006285Y-150009857D01*
X171149142Y-149867000D01*
X171291999Y-149795571D01*
X173292000Y-151295571D02*
X172577714Y-151295571D01*
X172577714Y-149795571D01*
X173792000Y-151295571D02*
X173792000Y-149795571D01*
X174149143Y-149795571D01*
X174363428Y-149867000D01*
X174506286Y-150009857D01*
X174577714Y-150152714D01*
X174649143Y-150438429D01*
X174649143Y-150652714D01*
X174577714Y-150938429D01*
X174506286Y-151081286D01*
X174363428Y-151224143D01*
X174149143Y-151295571D01*
X173792000Y-151295571D01*
X175292000Y-150509857D02*
X175792000Y-150509857D01*
X176006286Y-151295571D02*
X175292000Y-151295571D01*
X175292000Y-149795571D01*
X176006286Y-149795571D01*
X177506286Y-151295571D02*
X177006286Y-150581286D01*
X176649143Y-151295571D02*
X176649143Y-149795571D01*
X177220571Y-149795571D01*
X177363429Y-149867000D01*
X177434857Y-149938429D01*
X177506286Y-150081286D01*
X177506286Y-150295571D01*
X177434857Y-150438429D01*
X177363429Y-150509857D01*
X177220571Y-150581286D01*
X176649143Y-150581286D01*
X179792000Y-150509857D02*
X180006286Y-150581286D01*
X180077714Y-150652714D01*
X180149143Y-150795571D01*
X180149143Y-151009857D01*
X180077714Y-151152714D01*
X180006286Y-151224143D01*
X179863428Y-151295571D01*
X179292000Y-151295571D01*
X179292000Y-149795571D01*
X179792000Y-149795571D01*
X179934857Y-149867000D01*
X180006286Y-149938429D01*
X180077714Y-150081286D01*
X180077714Y-150224143D01*
X180006286Y-150367000D01*
X179934857Y-150438429D01*
X179792000Y-150509857D01*
X179292000Y-150509857D01*
X180792000Y-151295571D02*
X180792000Y-149795571D01*
X181649143Y-151295571D01*
X181649143Y-149795571D01*
X183220572Y-151152714D02*
X183149143Y-151224143D01*
X182934857Y-151295571D01*
X182792000Y-151295571D01*
X182577715Y-151224143D01*
X182434857Y-151081286D01*
X182363429Y-150938429D01*
X182292000Y-150652714D01*
X182292000Y-150438429D01*
X182363429Y-150152714D01*
X182434857Y-150009857D01*
X182577715Y-149867000D01*
X182792000Y-149795571D01*
X182934857Y-149795571D01*
X183149143Y-149867000D01*
X183220572Y-149938429D01*
X183863429Y-150724143D02*
X185006286Y-150724143D01*
X184434857Y-151295571D02*
X184434857Y-150152714D01*
X171077714Y-152345571D02*
X171934857Y-152345571D01*
X171506286Y-153845571D02*
X171506286Y-152345571D01*
X172720571Y-152345571D02*
X173006285Y-152345571D01*
X173149143Y-152417000D01*
X173292000Y-152559857D01*
X173363428Y-152845571D01*
X173363428Y-153345571D01*
X173292000Y-153631286D01*
X173149143Y-153774143D01*
X173006285Y-153845571D01*
X172720571Y-153845571D01*
X172577714Y-153774143D01*
X172434857Y-153631286D01*
X172363428Y-153345571D01*
X172363428Y-152845571D01*
X172434857Y-152559857D01*
X172577714Y-152417000D01*
X172720571Y-152345571D01*
X175863429Y-152345571D02*
X175149143Y-152345571D01*
X175077714Y-153059857D01*
X175149143Y-152988429D01*
X175292000Y-152917000D01*
X175649143Y-152917000D01*
X175792000Y-152988429D01*
X175863429Y-153059857D01*
X175934857Y-153202714D01*
X175934857Y-153559857D01*
X175863429Y-153702714D01*
X175792000Y-153774143D01*
X175649143Y-153845571D01*
X175292000Y-153845571D01*
X175149143Y-153774143D01*
X175077714Y-153702714D01*
X176863428Y-152345571D02*
X177006285Y-152345571D01*
X177149142Y-152417000D01*
X177220571Y-152488429D01*
X177292000Y-152631286D01*
X177363428Y-152917000D01*
X177363428Y-153274143D01*
X177292000Y-153559857D01*
X177220571Y-153702714D01*
X177149142Y-153774143D01*
X177006285Y-153845571D01*
X176863428Y-153845571D01*
X176720571Y-153774143D01*
X176649142Y-153702714D01*
X176577714Y-153559857D01*
X176506285Y-153274143D01*
X176506285Y-152917000D01*
X176577714Y-152631286D01*
X176649142Y-152488429D01*
X176720571Y-152417000D01*
X176863428Y-152345571D01*
X179434856Y-152345571D02*
X179720570Y-152345571D01*
X179863428Y-152417000D01*
X180006285Y-152559857D01*
X180077713Y-152845571D01*
X180077713Y-153345571D01*
X180006285Y-153631286D01*
X179863428Y-153774143D01*
X179720570Y-153845571D01*
X179434856Y-153845571D01*
X179291999Y-153774143D01*
X179149142Y-153631286D01*
X179077713Y-153345571D01*
X179077713Y-152845571D01*
X179149142Y-152559857D01*
X179291999Y-152417000D01*
X179434856Y-152345571D01*
X180720571Y-153845571D02*
X180720571Y-152345571D01*
X180720571Y-153059857D02*
X181577714Y-153059857D01*
X181577714Y-153845571D02*
X181577714Y-152345571D01*
X182292000Y-153845571D02*
X182292000Y-152345571D01*
X182792000Y-153417000D01*
X183292000Y-152345571D01*
X183292000Y-153845571D01*
D10*
X78756000Y-116957000D02*
X78756000Y-115707000D01*
X80756000Y-116957000D02*
X78756000Y-116957000D01*
X80756000Y-115707000D02*
X80756000Y-116957000D01*
X78756000Y-115707000D02*
X80756000Y-115707000D01*
X80756000Y-118755000D02*
X80756000Y-120005000D01*
X78756000Y-118755000D02*
X80756000Y-118755000D01*
X78756000Y-120005000D02*
X78756000Y-118755000D01*
X80756000Y-120005000D02*
X78756000Y-120005000D01*
X78756000Y-122037000D02*
X78756000Y-120787000D01*
X80756000Y-122037000D02*
X78756000Y-122037000D01*
X80756000Y-120787000D02*
X80756000Y-122037000D01*
X78756000Y-120787000D02*
X80756000Y-120787000D01*
X78756000Y-128133000D02*
X78756000Y-126883000D01*
X80756000Y-128133000D02*
X78756000Y-128133000D01*
X80756000Y-126883000D02*
X80756000Y-128133000D01*
X78756000Y-126883000D02*
X80756000Y-126883000D01*
X80756000Y-137043000D02*
X80756000Y-138293000D01*
X78756000Y-137043000D02*
X80756000Y-137043000D01*
X78756000Y-138293000D02*
X78756000Y-137043000D01*
X80756000Y-138293000D02*
X78756000Y-138293000D01*
X78756000Y-147437000D02*
X78756000Y-146187000D01*
X80756000Y-147437000D02*
X78756000Y-147437000D01*
X80756000Y-146187000D02*
X80756000Y-147437000D01*
X78756000Y-146187000D02*
X80756000Y-146187000D01*
X80756000Y-157363000D02*
X80756000Y-158613000D01*
X78756000Y-157363000D02*
X80756000Y-157363000D01*
X78756000Y-158613000D02*
X78756000Y-157363000D01*
X80756000Y-158613000D02*
X78756000Y-158613000D01*
D11*
X106696000Y-151501000D02*
X106696000Y-150251000D01*
X108696000Y-151501000D02*
X106696000Y-151501000D01*
X108696000Y-150251000D02*
X108696000Y-151501000D01*
X106696000Y-150251000D02*
X108696000Y-150251000D01*
X69225000Y-92980000D02*
X70475000Y-92980000D01*
X69225000Y-94980000D02*
X69225000Y-92980000D01*
X70475000Y-94980000D02*
X69225000Y-94980000D01*
X70475000Y-92980000D02*
X70475000Y-94980000D01*
X147082000Y-133975000D02*
X147082000Y-132725000D01*
X149082000Y-133975000D02*
X147082000Y-133975000D01*
X149082000Y-132725000D02*
X149082000Y-133975000D01*
X147082000Y-132725000D02*
X149082000Y-132725000D01*
X159020000Y-133975000D02*
X159020000Y-132725000D01*
X161020000Y-133975000D02*
X159020000Y-133975000D01*
X161020000Y-132725000D02*
X161020000Y-133975000D01*
X159020000Y-132725000D02*
X161020000Y-132725000D01*
X152257000Y-116215000D02*
X152257000Y-117465000D01*
X150257000Y-116215000D02*
X152257000Y-116215000D01*
X150257000Y-117465000D02*
X150257000Y-116215000D01*
X152257000Y-117465000D02*
X150257000Y-117465000D01*
X164195000Y-116215000D02*
X164195000Y-117465000D01*
X162195000Y-116215000D02*
X164195000Y-116215000D01*
X162195000Y-117465000D02*
X162195000Y-116215000D01*
X164195000Y-117465000D02*
X162195000Y-117465000D01*
X153654000Y-146187000D02*
X153654000Y-147437000D01*
X151654000Y-146187000D02*
X153654000Y-146187000D01*
X151654000Y-147437000D02*
X151654000Y-146187000D01*
X153654000Y-147437000D02*
X151654000Y-147437000D01*
X113147000Y-127492000D02*
X111897000Y-127492000D01*
X113147000Y-125492000D02*
X113147000Y-127492000D01*
X111897000Y-125492000D02*
X113147000Y-125492000D01*
X111897000Y-127492000D02*
X111897000Y-125492000D01*
X132350000Y-117465000D02*
X132350000Y-116215000D01*
X134350000Y-117465000D02*
X132350000Y-117465000D01*
X134350000Y-116215000D02*
X134350000Y-117465000D01*
X132350000Y-116215000D02*
X134350000Y-116215000D01*
X124984000Y-141849000D02*
X124984000Y-140599000D01*
X126984000Y-141849000D02*
X124984000Y-141849000D01*
X126984000Y-140599000D02*
X126984000Y-141849000D01*
X124984000Y-140599000D02*
X126984000Y-140599000D01*
X138160000Y-88275000D02*
X138160000Y-89525000D01*
X136160000Y-88275000D02*
X138160000Y-88275000D01*
X136160000Y-89525000D02*
X136160000Y-88275000D01*
X138160000Y-89525000D02*
X136160000Y-89525000D01*
X138795000Y-101610000D02*
X138795000Y-102860000D01*
X136795000Y-101610000D02*
X138795000Y-101610000D01*
X136795000Y-102860000D02*
X136795000Y-101610000D01*
X138795000Y-102860000D02*
X136795000Y-102860000D01*
X127492000Y-87894000D02*
X127492000Y-89144000D01*
X125492000Y-87894000D02*
X127492000Y-87894000D01*
X125492000Y-89144000D02*
X125492000Y-87894000D01*
X127492000Y-89144000D02*
X125492000Y-89144000D01*
X105775000Y-87894000D02*
X105775000Y-89144000D01*
X103775000Y-87894000D02*
X105775000Y-87894000D01*
X103775000Y-89144000D02*
X103775000Y-87894000D01*
X105775000Y-89144000D02*
X103775000Y-89144000D01*
X110125000Y-101209000D02*
X110125000Y-99959000D01*
X112125000Y-101209000D02*
X110125000Y-101209000D01*
X112125000Y-99959000D02*
X112125000Y-101209000D01*
X110125000Y-99959000D02*
X112125000Y-99959000D01*
X110125000Y-115179000D02*
X110125000Y-113929000D01*
X112125000Y-115179000D02*
X110125000Y-115179000D01*
X112125000Y-113929000D02*
X112125000Y-115179000D01*
X110125000Y-113929000D02*
X112125000Y-113929000D01*
X92186000Y-104277000D02*
X92186000Y-105527000D01*
X90186000Y-104277000D02*
X92186000Y-104277000D01*
X90186000Y-105527000D02*
X90186000Y-104277000D01*
X92186000Y-105527000D02*
X90186000Y-105527000D01*
X93075000Y-87894000D02*
X93075000Y-89144000D01*
X91075000Y-87894000D02*
X93075000Y-87894000D01*
X91075000Y-89144000D02*
X91075000Y-87894000D01*
X93075000Y-89144000D02*
X91075000Y-89144000D01*
X151202000Y-125270000D02*
X151202000Y-118570000D01*
X151202000Y-125270000D02*
X147502000Y-125270000D01*
X151202000Y-118570000D02*
X147502000Y-118570000D01*
X147502000Y-125270000D02*
X147502000Y-118570000D01*
X163140000Y-125270000D02*
X163140000Y-118570000D01*
X163140000Y-125270000D02*
X159440000Y-125270000D01*
X163140000Y-118570000D02*
X159440000Y-118570000D01*
X159440000Y-125270000D02*
X159440000Y-118570000D01*
D10*
X142510000Y-99050000D02*
X142510000Y-97800000D01*
X144510000Y-99050000D02*
X142510000Y-99050000D01*
X144510000Y-97800000D02*
X144510000Y-99050000D01*
X142510000Y-97800000D02*
X144510000Y-97800000D01*
X142510000Y-96510000D02*
X142510000Y-95260000D01*
X144510000Y-96510000D02*
X142510000Y-96510000D01*
X144510000Y-95260000D02*
X144510000Y-96510000D01*
X142510000Y-95260000D02*
X144510000Y-95260000D01*
X150892000Y-128895000D02*
X150892000Y-127645000D01*
X152892000Y-128895000D02*
X150892000Y-128895000D01*
X152892000Y-127645000D02*
X152892000Y-128895000D01*
X150892000Y-127645000D02*
X152892000Y-127645000D01*
X145812000Y-128895000D02*
X145812000Y-127645000D01*
X147812000Y-128895000D02*
X145812000Y-128895000D01*
X147812000Y-127645000D02*
X147812000Y-128895000D01*
X145812000Y-127645000D02*
X147812000Y-127645000D01*
X162830000Y-128895000D02*
X162830000Y-127645000D01*
X164830000Y-128895000D02*
X162830000Y-128895000D01*
X164830000Y-127645000D02*
X164830000Y-128895000D01*
X162830000Y-127645000D02*
X164830000Y-127645000D01*
X157750000Y-128895000D02*
X157750000Y-127645000D01*
X159750000Y-128895000D02*
X157750000Y-128895000D01*
X159750000Y-127645000D02*
X159750000Y-128895000D01*
X157750000Y-127645000D02*
X159750000Y-127645000D01*
X80756000Y-113675000D02*
X80756000Y-114925000D01*
X78756000Y-113675000D02*
X80756000Y-113675000D01*
X78756000Y-114925000D02*
X78756000Y-113675000D01*
X80756000Y-114925000D02*
X78756000Y-114925000D01*
X80756000Y-122819000D02*
X80756000Y-124069000D01*
X78756000Y-122819000D02*
X80756000Y-122819000D01*
X78756000Y-124069000D02*
X78756000Y-122819000D01*
X80756000Y-124069000D02*
X78756000Y-124069000D01*
X78756000Y-126101000D02*
X78756000Y-124851000D01*
X80756000Y-126101000D02*
X78756000Y-126101000D01*
X80756000Y-124851000D02*
X80756000Y-126101000D01*
X78756000Y-124851000D02*
X80756000Y-124851000D01*
X80756000Y-129931000D02*
X80756000Y-131181000D01*
X78756000Y-129931000D02*
X80756000Y-129931000D01*
X78756000Y-131181000D02*
X78756000Y-129931000D01*
X80756000Y-131181000D02*
X78756000Y-131181000D01*
X78756000Y-133213000D02*
X78756000Y-131963000D01*
X80756000Y-133213000D02*
X78756000Y-133213000D01*
X80756000Y-131963000D02*
X80756000Y-133213000D01*
X78756000Y-131963000D02*
X80756000Y-131963000D01*
X80756000Y-135011000D02*
X80756000Y-136261000D01*
X78756000Y-135011000D02*
X80756000Y-135011000D01*
X78756000Y-136261000D02*
X78756000Y-135011000D01*
X80756000Y-136261000D02*
X78756000Y-136261000D01*
X78756000Y-140325000D02*
X78756000Y-139075000D01*
X80756000Y-140325000D02*
X78756000Y-140325000D01*
X80756000Y-139075000D02*
X80756000Y-140325000D01*
X78756000Y-139075000D02*
X80756000Y-139075000D01*
X80756000Y-142123000D02*
X80756000Y-143373000D01*
X78756000Y-142123000D02*
X80756000Y-142123000D01*
X78756000Y-143373000D02*
X78756000Y-142123000D01*
X80756000Y-143373000D02*
X78756000Y-143373000D01*
X78756000Y-145405000D02*
X78756000Y-144155000D01*
X80756000Y-145405000D02*
X78756000Y-145405000D01*
X80756000Y-144155000D02*
X80756000Y-145405000D01*
X78756000Y-144155000D02*
X80756000Y-144155000D01*
X80756000Y-149235000D02*
X80756000Y-150485000D01*
X78756000Y-149235000D02*
X80756000Y-149235000D01*
X78756000Y-150485000D02*
X78756000Y-149235000D01*
X80756000Y-150485000D02*
X78756000Y-150485000D01*
X78756000Y-152517000D02*
X78756000Y-151267000D01*
X80756000Y-152517000D02*
X78756000Y-152517000D01*
X80756000Y-151267000D02*
X80756000Y-152517000D01*
X78756000Y-151267000D02*
X80756000Y-151267000D01*
X80756000Y-155331000D02*
X80756000Y-156581000D01*
X78756000Y-155331000D02*
X80756000Y-155331000D01*
X78756000Y-156581000D02*
X78756000Y-155331000D01*
X80756000Y-156581000D02*
X78756000Y-156581000D01*
X102854000Y-150251000D02*
X102854000Y-151501000D01*
X100854000Y-150251000D02*
X102854000Y-150251000D01*
X100854000Y-151501000D02*
X100854000Y-150251000D01*
X102854000Y-151501000D02*
X100854000Y-151501000D01*
X107305000Y-143494000D02*
X106055000Y-143494000D01*
X107305000Y-141494000D02*
X107305000Y-143494000D01*
X106055000Y-141494000D02*
X107305000Y-141494000D01*
X106055000Y-143494000D02*
X106055000Y-141494000D01*
D11*
X101408000Y-148586000D02*
X101408000Y-145546000D01*
X102808000Y-145546000D02*
X101408000Y-145546000D01*
X102808000Y-148586000D02*
X101408000Y-148586000D01*
X102808000Y-148586000D02*
X102808000Y-145546000D01*
X134636000Y-128133000D02*
X134636000Y-126883000D01*
X136636000Y-128133000D02*
X134636000Y-128133000D01*
X136636000Y-126883000D02*
X136636000Y-128133000D01*
X134636000Y-126883000D02*
X136636000Y-126883000D01*
X135408000Y-125106000D02*
X135408000Y-123306000D01*
X135408000Y-123306000D02*
X132308000Y-123306000D01*
X132308000Y-125106000D02*
X132308000Y-123306000D01*
X135408000Y-125106000D02*
X132308000Y-125106000D01*
X109591000Y-143494000D02*
X108341000Y-143494000D01*
X109591000Y-141494000D02*
X109591000Y-143494000D01*
X108341000Y-141494000D02*
X109591000Y-141494000D01*
X108341000Y-143494000D02*
X108341000Y-141494000D01*
X88209524Y-150423619D02*
X88257143Y-150376000D01*
X88352381Y-150328381D01*
X88590477Y-150328381D01*
X88685715Y-150376000D01*
X88733334Y-150423619D01*
X88780953Y-150518857D01*
X88780953Y-150614095D01*
X88733334Y-150756952D01*
X88161905Y-151328381D01*
X88780953Y-151328381D01*
X89209524Y-151328381D02*
X89209524Y-150328381D01*
X89304762Y-150947429D02*
X89590477Y-151328381D01*
X89590477Y-150661714D02*
X89209524Y-151042667D01*
X82105524Y-116784381D02*
X81534095Y-116784381D01*
X81819809Y-116784381D02*
X81819809Y-115784381D01*
X81724571Y-115927238D01*
X81629333Y-116022476D01*
X81534095Y-116070095D01*
X82724571Y-115784381D02*
X82819810Y-115784381D01*
X82915048Y-115832000D01*
X82962667Y-115879619D01*
X83010286Y-115974857D01*
X83057905Y-116165333D01*
X83057905Y-116403429D01*
X83010286Y-116593905D01*
X82962667Y-116689143D01*
X82915048Y-116736762D01*
X82819810Y-116784381D01*
X82724571Y-116784381D01*
X82629333Y-116736762D01*
X82581714Y-116689143D01*
X82534095Y-116593905D01*
X82486476Y-116403429D01*
X82486476Y-116165333D01*
X82534095Y-115974857D01*
X82581714Y-115879619D01*
X82629333Y-115832000D01*
X82724571Y-115784381D01*
X82105524Y-119832381D02*
X81534095Y-119832381D01*
X81819809Y-119832381D02*
X81819809Y-118832381D01*
X81724571Y-118975238D01*
X81629333Y-119070476D01*
X81534095Y-119118095D01*
X82724571Y-118832381D02*
X82819810Y-118832381D01*
X82915048Y-118880000D01*
X82962667Y-118927619D01*
X83010286Y-119022857D01*
X83057905Y-119213333D01*
X83057905Y-119451429D01*
X83010286Y-119641905D01*
X82962667Y-119737143D01*
X82915048Y-119784762D01*
X82819810Y-119832381D01*
X82724571Y-119832381D01*
X82629333Y-119784762D01*
X82581714Y-119737143D01*
X82534095Y-119641905D01*
X82486476Y-119451429D01*
X82486476Y-119213333D01*
X82534095Y-119022857D01*
X82581714Y-118927619D01*
X82629333Y-118880000D01*
X82724571Y-118832381D01*
X82105524Y-121864381D02*
X81534095Y-121864381D01*
X81819809Y-121864381D02*
X81819809Y-120864381D01*
X81724571Y-121007238D01*
X81629333Y-121102476D01*
X81534095Y-121150095D01*
X82724571Y-120864381D02*
X82819810Y-120864381D01*
X82915048Y-120912000D01*
X82962667Y-120959619D01*
X83010286Y-121054857D01*
X83057905Y-121245333D01*
X83057905Y-121483429D01*
X83010286Y-121673905D01*
X82962667Y-121769143D01*
X82915048Y-121816762D01*
X82819810Y-121864381D01*
X82724571Y-121864381D01*
X82629333Y-121816762D01*
X82581714Y-121769143D01*
X82534095Y-121673905D01*
X82486476Y-121483429D01*
X82486476Y-121245333D01*
X82534095Y-121054857D01*
X82581714Y-120959619D01*
X82629333Y-120912000D01*
X82724571Y-120864381D01*
X82137334Y-127960381D02*
X81565905Y-127960381D01*
X81851619Y-127960381D02*
X81851619Y-126960381D01*
X81756381Y-127103238D01*
X81661143Y-127198476D01*
X81565905Y-127246095D01*
X82756381Y-126960381D02*
X82851620Y-126960381D01*
X82946858Y-127008000D01*
X82994477Y-127055619D01*
X83042096Y-127150857D01*
X83089715Y-127341333D01*
X83089715Y-127579429D01*
X83042096Y-127769905D01*
X82994477Y-127865143D01*
X82946858Y-127912762D01*
X82851620Y-127960381D01*
X82756381Y-127960381D01*
X82661143Y-127912762D01*
X82613524Y-127865143D01*
X82565905Y-127769905D01*
X82518286Y-127579429D01*
X82518286Y-127341333D01*
X82565905Y-127150857D01*
X82613524Y-127055619D01*
X82661143Y-127008000D01*
X82756381Y-126960381D01*
X83708762Y-126960381D02*
X83804001Y-126960381D01*
X83899239Y-127008000D01*
X83946858Y-127055619D01*
X83994477Y-127150857D01*
X84042096Y-127341333D01*
X84042096Y-127579429D01*
X83994477Y-127769905D01*
X83946858Y-127865143D01*
X83899239Y-127912762D01*
X83804001Y-127960381D01*
X83708762Y-127960381D01*
X83613524Y-127912762D01*
X83565905Y-127865143D01*
X83518286Y-127769905D01*
X83470667Y-127579429D01*
X83470667Y-127341333D01*
X83518286Y-127150857D01*
X83565905Y-127055619D01*
X83613524Y-127008000D01*
X83708762Y-126960381D01*
X82176953Y-138120381D02*
X81605524Y-138120381D01*
X81891238Y-138120381D02*
X81891238Y-137120381D01*
X81796000Y-137263238D01*
X81700762Y-137358476D01*
X81605524Y-137406095D01*
X82605524Y-138120381D02*
X82605524Y-137120381D01*
X82700762Y-137739429D02*
X82986477Y-138120381D01*
X82986477Y-137453714D02*
X82605524Y-137834667D01*
X82208762Y-147264381D02*
X81637333Y-147264381D01*
X81923047Y-147264381D02*
X81923047Y-146264381D01*
X81827809Y-146407238D01*
X81732571Y-146502476D01*
X81637333Y-146550095D01*
X82827809Y-146264381D02*
X82923048Y-146264381D01*
X83018286Y-146312000D01*
X83065905Y-146359619D01*
X83113524Y-146454857D01*
X83161143Y-146645333D01*
X83161143Y-146883429D01*
X83113524Y-147073905D01*
X83065905Y-147169143D01*
X83018286Y-147216762D01*
X82923048Y-147264381D01*
X82827809Y-147264381D01*
X82732571Y-147216762D01*
X82684952Y-147169143D01*
X82637333Y-147073905D01*
X82589714Y-146883429D01*
X82589714Y-146645333D01*
X82637333Y-146454857D01*
X82684952Y-146359619D01*
X82732571Y-146312000D01*
X82827809Y-146264381D01*
X83589714Y-147264381D02*
X83589714Y-146264381D01*
X83684952Y-146883429D02*
X83970667Y-147264381D01*
X83970667Y-146597714D02*
X83589714Y-146978667D01*
X82240572Y-158440381D02*
X81669143Y-158440381D01*
X81954857Y-158440381D02*
X81954857Y-157440381D01*
X81859619Y-157583238D01*
X81764381Y-157678476D01*
X81669143Y-157726095D01*
X82859619Y-157440381D02*
X82954858Y-157440381D01*
X83050096Y-157488000D01*
X83097715Y-157535619D01*
X83145334Y-157630857D01*
X83192953Y-157821333D01*
X83192953Y-158059429D01*
X83145334Y-158249905D01*
X83097715Y-158345143D01*
X83050096Y-158392762D01*
X82954858Y-158440381D01*
X82859619Y-158440381D01*
X82764381Y-158392762D01*
X82716762Y-158345143D01*
X82669143Y-158249905D01*
X82621524Y-158059429D01*
X82621524Y-157821333D01*
X82669143Y-157630857D01*
X82716762Y-157535619D01*
X82764381Y-157488000D01*
X82859619Y-157440381D01*
X83812000Y-157440381D02*
X83907239Y-157440381D01*
X84002477Y-157488000D01*
X84050096Y-157535619D01*
X84097715Y-157630857D01*
X84145334Y-157821333D01*
X84145334Y-158059429D01*
X84097715Y-158249905D01*
X84050096Y-158345143D01*
X84002477Y-158392762D01*
X83907239Y-158440381D01*
X83812000Y-158440381D01*
X83716762Y-158392762D01*
X83669143Y-158345143D01*
X83621524Y-158249905D01*
X83573905Y-158059429D01*
X83573905Y-157821333D01*
X83621524Y-157630857D01*
X83669143Y-157535619D01*
X83716762Y-157488000D01*
X83812000Y-157440381D01*
X84573905Y-158440381D02*
X84573905Y-157440381D01*
X84669143Y-158059429D02*
X84954858Y-158440381D01*
X84954858Y-157773714D02*
X84573905Y-158154667D01*
X159305810Y-140168381D02*
X159924858Y-140168381D01*
X159591524Y-140549333D01*
X159734382Y-140549333D01*
X159829620Y-140596952D01*
X159877239Y-140644571D01*
X159924858Y-140739810D01*
X159924858Y-140977905D01*
X159877239Y-141073143D01*
X159829620Y-141120762D01*
X159734382Y-141168381D01*
X159448667Y-141168381D01*
X159353429Y-141120762D01*
X159305810Y-141073143D01*
X160353429Y-141073143D02*
X160401048Y-141120762D01*
X160353429Y-141168381D01*
X160305810Y-141120762D01*
X160353429Y-141073143D01*
X160353429Y-141168381D01*
X160734381Y-140168381D02*
X161353429Y-140168381D01*
X161020095Y-140549333D01*
X161162953Y-140549333D01*
X161258191Y-140596952D01*
X161305810Y-140644571D01*
X161353429Y-140739810D01*
X161353429Y-140977905D01*
X161305810Y-141073143D01*
X161258191Y-141120762D01*
X161162953Y-141168381D01*
X160877238Y-141168381D01*
X160782000Y-141120762D01*
X160734381Y-141073143D01*
X161639143Y-140168381D02*
X161972476Y-141168381D01*
X162305810Y-140168381D01*
X160162953Y-137612381D02*
X159591524Y-137612381D01*
X159877238Y-137612381D02*
X159877238Y-136612381D01*
X159782000Y-136755238D01*
X159686762Y-136850476D01*
X159591524Y-136898095D01*
X160543905Y-136707619D02*
X160591524Y-136660000D01*
X160686762Y-136612381D01*
X160924858Y-136612381D01*
X161020096Y-136660000D01*
X161067715Y-136707619D01*
X161115334Y-136802857D01*
X161115334Y-136898095D01*
X161067715Y-137040952D01*
X160496286Y-137612381D01*
X161115334Y-137612381D01*
X161401048Y-136612381D02*
X161734381Y-137612381D01*
X162067715Y-136612381D01*
X160020096Y-143772000D02*
X159924858Y-143724381D01*
X159782001Y-143724381D01*
X159639143Y-143772000D01*
X159543905Y-143867238D01*
X159496286Y-143962476D01*
X159448667Y-144152952D01*
X159448667Y-144295810D01*
X159496286Y-144486286D01*
X159543905Y-144581524D01*
X159639143Y-144676762D01*
X159782001Y-144724381D01*
X159877239Y-144724381D01*
X160020096Y-144676762D01*
X160067715Y-144629143D01*
X160067715Y-144295810D01*
X159877239Y-144295810D01*
X160496286Y-144724381D02*
X160496286Y-143724381D01*
X161067715Y-144724381D01*
X161067715Y-143724381D01*
X161543905Y-144724381D02*
X161543905Y-143724381D01*
X161782000Y-143724381D01*
X161924858Y-143772000D01*
X162020096Y-143867238D01*
X162067715Y-143962476D01*
X162115334Y-144152952D01*
X162115334Y-144295810D01*
X162067715Y-144486286D01*
X162020096Y-144581524D01*
X161924858Y-144676762D01*
X161782000Y-144724381D01*
X161543905Y-144724381D01*
X109235953Y-150772381D02*
X108664524Y-150772381D01*
X108950238Y-150772381D02*
X108950238Y-149772381D01*
X108855000Y-149915238D01*
X108759762Y-150010476D01*
X108664524Y-150058095D01*
X109616905Y-149867619D02*
X109664524Y-149820000D01*
X109759762Y-149772381D01*
X109997858Y-149772381D01*
X110093096Y-149820000D01*
X110140715Y-149867619D01*
X110188334Y-149962857D01*
X110188334Y-150058095D01*
X110140715Y-150200952D01*
X109569286Y-150772381D01*
X110188334Y-150772381D01*
X110474048Y-149772381D02*
X110807381Y-150772381D01*
X111140715Y-149772381D01*
X109513810Y-150328381D02*
X109323333Y-150328381D01*
X109228095Y-150376000D01*
X109180476Y-150423619D01*
X109085238Y-150566476D01*
X109037619Y-150756952D01*
X109037619Y-151137905D01*
X109085238Y-151233143D01*
X109132857Y-151280762D01*
X109228095Y-151328381D01*
X109418572Y-151328381D01*
X109513810Y-151280762D01*
X109561429Y-151233143D01*
X109609048Y-151137905D01*
X109609048Y-150899810D01*
X109561429Y-150804571D01*
X109513810Y-150756952D01*
X109418572Y-150709333D01*
X109228095Y-150709333D01*
X109132857Y-150756952D01*
X109085238Y-150804571D01*
X109037619Y-150899810D01*
X110037619Y-151233143D02*
X110085238Y-151280762D01*
X110037619Y-151328381D01*
X109990000Y-151280762D01*
X110037619Y-151233143D01*
X110037619Y-151328381D01*
X110656666Y-150756952D02*
X110561428Y-150709333D01*
X110513809Y-150661714D01*
X110466190Y-150566476D01*
X110466190Y-150518857D01*
X110513809Y-150423619D01*
X110561428Y-150376000D01*
X110656666Y-150328381D01*
X110847143Y-150328381D01*
X110942381Y-150376000D01*
X110990000Y-150423619D01*
X111037619Y-150518857D01*
X111037619Y-150566476D01*
X110990000Y-150661714D01*
X110942381Y-150709333D01*
X110847143Y-150756952D01*
X110656666Y-150756952D01*
X110561428Y-150804571D01*
X110513809Y-150852190D01*
X110466190Y-150947429D01*
X110466190Y-151137905D01*
X110513809Y-151233143D01*
X110561428Y-151280762D01*
X110656666Y-151328381D01*
X110847143Y-151328381D01*
X110942381Y-151280762D01*
X110990000Y-151233143D01*
X111037619Y-151137905D01*
X111037619Y-150947429D01*
X110990000Y-150852190D01*
X110942381Y-150804571D01*
X110847143Y-150756952D01*
X111894762Y-150661714D02*
X111894762Y-151328381D01*
X111466190Y-150661714D02*
X111466190Y-151185524D01*
X111513809Y-151280762D01*
X111609047Y-151328381D01*
X111751905Y-151328381D01*
X111847143Y-151280762D01*
X111894762Y-151233143D01*
X160424953Y-110942381D02*
X159853524Y-110942381D01*
X160139238Y-110942381D02*
X160139238Y-109942381D01*
X160044000Y-110085238D01*
X159948762Y-110180476D01*
X159853524Y-110228095D01*
X161044000Y-109942381D02*
X161139239Y-109942381D01*
X161234477Y-109990000D01*
X161282096Y-110037619D01*
X161329715Y-110132857D01*
X161377334Y-110323333D01*
X161377334Y-110561429D01*
X161329715Y-110751905D01*
X161282096Y-110847143D01*
X161234477Y-110894762D01*
X161139239Y-110942381D01*
X161044000Y-110942381D01*
X160948762Y-110894762D01*
X160901143Y-110847143D01*
X160853524Y-110751905D01*
X160805905Y-110561429D01*
X160805905Y-110323333D01*
X160853524Y-110132857D01*
X160901143Y-110037619D01*
X160948762Y-109990000D01*
X161044000Y-109942381D01*
X161996381Y-109942381D02*
X162091620Y-109942381D01*
X162186858Y-109990000D01*
X162234477Y-110037619D01*
X162282096Y-110132857D01*
X162329715Y-110323333D01*
X162329715Y-110561429D01*
X162282096Y-110751905D01*
X162234477Y-110847143D01*
X162186858Y-110894762D01*
X162091620Y-110942381D01*
X161996381Y-110942381D01*
X161901143Y-110894762D01*
X161853524Y-110847143D01*
X161805905Y-110751905D01*
X161758286Y-110561429D01*
X161758286Y-110323333D01*
X161805905Y-110132857D01*
X161853524Y-110037619D01*
X161901143Y-109990000D01*
X161996381Y-109942381D01*
X163186858Y-110275714D02*
X163186858Y-110942381D01*
X162758286Y-110275714D02*
X162758286Y-110799524D01*
X162805905Y-110894762D01*
X162901143Y-110942381D01*
X163044001Y-110942381D01*
X163139239Y-110894762D01*
X163186858Y-110847143D01*
X69302381Y-99226476D02*
X69302381Y-99131237D01*
X69350000Y-99035999D01*
X69397619Y-98988380D01*
X69492857Y-98940761D01*
X69683333Y-98893142D01*
X69921429Y-98893142D01*
X70111905Y-98940761D01*
X70207143Y-98988380D01*
X70254762Y-99035999D01*
X70302381Y-99131237D01*
X70302381Y-99226476D01*
X70254762Y-99321714D01*
X70207143Y-99369333D01*
X70111905Y-99416952D01*
X69921429Y-99464571D01*
X69683333Y-99464571D01*
X69492857Y-99416952D01*
X69397619Y-99369333D01*
X69350000Y-99321714D01*
X69302381Y-99226476D01*
X70207143Y-98464571D02*
X70254762Y-98416952D01*
X70302381Y-98464571D01*
X70254762Y-98512190D01*
X70207143Y-98464571D01*
X70302381Y-98464571D01*
X69302381Y-97797905D02*
X69302381Y-97702666D01*
X69350000Y-97607428D01*
X69397619Y-97559809D01*
X69492857Y-97512190D01*
X69683333Y-97464571D01*
X69921429Y-97464571D01*
X70111905Y-97512190D01*
X70207143Y-97559809D01*
X70254762Y-97607428D01*
X70302381Y-97702666D01*
X70302381Y-97797905D01*
X70254762Y-97893143D01*
X70207143Y-97940762D01*
X70111905Y-97988381D01*
X69921429Y-98036000D01*
X69683333Y-98036000D01*
X69492857Y-97988381D01*
X69397619Y-97940762D01*
X69350000Y-97893143D01*
X69302381Y-97797905D01*
X70302381Y-96512190D02*
X70302381Y-97083619D01*
X70302381Y-96797905D02*
X69302381Y-96797905D01*
X69445238Y-96893143D01*
X69540476Y-96988381D01*
X69588095Y-97083619D01*
X69635714Y-95655047D02*
X70302381Y-95655047D01*
X69635714Y-96083619D02*
X70159524Y-96083619D01*
X70254762Y-96036000D01*
X70302381Y-95940762D01*
X70302381Y-95797904D01*
X70254762Y-95702666D01*
X70207143Y-95655047D01*
X147105810Y-134834381D02*
X146915333Y-134834381D01*
X146820095Y-134882000D01*
X146772476Y-134929619D01*
X146677238Y-135072476D01*
X146629619Y-135262952D01*
X146629619Y-135643905D01*
X146677238Y-135739143D01*
X146724857Y-135786762D01*
X146820095Y-135834381D01*
X147010572Y-135834381D01*
X147105810Y-135786762D01*
X147153429Y-135739143D01*
X147201048Y-135643905D01*
X147201048Y-135405810D01*
X147153429Y-135310571D01*
X147105810Y-135262952D01*
X147010572Y-135215333D01*
X146820095Y-135215333D01*
X146724857Y-135262952D01*
X146677238Y-135310571D01*
X146629619Y-135405810D01*
X147629619Y-135739143D02*
X147677238Y-135786762D01*
X147629619Y-135834381D01*
X147582000Y-135786762D01*
X147629619Y-135739143D01*
X147629619Y-135834381D01*
X148248666Y-135262952D02*
X148153428Y-135215333D01*
X148105809Y-135167714D01*
X148058190Y-135072476D01*
X148058190Y-135024857D01*
X148105809Y-134929619D01*
X148153428Y-134882000D01*
X148248666Y-134834381D01*
X148439143Y-134834381D01*
X148534381Y-134882000D01*
X148582000Y-134929619D01*
X148629619Y-135024857D01*
X148629619Y-135072476D01*
X148582000Y-135167714D01*
X148534381Y-135215333D01*
X148439143Y-135262952D01*
X148248666Y-135262952D01*
X148153428Y-135310571D01*
X148105809Y-135358190D01*
X148058190Y-135453429D01*
X148058190Y-135643905D01*
X148105809Y-135739143D01*
X148153428Y-135786762D01*
X148248666Y-135834381D01*
X148439143Y-135834381D01*
X148534381Y-135786762D01*
X148582000Y-135739143D01*
X148629619Y-135643905D01*
X148629619Y-135453429D01*
X148582000Y-135358190D01*
X148534381Y-135310571D01*
X148439143Y-135262952D01*
X149486762Y-135167714D02*
X149486762Y-135834381D01*
X149058190Y-135167714D02*
X149058190Y-135691524D01*
X149105809Y-135786762D01*
X149201047Y-135834381D01*
X149343905Y-135834381D01*
X149439143Y-135786762D01*
X149486762Y-135739143D01*
X159043810Y-134902381D02*
X158853333Y-134902381D01*
X158758095Y-134950000D01*
X158710476Y-134997619D01*
X158615238Y-135140476D01*
X158567619Y-135330952D01*
X158567619Y-135711905D01*
X158615238Y-135807143D01*
X158662857Y-135854762D01*
X158758095Y-135902381D01*
X158948572Y-135902381D01*
X159043810Y-135854762D01*
X159091429Y-135807143D01*
X159139048Y-135711905D01*
X159139048Y-135473810D01*
X159091429Y-135378571D01*
X159043810Y-135330952D01*
X158948572Y-135283333D01*
X158758095Y-135283333D01*
X158662857Y-135330952D01*
X158615238Y-135378571D01*
X158567619Y-135473810D01*
X159567619Y-135807143D02*
X159615238Y-135854762D01*
X159567619Y-135902381D01*
X159520000Y-135854762D01*
X159567619Y-135807143D01*
X159567619Y-135902381D01*
X160186666Y-135330952D02*
X160091428Y-135283333D01*
X160043809Y-135235714D01*
X159996190Y-135140476D01*
X159996190Y-135092857D01*
X160043809Y-134997619D01*
X160091428Y-134950000D01*
X160186666Y-134902381D01*
X160377143Y-134902381D01*
X160472381Y-134950000D01*
X160520000Y-134997619D01*
X160567619Y-135092857D01*
X160567619Y-135140476D01*
X160520000Y-135235714D01*
X160472381Y-135283333D01*
X160377143Y-135330952D01*
X160186666Y-135330952D01*
X160091428Y-135378571D01*
X160043809Y-135426190D01*
X159996190Y-135521429D01*
X159996190Y-135711905D01*
X160043809Y-135807143D01*
X160091428Y-135854762D01*
X160186666Y-135902381D01*
X160377143Y-135902381D01*
X160472381Y-135854762D01*
X160520000Y-135807143D01*
X160567619Y-135711905D01*
X160567619Y-135521429D01*
X160520000Y-135426190D01*
X160472381Y-135378571D01*
X160377143Y-135330952D01*
X161424762Y-135235714D02*
X161424762Y-135902381D01*
X160996190Y-135235714D02*
X160996190Y-135759524D01*
X161043809Y-135854762D01*
X161139047Y-135902381D01*
X161281905Y-135902381D01*
X161377143Y-135854762D01*
X161424762Y-135807143D01*
X150169714Y-114514381D02*
X150264953Y-114514381D01*
X150360191Y-114562000D01*
X150407810Y-114609619D01*
X150455429Y-114704857D01*
X150503048Y-114895333D01*
X150503048Y-115133429D01*
X150455429Y-115323905D01*
X150407810Y-115419143D01*
X150360191Y-115466762D01*
X150264953Y-115514381D01*
X150169714Y-115514381D01*
X150074476Y-115466762D01*
X150026857Y-115419143D01*
X149979238Y-115323905D01*
X149931619Y-115133429D01*
X149931619Y-114895333D01*
X149979238Y-114704857D01*
X150026857Y-114609619D01*
X150074476Y-114562000D01*
X150169714Y-114514381D01*
X150931619Y-115419143D02*
X150979238Y-115466762D01*
X150931619Y-115514381D01*
X150884000Y-115466762D01*
X150931619Y-115419143D01*
X150931619Y-115514381D01*
X151931619Y-115514381D02*
X151360190Y-115514381D01*
X151645904Y-115514381D02*
X151645904Y-114514381D01*
X151550666Y-114657238D01*
X151455428Y-114752476D01*
X151360190Y-114800095D01*
X152788762Y-114847714D02*
X152788762Y-115514381D01*
X152360190Y-114847714D02*
X152360190Y-115371524D01*
X152407809Y-115466762D01*
X152503047Y-115514381D01*
X152645905Y-115514381D01*
X152741143Y-115466762D01*
X152788762Y-115419143D01*
X161853714Y-114514381D02*
X161948953Y-114514381D01*
X162044191Y-114562000D01*
X162091810Y-114609619D01*
X162139429Y-114704857D01*
X162187048Y-114895333D01*
X162187048Y-115133429D01*
X162139429Y-115323905D01*
X162091810Y-115419143D01*
X162044191Y-115466762D01*
X161948953Y-115514381D01*
X161853714Y-115514381D01*
X161758476Y-115466762D01*
X161710857Y-115419143D01*
X161663238Y-115323905D01*
X161615619Y-115133429D01*
X161615619Y-114895333D01*
X161663238Y-114704857D01*
X161710857Y-114609619D01*
X161758476Y-114562000D01*
X161853714Y-114514381D01*
X162615619Y-115419143D02*
X162663238Y-115466762D01*
X162615619Y-115514381D01*
X162568000Y-115466762D01*
X162615619Y-115419143D01*
X162615619Y-115514381D01*
X163615619Y-115514381D02*
X163044190Y-115514381D01*
X163329904Y-115514381D02*
X163329904Y-114514381D01*
X163234666Y-114657238D01*
X163139428Y-114752476D01*
X163044190Y-114800095D01*
X164472762Y-114847714D02*
X164472762Y-115514381D01*
X164044190Y-114847714D02*
X164044190Y-115371524D01*
X164091809Y-115466762D01*
X164187047Y-115514381D01*
X164329905Y-115514381D01*
X164425143Y-115466762D01*
X164472762Y-115419143D01*
X151439714Y-144164381D02*
X151534953Y-144164381D01*
X151630191Y-144212000D01*
X151677810Y-144259619D01*
X151725429Y-144354857D01*
X151773048Y-144545333D01*
X151773048Y-144783429D01*
X151725429Y-144973905D01*
X151677810Y-145069143D01*
X151630191Y-145116762D01*
X151534953Y-145164381D01*
X151439714Y-145164381D01*
X151344476Y-145116762D01*
X151296857Y-145069143D01*
X151249238Y-144973905D01*
X151201619Y-144783429D01*
X151201619Y-144545333D01*
X151249238Y-144354857D01*
X151296857Y-144259619D01*
X151344476Y-144212000D01*
X151439714Y-144164381D01*
X152201619Y-145069143D02*
X152249238Y-145116762D01*
X152201619Y-145164381D01*
X152154000Y-145116762D01*
X152201619Y-145069143D01*
X152201619Y-145164381D01*
X153201619Y-145164381D02*
X152630190Y-145164381D01*
X152915904Y-145164381D02*
X152915904Y-144164381D01*
X152820666Y-144307238D01*
X152725428Y-144402476D01*
X152630190Y-144450095D01*
X154058762Y-144497714D02*
X154058762Y-145164381D01*
X153630190Y-144497714D02*
X153630190Y-145021524D01*
X153677809Y-145116762D01*
X153773047Y-145164381D01*
X153915905Y-145164381D01*
X154011143Y-145116762D01*
X154058762Y-145069143D01*
X111720381Y-123642286D02*
X111720381Y-123547047D01*
X111768000Y-123451809D01*
X111815619Y-123404190D01*
X111910857Y-123356571D01*
X112101333Y-123308952D01*
X112339429Y-123308952D01*
X112529905Y-123356571D01*
X112625143Y-123404190D01*
X112672762Y-123451809D01*
X112720381Y-123547047D01*
X112720381Y-123642286D01*
X112672762Y-123737524D01*
X112625143Y-123785143D01*
X112529905Y-123832762D01*
X112339429Y-123880381D01*
X112101333Y-123880381D01*
X111910857Y-123832762D01*
X111815619Y-123785143D01*
X111768000Y-123737524D01*
X111720381Y-123642286D01*
X112625143Y-122880381D02*
X112672762Y-122832762D01*
X112720381Y-122880381D01*
X112672762Y-122928000D01*
X112625143Y-122880381D01*
X112720381Y-122880381D01*
X112720381Y-121880381D02*
X112720381Y-122451810D01*
X112720381Y-122166096D02*
X111720381Y-122166096D01*
X111863238Y-122261334D01*
X111958476Y-122356572D01*
X112006095Y-122451810D01*
X112053714Y-121023238D02*
X112720381Y-121023238D01*
X112053714Y-121451810D02*
X112577524Y-121451810D01*
X112672762Y-121404191D01*
X112720381Y-121308953D01*
X112720381Y-121166095D01*
X112672762Y-121070857D01*
X112625143Y-121023238D01*
X135437714Y-116292381D02*
X135532953Y-116292381D01*
X135628191Y-116340000D01*
X135675810Y-116387619D01*
X135723429Y-116482857D01*
X135771048Y-116673333D01*
X135771048Y-116911429D01*
X135723429Y-117101905D01*
X135675810Y-117197143D01*
X135628191Y-117244762D01*
X135532953Y-117292381D01*
X135437714Y-117292381D01*
X135342476Y-117244762D01*
X135294857Y-117197143D01*
X135247238Y-117101905D01*
X135199619Y-116911429D01*
X135199619Y-116673333D01*
X135247238Y-116482857D01*
X135294857Y-116387619D01*
X135342476Y-116340000D01*
X135437714Y-116292381D01*
X136199619Y-117197143D02*
X136247238Y-117244762D01*
X136199619Y-117292381D01*
X136152000Y-117244762D01*
X136199619Y-117197143D01*
X136199619Y-117292381D01*
X137199619Y-117292381D02*
X136628190Y-117292381D01*
X136913904Y-117292381D02*
X136913904Y-116292381D01*
X136818666Y-116435238D01*
X136723428Y-116530476D01*
X136628190Y-116578095D01*
X138056762Y-116625714D02*
X138056762Y-117292381D01*
X137628190Y-116625714D02*
X137628190Y-117149524D01*
X137675809Y-117244762D01*
X137771047Y-117292381D01*
X137913905Y-117292381D01*
X138009143Y-117244762D01*
X138056762Y-117197143D01*
X124769714Y-142776381D02*
X124864953Y-142776381D01*
X124960191Y-142824000D01*
X125007810Y-142871619D01*
X125055429Y-142966857D01*
X125103048Y-143157333D01*
X125103048Y-143395429D01*
X125055429Y-143585905D01*
X125007810Y-143681143D01*
X124960191Y-143728762D01*
X124864953Y-143776381D01*
X124769714Y-143776381D01*
X124674476Y-143728762D01*
X124626857Y-143681143D01*
X124579238Y-143585905D01*
X124531619Y-143395429D01*
X124531619Y-143157333D01*
X124579238Y-142966857D01*
X124626857Y-142871619D01*
X124674476Y-142824000D01*
X124769714Y-142776381D01*
X125531619Y-143681143D02*
X125579238Y-143728762D01*
X125531619Y-143776381D01*
X125484000Y-143728762D01*
X125531619Y-143681143D01*
X125531619Y-143776381D01*
X126531619Y-143776381D02*
X125960190Y-143776381D01*
X126245904Y-143776381D02*
X126245904Y-142776381D01*
X126150666Y-142919238D01*
X126055428Y-143014476D01*
X125960190Y-143062095D01*
X127388762Y-143109714D02*
X127388762Y-143776381D01*
X126960190Y-143109714D02*
X126960190Y-143633524D01*
X127007809Y-143728762D01*
X127103047Y-143776381D01*
X127245905Y-143776381D01*
X127341143Y-143728762D01*
X127388762Y-143681143D01*
X132643714Y-88352381D02*
X132738953Y-88352381D01*
X132834191Y-88400000D01*
X132881810Y-88447619D01*
X132929429Y-88542857D01*
X132977048Y-88733333D01*
X132977048Y-88971429D01*
X132929429Y-89161905D01*
X132881810Y-89257143D01*
X132834191Y-89304762D01*
X132738953Y-89352381D01*
X132643714Y-89352381D01*
X132548476Y-89304762D01*
X132500857Y-89257143D01*
X132453238Y-89161905D01*
X132405619Y-88971429D01*
X132405619Y-88733333D01*
X132453238Y-88542857D01*
X132500857Y-88447619D01*
X132548476Y-88400000D01*
X132643714Y-88352381D01*
X133405619Y-89257143D02*
X133453238Y-89304762D01*
X133405619Y-89352381D01*
X133358000Y-89304762D01*
X133405619Y-89257143D01*
X133405619Y-89352381D01*
X134405619Y-89352381D02*
X133834190Y-89352381D01*
X134119904Y-89352381D02*
X134119904Y-88352381D01*
X134024666Y-88495238D01*
X133929428Y-88590476D01*
X133834190Y-88638095D01*
X135262762Y-88685714D02*
X135262762Y-89352381D01*
X134834190Y-88685714D02*
X134834190Y-89209524D01*
X134881809Y-89304762D01*
X134977047Y-89352381D01*
X135119905Y-89352381D01*
X135215143Y-89304762D01*
X135262762Y-89257143D01*
X133659714Y-101814381D02*
X133754953Y-101814381D01*
X133850191Y-101862000D01*
X133897810Y-101909619D01*
X133945429Y-102004857D01*
X133993048Y-102195333D01*
X133993048Y-102433429D01*
X133945429Y-102623905D01*
X133897810Y-102719143D01*
X133850191Y-102766762D01*
X133754953Y-102814381D01*
X133659714Y-102814381D01*
X133564476Y-102766762D01*
X133516857Y-102719143D01*
X133469238Y-102623905D01*
X133421619Y-102433429D01*
X133421619Y-102195333D01*
X133469238Y-102004857D01*
X133516857Y-101909619D01*
X133564476Y-101862000D01*
X133659714Y-101814381D01*
X134421619Y-102719143D02*
X134469238Y-102766762D01*
X134421619Y-102814381D01*
X134374000Y-102766762D01*
X134421619Y-102719143D01*
X134421619Y-102814381D01*
X135421619Y-102814381D02*
X134850190Y-102814381D01*
X135135904Y-102814381D02*
X135135904Y-101814381D01*
X135040666Y-101957238D01*
X134945428Y-102052476D01*
X134850190Y-102100095D01*
X136278762Y-102147714D02*
X136278762Y-102814381D01*
X135850190Y-102147714D02*
X135850190Y-102671524D01*
X135897809Y-102766762D01*
X135993047Y-102814381D01*
X136135905Y-102814381D01*
X136231143Y-102766762D01*
X136278762Y-102719143D01*
X121975714Y-87844381D02*
X122070953Y-87844381D01*
X122166191Y-87892000D01*
X122213810Y-87939619D01*
X122261429Y-88034857D01*
X122309048Y-88225333D01*
X122309048Y-88463429D01*
X122261429Y-88653905D01*
X122213810Y-88749143D01*
X122166191Y-88796762D01*
X122070953Y-88844381D01*
X121975714Y-88844381D01*
X121880476Y-88796762D01*
X121832857Y-88749143D01*
X121785238Y-88653905D01*
X121737619Y-88463429D01*
X121737619Y-88225333D01*
X121785238Y-88034857D01*
X121832857Y-87939619D01*
X121880476Y-87892000D01*
X121975714Y-87844381D01*
X122737619Y-88749143D02*
X122785238Y-88796762D01*
X122737619Y-88844381D01*
X122690000Y-88796762D01*
X122737619Y-88749143D01*
X122737619Y-88844381D01*
X123737619Y-88844381D02*
X123166190Y-88844381D01*
X123451904Y-88844381D02*
X123451904Y-87844381D01*
X123356666Y-87987238D01*
X123261428Y-88082476D01*
X123166190Y-88130095D01*
X124594762Y-88177714D02*
X124594762Y-88844381D01*
X124166190Y-88177714D02*
X124166190Y-88701524D01*
X124213809Y-88796762D01*
X124309047Y-88844381D01*
X124451905Y-88844381D01*
X124547143Y-88796762D01*
X124594762Y-88749143D01*
X98861714Y-88098381D02*
X98956953Y-88098381D01*
X99052191Y-88146000D01*
X99099810Y-88193619D01*
X99147429Y-88288857D01*
X99195048Y-88479333D01*
X99195048Y-88717429D01*
X99147429Y-88907905D01*
X99099810Y-89003143D01*
X99052191Y-89050762D01*
X98956953Y-89098381D01*
X98861714Y-89098381D01*
X98766476Y-89050762D01*
X98718857Y-89003143D01*
X98671238Y-88907905D01*
X98623619Y-88717429D01*
X98623619Y-88479333D01*
X98671238Y-88288857D01*
X98718857Y-88193619D01*
X98766476Y-88146000D01*
X98861714Y-88098381D01*
X99623619Y-89003143D02*
X99671238Y-89050762D01*
X99623619Y-89098381D01*
X99576000Y-89050762D01*
X99623619Y-89003143D01*
X99623619Y-89098381D01*
X100623619Y-89098381D02*
X100052190Y-89098381D01*
X100337904Y-89098381D02*
X100337904Y-88098381D01*
X100242666Y-88241238D01*
X100147428Y-88336476D01*
X100052190Y-88384095D01*
X101480762Y-88431714D02*
X101480762Y-89098381D01*
X101052190Y-88431714D02*
X101052190Y-88955524D01*
X101099809Y-89050762D01*
X101195047Y-89098381D01*
X101337905Y-89098381D01*
X101433143Y-89050762D01*
X101480762Y-89003143D01*
X112831714Y-100036381D02*
X112926953Y-100036381D01*
X113022191Y-100084000D01*
X113069810Y-100131619D01*
X113117429Y-100226857D01*
X113165048Y-100417333D01*
X113165048Y-100655429D01*
X113117429Y-100845905D01*
X113069810Y-100941143D01*
X113022191Y-100988762D01*
X112926953Y-101036381D01*
X112831714Y-101036381D01*
X112736476Y-100988762D01*
X112688857Y-100941143D01*
X112641238Y-100845905D01*
X112593619Y-100655429D01*
X112593619Y-100417333D01*
X112641238Y-100226857D01*
X112688857Y-100131619D01*
X112736476Y-100084000D01*
X112831714Y-100036381D01*
X113593619Y-100941143D02*
X113641238Y-100988762D01*
X113593619Y-101036381D01*
X113546000Y-100988762D01*
X113593619Y-100941143D01*
X113593619Y-101036381D01*
X114593619Y-101036381D02*
X114022190Y-101036381D01*
X114307904Y-101036381D02*
X114307904Y-100036381D01*
X114212666Y-100179238D01*
X114117428Y-100274476D01*
X114022190Y-100322095D01*
X115450762Y-100369714D02*
X115450762Y-101036381D01*
X115022190Y-100369714D02*
X115022190Y-100893524D01*
X115069809Y-100988762D01*
X115165047Y-101036381D01*
X115307905Y-101036381D01*
X115403143Y-100988762D01*
X115450762Y-100941143D01*
X113085714Y-114006381D02*
X113180953Y-114006381D01*
X113276191Y-114054000D01*
X113323810Y-114101619D01*
X113371429Y-114196857D01*
X113419048Y-114387333D01*
X113419048Y-114625429D01*
X113371429Y-114815905D01*
X113323810Y-114911143D01*
X113276191Y-114958762D01*
X113180953Y-115006381D01*
X113085714Y-115006381D01*
X112990476Y-114958762D01*
X112942857Y-114911143D01*
X112895238Y-114815905D01*
X112847619Y-114625429D01*
X112847619Y-114387333D01*
X112895238Y-114196857D01*
X112942857Y-114101619D01*
X112990476Y-114054000D01*
X113085714Y-114006381D01*
X113847619Y-114911143D02*
X113895238Y-114958762D01*
X113847619Y-115006381D01*
X113800000Y-114958762D01*
X113847619Y-114911143D01*
X113847619Y-115006381D01*
X114847619Y-115006381D02*
X114276190Y-115006381D01*
X114561904Y-115006381D02*
X114561904Y-114006381D01*
X114466666Y-114149238D01*
X114371428Y-114244476D01*
X114276190Y-114292095D01*
X115704762Y-114339714D02*
X115704762Y-115006381D01*
X115276190Y-114339714D02*
X115276190Y-114863524D01*
X115323809Y-114958762D01*
X115419047Y-115006381D01*
X115561905Y-115006381D01*
X115657143Y-114958762D01*
X115704762Y-114911143D01*
X93019714Y-104354381D02*
X93114953Y-104354381D01*
X93210191Y-104402000D01*
X93257810Y-104449619D01*
X93305429Y-104544857D01*
X93353048Y-104735333D01*
X93353048Y-104973429D01*
X93305429Y-105163905D01*
X93257810Y-105259143D01*
X93210191Y-105306762D01*
X93114953Y-105354381D01*
X93019714Y-105354381D01*
X92924476Y-105306762D01*
X92876857Y-105259143D01*
X92829238Y-105163905D01*
X92781619Y-104973429D01*
X92781619Y-104735333D01*
X92829238Y-104544857D01*
X92876857Y-104449619D01*
X92924476Y-104402000D01*
X93019714Y-104354381D01*
X93781619Y-105259143D02*
X93829238Y-105306762D01*
X93781619Y-105354381D01*
X93734000Y-105306762D01*
X93781619Y-105259143D01*
X93781619Y-105354381D01*
X94781619Y-105354381D02*
X94210190Y-105354381D01*
X94495904Y-105354381D02*
X94495904Y-104354381D01*
X94400666Y-104497238D01*
X94305428Y-104592476D01*
X94210190Y-104640095D01*
X95638762Y-104687714D02*
X95638762Y-105354381D01*
X95210190Y-104687714D02*
X95210190Y-105211524D01*
X95257809Y-105306762D01*
X95353047Y-105354381D01*
X95495905Y-105354381D01*
X95591143Y-105306762D01*
X95638762Y-105259143D01*
X94035714Y-87844381D02*
X94130953Y-87844381D01*
X94226191Y-87892000D01*
X94273810Y-87939619D01*
X94321429Y-88034857D01*
X94369048Y-88225333D01*
X94369048Y-88463429D01*
X94321429Y-88653905D01*
X94273810Y-88749143D01*
X94226191Y-88796762D01*
X94130953Y-88844381D01*
X94035714Y-88844381D01*
X93940476Y-88796762D01*
X93892857Y-88749143D01*
X93845238Y-88653905D01*
X93797619Y-88463429D01*
X93797619Y-88225333D01*
X93845238Y-88034857D01*
X93892857Y-87939619D01*
X93940476Y-87892000D01*
X94035714Y-87844381D01*
X94797619Y-88749143D02*
X94845238Y-88796762D01*
X94797619Y-88844381D01*
X94750000Y-88796762D01*
X94797619Y-88749143D01*
X94797619Y-88844381D01*
X95797619Y-88844381D02*
X95226190Y-88844381D01*
X95511904Y-88844381D02*
X95511904Y-87844381D01*
X95416666Y-87987238D01*
X95321428Y-88082476D01*
X95226190Y-88130095D01*
X96654762Y-88177714D02*
X96654762Y-88844381D01*
X96226190Y-88177714D02*
X96226190Y-88701524D01*
X96273809Y-88796762D01*
X96369047Y-88844381D01*
X96511905Y-88844381D01*
X96607143Y-88796762D01*
X96654762Y-88749143D01*
X83590001Y-161091571D02*
X83732858Y-161139190D01*
X83780477Y-161186810D01*
X83828096Y-161282048D01*
X83828096Y-161424905D01*
X83780477Y-161520143D01*
X83732858Y-161567762D01*
X83637620Y-161615381D01*
X83256667Y-161615381D01*
X83256667Y-160615381D01*
X83590001Y-160615381D01*
X83685239Y-160663000D01*
X83732858Y-160710619D01*
X83780477Y-160805857D01*
X83780477Y-160901095D01*
X83732858Y-160996333D01*
X83685239Y-161043952D01*
X83590001Y-161091571D01*
X83256667Y-161091571D01*
X84209048Y-161329667D02*
X84685239Y-161329667D01*
X84113810Y-161615381D02*
X84447143Y-160615381D01*
X84780477Y-161615381D01*
X85113810Y-161615381D02*
X85113810Y-160615381D01*
X85685239Y-161615381D01*
X85685239Y-160615381D01*
X86161429Y-161234429D02*
X86923334Y-161234429D01*
X95528001Y-151312571D02*
X95670858Y-151360190D01*
X95718477Y-151407810D01*
X95766096Y-151503048D01*
X95766096Y-151645905D01*
X95718477Y-151741143D01*
X95670858Y-151788762D01*
X95575620Y-151836381D01*
X95194667Y-151836381D01*
X95194667Y-150836381D01*
X95528001Y-150836381D01*
X95623239Y-150884000D01*
X95670858Y-150931619D01*
X95718477Y-151026857D01*
X95718477Y-151122095D01*
X95670858Y-151217333D01*
X95623239Y-151264952D01*
X95528001Y-151312571D01*
X95194667Y-151312571D01*
X96147048Y-151550667D02*
X96623239Y-151550667D01*
X96051810Y-151836381D02*
X96385143Y-150836381D01*
X96718477Y-151836381D01*
X97051810Y-151836381D02*
X97051810Y-150836381D01*
X97623239Y-151836381D01*
X97623239Y-150836381D01*
X98099429Y-151455429D02*
X98861334Y-151455429D01*
X98480382Y-151836381D02*
X98480382Y-151074476D01*
X161353620Y-148720571D02*
X161496477Y-148768190D01*
X161544096Y-148815810D01*
X161591715Y-148911048D01*
X161591715Y-149053905D01*
X161544096Y-149149143D01*
X161496477Y-149196762D01*
X161401239Y-149244381D01*
X161020286Y-149244381D01*
X161020286Y-148244381D01*
X161353620Y-148244381D01*
X161448858Y-148292000D01*
X161496477Y-148339619D01*
X161544096Y-148434857D01*
X161544096Y-148530095D01*
X161496477Y-148625333D01*
X161448858Y-148672952D01*
X161353620Y-148720571D01*
X161020286Y-148720571D01*
X162020286Y-149244381D02*
X162020286Y-148244381D01*
X162591715Y-149244381D01*
X162591715Y-148244381D01*
X163639334Y-149149143D02*
X163591715Y-149196762D01*
X163448858Y-149244381D01*
X163353620Y-149244381D01*
X163210762Y-149196762D01*
X163115524Y-149101524D01*
X163067905Y-149006286D01*
X163020286Y-148815810D01*
X163020286Y-148672952D01*
X163067905Y-148482476D01*
X163115524Y-148387238D01*
X163210762Y-148292000D01*
X163353620Y-148244381D01*
X163448858Y-148244381D01*
X163591715Y-148292000D01*
X163639334Y-148339619D01*
X76478095Y-94797619D02*
X76525714Y-94750000D01*
X76620952Y-94702381D01*
X76859048Y-94702381D01*
X76954286Y-94750000D01*
X77001905Y-94797619D01*
X77049524Y-94892857D01*
X77049524Y-94988095D01*
X77001905Y-95130952D01*
X76430476Y-95702381D01*
X77049524Y-95702381D01*
X77668571Y-94702381D02*
X77763810Y-94702381D01*
X77859048Y-94750000D01*
X77906667Y-94797619D01*
X77954286Y-94892857D01*
X78001905Y-95083333D01*
X78001905Y-95321429D01*
X77954286Y-95511905D01*
X77906667Y-95607143D01*
X77859048Y-95654762D01*
X77763810Y-95702381D01*
X77668571Y-95702381D01*
X77573333Y-95654762D01*
X77525714Y-95607143D01*
X77478095Y-95511905D01*
X77430476Y-95321429D01*
X77430476Y-95083333D01*
X77478095Y-94892857D01*
X77525714Y-94797619D01*
X77573333Y-94750000D01*
X77668571Y-94702381D01*
X78430476Y-95702381D02*
X78430476Y-94702381D01*
X78763810Y-95416667D01*
X79097143Y-94702381D01*
X79097143Y-95702381D01*
X79573333Y-95702381D02*
X79573333Y-94702381D01*
X79573333Y-95178571D02*
X80144762Y-95178571D01*
X80144762Y-95702381D02*
X80144762Y-94702381D01*
X80525714Y-95035714D02*
X81049524Y-95035714D01*
X80525714Y-95702381D01*
X81049524Y-95702381D01*
X149804381Y-123356476D02*
X149804381Y-123832667D01*
X148804381Y-123832667D01*
X149804381Y-123023143D02*
X148804381Y-123023143D01*
X149518667Y-122689809D01*
X148804381Y-122356476D01*
X149804381Y-122356476D01*
X148804381Y-121975524D02*
X148804381Y-121356476D01*
X149185333Y-121689810D01*
X149185333Y-121546952D01*
X149232952Y-121451714D01*
X149280571Y-121404095D01*
X149375810Y-121356476D01*
X149613905Y-121356476D01*
X149709143Y-121404095D01*
X149756762Y-121451714D01*
X149804381Y-121546952D01*
X149804381Y-121832667D01*
X149756762Y-121927905D01*
X149709143Y-121975524D01*
X149804381Y-120404095D02*
X149804381Y-120975524D01*
X149804381Y-120689810D02*
X148804381Y-120689810D01*
X148947238Y-120785048D01*
X149042476Y-120880286D01*
X149090095Y-120975524D01*
X148804381Y-120070762D02*
X148804381Y-119404095D01*
X149804381Y-119832667D01*
X161742381Y-123356476D02*
X161742381Y-123832667D01*
X160742381Y-123832667D01*
X161742381Y-123023143D02*
X160742381Y-123023143D01*
X161456667Y-122689809D01*
X160742381Y-122356476D01*
X161742381Y-122356476D01*
X160742381Y-121975524D02*
X160742381Y-121356476D01*
X161123333Y-121689810D01*
X161123333Y-121546952D01*
X161170952Y-121451714D01*
X161218571Y-121404095D01*
X161313810Y-121356476D01*
X161551905Y-121356476D01*
X161647143Y-121404095D01*
X161694762Y-121451714D01*
X161742381Y-121546952D01*
X161742381Y-121832667D01*
X161694762Y-121927905D01*
X161647143Y-121975524D01*
X161742381Y-120404095D02*
X161742381Y-120975524D01*
X161742381Y-120689810D02*
X160742381Y-120689810D01*
X160885238Y-120785048D01*
X160980476Y-120880286D01*
X161028095Y-120975524D01*
X160742381Y-120070762D02*
X160742381Y-119404095D01*
X161742381Y-119832667D01*
X150328381Y-156511238D02*
X150328381Y-155844571D01*
X151328381Y-156273143D01*
X150661714Y-155035047D02*
X151328381Y-155035047D01*
X150280762Y-155273143D02*
X150995048Y-155511238D01*
X150995048Y-154892190D01*
X151328381Y-154035047D02*
X151328381Y-154511238D01*
X150328381Y-154511238D01*
X150328381Y-153844571D02*
X151328381Y-153511238D01*
X150328381Y-153177904D01*
X151233143Y-152273142D02*
X151280762Y-152320761D01*
X151328381Y-152463618D01*
X151328381Y-152558856D01*
X151280762Y-152701714D01*
X151185524Y-152796952D01*
X151090286Y-152844571D01*
X150899810Y-152892190D01*
X150756952Y-152892190D01*
X150566476Y-152844571D01*
X150471238Y-152796952D01*
X150376000Y-152701714D01*
X150328381Y-152558856D01*
X150328381Y-152463618D01*
X150376000Y-152320761D01*
X150423619Y-152273142D01*
X151328381Y-151320761D02*
X151328381Y-151892190D01*
X151328381Y-151606476D02*
X150328381Y-151606476D01*
X150471238Y-151701714D01*
X150566476Y-151796952D01*
X150614095Y-151892190D01*
X150661714Y-150463618D02*
X151328381Y-150463618D01*
X150280762Y-150701714D02*
X150995048Y-150939809D01*
X150995048Y-150320761D01*
X117308381Y-127047238D02*
X117308381Y-126380571D01*
X118308381Y-126809143D01*
X117641714Y-125571047D02*
X118308381Y-125571047D01*
X117260762Y-125809143D02*
X117975048Y-126047238D01*
X117975048Y-125428190D01*
X118308381Y-124571047D02*
X118308381Y-125047238D01*
X117308381Y-125047238D01*
X117308381Y-124380571D02*
X118308381Y-124047238D01*
X117308381Y-123713904D01*
X118213143Y-122809142D02*
X118260762Y-122856761D01*
X118308381Y-122999618D01*
X118308381Y-123094856D01*
X118260762Y-123237714D01*
X118165524Y-123332952D01*
X118070286Y-123380571D01*
X117879810Y-123428190D01*
X117736952Y-123428190D01*
X117546476Y-123380571D01*
X117451238Y-123332952D01*
X117356000Y-123237714D01*
X117308381Y-123094856D01*
X117308381Y-122999618D01*
X117356000Y-122856761D01*
X117403619Y-122809142D01*
X117308381Y-122475809D02*
X117308381Y-121809142D01*
X118308381Y-122237714D01*
X117641714Y-120999618D02*
X118308381Y-120999618D01*
X117260762Y-121237714D02*
X117975048Y-121475809D01*
X117975048Y-120856761D01*
X127468381Y-127015429D02*
X127468381Y-126348762D01*
X128468381Y-126777334D01*
X127801714Y-125539238D02*
X128468381Y-125539238D01*
X127420762Y-125777334D02*
X128135048Y-126015429D01*
X128135048Y-125396381D01*
X128468381Y-124539238D02*
X128468381Y-125015429D01*
X127468381Y-125015429D01*
X127468381Y-124348762D02*
X128468381Y-124015429D01*
X127468381Y-123682095D01*
X128373143Y-122777333D02*
X128420762Y-122824952D01*
X128468381Y-122967809D01*
X128468381Y-123063047D01*
X128420762Y-123205905D01*
X128325524Y-123301143D01*
X128230286Y-123348762D01*
X128039810Y-123396381D01*
X127896952Y-123396381D01*
X127706476Y-123348762D01*
X127611238Y-123301143D01*
X127516000Y-123205905D01*
X127468381Y-123063047D01*
X127468381Y-122967809D01*
X127516000Y-122824952D01*
X127563619Y-122777333D01*
X128468381Y-121824952D02*
X128468381Y-122396381D01*
X128468381Y-122110667D02*
X127468381Y-122110667D01*
X127611238Y-122205905D01*
X127706476Y-122301143D01*
X127754095Y-122396381D01*
X127468381Y-120967809D02*
X127468381Y-121158286D01*
X127516000Y-121253524D01*
X127563619Y-121301143D01*
X127706476Y-121396381D01*
X127896952Y-121444000D01*
X128277905Y-121444000D01*
X128373143Y-121396381D01*
X128420762Y-121348762D01*
X128468381Y-121253524D01*
X128468381Y-121063047D01*
X128420762Y-120967809D01*
X128373143Y-120920190D01*
X128277905Y-120872571D01*
X128039810Y-120872571D01*
X127944571Y-120920190D01*
X127896952Y-120967809D01*
X127849333Y-121063047D01*
X127849333Y-121253524D01*
X127896952Y-121348762D01*
X127944571Y-121396381D01*
X128039810Y-121444000D01*
X128468381Y-119920190D02*
X128468381Y-120491619D01*
X128468381Y-120205905D02*
X127468381Y-120205905D01*
X127611238Y-120301143D01*
X127706476Y-120396381D01*
X127754095Y-120491619D01*
X127468381Y-138223238D02*
X127468381Y-137556571D01*
X128468381Y-137985143D01*
X127801714Y-136747047D02*
X128468381Y-136747047D01*
X127420762Y-136985143D02*
X128135048Y-137223238D01*
X128135048Y-136604190D01*
X128468381Y-135747047D02*
X128468381Y-136223238D01*
X127468381Y-136223238D01*
X127468381Y-135556571D02*
X128468381Y-135223238D01*
X127468381Y-134889904D01*
X128373143Y-133985142D02*
X128420762Y-134032761D01*
X128468381Y-134175618D01*
X128468381Y-134270856D01*
X128420762Y-134413714D01*
X128325524Y-134508952D01*
X128230286Y-134556571D01*
X128039810Y-134604190D01*
X127896952Y-134604190D01*
X127706476Y-134556571D01*
X127611238Y-134508952D01*
X127516000Y-134413714D01*
X127468381Y-134270856D01*
X127468381Y-134175618D01*
X127516000Y-134032761D01*
X127563619Y-133985142D01*
X127468381Y-133651809D02*
X127468381Y-132985142D01*
X128468381Y-133413714D01*
X127801714Y-132175618D02*
X128468381Y-132175618D01*
X127420762Y-132413714D02*
X128135048Y-132651809D01*
X128135048Y-132032761D01*
X135088381Y-98599238D02*
X135088381Y-97932571D01*
X136088381Y-98361143D01*
X135421714Y-97123047D02*
X136088381Y-97123047D01*
X135040762Y-97361143D02*
X135755048Y-97599238D01*
X135755048Y-96980190D01*
X136088381Y-96123047D02*
X136088381Y-96599238D01*
X135088381Y-96599238D01*
X135088381Y-95932571D02*
X136088381Y-95599238D01*
X135088381Y-95265904D01*
X135993143Y-94361142D02*
X136040762Y-94408761D01*
X136088381Y-94551618D01*
X136088381Y-94646856D01*
X136040762Y-94789714D01*
X135945524Y-94884952D01*
X135850286Y-94932571D01*
X135659810Y-94980190D01*
X135516952Y-94980190D01*
X135326476Y-94932571D01*
X135231238Y-94884952D01*
X135136000Y-94789714D01*
X135088381Y-94646856D01*
X135088381Y-94551618D01*
X135136000Y-94408761D01*
X135183619Y-94361142D01*
X135088381Y-93742095D02*
X135088381Y-93646856D01*
X135136000Y-93551618D01*
X135183619Y-93503999D01*
X135278857Y-93456380D01*
X135469333Y-93408761D01*
X135707429Y-93408761D01*
X135897905Y-93456380D01*
X135993143Y-93503999D01*
X136040762Y-93551618D01*
X136088381Y-93646856D01*
X136088381Y-93742095D01*
X136040762Y-93837333D01*
X135993143Y-93884952D01*
X135897905Y-93932571D01*
X135707429Y-93980190D01*
X135469333Y-93980190D01*
X135278857Y-93932571D01*
X135183619Y-93884952D01*
X135136000Y-93837333D01*
X135088381Y-93742095D01*
X135088381Y-92789714D02*
X135088381Y-92694475D01*
X135136000Y-92599237D01*
X135183619Y-92551618D01*
X135278857Y-92503999D01*
X135469333Y-92456380D01*
X135707429Y-92456380D01*
X135897905Y-92503999D01*
X135993143Y-92551618D01*
X136040762Y-92599237D01*
X136088381Y-92694475D01*
X136088381Y-92789714D01*
X136040762Y-92884952D01*
X135993143Y-92932571D01*
X135897905Y-92980190D01*
X135707429Y-93027809D01*
X135469333Y-93027809D01*
X135278857Y-92980190D01*
X135183619Y-92932571D01*
X135136000Y-92884952D01*
X135088381Y-92789714D01*
X123912381Y-99075429D02*
X123912381Y-98408762D01*
X124912381Y-98837334D01*
X124245714Y-97599238D02*
X124912381Y-97599238D01*
X123864762Y-97837334D02*
X124579048Y-98075429D01*
X124579048Y-97456381D01*
X124912381Y-96599238D02*
X124912381Y-97075429D01*
X123912381Y-97075429D01*
X123912381Y-96408762D02*
X124912381Y-96075429D01*
X123912381Y-95742095D01*
X124817143Y-94837333D02*
X124864762Y-94884952D01*
X124912381Y-95027809D01*
X124912381Y-95123047D01*
X124864762Y-95265905D01*
X124769524Y-95361143D01*
X124674286Y-95408762D01*
X124483810Y-95456381D01*
X124340952Y-95456381D01*
X124150476Y-95408762D01*
X124055238Y-95361143D01*
X123960000Y-95265905D01*
X123912381Y-95123047D01*
X123912381Y-95027809D01*
X123960000Y-94884952D01*
X124007619Y-94837333D01*
X124912381Y-93884952D02*
X124912381Y-94456381D01*
X124912381Y-94170667D02*
X123912381Y-94170667D01*
X124055238Y-94265905D01*
X124150476Y-94361143D01*
X124198095Y-94456381D01*
X123912381Y-93027809D02*
X123912381Y-93218286D01*
X123960000Y-93313524D01*
X124007619Y-93361143D01*
X124150476Y-93456381D01*
X124340952Y-93504000D01*
X124721905Y-93504000D01*
X124817143Y-93456381D01*
X124864762Y-93408762D01*
X124912381Y-93313524D01*
X124912381Y-93123047D01*
X124864762Y-93027809D01*
X124817143Y-92980190D01*
X124721905Y-92932571D01*
X124483810Y-92932571D01*
X124388571Y-92980190D01*
X124340952Y-93027809D01*
X124293333Y-93123047D01*
X124293333Y-93313524D01*
X124340952Y-93408762D01*
X124388571Y-93456381D01*
X124483810Y-93504000D01*
X124912381Y-91980190D02*
X124912381Y-92551619D01*
X124912381Y-92265905D02*
X123912381Y-92265905D01*
X124055238Y-92361143D01*
X124150476Y-92456381D01*
X124198095Y-92551619D01*
X101052381Y-98599238D02*
X101052381Y-97932571D01*
X102052381Y-98361143D01*
X101385714Y-97123047D02*
X102052381Y-97123047D01*
X101004762Y-97361143D02*
X101719048Y-97599238D01*
X101719048Y-96980190D01*
X102052381Y-96123047D02*
X102052381Y-96599238D01*
X101052381Y-96599238D01*
X101052381Y-95932571D02*
X102052381Y-95599238D01*
X101052381Y-95265904D01*
X101957143Y-94361142D02*
X102004762Y-94408761D01*
X102052381Y-94551618D01*
X102052381Y-94646856D01*
X102004762Y-94789714D01*
X101909524Y-94884952D01*
X101814286Y-94932571D01*
X101623810Y-94980190D01*
X101480952Y-94980190D01*
X101290476Y-94932571D01*
X101195238Y-94884952D01*
X101100000Y-94789714D01*
X101052381Y-94646856D01*
X101052381Y-94551618D01*
X101100000Y-94408761D01*
X101147619Y-94361142D01*
X101052381Y-93742095D02*
X101052381Y-93646856D01*
X101100000Y-93551618D01*
X101147619Y-93503999D01*
X101242857Y-93456380D01*
X101433333Y-93408761D01*
X101671429Y-93408761D01*
X101861905Y-93456380D01*
X101957143Y-93503999D01*
X102004762Y-93551618D01*
X102052381Y-93646856D01*
X102052381Y-93742095D01*
X102004762Y-93837333D01*
X101957143Y-93884952D01*
X101861905Y-93932571D01*
X101671429Y-93980190D01*
X101433333Y-93980190D01*
X101242857Y-93932571D01*
X101147619Y-93884952D01*
X101100000Y-93837333D01*
X101052381Y-93742095D01*
X101052381Y-92789714D02*
X101052381Y-92694475D01*
X101100000Y-92599237D01*
X101147619Y-92551618D01*
X101242857Y-92503999D01*
X101433333Y-92456380D01*
X101671429Y-92456380D01*
X101861905Y-92503999D01*
X101957143Y-92551618D01*
X102004762Y-92599237D01*
X102052381Y-92694475D01*
X102052381Y-92789714D01*
X102004762Y-92884952D01*
X101957143Y-92932571D01*
X101861905Y-92980190D01*
X101671429Y-93027809D01*
X101433333Y-93027809D01*
X101242857Y-92980190D01*
X101147619Y-92932571D01*
X101100000Y-92884952D01*
X101052381Y-92789714D01*
X112736381Y-97043429D02*
X112736381Y-96376762D01*
X113736381Y-96805334D01*
X113069714Y-95567238D02*
X113736381Y-95567238D01*
X112688762Y-95805334D02*
X113403048Y-96043429D01*
X113403048Y-95424381D01*
X113736381Y-94567238D02*
X113736381Y-95043429D01*
X112736381Y-95043429D01*
X112736381Y-94376762D02*
X113736381Y-94043429D01*
X112736381Y-93710095D01*
X113641143Y-92805333D02*
X113688762Y-92852952D01*
X113736381Y-92995809D01*
X113736381Y-93091047D01*
X113688762Y-93233905D01*
X113593524Y-93329143D01*
X113498286Y-93376762D01*
X113307810Y-93424381D01*
X113164952Y-93424381D01*
X112974476Y-93376762D01*
X112879238Y-93329143D01*
X112784000Y-93233905D01*
X112736381Y-93091047D01*
X112736381Y-92995809D01*
X112784000Y-92852952D01*
X112831619Y-92805333D01*
X113736381Y-91852952D02*
X113736381Y-92424381D01*
X113736381Y-92138667D02*
X112736381Y-92138667D01*
X112879238Y-92233905D01*
X112974476Y-92329143D01*
X113022095Y-92424381D01*
X112736381Y-90995809D02*
X112736381Y-91186286D01*
X112784000Y-91281524D01*
X112831619Y-91329143D01*
X112974476Y-91424381D01*
X113164952Y-91472000D01*
X113545905Y-91472000D01*
X113641143Y-91424381D01*
X113688762Y-91376762D01*
X113736381Y-91281524D01*
X113736381Y-91091047D01*
X113688762Y-90995809D01*
X113641143Y-90948190D01*
X113545905Y-90900571D01*
X113307810Y-90900571D01*
X113212571Y-90948190D01*
X113164952Y-90995809D01*
X113117333Y-91091047D01*
X113117333Y-91281524D01*
X113164952Y-91376762D01*
X113212571Y-91424381D01*
X113307810Y-91472000D01*
X113736381Y-89948190D02*
X113736381Y-90519619D01*
X113736381Y-90233905D02*
X112736381Y-90233905D01*
X112879238Y-90329143D01*
X112974476Y-90424381D01*
X113022095Y-90519619D01*
X112736381Y-111267429D02*
X112736381Y-110600762D01*
X113736381Y-111029334D01*
X113069714Y-109791238D02*
X113736381Y-109791238D01*
X112688762Y-110029334D02*
X113403048Y-110267429D01*
X113403048Y-109648381D01*
X113736381Y-108791238D02*
X113736381Y-109267429D01*
X112736381Y-109267429D01*
X112736381Y-108600762D02*
X113736381Y-108267429D01*
X112736381Y-107934095D01*
X113641143Y-107029333D02*
X113688762Y-107076952D01*
X113736381Y-107219809D01*
X113736381Y-107315047D01*
X113688762Y-107457905D01*
X113593524Y-107553143D01*
X113498286Y-107600762D01*
X113307810Y-107648381D01*
X113164952Y-107648381D01*
X112974476Y-107600762D01*
X112879238Y-107553143D01*
X112784000Y-107457905D01*
X112736381Y-107315047D01*
X112736381Y-107219809D01*
X112784000Y-107076952D01*
X112831619Y-107029333D01*
X113736381Y-106076952D02*
X113736381Y-106648381D01*
X113736381Y-106362667D02*
X112736381Y-106362667D01*
X112879238Y-106457905D01*
X112974476Y-106553143D01*
X113022095Y-106648381D01*
X112736381Y-105219809D02*
X112736381Y-105410286D01*
X112784000Y-105505524D01*
X112831619Y-105553143D01*
X112974476Y-105648381D01*
X113164952Y-105696000D01*
X113545905Y-105696000D01*
X113641143Y-105648381D01*
X113688762Y-105600762D01*
X113736381Y-105505524D01*
X113736381Y-105315047D01*
X113688762Y-105219809D01*
X113641143Y-105172190D01*
X113545905Y-105124571D01*
X113307810Y-105124571D01*
X113212571Y-105172190D01*
X113164952Y-105219809D01*
X113117333Y-105315047D01*
X113117333Y-105505524D01*
X113164952Y-105600762D01*
X113212571Y-105648381D01*
X113307810Y-105696000D01*
X113736381Y-104172190D02*
X113736381Y-104743619D01*
X113736381Y-104457905D02*
X112736381Y-104457905D01*
X112879238Y-104553143D01*
X112974476Y-104648381D01*
X113022095Y-104743619D01*
X87082381Y-115585429D02*
X87082381Y-114918762D01*
X88082381Y-115347334D01*
X87415714Y-114109238D02*
X88082381Y-114109238D01*
X87034762Y-114347334D02*
X87749048Y-114585429D01*
X87749048Y-113966381D01*
X88082381Y-113109238D02*
X88082381Y-113585429D01*
X87082381Y-113585429D01*
X87082381Y-112918762D02*
X88082381Y-112585429D01*
X87082381Y-112252095D01*
X87987143Y-111347333D02*
X88034762Y-111394952D01*
X88082381Y-111537809D01*
X88082381Y-111633047D01*
X88034762Y-111775905D01*
X87939524Y-111871143D01*
X87844286Y-111918762D01*
X87653810Y-111966381D01*
X87510952Y-111966381D01*
X87320476Y-111918762D01*
X87225238Y-111871143D01*
X87130000Y-111775905D01*
X87082381Y-111633047D01*
X87082381Y-111537809D01*
X87130000Y-111394952D01*
X87177619Y-111347333D01*
X88082381Y-110394952D02*
X88082381Y-110966381D01*
X88082381Y-110680667D02*
X87082381Y-110680667D01*
X87225238Y-110775905D01*
X87320476Y-110871143D01*
X87368095Y-110966381D01*
X87082381Y-109537809D02*
X87082381Y-109728286D01*
X87130000Y-109823524D01*
X87177619Y-109871143D01*
X87320476Y-109966381D01*
X87510952Y-110014000D01*
X87891905Y-110014000D01*
X87987143Y-109966381D01*
X88034762Y-109918762D01*
X88082381Y-109823524D01*
X88082381Y-109633047D01*
X88034762Y-109537809D01*
X87987143Y-109490190D01*
X87891905Y-109442571D01*
X87653810Y-109442571D01*
X87558571Y-109490190D01*
X87510952Y-109537809D01*
X87463333Y-109633047D01*
X87463333Y-109823524D01*
X87510952Y-109918762D01*
X87558571Y-109966381D01*
X87653810Y-110014000D01*
X88082381Y-108490190D02*
X88082381Y-109061619D01*
X88082381Y-108775905D02*
X87082381Y-108775905D01*
X87225238Y-108871143D01*
X87320476Y-108966381D01*
X87368095Y-109061619D01*
X88352381Y-99075429D02*
X88352381Y-98408762D01*
X89352381Y-98837334D01*
X88685714Y-97599238D02*
X89352381Y-97599238D01*
X88304762Y-97837334D02*
X89019048Y-98075429D01*
X89019048Y-97456381D01*
X89352381Y-96599238D02*
X89352381Y-97075429D01*
X88352381Y-97075429D01*
X88352381Y-96408762D02*
X89352381Y-96075429D01*
X88352381Y-95742095D01*
X89257143Y-94837333D02*
X89304762Y-94884952D01*
X89352381Y-95027809D01*
X89352381Y-95123047D01*
X89304762Y-95265905D01*
X89209524Y-95361143D01*
X89114286Y-95408762D01*
X88923810Y-95456381D01*
X88780952Y-95456381D01*
X88590476Y-95408762D01*
X88495238Y-95361143D01*
X88400000Y-95265905D01*
X88352381Y-95123047D01*
X88352381Y-95027809D01*
X88400000Y-94884952D01*
X88447619Y-94837333D01*
X89352381Y-93884952D02*
X89352381Y-94456381D01*
X89352381Y-94170667D02*
X88352381Y-94170667D01*
X88495238Y-94265905D01*
X88590476Y-94361143D01*
X88638095Y-94456381D01*
X88352381Y-93027809D02*
X88352381Y-93218286D01*
X88400000Y-93313524D01*
X88447619Y-93361143D01*
X88590476Y-93456381D01*
X88780952Y-93504000D01*
X89161905Y-93504000D01*
X89257143Y-93456381D01*
X89304762Y-93408762D01*
X89352381Y-93313524D01*
X89352381Y-93123047D01*
X89304762Y-93027809D01*
X89257143Y-92980190D01*
X89161905Y-92932571D01*
X88923810Y-92932571D01*
X88828571Y-92980190D01*
X88780952Y-93027809D01*
X88733333Y-93123047D01*
X88733333Y-93313524D01*
X88780952Y-93408762D01*
X88828571Y-93456381D01*
X88923810Y-93504000D01*
X89352381Y-91980190D02*
X89352381Y-92551619D01*
X89352381Y-92265905D02*
X88352381Y-92265905D01*
X88495238Y-92361143D01*
X88590476Y-92456381D01*
X88638095Y-92551619D01*
X144811810Y-98004381D02*
X144335619Y-98004381D01*
X144288000Y-98480571D01*
X144335619Y-98432952D01*
X144430857Y-98385333D01*
X144668953Y-98385333D01*
X144764191Y-98432952D01*
X144811810Y-98480571D01*
X144859429Y-98575810D01*
X144859429Y-98813905D01*
X144811810Y-98909143D01*
X144764191Y-98956762D01*
X144668953Y-99004381D01*
X144430857Y-99004381D01*
X144335619Y-98956762D01*
X144288000Y-98909143D01*
X145288000Y-98909143D02*
X145335619Y-98956762D01*
X145288000Y-99004381D01*
X145240381Y-98956762D01*
X145288000Y-98909143D01*
X145288000Y-99004381D01*
X146288000Y-99004381D02*
X145716571Y-99004381D01*
X146002285Y-99004381D02*
X146002285Y-98004381D01*
X145907047Y-98147238D01*
X145811809Y-98242476D01*
X145716571Y-98290095D01*
X145288096Y-95797714D02*
X145288096Y-96464381D01*
X145050000Y-95416762D02*
X144811905Y-96131048D01*
X145430953Y-96131048D01*
X145716667Y-95464381D02*
X146383334Y-95464381D01*
X145954762Y-96464381D01*
X146954762Y-95464381D02*
X147050001Y-95464381D01*
X147145239Y-95512000D01*
X147192858Y-95559619D01*
X147240477Y-95654857D01*
X147288096Y-95845333D01*
X147288096Y-96083429D01*
X147240477Y-96273905D01*
X147192858Y-96369143D01*
X147145239Y-96416762D01*
X147050001Y-96464381D01*
X146954762Y-96464381D01*
X146859524Y-96416762D01*
X146811905Y-96369143D01*
X146764286Y-96273905D01*
X146716667Y-96083429D01*
X146716667Y-95845333D01*
X146764286Y-95654857D01*
X146811905Y-95559619D01*
X146859524Y-95512000D01*
X146954762Y-95464381D01*
X151225334Y-130822381D02*
X150653905Y-130822381D01*
X150939619Y-130822381D02*
X150939619Y-129822381D01*
X150844381Y-129965238D01*
X150749143Y-130060476D01*
X150653905Y-130108095D01*
X151701524Y-130822381D02*
X151892000Y-130822381D01*
X151987239Y-130774762D01*
X152034858Y-130727143D01*
X152130096Y-130584286D01*
X152177715Y-130393810D01*
X152177715Y-130012857D01*
X152130096Y-129917619D01*
X152082477Y-129870000D01*
X151987239Y-129822381D01*
X151796762Y-129822381D01*
X151701524Y-129870000D01*
X151653905Y-129917619D01*
X151606286Y-130012857D01*
X151606286Y-130250952D01*
X151653905Y-130346190D01*
X151701524Y-130393810D01*
X151796762Y-130441429D01*
X151987239Y-130441429D01*
X152082477Y-130393810D01*
X152130096Y-130346190D01*
X152177715Y-130250952D01*
X153034858Y-129822381D02*
X152844381Y-129822381D01*
X152749143Y-129870000D01*
X152701524Y-129917619D01*
X152606286Y-130060476D01*
X152558667Y-130250952D01*
X152558667Y-130631905D01*
X152606286Y-130727143D01*
X152653905Y-130774762D01*
X152749143Y-130822381D01*
X152939620Y-130822381D01*
X153034858Y-130774762D01*
X153082477Y-130727143D01*
X153130096Y-130631905D01*
X153130096Y-130393810D01*
X153082477Y-130298571D01*
X153034858Y-130250952D01*
X152939620Y-130203333D01*
X152749143Y-130203333D01*
X152653905Y-130250952D01*
X152606286Y-130298571D01*
X152558667Y-130393810D01*
X146145334Y-130822381D02*
X145573905Y-130822381D01*
X145859619Y-130822381D02*
X145859619Y-129822381D01*
X145764381Y-129965238D01*
X145669143Y-130060476D01*
X145573905Y-130108095D01*
X146526286Y-129917619D02*
X146573905Y-129870000D01*
X146669143Y-129822381D01*
X146907239Y-129822381D01*
X147002477Y-129870000D01*
X147050096Y-129917619D01*
X147097715Y-130012857D01*
X147097715Y-130108095D01*
X147050096Y-130250952D01*
X146478667Y-130822381D01*
X147097715Y-130822381D01*
X147716762Y-129822381D02*
X147812001Y-129822381D01*
X147907239Y-129870000D01*
X147954858Y-129917619D01*
X148002477Y-130012857D01*
X148050096Y-130203333D01*
X148050096Y-130441429D01*
X148002477Y-130631905D01*
X147954858Y-130727143D01*
X147907239Y-130774762D01*
X147812001Y-130822381D01*
X147716762Y-130822381D01*
X147621524Y-130774762D01*
X147573905Y-130727143D01*
X147526286Y-130631905D01*
X147478667Y-130441429D01*
X147478667Y-130203333D01*
X147526286Y-130012857D01*
X147573905Y-129917619D01*
X147621524Y-129870000D01*
X147716762Y-129822381D01*
X163710953Y-130822381D02*
X163139524Y-130822381D01*
X163425238Y-130822381D02*
X163425238Y-129822381D01*
X163330000Y-129965238D01*
X163234762Y-130060476D01*
X163139524Y-130108095D01*
X164139524Y-130822381D02*
X164139524Y-129822381D01*
X164234762Y-130441429D02*
X164520477Y-130822381D01*
X164520477Y-130155714D02*
X164139524Y-130536667D01*
X158083334Y-130822381D02*
X157511905Y-130822381D01*
X157797619Y-130822381D02*
X157797619Y-129822381D01*
X157702381Y-129965238D01*
X157607143Y-130060476D01*
X157511905Y-130108095D01*
X158464286Y-129917619D02*
X158511905Y-129870000D01*
X158607143Y-129822381D01*
X158845239Y-129822381D01*
X158940477Y-129870000D01*
X158988096Y-129917619D01*
X159035715Y-130012857D01*
X159035715Y-130108095D01*
X158988096Y-130250952D01*
X158416667Y-130822381D01*
X159035715Y-130822381D01*
X159654762Y-129822381D02*
X159750001Y-129822381D01*
X159845239Y-129870000D01*
X159892858Y-129917619D01*
X159940477Y-130012857D01*
X159988096Y-130203333D01*
X159988096Y-130441429D01*
X159940477Y-130631905D01*
X159892858Y-130727143D01*
X159845239Y-130774762D01*
X159750001Y-130822381D01*
X159654762Y-130822381D01*
X159559524Y-130774762D01*
X159511905Y-130727143D01*
X159464286Y-130631905D01*
X159416667Y-130441429D01*
X159416667Y-130203333D01*
X159464286Y-130012857D01*
X159511905Y-129917619D01*
X159559524Y-129870000D01*
X159654762Y-129822381D01*
X82105524Y-114752381D02*
X81534095Y-114752381D01*
X81819809Y-114752381D02*
X81819809Y-113752381D01*
X81724571Y-113895238D01*
X81629333Y-113990476D01*
X81534095Y-114038095D01*
X82724571Y-113752381D02*
X82819810Y-113752381D01*
X82915048Y-113800000D01*
X82962667Y-113847619D01*
X83010286Y-113942857D01*
X83057905Y-114133333D01*
X83057905Y-114371429D01*
X83010286Y-114561905D01*
X82962667Y-114657143D01*
X82915048Y-114704762D01*
X82819810Y-114752381D01*
X82724571Y-114752381D01*
X82629333Y-114704762D01*
X82581714Y-114657143D01*
X82534095Y-114561905D01*
X82486476Y-114371429D01*
X82486476Y-114133333D01*
X82534095Y-113942857D01*
X82581714Y-113847619D01*
X82629333Y-113800000D01*
X82724571Y-113752381D01*
X82105524Y-123896381D02*
X81534095Y-123896381D01*
X81819809Y-123896381D02*
X81819809Y-122896381D01*
X81724571Y-123039238D01*
X81629333Y-123134476D01*
X81534095Y-123182095D01*
X82724571Y-122896381D02*
X82819810Y-122896381D01*
X82915048Y-122944000D01*
X82962667Y-122991619D01*
X83010286Y-123086857D01*
X83057905Y-123277333D01*
X83057905Y-123515429D01*
X83010286Y-123705905D01*
X82962667Y-123801143D01*
X82915048Y-123848762D01*
X82819810Y-123896381D01*
X82724571Y-123896381D01*
X82629333Y-123848762D01*
X82581714Y-123801143D01*
X82534095Y-123705905D01*
X82486476Y-123515429D01*
X82486476Y-123277333D01*
X82534095Y-123086857D01*
X82581714Y-122991619D01*
X82629333Y-122944000D01*
X82724571Y-122896381D01*
X82137334Y-125928381D02*
X81565905Y-125928381D01*
X81851619Y-125928381D02*
X81851619Y-124928381D01*
X81756381Y-125071238D01*
X81661143Y-125166476D01*
X81565905Y-125214095D01*
X82756381Y-124928381D02*
X82851620Y-124928381D01*
X82946858Y-124976000D01*
X82994477Y-125023619D01*
X83042096Y-125118857D01*
X83089715Y-125309333D01*
X83089715Y-125547429D01*
X83042096Y-125737905D01*
X82994477Y-125833143D01*
X82946858Y-125880762D01*
X82851620Y-125928381D01*
X82756381Y-125928381D01*
X82661143Y-125880762D01*
X82613524Y-125833143D01*
X82565905Y-125737905D01*
X82518286Y-125547429D01*
X82518286Y-125309333D01*
X82565905Y-125118857D01*
X82613524Y-125023619D01*
X82661143Y-124976000D01*
X82756381Y-124928381D01*
X83708762Y-124928381D02*
X83804001Y-124928381D01*
X83899239Y-124976000D01*
X83946858Y-125023619D01*
X83994477Y-125118857D01*
X84042096Y-125309333D01*
X84042096Y-125547429D01*
X83994477Y-125737905D01*
X83946858Y-125833143D01*
X83899239Y-125880762D01*
X83804001Y-125928381D01*
X83708762Y-125928381D01*
X83613524Y-125880762D01*
X83565905Y-125833143D01*
X83518286Y-125737905D01*
X83470667Y-125547429D01*
X83470667Y-125309333D01*
X83518286Y-125118857D01*
X83565905Y-125023619D01*
X83613524Y-124976000D01*
X83708762Y-124928381D01*
X82137334Y-131008381D02*
X81565905Y-131008381D01*
X81851619Y-131008381D02*
X81851619Y-130008381D01*
X81756381Y-130151238D01*
X81661143Y-130246476D01*
X81565905Y-130294095D01*
X82756381Y-130008381D02*
X82851620Y-130008381D01*
X82946858Y-130056000D01*
X82994477Y-130103619D01*
X83042096Y-130198857D01*
X83089715Y-130389333D01*
X83089715Y-130627429D01*
X83042096Y-130817905D01*
X82994477Y-130913143D01*
X82946858Y-130960762D01*
X82851620Y-131008381D01*
X82756381Y-131008381D01*
X82661143Y-130960762D01*
X82613524Y-130913143D01*
X82565905Y-130817905D01*
X82518286Y-130627429D01*
X82518286Y-130389333D01*
X82565905Y-130198857D01*
X82613524Y-130103619D01*
X82661143Y-130056000D01*
X82756381Y-130008381D01*
X83708762Y-130008381D02*
X83804001Y-130008381D01*
X83899239Y-130056000D01*
X83946858Y-130103619D01*
X83994477Y-130198857D01*
X84042096Y-130389333D01*
X84042096Y-130627429D01*
X83994477Y-130817905D01*
X83946858Y-130913143D01*
X83899239Y-130960762D01*
X83804001Y-131008381D01*
X83708762Y-131008381D01*
X83613524Y-130960762D01*
X83565905Y-130913143D01*
X83518286Y-130817905D01*
X83470667Y-130627429D01*
X83470667Y-130389333D01*
X83518286Y-130198857D01*
X83565905Y-130103619D01*
X83613524Y-130056000D01*
X83708762Y-130008381D01*
X81518286Y-132040381D02*
X82137334Y-132040381D01*
X81804000Y-132421333D01*
X81946858Y-132421333D01*
X82042096Y-132468952D01*
X82089715Y-132516571D01*
X82137334Y-132611810D01*
X82137334Y-132849905D01*
X82089715Y-132945143D01*
X82042096Y-132992762D01*
X81946858Y-133040381D01*
X81661143Y-133040381D01*
X81565905Y-132992762D01*
X81518286Y-132945143D01*
X82756381Y-132040381D02*
X82851620Y-132040381D01*
X82946858Y-132088000D01*
X82994477Y-132135619D01*
X83042096Y-132230857D01*
X83089715Y-132421333D01*
X83089715Y-132659429D01*
X83042096Y-132849905D01*
X82994477Y-132945143D01*
X82946858Y-132992762D01*
X82851620Y-133040381D01*
X82756381Y-133040381D01*
X82661143Y-132992762D01*
X82613524Y-132945143D01*
X82565905Y-132849905D01*
X82518286Y-132659429D01*
X82518286Y-132421333D01*
X82565905Y-132230857D01*
X82613524Y-132135619D01*
X82661143Y-132088000D01*
X82756381Y-132040381D01*
X83708762Y-132040381D02*
X83804001Y-132040381D01*
X83899239Y-132088000D01*
X83946858Y-132135619D01*
X83994477Y-132230857D01*
X84042096Y-132421333D01*
X84042096Y-132659429D01*
X83994477Y-132849905D01*
X83946858Y-132945143D01*
X83899239Y-132992762D01*
X83804001Y-133040381D01*
X83708762Y-133040381D01*
X83613524Y-132992762D01*
X83565905Y-132945143D01*
X83518286Y-132849905D01*
X83470667Y-132659429D01*
X83470667Y-132421333D01*
X83518286Y-132230857D01*
X83565905Y-132135619D01*
X83613524Y-132088000D01*
X83708762Y-132040381D01*
X82176953Y-136088381D02*
X81605524Y-136088381D01*
X81891238Y-136088381D02*
X81891238Y-135088381D01*
X81796000Y-135231238D01*
X81700762Y-135326476D01*
X81605524Y-135374095D01*
X82605524Y-136088381D02*
X82605524Y-135088381D01*
X82700762Y-135707429D02*
X82986477Y-136088381D01*
X82986477Y-135421714D02*
X82605524Y-135802667D01*
X82176953Y-140152381D02*
X81605524Y-140152381D01*
X81891238Y-140152381D02*
X81891238Y-139152381D01*
X81796000Y-139295238D01*
X81700762Y-139390476D01*
X81605524Y-139438095D01*
X82605524Y-140152381D02*
X82605524Y-139152381D01*
X82700762Y-139771429D02*
X82986477Y-140152381D01*
X82986477Y-139485714D02*
X82605524Y-139866667D01*
X81557905Y-142200381D02*
X82176953Y-142200381D01*
X81843619Y-142581333D01*
X81986477Y-142581333D01*
X82081715Y-142628952D01*
X82129334Y-142676571D01*
X82176953Y-142771810D01*
X82176953Y-143009905D01*
X82129334Y-143105143D01*
X82081715Y-143152762D01*
X81986477Y-143200381D01*
X81700762Y-143200381D01*
X81605524Y-143152762D01*
X81557905Y-143105143D01*
X82605524Y-143200381D02*
X82605524Y-142200381D01*
X82700762Y-142819429D02*
X82986477Y-143200381D01*
X82986477Y-142533714D02*
X82605524Y-142914667D01*
X82208762Y-145232381D02*
X81637333Y-145232381D01*
X81923047Y-145232381D02*
X81923047Y-144232381D01*
X81827809Y-144375238D01*
X81732571Y-144470476D01*
X81637333Y-144518095D01*
X82827809Y-144232381D02*
X82923048Y-144232381D01*
X83018286Y-144280000D01*
X83065905Y-144327619D01*
X83113524Y-144422857D01*
X83161143Y-144613333D01*
X83161143Y-144851429D01*
X83113524Y-145041905D01*
X83065905Y-145137143D01*
X83018286Y-145184762D01*
X82923048Y-145232381D01*
X82827809Y-145232381D01*
X82732571Y-145184762D01*
X82684952Y-145137143D01*
X82637333Y-145041905D01*
X82589714Y-144851429D01*
X82589714Y-144613333D01*
X82637333Y-144422857D01*
X82684952Y-144327619D01*
X82732571Y-144280000D01*
X82827809Y-144232381D01*
X83589714Y-145232381D02*
X83589714Y-144232381D01*
X83684952Y-144851429D02*
X83970667Y-145232381D01*
X83970667Y-144565714D02*
X83589714Y-144946667D01*
X82208762Y-150312381D02*
X81637333Y-150312381D01*
X81923047Y-150312381D02*
X81923047Y-149312381D01*
X81827809Y-149455238D01*
X81732571Y-149550476D01*
X81637333Y-149598095D01*
X82827809Y-149312381D02*
X82923048Y-149312381D01*
X83018286Y-149360000D01*
X83065905Y-149407619D01*
X83113524Y-149502857D01*
X83161143Y-149693333D01*
X83161143Y-149931429D01*
X83113524Y-150121905D01*
X83065905Y-150217143D01*
X83018286Y-150264762D01*
X82923048Y-150312381D01*
X82827809Y-150312381D01*
X82732571Y-150264762D01*
X82684952Y-150217143D01*
X82637333Y-150121905D01*
X82589714Y-149931429D01*
X82589714Y-149693333D01*
X82637333Y-149502857D01*
X82684952Y-149407619D01*
X82732571Y-149360000D01*
X82827809Y-149312381D01*
X83589714Y-150312381D02*
X83589714Y-149312381D01*
X83684952Y-149931429D02*
X83970667Y-150312381D01*
X83970667Y-149645714D02*
X83589714Y-150026667D01*
X81589714Y-151344381D02*
X82208762Y-151344381D01*
X81875428Y-151725333D01*
X82018286Y-151725333D01*
X82113524Y-151772952D01*
X82161143Y-151820571D01*
X82208762Y-151915810D01*
X82208762Y-152153905D01*
X82161143Y-152249143D01*
X82113524Y-152296762D01*
X82018286Y-152344381D01*
X81732571Y-152344381D01*
X81637333Y-152296762D01*
X81589714Y-152249143D01*
X82827809Y-151344381D02*
X82923048Y-151344381D01*
X83018286Y-151392000D01*
X83065905Y-151439619D01*
X83113524Y-151534857D01*
X83161143Y-151725333D01*
X83161143Y-151963429D01*
X83113524Y-152153905D01*
X83065905Y-152249143D01*
X83018286Y-152296762D01*
X82923048Y-152344381D01*
X82827809Y-152344381D01*
X82732571Y-152296762D01*
X82684952Y-152249143D01*
X82637333Y-152153905D01*
X82589714Y-151963429D01*
X82589714Y-151725333D01*
X82637333Y-151534857D01*
X82684952Y-151439619D01*
X82732571Y-151392000D01*
X82827809Y-151344381D01*
X83589714Y-152344381D02*
X83589714Y-151344381D01*
X83684952Y-151963429D02*
X83970667Y-152344381D01*
X83970667Y-151677714D02*
X83589714Y-152058667D01*
X82240572Y-156408381D02*
X81669143Y-156408381D01*
X81954857Y-156408381D02*
X81954857Y-155408381D01*
X81859619Y-155551238D01*
X81764381Y-155646476D01*
X81669143Y-155694095D01*
X82859619Y-155408381D02*
X82954858Y-155408381D01*
X83050096Y-155456000D01*
X83097715Y-155503619D01*
X83145334Y-155598857D01*
X83192953Y-155789333D01*
X83192953Y-156027429D01*
X83145334Y-156217905D01*
X83097715Y-156313143D01*
X83050096Y-156360762D01*
X82954858Y-156408381D01*
X82859619Y-156408381D01*
X82764381Y-156360762D01*
X82716762Y-156313143D01*
X82669143Y-156217905D01*
X82621524Y-156027429D01*
X82621524Y-155789333D01*
X82669143Y-155598857D01*
X82716762Y-155503619D01*
X82764381Y-155456000D01*
X82859619Y-155408381D01*
X83812000Y-155408381D02*
X83907239Y-155408381D01*
X84002477Y-155456000D01*
X84050096Y-155503619D01*
X84097715Y-155598857D01*
X84145334Y-155789333D01*
X84145334Y-156027429D01*
X84097715Y-156217905D01*
X84050096Y-156313143D01*
X84002477Y-156360762D01*
X83907239Y-156408381D01*
X83812000Y-156408381D01*
X83716762Y-156360762D01*
X83669143Y-156313143D01*
X83621524Y-156217905D01*
X83573905Y-156027429D01*
X83573905Y-155789333D01*
X83621524Y-155598857D01*
X83669143Y-155503619D01*
X83716762Y-155456000D01*
X83812000Y-155408381D01*
X84573905Y-156408381D02*
X84573905Y-155408381D01*
X84669143Y-156027429D02*
X84954858Y-156408381D01*
X84954858Y-155741714D02*
X84573905Y-156122667D01*
X104020953Y-151328381D02*
X103449524Y-151328381D01*
X103735238Y-151328381D02*
X103735238Y-150328381D01*
X103640000Y-150471238D01*
X103544762Y-150566476D01*
X103449524Y-150614095D01*
X104449524Y-151328381D02*
X104449524Y-150328381D01*
X104544762Y-150947429D02*
X104830477Y-151328381D01*
X104830477Y-150661714D02*
X104449524Y-151042667D01*
X107132381Y-139819047D02*
X107132381Y-140390476D01*
X107132381Y-140104762D02*
X106132381Y-140104762D01*
X106275238Y-140200000D01*
X106370476Y-140295238D01*
X106418095Y-140390476D01*
X107132381Y-139390476D02*
X106132381Y-139390476D01*
X106751429Y-139295238D02*
X107132381Y-139009523D01*
X106465714Y-139009523D02*
X106846667Y-139390476D01*
X104084381Y-148978476D02*
X103084381Y-148978476D01*
X103798667Y-148645142D01*
X103084381Y-148311809D01*
X104084381Y-148311809D01*
X104084381Y-147835619D02*
X103084381Y-147835619D01*
X103798667Y-147502285D01*
X103084381Y-147168952D01*
X104084381Y-147168952D01*
X103560571Y-146359428D02*
X103608190Y-146216571D01*
X103655810Y-146168952D01*
X103751048Y-146121333D01*
X103893905Y-146121333D01*
X103989143Y-146168952D01*
X104036762Y-146216571D01*
X104084381Y-146311809D01*
X104084381Y-146692762D01*
X103084381Y-146692762D01*
X103084381Y-146359428D01*
X103132000Y-146264190D01*
X103179619Y-146216571D01*
X103274857Y-146168952D01*
X103370095Y-146168952D01*
X103465333Y-146216571D01*
X103512952Y-146264190D01*
X103560571Y-146359428D01*
X103560571Y-146692762D01*
X103084381Y-145835619D02*
X103084381Y-145264190D01*
X104084381Y-145549905D02*
X103084381Y-145549905D01*
X103179619Y-144978476D02*
X103132000Y-144930857D01*
X103084381Y-144835619D01*
X103084381Y-144597523D01*
X103132000Y-144502285D01*
X103179619Y-144454666D01*
X103274857Y-144407047D01*
X103370095Y-144407047D01*
X103512952Y-144454666D01*
X104084381Y-145026095D01*
X104084381Y-144407047D01*
X103084381Y-144073714D02*
X103084381Y-143454666D01*
X103465333Y-143788000D01*
X103465333Y-143645142D01*
X103512952Y-143549904D01*
X103560571Y-143502285D01*
X103655810Y-143454666D01*
X103893905Y-143454666D01*
X103989143Y-143502285D01*
X104036762Y-143549904D01*
X104084381Y-143645142D01*
X104084381Y-143930857D01*
X104036762Y-144026095D01*
X103989143Y-144073714D01*
X103084381Y-142597523D02*
X103084381Y-142788000D01*
X103132000Y-142883238D01*
X103179619Y-142930857D01*
X103322476Y-143026095D01*
X103512952Y-143073714D01*
X103893905Y-143073714D01*
X103989143Y-143026095D01*
X104036762Y-142978476D01*
X104084381Y-142883238D01*
X104084381Y-142692761D01*
X104036762Y-142597523D01*
X103989143Y-142549904D01*
X103893905Y-142502285D01*
X103655810Y-142502285D01*
X103560571Y-142549904D01*
X103512952Y-142597523D01*
X103465333Y-142692761D01*
X103465333Y-142883238D01*
X103512952Y-142978476D01*
X103560571Y-143026095D01*
X103655810Y-143073714D01*
X104084381Y-142026095D02*
X104084381Y-141835619D01*
X104036762Y-141740380D01*
X103989143Y-141692761D01*
X103846286Y-141597523D01*
X103655810Y-141549904D01*
X103274857Y-141549904D01*
X103179619Y-141597523D01*
X103132000Y-141645142D01*
X103084381Y-141740380D01*
X103084381Y-141930857D01*
X103132000Y-142026095D01*
X103179619Y-142073714D01*
X103274857Y-142121333D01*
X103512952Y-142121333D01*
X103608190Y-142073714D01*
X103655810Y-142026095D01*
X103703429Y-141930857D01*
X103703429Y-141740380D01*
X103655810Y-141645142D01*
X103608190Y-141597523D01*
X103512952Y-141549904D01*
X141740191Y-105354381D02*
X141264000Y-105354381D01*
X141264000Y-104354381D01*
X142073524Y-104830571D02*
X142406858Y-104830571D01*
X142549715Y-105354381D02*
X142073524Y-105354381D01*
X142073524Y-104354381D01*
X142549715Y-104354381D01*
X142978286Y-105354381D02*
X142978286Y-104354381D01*
X143216381Y-104354381D01*
X143359239Y-104402000D01*
X143454477Y-104497238D01*
X143502096Y-104592476D01*
X143549715Y-104782952D01*
X143549715Y-104925810D01*
X143502096Y-105116286D01*
X143454477Y-105211524D01*
X143359239Y-105306762D01*
X143216381Y-105354381D01*
X142978286Y-105354381D01*
X143740191Y-105449619D02*
X144502096Y-105449619D01*
X145264001Y-104402000D02*
X145168763Y-104354381D01*
X145025906Y-104354381D01*
X144883048Y-104402000D01*
X144787810Y-104497238D01*
X144740191Y-104592476D01*
X144692572Y-104782952D01*
X144692572Y-104925810D01*
X144740191Y-105116286D01*
X144787810Y-105211524D01*
X144883048Y-105306762D01*
X145025906Y-105354381D01*
X145121144Y-105354381D01*
X145264001Y-105306762D01*
X145311620Y-105259143D01*
X145311620Y-104925810D01*
X145121144Y-104925810D01*
X146311620Y-105354381D02*
X145978286Y-104878190D01*
X145740191Y-105354381D02*
X145740191Y-104354381D01*
X146121144Y-104354381D01*
X146216382Y-104402000D01*
X146264001Y-104449619D01*
X146311620Y-104544857D01*
X146311620Y-104687714D01*
X146264001Y-104782952D01*
X146216382Y-104830571D01*
X146121144Y-104878190D01*
X145740191Y-104878190D01*
X141740191Y-89860381D02*
X141264000Y-89860381D01*
X141264000Y-88860381D01*
X142073524Y-89336571D02*
X142406858Y-89336571D01*
X142549715Y-89860381D02*
X142073524Y-89860381D01*
X142073524Y-88860381D01*
X142549715Y-88860381D01*
X142978286Y-89860381D02*
X142978286Y-88860381D01*
X143216381Y-88860381D01*
X143359239Y-88908000D01*
X143454477Y-89003238D01*
X143502096Y-89098476D01*
X143549715Y-89288952D01*
X143549715Y-89431810D01*
X143502096Y-89622286D01*
X143454477Y-89717524D01*
X143359239Y-89812762D01*
X143216381Y-89860381D01*
X142978286Y-89860381D01*
X143740191Y-89955619D02*
X144502096Y-89955619D01*
X145264001Y-88908000D02*
X145168763Y-88860381D01*
X145025906Y-88860381D01*
X144883048Y-88908000D01*
X144787810Y-89003238D01*
X144740191Y-89098476D01*
X144692572Y-89288952D01*
X144692572Y-89431810D01*
X144740191Y-89622286D01*
X144787810Y-89717524D01*
X144883048Y-89812762D01*
X145025906Y-89860381D01*
X145121144Y-89860381D01*
X145264001Y-89812762D01*
X145311620Y-89765143D01*
X145311620Y-89431810D01*
X145121144Y-89431810D01*
X146311620Y-89860381D02*
X145978286Y-89384190D01*
X145740191Y-89860381D02*
X145740191Y-88860381D01*
X146121144Y-88860381D01*
X146216382Y-88908000D01*
X146264001Y-88955619D01*
X146311620Y-89050857D01*
X146311620Y-89193714D01*
X146264001Y-89288952D01*
X146216382Y-89336571D01*
X146121144Y-89384190D01*
X145740191Y-89384190D01*
X152804953Y-110942381D02*
X152233524Y-110942381D01*
X152519238Y-110942381D02*
X152519238Y-109942381D01*
X152424000Y-110085238D01*
X152328762Y-110180476D01*
X152233524Y-110228095D01*
X153424000Y-109942381D02*
X153519239Y-109942381D01*
X153614477Y-109990000D01*
X153662096Y-110037619D01*
X153709715Y-110132857D01*
X153757334Y-110323333D01*
X153757334Y-110561429D01*
X153709715Y-110751905D01*
X153662096Y-110847143D01*
X153614477Y-110894762D01*
X153519239Y-110942381D01*
X153424000Y-110942381D01*
X153328762Y-110894762D01*
X153281143Y-110847143D01*
X153233524Y-110751905D01*
X153185905Y-110561429D01*
X153185905Y-110323333D01*
X153233524Y-110132857D01*
X153281143Y-110037619D01*
X153328762Y-109990000D01*
X153424000Y-109942381D01*
X154376381Y-109942381D02*
X154471620Y-109942381D01*
X154566858Y-109990000D01*
X154614477Y-110037619D01*
X154662096Y-110132857D01*
X154709715Y-110323333D01*
X154709715Y-110561429D01*
X154662096Y-110751905D01*
X154614477Y-110847143D01*
X154566858Y-110894762D01*
X154471620Y-110942381D01*
X154376381Y-110942381D01*
X154281143Y-110894762D01*
X154233524Y-110847143D01*
X154185905Y-110751905D01*
X154138286Y-110561429D01*
X154138286Y-110323333D01*
X154185905Y-110132857D01*
X154233524Y-110037619D01*
X154281143Y-109990000D01*
X154376381Y-109942381D01*
X155566858Y-110275714D02*
X155566858Y-110942381D01*
X155138286Y-110275714D02*
X155138286Y-110799524D01*
X155185905Y-110894762D01*
X155281143Y-110942381D01*
X155424001Y-110942381D01*
X155519239Y-110894762D01*
X155566858Y-110847143D01*
X135596381Y-112791429D02*
X135596381Y-112124762D01*
X136596381Y-112553334D01*
X135929714Y-111315238D02*
X136596381Y-111315238D01*
X135548762Y-111553334D02*
X136263048Y-111791429D01*
X136263048Y-111172381D01*
X136596381Y-110315238D02*
X136596381Y-110791429D01*
X135596381Y-110791429D01*
X135596381Y-110124762D02*
X136596381Y-109791429D01*
X135596381Y-109458095D01*
X136501143Y-108553333D02*
X136548762Y-108600952D01*
X136596381Y-108743809D01*
X136596381Y-108839047D01*
X136548762Y-108981905D01*
X136453524Y-109077143D01*
X136358286Y-109124762D01*
X136167810Y-109172381D01*
X136024952Y-109172381D01*
X135834476Y-109124762D01*
X135739238Y-109077143D01*
X135644000Y-108981905D01*
X135596381Y-108839047D01*
X135596381Y-108743809D01*
X135644000Y-108600952D01*
X135691619Y-108553333D01*
X136596381Y-107600952D02*
X136596381Y-108172381D01*
X136596381Y-107886667D02*
X135596381Y-107886667D01*
X135739238Y-107981905D01*
X135834476Y-108077143D01*
X135882095Y-108172381D01*
X135596381Y-106743809D02*
X135596381Y-106934286D01*
X135644000Y-107029524D01*
X135691619Y-107077143D01*
X135834476Y-107172381D01*
X136024952Y-107220000D01*
X136405905Y-107220000D01*
X136501143Y-107172381D01*
X136548762Y-107124762D01*
X136596381Y-107029524D01*
X136596381Y-106839047D01*
X136548762Y-106743809D01*
X136501143Y-106696190D01*
X136405905Y-106648571D01*
X136167810Y-106648571D01*
X136072571Y-106696190D01*
X136024952Y-106743809D01*
X135977333Y-106839047D01*
X135977333Y-107029524D01*
X136024952Y-107124762D01*
X136072571Y-107172381D01*
X136167810Y-107220000D01*
X136596381Y-105696190D02*
X136596381Y-106267619D01*
X136596381Y-105981905D02*
X135596381Y-105981905D01*
X135739238Y-106077143D01*
X135834476Y-106172381D01*
X135882095Y-106267619D01*
X90777144Y-137956857D02*
X90377144Y-137385429D01*
X90091429Y-137956857D02*
X90091429Y-136756857D01*
X90548572Y-136756857D01*
X90662858Y-136814000D01*
X90720001Y-136871143D01*
X90777144Y-136985429D01*
X90777144Y-137156857D01*
X90720001Y-137271143D01*
X90662858Y-137328286D01*
X90548572Y-137385429D01*
X90091429Y-137385429D01*
X91520001Y-136756857D02*
X91748572Y-136756857D01*
X91862858Y-136814000D01*
X91977144Y-136928286D01*
X92034286Y-137156857D01*
X92034286Y-137556857D01*
X91977144Y-137785429D01*
X91862858Y-137899714D01*
X91748572Y-137956857D01*
X91520001Y-137956857D01*
X91405715Y-137899714D01*
X91291429Y-137785429D01*
X91234286Y-137556857D01*
X91234286Y-137156857D01*
X91291429Y-136928286D01*
X91405715Y-136814000D01*
X91520001Y-136756857D01*
X92377144Y-136756857D02*
X93062858Y-136756857D01*
X92720001Y-137956857D02*
X92720001Y-136756857D01*
X93405715Y-137614000D02*
X93977144Y-137614000D01*
X93291430Y-137956857D02*
X93691430Y-136756857D01*
X94091430Y-137956857D01*
X95177144Y-137956857D02*
X94777144Y-137385429D01*
X94491429Y-137956857D02*
X94491429Y-136756857D01*
X94948572Y-136756857D01*
X95062858Y-136814000D01*
X95120001Y-136871143D01*
X95177144Y-136985429D01*
X95177144Y-137156857D01*
X95120001Y-137271143D01*
X95062858Y-137328286D01*
X94948572Y-137385429D01*
X94491429Y-137385429D01*
X95920001Y-137385429D02*
X95920001Y-137956857D01*
X95520001Y-136756857D02*
X95920001Y-137385429D01*
X96320001Y-136756857D01*
X98262858Y-137956857D02*
X97577143Y-137956857D01*
X97920001Y-137956857D02*
X97920001Y-136756857D01*
X97805715Y-136928286D01*
X97691429Y-137042571D01*
X97577143Y-137099714D01*
X98720000Y-136871143D02*
X98777143Y-136814000D01*
X98891429Y-136756857D01*
X99177143Y-136756857D01*
X99291429Y-136814000D01*
X99348572Y-136871143D01*
X99405715Y-136985429D01*
X99405715Y-137099714D01*
X99348572Y-137271143D01*
X98662858Y-137956857D01*
X99405715Y-137956857D01*
X99920000Y-137956857D02*
X99920000Y-136756857D01*
X100377143Y-136756857D01*
X100491429Y-136814000D01*
X100548572Y-136871143D01*
X100605715Y-136985429D01*
X100605715Y-137156857D01*
X100548572Y-137271143D01*
X100491429Y-137328286D01*
X100377143Y-137385429D01*
X99920000Y-137385429D01*
X101348572Y-136756857D02*
X101577143Y-136756857D01*
X101691429Y-136814000D01*
X101805715Y-136928286D01*
X101862857Y-137156857D01*
X101862857Y-137556857D01*
X101805715Y-137785429D01*
X101691429Y-137899714D01*
X101577143Y-137956857D01*
X101348572Y-137956857D01*
X101234286Y-137899714D01*
X101120000Y-137785429D01*
X101062857Y-137556857D01*
X101062857Y-137156857D01*
X101120000Y-136928286D01*
X101234286Y-136814000D01*
X101348572Y-136756857D01*
X102320000Y-137899714D02*
X102491429Y-137956857D01*
X102777143Y-137956857D01*
X102891429Y-137899714D01*
X102948572Y-137842571D01*
X103005715Y-137728286D01*
X103005715Y-137614000D01*
X102948572Y-137499714D01*
X102891429Y-137442571D01*
X102777143Y-137385429D01*
X102548572Y-137328286D01*
X102434286Y-137271143D01*
X102377143Y-137214000D01*
X102320000Y-137099714D01*
X102320000Y-136985429D01*
X102377143Y-136871143D01*
X102434286Y-136814000D01*
X102548572Y-136756857D01*
X102834286Y-136756857D01*
X103005715Y-136814000D01*
X96428572Y-108492857D02*
X96028572Y-107921429D01*
X95742857Y-108492857D02*
X95742857Y-107292857D01*
X96200000Y-107292857D01*
X96314286Y-107350000D01*
X96371429Y-107407143D01*
X96428572Y-107521429D01*
X96428572Y-107692857D01*
X96371429Y-107807143D01*
X96314286Y-107864286D01*
X96200000Y-107921429D01*
X95742857Y-107921429D01*
X97171429Y-107292857D02*
X97400000Y-107292857D01*
X97514286Y-107350000D01*
X97628572Y-107464286D01*
X97685714Y-107692857D01*
X97685714Y-108092857D01*
X97628572Y-108321429D01*
X97514286Y-108435714D01*
X97400000Y-108492857D01*
X97171429Y-108492857D01*
X97057143Y-108435714D01*
X96942857Y-108321429D01*
X96885714Y-108092857D01*
X96885714Y-107692857D01*
X96942857Y-107464286D01*
X97057143Y-107350000D01*
X97171429Y-107292857D01*
X98028572Y-107292857D02*
X98714286Y-107292857D01*
X98371429Y-108492857D02*
X98371429Y-107292857D01*
X99057143Y-108150000D02*
X99628572Y-108150000D01*
X98942858Y-108492857D02*
X99342858Y-107292857D01*
X99742858Y-108492857D01*
X100828572Y-108492857D02*
X100428572Y-107921429D01*
X100142857Y-108492857D02*
X100142857Y-107292857D01*
X100600000Y-107292857D01*
X100714286Y-107350000D01*
X100771429Y-107407143D01*
X100828572Y-107521429D01*
X100828572Y-107692857D01*
X100771429Y-107807143D01*
X100714286Y-107864286D01*
X100600000Y-107921429D01*
X100142857Y-107921429D01*
X101571429Y-107921429D02*
X101571429Y-108492857D01*
X101171429Y-107292857D02*
X101571429Y-107921429D01*
X101971429Y-107292857D01*
X103171429Y-107292857D02*
X103971429Y-107292857D01*
X103457143Y-108492857D01*
X104428571Y-108492857D02*
X104428571Y-107292857D01*
X104885714Y-107292857D01*
X105000000Y-107350000D01*
X105057143Y-107407143D01*
X105114286Y-107521429D01*
X105114286Y-107692857D01*
X105057143Y-107807143D01*
X105000000Y-107864286D01*
X104885714Y-107921429D01*
X104428571Y-107921429D01*
X105857143Y-107292857D02*
X106085714Y-107292857D01*
X106200000Y-107350000D01*
X106314286Y-107464286D01*
X106371428Y-107692857D01*
X106371428Y-108092857D01*
X106314286Y-108321429D01*
X106200000Y-108435714D01*
X106085714Y-108492857D01*
X105857143Y-108492857D01*
X105742857Y-108435714D01*
X105628571Y-108321429D01*
X105571428Y-108092857D01*
X105571428Y-107692857D01*
X105628571Y-107464286D01*
X105742857Y-107350000D01*
X105857143Y-107292857D01*
X106828571Y-108435714D02*
X107000000Y-108492857D01*
X107285714Y-108492857D01*
X107400000Y-108435714D01*
X107457143Y-108378571D01*
X107514286Y-108264286D01*
X107514286Y-108150000D01*
X107457143Y-108035714D01*
X107400000Y-107978571D01*
X107285714Y-107921429D01*
X107057143Y-107864286D01*
X106942857Y-107807143D01*
X106885714Y-107750000D01*
X106828571Y-107635714D01*
X106828571Y-107521429D01*
X106885714Y-107407143D01*
X106942857Y-107350000D01*
X107057143Y-107292857D01*
X107342857Y-107292857D01*
X107514286Y-107350000D01*
X118018572Y-109762857D02*
X117618572Y-109191429D01*
X117332857Y-109762857D02*
X117332857Y-108562857D01*
X117790000Y-108562857D01*
X117904286Y-108620000D01*
X117961429Y-108677143D01*
X118018572Y-108791429D01*
X118018572Y-108962857D01*
X117961429Y-109077143D01*
X117904286Y-109134286D01*
X117790000Y-109191429D01*
X117332857Y-109191429D01*
X118761429Y-108562857D02*
X118990000Y-108562857D01*
X119104286Y-108620000D01*
X119218572Y-108734286D01*
X119275714Y-108962857D01*
X119275714Y-109362857D01*
X119218572Y-109591429D01*
X119104286Y-109705714D01*
X118990000Y-109762857D01*
X118761429Y-109762857D01*
X118647143Y-109705714D01*
X118532857Y-109591429D01*
X118475714Y-109362857D01*
X118475714Y-108962857D01*
X118532857Y-108734286D01*
X118647143Y-108620000D01*
X118761429Y-108562857D01*
X119618572Y-108562857D02*
X120304286Y-108562857D01*
X119961429Y-109762857D02*
X119961429Y-108562857D01*
X120647143Y-109420000D02*
X121218572Y-109420000D01*
X120532858Y-109762857D02*
X120932858Y-108562857D01*
X121332858Y-109762857D01*
X122418572Y-109762857D02*
X122018572Y-109191429D01*
X121732857Y-109762857D02*
X121732857Y-108562857D01*
X122190000Y-108562857D01*
X122304286Y-108620000D01*
X122361429Y-108677143D01*
X122418572Y-108791429D01*
X122418572Y-108962857D01*
X122361429Y-109077143D01*
X122304286Y-109134286D01*
X122190000Y-109191429D01*
X121732857Y-109191429D01*
X123161429Y-109191429D02*
X123161429Y-109762857D01*
X122761429Y-108562857D02*
X123161429Y-109191429D01*
X123561429Y-108562857D01*
X124761429Y-108562857D02*
X125504286Y-108562857D01*
X125104286Y-109020000D01*
X125275714Y-109020000D01*
X125390000Y-109077143D01*
X125447143Y-109134286D01*
X125504286Y-109248571D01*
X125504286Y-109534286D01*
X125447143Y-109648571D01*
X125390000Y-109705714D01*
X125275714Y-109762857D01*
X124932857Y-109762857D01*
X124818571Y-109705714D01*
X124761429Y-109648571D01*
X126018571Y-109762857D02*
X126018571Y-108562857D01*
X126475714Y-108562857D01*
X126590000Y-108620000D01*
X126647143Y-108677143D01*
X126704286Y-108791429D01*
X126704286Y-108962857D01*
X126647143Y-109077143D01*
X126590000Y-109134286D01*
X126475714Y-109191429D01*
X126018571Y-109191429D01*
X127447143Y-108562857D02*
X127675714Y-108562857D01*
X127790000Y-108620000D01*
X127904286Y-108734286D01*
X127961428Y-108962857D01*
X127961428Y-109362857D01*
X127904286Y-109591429D01*
X127790000Y-109705714D01*
X127675714Y-109762857D01*
X127447143Y-109762857D01*
X127332857Y-109705714D01*
X127218571Y-109591429D01*
X127161428Y-109362857D01*
X127161428Y-108962857D01*
X127218571Y-108734286D01*
X127332857Y-108620000D01*
X127447143Y-108562857D01*
X128418571Y-109705714D02*
X128590000Y-109762857D01*
X128875714Y-109762857D01*
X128990000Y-109705714D01*
X129047143Y-109648571D01*
X129104286Y-109534286D01*
X129104286Y-109420000D01*
X129047143Y-109305714D01*
X128990000Y-109248571D01*
X128875714Y-109191429D01*
X128647143Y-109134286D01*
X128532857Y-109077143D01*
X128475714Y-109020000D01*
X128418571Y-108905714D01*
X128418571Y-108791429D01*
X128475714Y-108677143D01*
X128532857Y-108620000D01*
X128647143Y-108562857D01*
X128932857Y-108562857D01*
X129104286Y-108620000D01*
X150780952Y-88082381D02*
X150780952Y-87082381D01*
X151019047Y-87082381D01*
X151161905Y-87130000D01*
X151257143Y-87225238D01*
X151304762Y-87320476D01*
X151352381Y-87510952D01*
X151352381Y-87653810D01*
X151304762Y-87844286D01*
X151257143Y-87939524D01*
X151161905Y-88034762D01*
X151019047Y-88082381D01*
X150780952Y-88082381D01*
X151780952Y-88082381D02*
X151780952Y-87082381D01*
X152161905Y-87082381D01*
X152257143Y-87130000D01*
X152304762Y-87177619D01*
X152352381Y-87272857D01*
X152352381Y-87415714D01*
X152304762Y-87510952D01*
X152257143Y-87558571D01*
X152161905Y-87606190D01*
X151780952Y-87606190D01*
X152733333Y-88034762D02*
X152876190Y-88082381D01*
X153114286Y-88082381D01*
X153209524Y-88034762D01*
X153257143Y-87987143D01*
X153304762Y-87891905D01*
X153304762Y-87796667D01*
X153257143Y-87701429D01*
X153209524Y-87653810D01*
X153114286Y-87606190D01*
X152923809Y-87558571D01*
X152828571Y-87510952D01*
X152780952Y-87463333D01*
X152733333Y-87368095D01*
X152733333Y-87272857D01*
X152780952Y-87177619D01*
X152828571Y-87130000D01*
X152923809Y-87082381D01*
X153161905Y-87082381D01*
X153304762Y-87130000D01*
X153590476Y-87082381D02*
X154161905Y-87082381D01*
X153876190Y-88082381D02*
X153876190Y-87082381D01*
X114538333Y-129944762D02*
X114681190Y-129992381D01*
X114919286Y-129992381D01*
X115014524Y-129944762D01*
X115062143Y-129897143D01*
X115109762Y-129801905D01*
X115109762Y-129706667D01*
X115062143Y-129611429D01*
X115014524Y-129563810D01*
X114919286Y-129516190D01*
X114728809Y-129468571D01*
X114633571Y-129420952D01*
X114585952Y-129373333D01*
X114538333Y-129278095D01*
X114538333Y-129182857D01*
X114585952Y-129087619D01*
X114633571Y-129040000D01*
X114728809Y-128992381D01*
X114966905Y-128992381D01*
X115109762Y-129040000D01*
X115538333Y-129992381D02*
X115538333Y-128992381D01*
X115919286Y-128992381D01*
X116014524Y-129040000D01*
X116062143Y-129087619D01*
X116109762Y-129182857D01*
X116109762Y-129325714D01*
X116062143Y-129420952D01*
X116014524Y-129468571D01*
X115919286Y-129516190D01*
X115538333Y-129516190D01*
X116538333Y-129992381D02*
X116538333Y-128992381D01*
X116776428Y-128992381D01*
X116919286Y-129040000D01*
X117014524Y-129135238D01*
X117062143Y-129230476D01*
X117109762Y-129420952D01*
X117109762Y-129563810D01*
X117062143Y-129754286D01*
X117014524Y-129849524D01*
X116919286Y-129944762D01*
X116776428Y-129992381D01*
X116538333Y-129992381D01*
X117395476Y-128992381D02*
X117966905Y-128992381D01*
X117681190Y-129992381D02*
X117681190Y-128992381D01*
X134421714Y-129060381D02*
X134516953Y-129060381D01*
X134612191Y-129108000D01*
X134659810Y-129155619D01*
X134707429Y-129250857D01*
X134755048Y-129441333D01*
X134755048Y-129679429D01*
X134707429Y-129869905D01*
X134659810Y-129965143D01*
X134612191Y-130012762D01*
X134516953Y-130060381D01*
X134421714Y-130060381D01*
X134326476Y-130012762D01*
X134278857Y-129965143D01*
X134231238Y-129869905D01*
X134183619Y-129679429D01*
X134183619Y-129441333D01*
X134231238Y-129250857D01*
X134278857Y-129155619D01*
X134326476Y-129108000D01*
X134421714Y-129060381D01*
X135183619Y-129965143D02*
X135231238Y-130012762D01*
X135183619Y-130060381D01*
X135136000Y-130012762D01*
X135183619Y-129965143D01*
X135183619Y-130060381D01*
X136183619Y-130060381D02*
X135612190Y-130060381D01*
X135897904Y-130060381D02*
X135897904Y-129060381D01*
X135802666Y-129203238D01*
X135707428Y-129298476D01*
X135612190Y-129346095D01*
X137040762Y-129393714D02*
X137040762Y-130060381D01*
X136612190Y-129393714D02*
X136612190Y-129917524D01*
X136659809Y-130012762D01*
X136755047Y-130060381D01*
X136897905Y-130060381D01*
X136993143Y-130012762D01*
X137040762Y-129965143D01*
X130410381Y-128277429D02*
X130410381Y-127610762D01*
X131410381Y-128039334D01*
X130743714Y-126801238D02*
X131410381Y-126801238D01*
X130362762Y-127039334D02*
X131077048Y-127277429D01*
X131077048Y-126658381D01*
X131410381Y-125801238D02*
X131410381Y-126277429D01*
X130410381Y-126277429D01*
X130410381Y-125610762D02*
X131410381Y-125277429D01*
X130410381Y-124944095D01*
X131315143Y-124039333D02*
X131362762Y-124086952D01*
X131410381Y-124229809D01*
X131410381Y-124325047D01*
X131362762Y-124467905D01*
X131267524Y-124563143D01*
X131172286Y-124610762D01*
X130981810Y-124658381D01*
X130838952Y-124658381D01*
X130648476Y-124610762D01*
X130553238Y-124563143D01*
X130458000Y-124467905D01*
X130410381Y-124325047D01*
X130410381Y-124229809D01*
X130458000Y-124086952D01*
X130505619Y-124039333D01*
X131410381Y-123086952D02*
X131410381Y-123658381D01*
X131410381Y-123372667D02*
X130410381Y-123372667D01*
X130553238Y-123467905D01*
X130648476Y-123563143D01*
X130696095Y-123658381D01*
X130458000Y-122134571D02*
X130410381Y-122229809D01*
X130410381Y-122372666D01*
X130458000Y-122515524D01*
X130553238Y-122610762D01*
X130648476Y-122658381D01*
X130838952Y-122706000D01*
X130981810Y-122706000D01*
X131172286Y-122658381D01*
X131267524Y-122610762D01*
X131362762Y-122515524D01*
X131410381Y-122372666D01*
X131410381Y-122277428D01*
X131362762Y-122134571D01*
X131315143Y-122086952D01*
X130981810Y-122086952D01*
X130981810Y-122277428D01*
X130410381Y-121467905D02*
X130410381Y-121372666D01*
X130458000Y-121277428D01*
X130505619Y-121229809D01*
X130600857Y-121182190D01*
X130791333Y-121134571D01*
X131029429Y-121134571D01*
X131219905Y-121182190D01*
X131315143Y-121229809D01*
X131362762Y-121277428D01*
X131410381Y-121372666D01*
X131410381Y-121467905D01*
X131362762Y-121563143D01*
X131315143Y-121610762D01*
X131219905Y-121658381D01*
X131029429Y-121706000D01*
X130791333Y-121706000D01*
X130600857Y-121658381D01*
X130505619Y-121610762D01*
X130458000Y-121563143D01*
X130410381Y-121467905D01*
X130743714Y-120277428D02*
X131410381Y-120277428D01*
X130362762Y-120515524D02*
X131077048Y-120753619D01*
X131077048Y-120134571D01*
X111518381Y-143613047D02*
X111518381Y-144184476D01*
X111518381Y-143898762D02*
X110518381Y-143898762D01*
X110661238Y-143994000D01*
X110756476Y-144089238D01*
X110804095Y-144184476D01*
X110518381Y-142994000D02*
X110518381Y-142898761D01*
X110566000Y-142803523D01*
X110613619Y-142755904D01*
X110708857Y-142708285D01*
X110899333Y-142660666D01*
X111137429Y-142660666D01*
X111327905Y-142708285D01*
X111423143Y-142755904D01*
X111470762Y-142803523D01*
X111518381Y-142898761D01*
X111518381Y-142994000D01*
X111470762Y-143089238D01*
X111423143Y-143136857D01*
X111327905Y-143184476D01*
X111137429Y-143232095D01*
X110899333Y-143232095D01*
X110708857Y-143184476D01*
X110613619Y-143136857D01*
X110566000Y-143089238D01*
X110518381Y-142994000D01*
X110518381Y-142041619D02*
X110518381Y-141946380D01*
X110566000Y-141851142D01*
X110613619Y-141803523D01*
X110708857Y-141755904D01*
X110899333Y-141708285D01*
X111137429Y-141708285D01*
X111327905Y-141755904D01*
X111423143Y-141803523D01*
X111470762Y-141851142D01*
X111518381Y-141946380D01*
X111518381Y-142041619D01*
X111470762Y-142136857D01*
X111423143Y-142184476D01*
X111327905Y-142232095D01*
X111137429Y-142279714D01*
X110899333Y-142279714D01*
X110708857Y-142232095D01*
X110613619Y-142184476D01*
X110566000Y-142136857D01*
X110518381Y-142041619D01*
X110851714Y-141279714D02*
X111851714Y-141279714D01*
X110899333Y-141279714D02*
X110851714Y-141184476D01*
X110851714Y-140993999D01*
X110899333Y-140898761D01*
X110946952Y-140851142D01*
X111042190Y-140803523D01*
X111327905Y-140803523D01*
X111423143Y-140851142D01*
X111470762Y-140898761D01*
X111518381Y-140993999D01*
X111518381Y-141184476D01*
X111470762Y-141279714D01*
X159869523Y-89427381D02*
X160059999Y-89427381D01*
X160155238Y-89379762D01*
X160202857Y-89332143D01*
X160298095Y-89189286D01*
X160345714Y-88998810D01*
X160345714Y-88617857D01*
X160298095Y-88522619D01*
X160250476Y-88475000D01*
X160155238Y-88427381D01*
X159964761Y-88427381D01*
X159869523Y-88475000D01*
X159821904Y-88522619D01*
X159774285Y-88617857D01*
X159774285Y-88855952D01*
X159821904Y-88951190D01*
X159869523Y-88998810D01*
X159964761Y-89046429D01*
X160155238Y-89046429D01*
X160250476Y-88998810D01*
X160298095Y-88951190D01*
X160345714Y-88855952D01*
X160631428Y-88427381D02*
X160964761Y-89427381D01*
X161298095Y-88427381D01*
X161393333Y-89522619D02*
X162155238Y-89522619D01*
X162726667Y-88903571D02*
X162869524Y-88951190D01*
X162917143Y-88998810D01*
X162964762Y-89094048D01*
X162964762Y-89236905D01*
X162917143Y-89332143D01*
X162869524Y-89379762D01*
X162774286Y-89427381D01*
X162393333Y-89427381D01*
X162393333Y-88427381D01*
X162726667Y-88427381D01*
X162821905Y-88475000D01*
X162869524Y-88522619D01*
X162917143Y-88617857D01*
X162917143Y-88713095D01*
X162869524Y-88808333D01*
X162821905Y-88855952D01*
X162726667Y-88903571D01*
X162393333Y-88903571D01*
X163345714Y-89141667D02*
X163821905Y-89141667D01*
X163250476Y-89427381D02*
X163583809Y-88427381D01*
X163917143Y-89427381D01*
X164107619Y-88427381D02*
X164679048Y-88427381D01*
X164393333Y-89427381D02*
X164393333Y-88427381D01*
X164869524Y-88427381D02*
X165440953Y-88427381D01*
X165155238Y-89427381D02*
X165155238Y-88427381D01*
X159869523Y-97047381D02*
X160059999Y-97047381D01*
X160155238Y-96999762D01*
X160202857Y-96952143D01*
X160298095Y-96809286D01*
X160345714Y-96618810D01*
X160345714Y-96237857D01*
X160298095Y-96142619D01*
X160250476Y-96095000D01*
X160155238Y-96047381D01*
X159964761Y-96047381D01*
X159869523Y-96095000D01*
X159821904Y-96142619D01*
X159774285Y-96237857D01*
X159774285Y-96475952D01*
X159821904Y-96571190D01*
X159869523Y-96618810D01*
X159964761Y-96666429D01*
X160155238Y-96666429D01*
X160250476Y-96618810D01*
X160298095Y-96571190D01*
X160345714Y-96475952D01*
X160631428Y-96047381D02*
X160964761Y-97047381D01*
X161298095Y-96047381D01*
X161393333Y-97142619D02*
X162155238Y-97142619D01*
X162726667Y-96523571D02*
X162869524Y-96571190D01*
X162917143Y-96618810D01*
X162964762Y-96714048D01*
X162964762Y-96856905D01*
X162917143Y-96952143D01*
X162869524Y-96999762D01*
X162774286Y-97047381D01*
X162393333Y-97047381D01*
X162393333Y-96047381D01*
X162726667Y-96047381D01*
X162821905Y-96095000D01*
X162869524Y-96142619D01*
X162917143Y-96237857D01*
X162917143Y-96333095D01*
X162869524Y-96428333D01*
X162821905Y-96475952D01*
X162726667Y-96523571D01*
X162393333Y-96523571D01*
X163345714Y-96761667D02*
X163821905Y-96761667D01*
X163250476Y-97047381D02*
X163583809Y-96047381D01*
X163917143Y-97047381D01*
X164107619Y-96047381D02*
X164679048Y-96047381D01*
X164393333Y-97047381D02*
X164393333Y-96047381D01*
X164869524Y-96047381D02*
X165440953Y-96047381D01*
X165155238Y-97047381D02*
X165155238Y-96047381D01*
M02*
