G04 #@! TF.FileFunction,Legend,Top*
%FSLAX46Y46*%
G04 Gerber Fmt 4.6, Leading zero omitted, Abs format (unit mm)*
G04 Created by KiCad (PCBNEW 4.0.5) date Monday, May 22, 2017 'PMt' 09:48:53 PM*
%MOMM*%
%LPD*%
G01*
G04 APERTURE LIST*
%ADD10C,0.100000*%
%ADD11C,0.150000*%
%ADD12C,0.300000*%
%ADD13C,0.400000*%
%ADD14C,0.120000*%
G04 APERTURE END LIST*
D10*
D11*
X177002200Y-166007200D02*
X177002200Y-198007200D01*
X285002200Y-198007200D01*
X285002200Y-166007200D01*
X177002200Y-166007200D01*
D10*
D11*
X10000000Y-10000000D02*
X10000000Y-200007200D01*
X287002200Y-200007200D01*
X287002200Y-10000000D01*
X10000000Y-10000000D01*
D10*
D11*
X12000000Y-12000000D02*
X12000000Y-198007200D01*
X285002200Y-198007200D01*
X285002200Y-12000000D01*
X12000000Y-12000000D01*
D10*
D11*
X60000000Y-12000000D02*
X60000000Y-10000000D01*
D10*
D11*
X110000000Y-12000000D02*
X110000000Y-10000000D01*
D10*
D11*
X160000000Y-12000000D02*
X160000000Y-10000000D01*
D10*
D11*
X210000000Y-12000000D02*
X210000000Y-10000000D01*
D10*
D11*
X260000000Y-12000000D02*
X260000000Y-10000000D01*
D10*
D11*
X35990476Y-11588095D02*
X35247619Y-11588095D01*
X35619048Y-11588095D02*
X35619048Y-10288095D01*
X35495238Y-10473810D01*
X35371429Y-10597619D01*
X35247619Y-10659524D01*
D10*
D11*
X85247619Y-10411905D02*
X85309524Y-10350000D01*
X85433333Y-10288095D01*
X85742857Y-10288095D01*
X85866667Y-10350000D01*
X85928571Y-10411905D01*
X85990476Y-10535714D01*
X85990476Y-10659524D01*
X85928571Y-10845238D01*
X85185714Y-11588095D01*
X85990476Y-11588095D01*
D10*
D11*
X135185714Y-10288095D02*
X135990476Y-10288095D01*
X135557143Y-10783333D01*
X135742857Y-10783333D01*
X135866667Y-10845238D01*
X135928571Y-10907143D01*
X135990476Y-11030952D01*
X135990476Y-11340476D01*
X135928571Y-11464286D01*
X135866667Y-11526190D01*
X135742857Y-11588095D01*
X135371429Y-11588095D01*
X135247619Y-11526190D01*
X135185714Y-11464286D01*
D10*
D11*
X185866667Y-10721429D02*
X185866667Y-11588095D01*
X185557143Y-10226190D02*
X185247619Y-11154762D01*
X186052381Y-11154762D01*
D10*
D11*
X235928571Y-10288095D02*
X235309524Y-10288095D01*
X235247619Y-10907143D01*
X235309524Y-10845238D01*
X235433333Y-10783333D01*
X235742857Y-10783333D01*
X235866667Y-10845238D01*
X235928571Y-10907143D01*
X235990476Y-11030952D01*
X235990476Y-11340476D01*
X235928571Y-11464286D01*
X235866667Y-11526190D01*
X235742857Y-11588095D01*
X235433333Y-11588095D01*
X235309524Y-11526190D01*
X235247619Y-11464286D01*
D10*
D11*
X285866667Y-10288095D02*
X285619048Y-10288095D01*
X285495238Y-10350000D01*
X285433333Y-10411905D01*
X285309524Y-10597619D01*
X285247619Y-10845238D01*
X285247619Y-11340476D01*
X285309524Y-11464286D01*
X285371429Y-11526190D01*
X285495238Y-11588095D01*
X285742857Y-11588095D01*
X285866667Y-11526190D01*
X285928571Y-11464286D01*
X285990476Y-11340476D01*
X285990476Y-11030952D01*
X285928571Y-10907143D01*
X285866667Y-10845238D01*
X285742857Y-10783333D01*
X285495238Y-10783333D01*
X285371429Y-10845238D01*
X285309524Y-10907143D01*
X285247619Y-11030952D01*
D10*
D11*
X60000000Y-198007200D02*
X60000000Y-200007200D01*
D10*
D11*
X110000000Y-198007200D02*
X110000000Y-200007200D01*
D10*
D11*
X160000000Y-198007200D02*
X160000000Y-200007200D01*
D10*
D11*
X210000000Y-198007200D02*
X210000000Y-200007200D01*
D10*
D11*
X260000000Y-198007200D02*
X260000000Y-200007200D01*
D10*
D11*
X35990476Y-199595295D02*
X35247619Y-199595295D01*
X35619048Y-199595295D02*
X35619048Y-198295295D01*
X35495238Y-198481010D01*
X35371429Y-198604819D01*
X35247619Y-198666724D01*
D10*
D11*
X85247619Y-198419105D02*
X85309524Y-198357200D01*
X85433333Y-198295295D01*
X85742857Y-198295295D01*
X85866667Y-198357200D01*
X85928571Y-198419105D01*
X85990476Y-198542914D01*
X85990476Y-198666724D01*
X85928571Y-198852438D01*
X85185714Y-199595295D01*
X85990476Y-199595295D01*
D10*
D11*
X135185714Y-198295295D02*
X135990476Y-198295295D01*
X135557143Y-198790533D01*
X135742857Y-198790533D01*
X135866667Y-198852438D01*
X135928571Y-198914343D01*
X135990476Y-199038152D01*
X135990476Y-199347676D01*
X135928571Y-199471486D01*
X135866667Y-199533390D01*
X135742857Y-199595295D01*
X135371429Y-199595295D01*
X135247619Y-199533390D01*
X135185714Y-199471486D01*
D10*
D11*
X185866667Y-198728629D02*
X185866667Y-199595295D01*
X185557143Y-198233390D02*
X185247619Y-199161962D01*
X186052381Y-199161962D01*
D10*
D11*
X235928571Y-198295295D02*
X235309524Y-198295295D01*
X235247619Y-198914343D01*
X235309524Y-198852438D01*
X235433333Y-198790533D01*
X235742857Y-198790533D01*
X235866667Y-198852438D01*
X235928571Y-198914343D01*
X235990476Y-199038152D01*
X235990476Y-199347676D01*
X235928571Y-199471486D01*
X235866667Y-199533390D01*
X235742857Y-199595295D01*
X235433333Y-199595295D01*
X235309524Y-199533390D01*
X235247619Y-199471486D01*
D10*
D11*
X285866667Y-198295295D02*
X285619048Y-198295295D01*
X285495238Y-198357200D01*
X285433333Y-198419105D01*
X285309524Y-198604819D01*
X285247619Y-198852438D01*
X285247619Y-199347676D01*
X285309524Y-199471486D01*
X285371429Y-199533390D01*
X285495238Y-199595295D01*
X285742857Y-199595295D01*
X285866667Y-199533390D01*
X285928571Y-199471486D01*
X285990476Y-199347676D01*
X285990476Y-199038152D01*
X285928571Y-198914343D01*
X285866667Y-198852438D01*
X285742857Y-198790533D01*
X285495238Y-198790533D01*
X285371429Y-198852438D01*
X285309524Y-198914343D01*
X285247619Y-199038152D01*
D10*
D11*
X10000000Y-60000000D02*
X12000000Y-60000000D01*
D10*
D11*
X10000000Y-110000000D02*
X12000000Y-110000000D01*
D10*
D11*
X10000000Y-160000000D02*
X12000000Y-160000000D01*
D10*
D11*
X10690476Y-35216667D02*
X11309524Y-35216667D01*
X10566667Y-35588095D02*
X11000000Y-34288095D01*
X11433333Y-35588095D01*
D10*
D11*
X11092857Y-84907143D02*
X11278571Y-84969048D01*
X11340476Y-85030952D01*
X11402381Y-85154762D01*
X11402381Y-85340476D01*
X11340476Y-85464286D01*
X11278571Y-85526190D01*
X11154762Y-85588095D01*
X10659524Y-85588095D01*
X10659524Y-84288095D01*
X11092857Y-84288095D01*
X11216667Y-84350000D01*
X11278571Y-84411905D01*
X11340476Y-84535714D01*
X11340476Y-84659524D01*
X11278571Y-84783333D01*
X11216667Y-84845238D01*
X11092857Y-84907143D01*
X10659524Y-84907143D01*
D10*
D11*
X11402381Y-135464286D02*
X11340476Y-135526190D01*
X11154762Y-135588095D01*
X11030952Y-135588095D01*
X10845238Y-135526190D01*
X10721429Y-135402381D01*
X10659524Y-135278571D01*
X10597619Y-135030952D01*
X10597619Y-134845238D01*
X10659524Y-134597619D01*
X10721429Y-134473810D01*
X10845238Y-134350000D01*
X11030952Y-134288095D01*
X11154762Y-134288095D01*
X11340476Y-134350000D01*
X11402381Y-134411905D01*
D10*
D11*
X10659524Y-185588095D02*
X10659524Y-184288095D01*
X10969048Y-184288095D01*
X11154762Y-184350000D01*
X11278571Y-184473810D01*
X11340476Y-184597619D01*
X11402381Y-184845238D01*
X11402381Y-185030952D01*
X11340476Y-185278571D01*
X11278571Y-185402381D01*
X11154762Y-185526190D01*
X10969048Y-185588095D01*
X10659524Y-185588095D01*
D10*
D11*
X287002200Y-60000000D02*
X285002200Y-60000000D01*
D10*
D11*
X287002200Y-110000000D02*
X285002200Y-110000000D01*
D10*
D11*
X287002200Y-160000000D02*
X285002200Y-160000000D01*
D10*
D11*
X285692676Y-35216667D02*
X286311724Y-35216667D01*
X285568867Y-35588095D02*
X286002200Y-34288095D01*
X286435533Y-35588095D01*
D10*
D11*
X286095057Y-84907143D02*
X286280771Y-84969048D01*
X286342676Y-85030952D01*
X286404581Y-85154762D01*
X286404581Y-85340476D01*
X286342676Y-85464286D01*
X286280771Y-85526190D01*
X286156962Y-85588095D01*
X285661724Y-85588095D01*
X285661724Y-84288095D01*
X286095057Y-84288095D01*
X286218867Y-84350000D01*
X286280771Y-84411905D01*
X286342676Y-84535714D01*
X286342676Y-84659524D01*
X286280771Y-84783333D01*
X286218867Y-84845238D01*
X286095057Y-84907143D01*
X285661724Y-84907143D01*
D10*
D11*
X286404581Y-135464286D02*
X286342676Y-135526190D01*
X286156962Y-135588095D01*
X286033152Y-135588095D01*
X285847438Y-135526190D01*
X285723629Y-135402381D01*
X285661724Y-135278571D01*
X285599819Y-135030952D01*
X285599819Y-134845238D01*
X285661724Y-134597619D01*
X285723629Y-134473810D01*
X285847438Y-134350000D01*
X286033152Y-134288095D01*
X286156962Y-134288095D01*
X286342676Y-134350000D01*
X286404581Y-134411905D01*
D10*
D11*
X285661724Y-185588095D02*
X285661724Y-184288095D01*
X285971248Y-184288095D01*
X286156962Y-184350000D01*
X286280771Y-184473810D01*
X286342676Y-184597619D01*
X286404581Y-184845238D01*
X286404581Y-185030952D01*
X286342676Y-185278571D01*
X286280771Y-185402381D01*
X286156962Y-185526190D01*
X285971248Y-185588095D01*
X285661724Y-185588095D01*
D10*
D11*
X200359343Y-193785771D02*
X200359343Y-192285771D01*
X200716486Y-192285771D01*
X200930771Y-192357200D01*
X201073629Y-192500057D01*
X201145057Y-192642914D01*
X201216486Y-192928629D01*
X201216486Y-193142914D01*
X201145057Y-193428629D01*
X201073629Y-193571486D01*
X200930771Y-193714343D01*
X200716486Y-193785771D01*
X200359343Y-193785771D01*
X202502200Y-193785771D02*
X202502200Y-193000057D01*
X202430771Y-192857200D01*
X202287914Y-192785771D01*
X202002200Y-192785771D01*
X201859343Y-192857200D01*
X202502200Y-193714343D02*
X202359343Y-193785771D01*
X202002200Y-193785771D01*
X201859343Y-193714343D01*
X201787914Y-193571486D01*
X201787914Y-193428629D01*
X201859343Y-193285771D01*
X202002200Y-193214343D01*
X202359343Y-193214343D01*
X202502200Y-193142914D01*
X203002200Y-192785771D02*
X203573629Y-192785771D01*
X203216486Y-192285771D02*
X203216486Y-193571486D01*
X203287914Y-193714343D01*
X203430772Y-193785771D01*
X203573629Y-193785771D01*
X204645057Y-193714343D02*
X204502200Y-193785771D01*
X204216486Y-193785771D01*
X204073629Y-193714343D01*
X204002200Y-193571486D01*
X204002200Y-193000057D01*
X204073629Y-192857200D01*
X204216486Y-192785771D01*
X204502200Y-192785771D01*
X204645057Y-192857200D01*
X204716486Y-193000057D01*
X204716486Y-193142914D01*
X204002200Y-193285771D01*
X205359343Y-193642914D02*
X205430771Y-193714343D01*
X205359343Y-193785771D01*
X205287914Y-193714343D01*
X205359343Y-193642914D01*
X205359343Y-193785771D01*
X205359343Y-192857200D02*
X205430771Y-192928629D01*
X205359343Y-193000057D01*
X205287914Y-192928629D01*
X205359343Y-192857200D01*
X205359343Y-193000057D01*
D10*
D11*
X177002200Y-194507200D02*
X285002200Y-194507200D01*
D10*
D11*
X178359343Y-196585771D02*
X178359343Y-195085771D01*
X179216486Y-196585771D02*
X178573629Y-195728629D01*
X179216486Y-195085771D02*
X178359343Y-195942914D01*
X179859343Y-196585771D02*
X179859343Y-195585771D01*
X179859343Y-195085771D02*
X179787914Y-195157200D01*
X179859343Y-195228629D01*
X179930771Y-195157200D01*
X179859343Y-195085771D01*
X179859343Y-195228629D01*
X181430772Y-196442914D02*
X181359343Y-196514343D01*
X181145057Y-196585771D01*
X181002200Y-196585771D01*
X180787915Y-196514343D01*
X180645057Y-196371486D01*
X180573629Y-196228629D01*
X180502200Y-195942914D01*
X180502200Y-195728629D01*
X180573629Y-195442914D01*
X180645057Y-195300057D01*
X180787915Y-195157200D01*
X181002200Y-195085771D01*
X181145057Y-195085771D01*
X181359343Y-195157200D01*
X181430772Y-195228629D01*
X182716486Y-196585771D02*
X182716486Y-195800057D01*
X182645057Y-195657200D01*
X182502200Y-195585771D01*
X182216486Y-195585771D01*
X182073629Y-195657200D01*
X182716486Y-196514343D02*
X182573629Y-196585771D01*
X182216486Y-196585771D01*
X182073629Y-196514343D01*
X182002200Y-196371486D01*
X182002200Y-196228629D01*
X182073629Y-196085771D01*
X182216486Y-196014343D01*
X182573629Y-196014343D01*
X182716486Y-195942914D01*
X184073629Y-196585771D02*
X184073629Y-195085771D01*
X184073629Y-196514343D02*
X183930772Y-196585771D01*
X183645058Y-196585771D01*
X183502200Y-196514343D01*
X183430772Y-196442914D01*
X183359343Y-196300057D01*
X183359343Y-195871486D01*
X183430772Y-195728629D01*
X183502200Y-195657200D01*
X183645058Y-195585771D01*
X183930772Y-195585771D01*
X184073629Y-195657200D01*
X185930772Y-195800057D02*
X186430772Y-195800057D01*
X186645058Y-196585771D02*
X185930772Y-196585771D01*
X185930772Y-195085771D01*
X186645058Y-195085771D01*
X187287915Y-196442914D02*
X187359343Y-196514343D01*
X187287915Y-196585771D01*
X187216486Y-196514343D01*
X187287915Y-196442914D01*
X187287915Y-196585771D01*
X188002201Y-196585771D02*
X188002201Y-195085771D01*
X188359344Y-195085771D01*
X188573629Y-195157200D01*
X188716487Y-195300057D01*
X188787915Y-195442914D01*
X188859344Y-195728629D01*
X188859344Y-195942914D01*
X188787915Y-196228629D01*
X188716487Y-196371486D01*
X188573629Y-196514343D01*
X188359344Y-196585771D01*
X188002201Y-196585771D01*
X189502201Y-196442914D02*
X189573629Y-196514343D01*
X189502201Y-196585771D01*
X189430772Y-196514343D01*
X189502201Y-196442914D01*
X189502201Y-196585771D01*
X190145058Y-196157200D02*
X190859344Y-196157200D01*
X190002201Y-196585771D02*
X190502201Y-195085771D01*
X191002201Y-196585771D01*
X191502201Y-196442914D02*
X191573629Y-196514343D01*
X191502201Y-196585771D01*
X191430772Y-196514343D01*
X191502201Y-196442914D01*
X191502201Y-196585771D01*
X194502201Y-196585771D02*
X194502201Y-195085771D01*
X194645058Y-196014343D02*
X195073629Y-196585771D01*
X195073629Y-195585771D02*
X194502201Y-196157200D01*
X195716487Y-196585771D02*
X195716487Y-195585771D01*
X195716487Y-195085771D02*
X195645058Y-195157200D01*
X195716487Y-195228629D01*
X195787915Y-195157200D01*
X195716487Y-195085771D01*
X195716487Y-195228629D01*
X197073630Y-196514343D02*
X196930773Y-196585771D01*
X196645059Y-196585771D01*
X196502201Y-196514343D01*
X196430773Y-196442914D01*
X196359344Y-196300057D01*
X196359344Y-195871486D01*
X196430773Y-195728629D01*
X196502201Y-195657200D01*
X196645059Y-195585771D01*
X196930773Y-195585771D01*
X197073630Y-195657200D01*
X198359344Y-196585771D02*
X198359344Y-195800057D01*
X198287915Y-195657200D01*
X198145058Y-195585771D01*
X197859344Y-195585771D01*
X197716487Y-195657200D01*
X198359344Y-196514343D02*
X198216487Y-196585771D01*
X197859344Y-196585771D01*
X197716487Y-196514343D01*
X197645058Y-196371486D01*
X197645058Y-196228629D01*
X197716487Y-196085771D01*
X197859344Y-196014343D01*
X198216487Y-196014343D01*
X198359344Y-195942914D01*
X199716487Y-196585771D02*
X199716487Y-195085771D01*
X199716487Y-196514343D02*
X199573630Y-196585771D01*
X199287916Y-196585771D01*
X199145058Y-196514343D01*
X199073630Y-196442914D01*
X199002201Y-196300057D01*
X199002201Y-195871486D01*
X199073630Y-195728629D01*
X199145058Y-195657200D01*
X199287916Y-195585771D01*
X199573630Y-195585771D01*
X199716487Y-195657200D01*
X202216487Y-195585771D02*
X202216487Y-196585771D01*
X201859344Y-195014343D02*
X201502201Y-196085771D01*
X202430773Y-196085771D01*
X203002201Y-196442914D02*
X203073629Y-196514343D01*
X203002201Y-196585771D01*
X202930772Y-196514343D01*
X203002201Y-196442914D01*
X203002201Y-196585771D01*
X204002201Y-195085771D02*
X204145058Y-195085771D01*
X204287915Y-195157200D01*
X204359344Y-195228629D01*
X204430773Y-195371486D01*
X204502201Y-195657200D01*
X204502201Y-196014343D01*
X204430773Y-196300057D01*
X204359344Y-196442914D01*
X204287915Y-196514343D01*
X204145058Y-196585771D01*
X204002201Y-196585771D01*
X203859344Y-196514343D01*
X203787915Y-196442914D01*
X203716487Y-196300057D01*
X203645058Y-196014343D01*
X203645058Y-195657200D01*
X203716487Y-195371486D01*
X203787915Y-195228629D01*
X203859344Y-195157200D01*
X204002201Y-195085771D01*
X205145058Y-196442914D02*
X205216486Y-196514343D01*
X205145058Y-196585771D01*
X205073629Y-196514343D01*
X205145058Y-196442914D01*
X205145058Y-196585771D01*
X206573630Y-195085771D02*
X205859344Y-195085771D01*
X205787915Y-195800057D01*
X205859344Y-195728629D01*
X206002201Y-195657200D01*
X206359344Y-195657200D01*
X206502201Y-195728629D01*
X206573630Y-195800057D01*
X206645058Y-195942914D01*
X206645058Y-196300057D01*
X206573630Y-196442914D01*
X206502201Y-196514343D01*
X206359344Y-196585771D01*
X206002201Y-196585771D01*
X205859344Y-196514343D01*
X205787915Y-196442914D01*
D10*
D11*
X177002200Y-191507200D02*
X285002200Y-191507200D01*
D10*
D12*
X264216486Y-193785771D02*
X263716486Y-193071486D01*
X263359343Y-193785771D02*
X263359343Y-192285771D01*
X263930771Y-192285771D01*
X264073629Y-192357200D01*
X264145057Y-192428629D01*
X264216486Y-192571486D01*
X264216486Y-192785771D01*
X264145057Y-192928629D01*
X264073629Y-193000057D01*
X263930771Y-193071486D01*
X263359343Y-193071486D01*
X265430771Y-193714343D02*
X265287914Y-193785771D01*
X265002200Y-193785771D01*
X264859343Y-193714343D01*
X264787914Y-193571486D01*
X264787914Y-193000057D01*
X264859343Y-192857200D01*
X265002200Y-192785771D01*
X265287914Y-192785771D01*
X265430771Y-192857200D01*
X265502200Y-193000057D01*
X265502200Y-193142914D01*
X264787914Y-193285771D01*
X266002200Y-192785771D02*
X266359343Y-193785771D01*
X266716485Y-192785771D01*
X267287914Y-193642914D02*
X267359342Y-193714343D01*
X267287914Y-193785771D01*
X267216485Y-193714343D01*
X267287914Y-193642914D01*
X267287914Y-193785771D01*
X267287914Y-192857200D02*
X267359342Y-192928629D01*
X267287914Y-193000057D01*
X267216485Y-192928629D01*
X267287914Y-192857200D01*
X267287914Y-193000057D01*
X269073628Y-192428629D02*
X269145057Y-192357200D01*
X269287914Y-192285771D01*
X269645057Y-192285771D01*
X269787914Y-192357200D01*
X269859343Y-192428629D01*
X269930771Y-192571486D01*
X269930771Y-192714343D01*
X269859343Y-192928629D01*
X269002200Y-193785771D01*
X269930771Y-193785771D01*
D10*
D11*
X178287914Y-193714343D02*
X178502200Y-193785771D01*
X178859343Y-193785771D01*
X179002200Y-193714343D01*
X179073629Y-193642914D01*
X179145057Y-193500057D01*
X179145057Y-193357200D01*
X179073629Y-193214343D01*
X179002200Y-193142914D01*
X178859343Y-193071486D01*
X178573629Y-193000057D01*
X178430771Y-192928629D01*
X178359343Y-192857200D01*
X178287914Y-192714343D01*
X178287914Y-192571486D01*
X178359343Y-192428629D01*
X178430771Y-192357200D01*
X178573629Y-192285771D01*
X178930771Y-192285771D01*
X179145057Y-192357200D01*
X179787914Y-193785771D02*
X179787914Y-192785771D01*
X179787914Y-192285771D02*
X179716485Y-192357200D01*
X179787914Y-192428629D01*
X179859342Y-192357200D01*
X179787914Y-192285771D01*
X179787914Y-192428629D01*
X180359343Y-192785771D02*
X181145057Y-192785771D01*
X180359343Y-193785771D01*
X181145057Y-193785771D01*
X182287914Y-193714343D02*
X182145057Y-193785771D01*
X181859343Y-193785771D01*
X181716486Y-193714343D01*
X181645057Y-193571486D01*
X181645057Y-193000057D01*
X181716486Y-192857200D01*
X181859343Y-192785771D01*
X182145057Y-192785771D01*
X182287914Y-192857200D01*
X182359343Y-193000057D01*
X182359343Y-193142914D01*
X181645057Y-193285771D01*
X183002200Y-193642914D02*
X183073628Y-193714343D01*
X183002200Y-193785771D01*
X182930771Y-193714343D01*
X183002200Y-193642914D01*
X183002200Y-193785771D01*
X183002200Y-192857200D02*
X183073628Y-192928629D01*
X183002200Y-193000057D01*
X182930771Y-192928629D01*
X183002200Y-192857200D01*
X183002200Y-193000057D01*
X184787914Y-193357200D02*
X185502200Y-193357200D01*
X184645057Y-193785771D02*
X185145057Y-192285771D01*
X185645057Y-193785771D01*
X186787914Y-192785771D02*
X186787914Y-193785771D01*
X186430771Y-192214343D02*
X186073628Y-193285771D01*
X187002200Y-193285771D01*
D10*
D11*
X263359343Y-196585771D02*
X263359343Y-195085771D01*
X264716486Y-196585771D02*
X264716486Y-195085771D01*
X264716486Y-196514343D02*
X264573629Y-196585771D01*
X264287915Y-196585771D01*
X264145057Y-196514343D01*
X264073629Y-196442914D01*
X264002200Y-196300057D01*
X264002200Y-195871486D01*
X264073629Y-195728629D01*
X264145057Y-195657200D01*
X264287915Y-195585771D01*
X264573629Y-195585771D01*
X264716486Y-195657200D01*
X265430772Y-196442914D02*
X265502200Y-196514343D01*
X265430772Y-196585771D01*
X265359343Y-196514343D01*
X265430772Y-196442914D01*
X265430772Y-196585771D01*
X265430772Y-195657200D02*
X265502200Y-195728629D01*
X265430772Y-195800057D01*
X265359343Y-195728629D01*
X265430772Y-195657200D01*
X265430772Y-195800057D01*
X268073629Y-196585771D02*
X267216486Y-196585771D01*
X267645058Y-196585771D02*
X267645058Y-195085771D01*
X267502201Y-195300057D01*
X267359343Y-195442914D01*
X267216486Y-195514343D01*
X269787914Y-195014343D02*
X268502200Y-196942914D01*
X271073629Y-196585771D02*
X270216486Y-196585771D01*
X270645058Y-196585771D02*
X270645058Y-195085771D01*
X270502201Y-195300057D01*
X270359343Y-195442914D01*
X270216486Y-195514343D01*
D10*
D11*
X177002200Y-187507200D02*
X285002200Y-187507200D01*
D10*
D13*
X178454581Y-188211962D02*
X179597438Y-188211962D01*
X178776010Y-190211962D02*
X179026010Y-188211962D01*
X180014105Y-190211962D02*
X180180771Y-188878629D01*
X180264105Y-188211962D02*
X180156962Y-188307200D01*
X180240295Y-188402438D01*
X180347439Y-188307200D01*
X180264105Y-188211962D01*
X180240295Y-188402438D01*
X180847438Y-188878629D02*
X181609343Y-188878629D01*
X181216486Y-188211962D02*
X181002200Y-189926248D01*
X181073630Y-190116724D01*
X181252201Y-190211962D01*
X181442677Y-190211962D01*
X182395058Y-190211962D02*
X182216487Y-190116724D01*
X182145057Y-189926248D01*
X182359343Y-188211962D01*
X183930772Y-190116724D02*
X183728391Y-190211962D01*
X183347439Y-190211962D01*
X183168867Y-190116724D01*
X183097438Y-189926248D01*
X183192676Y-189164343D01*
X183311724Y-188973867D01*
X183514105Y-188878629D01*
X183895057Y-188878629D01*
X184073629Y-188973867D01*
X184145057Y-189164343D01*
X184121248Y-189354819D01*
X183145057Y-189545295D01*
X184895057Y-190021486D02*
X184978392Y-190116724D01*
X184871248Y-190211962D01*
X184787915Y-190116724D01*
X184895057Y-190021486D01*
X184871248Y-190211962D01*
X185026010Y-188973867D02*
X185109344Y-189069105D01*
X185002200Y-189164343D01*
X184918867Y-189069105D01*
X185026010Y-188973867D01*
X185002200Y-189164343D01*
X188216487Y-190116724D02*
X188014106Y-190211962D01*
X187633154Y-190211962D01*
X187454583Y-190116724D01*
X187371248Y-190021486D01*
X187299820Y-189831010D01*
X187371248Y-189259581D01*
X187490296Y-189069105D01*
X187597440Y-188973867D01*
X187799820Y-188878629D01*
X188180772Y-188878629D01*
X188359344Y-188973867D01*
X189918868Y-190211962D02*
X190049820Y-189164343D01*
X189978392Y-188973867D01*
X189799820Y-188878629D01*
X189418868Y-188878629D01*
X189216487Y-188973867D01*
X189930773Y-190116724D02*
X189728392Y-190211962D01*
X189252202Y-190211962D01*
X189073630Y-190116724D01*
X189002201Y-189926248D01*
X189026011Y-189735771D01*
X189145058Y-189545295D01*
X189347440Y-189450057D01*
X189823630Y-189450057D01*
X190026011Y-189354819D01*
X191156964Y-190211962D02*
X190978393Y-190116724D01*
X190906963Y-189926248D01*
X191121249Y-188211962D01*
X191918868Y-190211962D02*
X192168868Y-188211962D01*
X192073630Y-188973867D02*
X192276011Y-188878629D01*
X192656963Y-188878629D01*
X192835535Y-188973867D01*
X192918868Y-189069105D01*
X192990296Y-189259581D01*
X192918868Y-189831010D01*
X192799820Y-190021486D01*
X192692678Y-190116724D01*
X192490297Y-190211962D01*
X192109345Y-190211962D01*
X191930773Y-190116724D01*
X194014107Y-190211962D02*
X193835536Y-190116724D01*
X193752201Y-190021486D01*
X193680773Y-189831010D01*
X193752201Y-189259581D01*
X193871249Y-189069105D01*
X193978393Y-188973867D01*
X194180773Y-188878629D01*
X194466487Y-188878629D01*
X194645059Y-188973867D01*
X194728392Y-189069105D01*
X194799820Y-189259581D01*
X194728392Y-189831010D01*
X194609344Y-190021486D01*
X194502202Y-190116724D01*
X194299821Y-190211962D01*
X194014107Y-190211962D01*
X195347440Y-190211962D02*
X196561725Y-188878629D01*
X195514106Y-188878629D02*
X196395059Y-190211962D01*
D10*
D11*
X178859343Y-185600057D02*
X178359343Y-185600057D01*
X178359343Y-186385771D02*
X178359343Y-184885771D01*
X179073629Y-184885771D01*
X179645057Y-186385771D02*
X179645057Y-185385771D01*
X179645057Y-184885771D02*
X179573628Y-184957200D01*
X179645057Y-185028629D01*
X179716485Y-184957200D01*
X179645057Y-184885771D01*
X179645057Y-185028629D01*
X180573629Y-186385771D02*
X180430771Y-186314343D01*
X180359343Y-186171486D01*
X180359343Y-184885771D01*
X181716485Y-186314343D02*
X181573628Y-186385771D01*
X181287914Y-186385771D01*
X181145057Y-186314343D01*
X181073628Y-186171486D01*
X181073628Y-185600057D01*
X181145057Y-185457200D01*
X181287914Y-185385771D01*
X181573628Y-185385771D01*
X181716485Y-185457200D01*
X181787914Y-185600057D01*
X181787914Y-185742914D01*
X181073628Y-185885771D01*
X182430771Y-186242914D02*
X182502199Y-186314343D01*
X182430771Y-186385771D01*
X182359342Y-186314343D01*
X182430771Y-186242914D01*
X182430771Y-186385771D01*
X182430771Y-185457200D02*
X182502199Y-185528629D01*
X182430771Y-185600057D01*
X182359342Y-185528629D01*
X182430771Y-185457200D01*
X182430771Y-185600057D01*
X184930771Y-186314343D02*
X184787914Y-186385771D01*
X184502200Y-186385771D01*
X184359342Y-186314343D01*
X184287914Y-186242914D01*
X184216485Y-186100057D01*
X184216485Y-185671486D01*
X184287914Y-185528629D01*
X184359342Y-185457200D01*
X184502200Y-185385771D01*
X184787914Y-185385771D01*
X184930771Y-185457200D01*
X186216485Y-186385771D02*
X186216485Y-185600057D01*
X186145056Y-185457200D01*
X186002199Y-185385771D01*
X185716485Y-185385771D01*
X185573628Y-185457200D01*
X186216485Y-186314343D02*
X186073628Y-186385771D01*
X185716485Y-186385771D01*
X185573628Y-186314343D01*
X185502199Y-186171486D01*
X185502199Y-186028629D01*
X185573628Y-185885771D01*
X185716485Y-185814343D01*
X186073628Y-185814343D01*
X186216485Y-185742914D01*
X187145057Y-186385771D02*
X187002199Y-186314343D01*
X186930771Y-186171486D01*
X186930771Y-184885771D01*
X187716485Y-186385771D02*
X187716485Y-184885771D01*
X187716485Y-185457200D02*
X187859342Y-185385771D01*
X188145056Y-185385771D01*
X188287913Y-185457200D01*
X188359342Y-185528629D01*
X188430771Y-185671486D01*
X188430771Y-186100057D01*
X188359342Y-186242914D01*
X188287913Y-186314343D01*
X188145056Y-186385771D01*
X187859342Y-186385771D01*
X187716485Y-186314343D01*
X189287914Y-186385771D02*
X189145056Y-186314343D01*
X189073628Y-186242914D01*
X189002199Y-186100057D01*
X189002199Y-185671486D01*
X189073628Y-185528629D01*
X189145056Y-185457200D01*
X189287914Y-185385771D01*
X189502199Y-185385771D01*
X189645056Y-185457200D01*
X189716485Y-185528629D01*
X189787914Y-185671486D01*
X189787914Y-186100057D01*
X189716485Y-186242914D01*
X189645056Y-186314343D01*
X189502199Y-186385771D01*
X189287914Y-186385771D01*
X190287914Y-186385771D02*
X191073628Y-185385771D01*
X190287914Y-185385771D02*
X191073628Y-186385771D01*
X191645057Y-186242914D02*
X191716485Y-186314343D01*
X191645057Y-186385771D01*
X191573628Y-186314343D01*
X191645057Y-186242914D01*
X191645057Y-186385771D01*
X192359343Y-186385771D02*
X192359343Y-184885771D01*
X192502200Y-185814343D02*
X192930771Y-186385771D01*
X192930771Y-185385771D02*
X192359343Y-185957200D01*
X193573629Y-186385771D02*
X193573629Y-185385771D01*
X193573629Y-184885771D02*
X193502200Y-184957200D01*
X193573629Y-185028629D01*
X193645057Y-184957200D01*
X193573629Y-184885771D01*
X193573629Y-185028629D01*
X194930772Y-186314343D02*
X194787915Y-186385771D01*
X194502201Y-186385771D01*
X194359343Y-186314343D01*
X194287915Y-186242914D01*
X194216486Y-186100057D01*
X194216486Y-185671486D01*
X194287915Y-185528629D01*
X194359343Y-185457200D01*
X194502201Y-185385771D01*
X194787915Y-185385771D01*
X194930772Y-185457200D01*
X196216486Y-186385771D02*
X196216486Y-185600057D01*
X196145057Y-185457200D01*
X196002200Y-185385771D01*
X195716486Y-185385771D01*
X195573629Y-185457200D01*
X196216486Y-186314343D02*
X196073629Y-186385771D01*
X195716486Y-186385771D01*
X195573629Y-186314343D01*
X195502200Y-186171486D01*
X195502200Y-186028629D01*
X195573629Y-185885771D01*
X195716486Y-185814343D01*
X196073629Y-185814343D01*
X196216486Y-185742914D01*
X197573629Y-186385771D02*
X197573629Y-184885771D01*
X197573629Y-186314343D02*
X197430772Y-186385771D01*
X197145058Y-186385771D01*
X197002200Y-186314343D01*
X196930772Y-186242914D01*
X196859343Y-186100057D01*
X196859343Y-185671486D01*
X196930772Y-185528629D01*
X197002200Y-185457200D01*
X197145058Y-185385771D01*
X197430772Y-185385771D01*
X197573629Y-185457200D01*
X197930772Y-186528629D02*
X199073629Y-186528629D01*
X199430772Y-185385771D02*
X199430772Y-186885771D01*
X199430772Y-185457200D02*
X199573629Y-185385771D01*
X199859343Y-185385771D01*
X200002200Y-185457200D01*
X200073629Y-185528629D01*
X200145058Y-185671486D01*
X200145058Y-186100057D01*
X200073629Y-186242914D01*
X200002200Y-186314343D01*
X199859343Y-186385771D01*
X199573629Y-186385771D01*
X199430772Y-186314343D01*
X201430772Y-186314343D02*
X201287915Y-186385771D01*
X201002201Y-186385771D01*
X200859343Y-186314343D01*
X200787915Y-186242914D01*
X200716486Y-186100057D01*
X200716486Y-185671486D01*
X200787915Y-185528629D01*
X200859343Y-185457200D01*
X201002201Y-185385771D01*
X201287915Y-185385771D01*
X201430772Y-185457200D01*
X202073629Y-186385771D02*
X202073629Y-184885771D01*
X202073629Y-185457200D02*
X202216486Y-185385771D01*
X202502200Y-185385771D01*
X202645057Y-185457200D01*
X202716486Y-185528629D01*
X202787915Y-185671486D01*
X202787915Y-186100057D01*
X202716486Y-186242914D01*
X202645057Y-186314343D01*
X202502200Y-186385771D01*
X202216486Y-186385771D01*
X202073629Y-186314343D01*
D10*
D11*
X177002200Y-181507200D02*
X285002200Y-181507200D01*
D10*
D11*
X178287914Y-183614343D02*
X178502200Y-183685771D01*
X178859343Y-183685771D01*
X179002200Y-183614343D01*
X179073629Y-183542914D01*
X179145057Y-183400057D01*
X179145057Y-183257200D01*
X179073629Y-183114343D01*
X179002200Y-183042914D01*
X178859343Y-182971486D01*
X178573629Y-182900057D01*
X178430771Y-182828629D01*
X178359343Y-182757200D01*
X178287914Y-182614343D01*
X178287914Y-182471486D01*
X178359343Y-182328629D01*
X178430771Y-182257200D01*
X178573629Y-182185771D01*
X178930771Y-182185771D01*
X179145057Y-182257200D01*
X179787914Y-183685771D02*
X179787914Y-182185771D01*
X180430771Y-183685771D02*
X180430771Y-182900057D01*
X180359342Y-182757200D01*
X180216485Y-182685771D01*
X180002200Y-182685771D01*
X179859342Y-182757200D01*
X179787914Y-182828629D01*
X181716485Y-183614343D02*
X181573628Y-183685771D01*
X181287914Y-183685771D01*
X181145057Y-183614343D01*
X181073628Y-183471486D01*
X181073628Y-182900057D01*
X181145057Y-182757200D01*
X181287914Y-182685771D01*
X181573628Y-182685771D01*
X181716485Y-182757200D01*
X181787914Y-182900057D01*
X181787914Y-183042914D01*
X181073628Y-183185771D01*
X183002199Y-183614343D02*
X182859342Y-183685771D01*
X182573628Y-183685771D01*
X182430771Y-183614343D01*
X182359342Y-183471486D01*
X182359342Y-182900057D01*
X182430771Y-182757200D01*
X182573628Y-182685771D01*
X182859342Y-182685771D01*
X183002199Y-182757200D01*
X183073628Y-182900057D01*
X183073628Y-183042914D01*
X182359342Y-183185771D01*
X183502199Y-182685771D02*
X184073628Y-182685771D01*
X183716485Y-182185771D02*
X183716485Y-183471486D01*
X183787913Y-183614343D01*
X183930771Y-183685771D01*
X184073628Y-183685771D01*
X184573628Y-183542914D02*
X184645056Y-183614343D01*
X184573628Y-183685771D01*
X184502199Y-183614343D01*
X184573628Y-183542914D01*
X184573628Y-183685771D01*
X184573628Y-182757200D02*
X184645056Y-182828629D01*
X184573628Y-182900057D01*
X184502199Y-182828629D01*
X184573628Y-182757200D01*
X184573628Y-182900057D01*
D10*
D11*
X197002200Y-191507200D02*
X197002200Y-194507200D01*
D10*
D11*
X261002200Y-191507200D02*
X261002200Y-198007200D01*
D12*
X118492857Y-152997143D02*
X118341072Y-153068571D01*
X118055358Y-153068571D01*
X117921428Y-152997143D01*
X117858929Y-152925714D01*
X117805357Y-152782857D01*
X117858928Y-152354286D01*
X117948214Y-152211429D01*
X118028571Y-152140000D01*
X118180358Y-152068571D01*
X118466072Y-152068571D01*
X118600000Y-152140000D01*
X119769643Y-153068571D02*
X119867857Y-152282857D01*
X119814285Y-152140000D01*
X119680357Y-152068571D01*
X119394643Y-152068571D01*
X119242857Y-152140000D01*
X119778571Y-152997143D02*
X119626786Y-153068571D01*
X119269643Y-153068571D01*
X119135714Y-152997143D01*
X119082142Y-152854286D01*
X119099999Y-152711429D01*
X119189286Y-152568571D01*
X119341071Y-152497143D01*
X119698214Y-152497143D01*
X119850000Y-152425714D01*
X120698215Y-153068571D02*
X120564285Y-152997143D01*
X120510714Y-152854286D01*
X120671429Y-151568571D01*
X121269643Y-153068571D02*
X121457143Y-151568571D01*
X121385714Y-152140000D02*
X121537500Y-152068571D01*
X121823214Y-152068571D01*
X121957142Y-152140000D01*
X122019642Y-152211429D01*
X122073214Y-152354286D01*
X122019643Y-152782857D01*
X121930357Y-152925714D01*
X121849999Y-152997143D01*
X121698214Y-153068571D01*
X121412500Y-153068571D01*
X121278571Y-152997143D01*
X122841072Y-153068571D02*
X122707142Y-152997143D01*
X122644643Y-152925714D01*
X122591071Y-152782857D01*
X122644642Y-152354286D01*
X122733928Y-152211429D01*
X122814285Y-152140000D01*
X122966072Y-152068571D01*
X123180357Y-152068571D01*
X123314285Y-152140000D01*
X123376785Y-152211429D01*
X123430357Y-152354286D01*
X123376786Y-152782857D01*
X123287500Y-152925714D01*
X123207142Y-152997143D01*
X123055357Y-153068571D01*
X122841072Y-153068571D01*
X123841072Y-153068571D02*
X124751786Y-152068571D01*
X123966072Y-152068571D02*
X124626786Y-153068571D01*
X126341072Y-153068571D02*
X126466072Y-152068571D01*
X126430357Y-152354286D02*
X126519642Y-152211429D01*
X126600000Y-152140000D01*
X126751786Y-152068571D01*
X126894643Y-152068571D01*
X128055357Y-153068571D02*
X127198214Y-153068571D01*
X127626786Y-153068571D02*
X127814286Y-151568571D01*
X127644643Y-151782857D01*
X127483928Y-151925714D01*
X127332142Y-151997143D01*
X118805357Y-154190000D02*
X118671429Y-154118571D01*
X118457143Y-154118571D01*
X118233929Y-154190000D01*
X118073214Y-154332857D01*
X117983929Y-154475714D01*
X117876785Y-154761429D01*
X117850000Y-154975714D01*
X117885714Y-155261429D01*
X117939285Y-155404286D01*
X118064286Y-155547143D01*
X118269643Y-155618571D01*
X118412500Y-155618571D01*
X118635714Y-155547143D01*
X118716072Y-155475714D01*
X118778572Y-154975714D01*
X118492857Y-154975714D01*
X119341072Y-155618571D02*
X119466072Y-154618571D01*
X119430357Y-154904286D02*
X119519642Y-154761429D01*
X119600000Y-154690000D01*
X119751786Y-154618571D01*
X119894643Y-154618571D01*
X120912500Y-155618571D02*
X121010714Y-154832857D01*
X120957142Y-154690000D01*
X120823214Y-154618571D01*
X120537500Y-154618571D01*
X120385714Y-154690000D01*
X120921428Y-155547143D02*
X120769643Y-155618571D01*
X120412500Y-155618571D01*
X120278571Y-155547143D01*
X120224999Y-155404286D01*
X120242856Y-155261429D01*
X120332143Y-155118571D01*
X120483928Y-155047143D01*
X120841071Y-155047143D01*
X120992857Y-154975714D01*
X121626786Y-155618571D02*
X121814286Y-154118571D01*
X122269643Y-155618571D02*
X122367857Y-154832857D01*
X122314285Y-154690000D01*
X122180357Y-154618571D01*
X121966072Y-154618571D01*
X121814285Y-154690000D01*
X121733928Y-154761429D01*
X123626786Y-155618571D02*
X123725000Y-154832857D01*
X123671428Y-154690000D01*
X123537500Y-154618571D01*
X123251786Y-154618571D01*
X123100000Y-154690000D01*
X123635714Y-155547143D02*
X123483929Y-155618571D01*
X123126786Y-155618571D01*
X122992857Y-155547143D01*
X122939285Y-155404286D01*
X122957142Y-155261429D01*
X123046429Y-155118571D01*
X123198214Y-155047143D01*
X123555357Y-155047143D01*
X123707143Y-154975714D01*
X124341072Y-155618571D02*
X124466072Y-154618571D01*
X124448214Y-154761429D02*
X124528571Y-154690000D01*
X124680358Y-154618571D01*
X124894643Y-154618571D01*
X125028571Y-154690000D01*
X125082143Y-154832857D01*
X124983929Y-155618571D01*
X125082143Y-154832857D02*
X125171429Y-154690000D01*
X125323215Y-154618571D01*
X125537500Y-154618571D01*
X125671429Y-154690000D01*
X125725000Y-154832857D01*
X125626786Y-155618571D01*
X127483929Y-155618571D02*
X127671429Y-154118571D01*
X128341072Y-155618571D02*
X127805357Y-154761429D01*
X128528572Y-154118571D02*
X127564286Y-154975714D01*
X129564285Y-155547143D02*
X129412500Y-155618571D01*
X129126786Y-155618571D01*
X128992857Y-155547143D01*
X128939285Y-155404286D01*
X129010714Y-154832857D01*
X129100000Y-154690000D01*
X129251786Y-154618571D01*
X129537500Y-154618571D01*
X129671428Y-154690000D01*
X129725000Y-154832857D01*
X129707143Y-154975714D01*
X128975000Y-155118571D01*
X130849999Y-155547143D02*
X130698214Y-155618571D01*
X130412500Y-155618571D01*
X130278571Y-155547143D01*
X130224999Y-155404286D01*
X130296428Y-154832857D01*
X130385714Y-154690000D01*
X130537500Y-154618571D01*
X130823214Y-154618571D01*
X130957142Y-154690000D01*
X131010714Y-154832857D01*
X130992857Y-154975714D01*
X130260714Y-155118571D01*
X131466071Y-154618571D02*
X132037500Y-154618571D01*
X131742857Y-154118571D02*
X131582142Y-155404286D01*
X131635713Y-155547143D01*
X131769643Y-155618571D01*
X131912500Y-155618571D01*
X132412500Y-155618571D02*
X132600000Y-154118571D01*
X133055357Y-155618571D02*
X133153571Y-154832857D01*
X133099999Y-154690000D01*
X132966071Y-154618571D01*
X132751786Y-154618571D01*
X132599999Y-154690000D01*
X132519642Y-154761429D01*
X118742858Y-156668571D02*
X118028572Y-156668571D01*
X117867857Y-157382857D01*
X117948214Y-157311429D01*
X118100000Y-157240000D01*
X118457143Y-157240000D01*
X118591071Y-157311429D01*
X118653572Y-157382857D01*
X118707143Y-157525714D01*
X118662500Y-157882857D01*
X118573215Y-158025714D01*
X118492857Y-158097143D01*
X118341072Y-158168571D01*
X117983929Y-158168571D01*
X117850000Y-158097143D01*
X117787500Y-158025714D01*
X120537499Y-156597143D02*
X119010714Y-158525714D01*
X120939285Y-156811429D02*
X121019643Y-156740000D01*
X121171429Y-156668571D01*
X121528572Y-156668571D01*
X121662500Y-156740000D01*
X121725000Y-156811429D01*
X121778571Y-156954286D01*
X121760714Y-157097143D01*
X121662500Y-157311429D01*
X120698215Y-158168571D01*
X121626786Y-158168571D01*
X122742857Y-156668571D02*
X122885714Y-156668571D01*
X123019642Y-156740000D01*
X123082142Y-156811429D01*
X123135714Y-156954286D01*
X123171428Y-157240000D01*
X123126785Y-157597143D01*
X123019643Y-157882857D01*
X122930357Y-158025714D01*
X122849999Y-158097143D01*
X122698214Y-158168571D01*
X122555357Y-158168571D01*
X122421428Y-158097143D01*
X122358928Y-158025714D01*
X122305357Y-157882857D01*
X122269642Y-157597143D01*
X122314285Y-157240000D01*
X122421428Y-156954286D01*
X122510713Y-156811429D01*
X122591071Y-156740000D01*
X122742857Y-156668571D01*
X124483928Y-158168571D02*
X123626785Y-158168571D01*
X124055357Y-158168571D02*
X124242857Y-156668571D01*
X124073214Y-156882857D01*
X123912499Y-157025714D01*
X123760713Y-157097143D01*
X125171428Y-156668571D02*
X126171428Y-156668571D01*
X125341071Y-158168571D01*
X87920000Y-157372857D02*
X88134286Y-157444286D01*
X88205714Y-157515714D01*
X88277143Y-157658571D01*
X88277143Y-157872857D01*
X88205714Y-158015714D01*
X88134286Y-158087143D01*
X87991428Y-158158571D01*
X87420000Y-158158571D01*
X87420000Y-156658571D01*
X87920000Y-156658571D01*
X88062857Y-156730000D01*
X88134286Y-156801429D01*
X88205714Y-156944286D01*
X88205714Y-157087143D01*
X88134286Y-157230000D01*
X88062857Y-157301429D01*
X87920000Y-157372857D01*
X87420000Y-157372857D01*
X88848571Y-157730000D02*
X89562857Y-157730000D01*
X88705714Y-158158571D02*
X89205714Y-156658571D01*
X89705714Y-158158571D01*
X90205714Y-158158571D02*
X90205714Y-156658571D01*
X91062857Y-158158571D01*
X91062857Y-156658571D01*
X91777143Y-157587143D02*
X92920000Y-157587143D01*
X113371429Y-149903571D02*
X112514286Y-149903571D01*
X112942858Y-149903571D02*
X112942858Y-148403571D01*
X112800001Y-148617857D01*
X112657143Y-148760714D01*
X112514286Y-148832143D01*
X113942857Y-148546429D02*
X114014286Y-148475000D01*
X114157143Y-148403571D01*
X114514286Y-148403571D01*
X114657143Y-148475000D01*
X114728572Y-148546429D01*
X114800000Y-148689286D01*
X114800000Y-148832143D01*
X114728572Y-149046429D01*
X113871429Y-149903571D01*
X114800000Y-149903571D01*
X115228571Y-148403571D02*
X115728571Y-149903571D01*
X116228571Y-148403571D01*
X95540000Y-152927857D02*
X95754286Y-152999286D01*
X95825714Y-153070714D01*
X95897143Y-153213571D01*
X95897143Y-153427857D01*
X95825714Y-153570714D01*
X95754286Y-153642143D01*
X95611428Y-153713571D01*
X95040000Y-153713571D01*
X95040000Y-152213571D01*
X95540000Y-152213571D01*
X95682857Y-152285000D01*
X95754286Y-152356429D01*
X95825714Y-152499286D01*
X95825714Y-152642143D01*
X95754286Y-152785000D01*
X95682857Y-152856429D01*
X95540000Y-152927857D01*
X95040000Y-152927857D01*
X96468571Y-153285000D02*
X97182857Y-153285000D01*
X96325714Y-153713571D02*
X96825714Y-152213571D01*
X97325714Y-153713571D01*
X97825714Y-153713571D02*
X97825714Y-152213571D01*
X98682857Y-153713571D01*
X98682857Y-152213571D01*
X99397143Y-153142143D02*
X100540000Y-153142143D01*
X99968571Y-153713571D02*
X99968571Y-152570714D01*
X165500857Y-154844571D02*
X165572286Y-154630285D01*
X165643714Y-154558857D01*
X165786571Y-154487428D01*
X166000857Y-154487428D01*
X166143714Y-154558857D01*
X166215143Y-154630285D01*
X166286571Y-154773143D01*
X166286571Y-155344571D01*
X164786571Y-155344571D01*
X164786571Y-154844571D01*
X164858000Y-154701714D01*
X164929429Y-154630285D01*
X165072286Y-154558857D01*
X165215143Y-154558857D01*
X165358000Y-154630285D01*
X165429429Y-154701714D01*
X165500857Y-154844571D01*
X165500857Y-155344571D01*
X166286571Y-153844571D02*
X164786571Y-153844571D01*
X166286571Y-152987428D01*
X164786571Y-152987428D01*
X166143714Y-151415999D02*
X166215143Y-151487428D01*
X166286571Y-151701714D01*
X166286571Y-151844571D01*
X166215143Y-152058856D01*
X166072286Y-152201714D01*
X165929429Y-152273142D01*
X165643714Y-152344571D01*
X165429429Y-152344571D01*
X165143714Y-152273142D01*
X165000857Y-152201714D01*
X164858000Y-152058856D01*
X164786571Y-151844571D01*
X164786571Y-151701714D01*
X164858000Y-151487428D01*
X164929429Y-151415999D01*
X159131143Y-143522000D02*
X158988286Y-143450571D01*
X158774000Y-143450571D01*
X158559715Y-143522000D01*
X158416857Y-143664857D01*
X158345429Y-143807714D01*
X158274000Y-144093429D01*
X158274000Y-144307714D01*
X158345429Y-144593429D01*
X158416857Y-144736286D01*
X158559715Y-144879143D01*
X158774000Y-144950571D01*
X158916857Y-144950571D01*
X159131143Y-144879143D01*
X159202572Y-144807714D01*
X159202572Y-144307714D01*
X158916857Y-144307714D01*
X159845429Y-144950571D02*
X159845429Y-143450571D01*
X160702572Y-144950571D01*
X160702572Y-143450571D01*
X161416858Y-144950571D02*
X161416858Y-143450571D01*
X161774001Y-143450571D01*
X161988286Y-143522000D01*
X162131144Y-143664857D01*
X162202572Y-143807714D01*
X162274001Y-144093429D01*
X162274001Y-144307714D01*
X162202572Y-144593429D01*
X162131144Y-144736286D01*
X161988286Y-144879143D01*
X161774001Y-144950571D01*
X161416858Y-144950571D01*
X157805715Y-139894571D02*
X158734286Y-139894571D01*
X158234286Y-140466000D01*
X158448572Y-140466000D01*
X158591429Y-140537429D01*
X158662858Y-140608857D01*
X158734286Y-140751714D01*
X158734286Y-141108857D01*
X158662858Y-141251714D01*
X158591429Y-141323143D01*
X158448572Y-141394571D01*
X158020000Y-141394571D01*
X157877143Y-141323143D01*
X157805715Y-141251714D01*
X159377143Y-141251714D02*
X159448571Y-141323143D01*
X159377143Y-141394571D01*
X159305714Y-141323143D01*
X159377143Y-141251714D01*
X159377143Y-141394571D01*
X159948572Y-139894571D02*
X160877143Y-139894571D01*
X160377143Y-140466000D01*
X160591429Y-140466000D01*
X160734286Y-140537429D01*
X160805715Y-140608857D01*
X160877143Y-140751714D01*
X160877143Y-141108857D01*
X160805715Y-141251714D01*
X160734286Y-141323143D01*
X160591429Y-141394571D01*
X160162857Y-141394571D01*
X160020000Y-141323143D01*
X159948572Y-141251714D01*
X161305714Y-139894571D02*
X161805714Y-141394571D01*
X162305714Y-139894571D01*
X159599429Y-137838571D02*
X158742286Y-137838571D01*
X159170858Y-137838571D02*
X159170858Y-136338571D01*
X159028001Y-136552857D01*
X158885143Y-136695714D01*
X158742286Y-136767143D01*
X160170857Y-136481429D02*
X160242286Y-136410000D01*
X160385143Y-136338571D01*
X160742286Y-136338571D01*
X160885143Y-136410000D01*
X160956572Y-136481429D01*
X161028000Y-136624286D01*
X161028000Y-136767143D01*
X160956572Y-136981429D01*
X160099429Y-137838571D01*
X161028000Y-137838571D01*
X161456571Y-136338571D02*
X161956571Y-137838571D01*
X162456571Y-136338571D01*
X158940572Y-151999143D02*
X160083429Y-151999143D01*
X159512000Y-152570571D02*
X159512000Y-151427714D01*
D11*
X93980000Y-145796000D02*
X93980000Y-155956000D01*
X93980000Y-155956000D02*
X83820000Y-155956000D01*
X83820000Y-155956000D02*
X83820000Y-148336000D01*
X83820000Y-148336000D02*
X83820000Y-145796000D01*
X83820000Y-145796000D02*
X93980000Y-145796000D01*
X80356000Y-117207000D02*
X79156000Y-117207000D01*
X79156000Y-115457000D02*
X80356000Y-115457000D01*
X79156000Y-118505000D02*
X80356000Y-118505000D01*
X80356000Y-120255000D02*
X79156000Y-120255000D01*
X80356000Y-122287000D02*
X79156000Y-122287000D01*
X79156000Y-120537000D02*
X80356000Y-120537000D01*
X80356000Y-128383000D02*
X79156000Y-128383000D01*
X79156000Y-126633000D02*
X80356000Y-126633000D01*
X79156000Y-136793000D02*
X80356000Y-136793000D01*
X80356000Y-138543000D02*
X79156000Y-138543000D01*
X80356000Y-147687000D02*
X79156000Y-147687000D01*
X79156000Y-145937000D02*
X80356000Y-145937000D01*
X79156000Y-157113000D02*
X80356000Y-157113000D01*
X80356000Y-158863000D02*
X79156000Y-158863000D01*
X108196000Y-150026000D02*
X107196000Y-150026000D01*
X107196000Y-151726000D02*
X108196000Y-151726000D01*
X164439000Y-110545000D02*
X158141000Y-110545000D01*
X164433000Y-110685000D02*
X158147000Y-110685000D01*
X164420000Y-110825000D02*
X161736000Y-110825000D01*
X160844000Y-110825000D02*
X158160000Y-110825000D01*
X164401000Y-110965000D02*
X161946000Y-110965000D01*
X160634000Y-110965000D02*
X158179000Y-110965000D01*
X164375000Y-111105000D02*
X162079000Y-111105000D01*
X160501000Y-111105000D02*
X158205000Y-111105000D01*
X164343000Y-111245000D02*
X162170000Y-111245000D01*
X160410000Y-111245000D02*
X158237000Y-111245000D01*
X164304000Y-111385000D02*
X162232000Y-111385000D01*
X160348000Y-111385000D02*
X158276000Y-111385000D01*
X164258000Y-111525000D02*
X162271000Y-111525000D01*
X160309000Y-111525000D02*
X158322000Y-111525000D01*
X164205000Y-111665000D02*
X162288000Y-111665000D01*
X160292000Y-111665000D02*
X158375000Y-111665000D01*
X164143000Y-111805000D02*
X162286000Y-111805000D01*
X160294000Y-111805000D02*
X158437000Y-111805000D01*
X164073000Y-111945000D02*
X162264000Y-111945000D01*
X160316000Y-111945000D02*
X158507000Y-111945000D01*
X163994000Y-112085000D02*
X162221000Y-112085000D01*
X160359000Y-112085000D02*
X158586000Y-112085000D01*
X163906000Y-112225000D02*
X162153000Y-112225000D01*
X160427000Y-112225000D02*
X158674000Y-112225000D01*
X163806000Y-112365000D02*
X162054000Y-112365000D01*
X160526000Y-112365000D02*
X158774000Y-112365000D01*
X163694000Y-112505000D02*
X161909000Y-112505000D01*
X160671000Y-112505000D02*
X158886000Y-112505000D01*
X163569000Y-112645000D02*
X161670000Y-112645000D01*
X160910000Y-112645000D02*
X159011000Y-112645000D01*
X163426000Y-112785000D02*
X159154000Y-112785000D01*
X163264000Y-112925000D02*
X159316000Y-112925000D01*
X163076000Y-113065000D02*
X159504000Y-113065000D01*
X162853000Y-113205000D02*
X159727000Y-113205000D01*
X162577000Y-113345000D02*
X160003000Y-113345000D01*
X162202000Y-113485000D02*
X160378000Y-113485000D01*
X162290000Y-111720000D02*
G75*
G03X162290000Y-111720000I-1000000J0D01*
G01*
X164477500Y-110470000D02*
G75*
G03X164477500Y-110470000I-3187500J0D01*
G01*
X70700000Y-94480000D02*
X70700000Y-93480000D01*
X69000000Y-93480000D02*
X69000000Y-94480000D01*
X148582000Y-132500000D02*
X147582000Y-132500000D01*
X147582000Y-134200000D02*
X148582000Y-134200000D01*
X160520000Y-132500000D02*
X159520000Y-132500000D01*
X159520000Y-134200000D02*
X160520000Y-134200000D01*
X150757000Y-117690000D02*
X151757000Y-117690000D01*
X151757000Y-115990000D02*
X150757000Y-115990000D01*
X162695000Y-117690000D02*
X163695000Y-117690000D01*
X163695000Y-115990000D02*
X162695000Y-115990000D01*
X152154000Y-147662000D02*
X153154000Y-147662000D01*
X153154000Y-145962000D02*
X152154000Y-145962000D01*
X111672000Y-125992000D02*
X111672000Y-126992000D01*
X113372000Y-126992000D02*
X113372000Y-125992000D01*
X133850000Y-115990000D02*
X132850000Y-115990000D01*
X132850000Y-117690000D02*
X133850000Y-117690000D01*
X126484000Y-140374000D02*
X125484000Y-140374000D01*
X125484000Y-142074000D02*
X126484000Y-142074000D01*
X136660000Y-89750000D02*
X137660000Y-89750000D01*
X137660000Y-88050000D02*
X136660000Y-88050000D01*
X137295000Y-103085000D02*
X138295000Y-103085000D01*
X138295000Y-101385000D02*
X137295000Y-101385000D01*
X125992000Y-89369000D02*
X126992000Y-89369000D01*
X126992000Y-87669000D02*
X125992000Y-87669000D01*
X104275000Y-89369000D02*
X105275000Y-89369000D01*
X105275000Y-87669000D02*
X104275000Y-87669000D01*
X111625000Y-99734000D02*
X110625000Y-99734000D01*
X110625000Y-101434000D02*
X111625000Y-101434000D01*
X111625000Y-113704000D02*
X110625000Y-113704000D01*
X110625000Y-115404000D02*
X111625000Y-115404000D01*
X90686000Y-105752000D02*
X91686000Y-105752000D01*
X91686000Y-104052000D02*
X90686000Y-104052000D01*
X91575000Y-89369000D02*
X92575000Y-89369000D01*
X92575000Y-87669000D02*
X91575000Y-87669000D01*
X86640000Y-156565000D02*
X86640000Y-158115000D01*
X83540000Y-158115000D02*
X83540000Y-156565000D01*
X83540000Y-156565000D02*
X86640000Y-156565000D01*
X83820000Y-159385000D02*
X86360000Y-159385000D01*
X98578000Y-146786000D02*
X98578000Y-148336000D01*
X95478000Y-148336000D02*
X95478000Y-146786000D01*
X95478000Y-146786000D02*
X98578000Y-146786000D01*
X95758000Y-149606000D02*
X98298000Y-149606000D01*
X163576000Y-153162000D02*
X163576000Y-155702000D01*
X163856000Y-150342000D02*
X163856000Y-151892000D01*
X163576000Y-153162000D02*
X161036000Y-153162000D01*
X160756000Y-151892000D02*
X160756000Y-150342000D01*
X160756000Y-150342000D02*
X163856000Y-150342000D01*
X161036000Y-153162000D02*
X161036000Y-155702000D01*
X161036000Y-155702000D02*
X163576000Y-155702000D01*
X73025000Y-88011000D02*
X72771000Y-88265000D01*
X72771000Y-88265000D02*
X72771000Y-99695000D01*
X72771000Y-99695000D02*
X73025000Y-99949000D01*
X73025000Y-99949000D02*
X84455000Y-99949000D01*
X84455000Y-99949000D02*
X84709000Y-99695000D01*
X84709000Y-99695000D02*
X84709000Y-88265000D01*
X84709000Y-88265000D02*
X84455000Y-88011000D01*
X84455000Y-88011000D02*
X73025000Y-88011000D01*
X73025000Y-87376000D02*
X72136000Y-88265000D01*
X72136000Y-88265000D02*
X72136000Y-100584000D01*
X72136000Y-100584000D02*
X84455000Y-100584000D01*
X84455000Y-100584000D02*
X85344000Y-99695000D01*
X85344000Y-99695000D02*
X85344000Y-88265000D01*
X85344000Y-88265000D02*
X84455000Y-87376000D01*
X84455000Y-87376000D02*
X73025000Y-87376000D01*
D14*
X147442000Y-118510000D02*
X147442000Y-119770000D01*
X147442000Y-125330000D02*
X147442000Y-124070000D01*
X151202000Y-118510000D02*
X147442000Y-118510000D01*
X153452000Y-125330000D02*
X147442000Y-125330000D01*
X159380000Y-118510000D02*
X159380000Y-119770000D01*
X159380000Y-125330000D02*
X159380000Y-124070000D01*
X163140000Y-118510000D02*
X159380000Y-118510000D01*
X165390000Y-125330000D02*
X159380000Y-125330000D01*
D11*
X153416000Y-158242000D02*
X148590000Y-158242000D01*
X148590000Y-158242000D02*
X148590000Y-148082000D01*
X148590000Y-148082000D02*
X153416000Y-148082000D01*
X153416000Y-148082000D02*
X153416000Y-158242000D01*
X151638000Y-148082000D02*
X151638000Y-148717000D01*
X151638000Y-148717000D02*
X150368000Y-148717000D01*
X150368000Y-148717000D02*
X150368000Y-148082000D01*
X115443000Y-118872000D02*
X120269000Y-118872000D01*
X120269000Y-118872000D02*
X120269000Y-129032000D01*
X120269000Y-129032000D02*
X115443000Y-129032000D01*
X115443000Y-129032000D02*
X115443000Y-118872000D01*
X117221000Y-129032000D02*
X117221000Y-128397000D01*
X117221000Y-128397000D02*
X118491000Y-128397000D01*
X118491000Y-128397000D02*
X118491000Y-129032000D01*
X128524000Y-117983000D02*
X128524000Y-118745000D01*
X128524000Y-118745000D02*
X127000000Y-118745000D01*
X127000000Y-118745000D02*
X127000000Y-117983000D01*
X130048000Y-129159000D02*
X125476000Y-129159000D01*
X125476000Y-129159000D02*
X125476000Y-117983000D01*
X125476000Y-117983000D02*
X130048000Y-117983000D01*
X130048000Y-117983000D02*
X130048000Y-129159000D01*
X125476000Y-129921000D02*
X130302000Y-129921000D01*
X130302000Y-129921000D02*
X130302000Y-140081000D01*
X130302000Y-140081000D02*
X125476000Y-140081000D01*
X125476000Y-140081000D02*
X125476000Y-129921000D01*
X127254000Y-140081000D02*
X127254000Y-139446000D01*
X127254000Y-139446000D02*
X128524000Y-139446000D01*
X128524000Y-139446000D02*
X128524000Y-140081000D01*
X137922000Y-100330000D02*
X133096000Y-100330000D01*
X133096000Y-100330000D02*
X133096000Y-90170000D01*
X133096000Y-90170000D02*
X137922000Y-90170000D01*
X137922000Y-90170000D02*
X137922000Y-100330000D01*
X136144000Y-90170000D02*
X136144000Y-90805000D01*
X136144000Y-90805000D02*
X134874000Y-90805000D01*
X134874000Y-90805000D02*
X134874000Y-90170000D01*
X125222000Y-89662000D02*
X125222000Y-90424000D01*
X125222000Y-90424000D02*
X123698000Y-90424000D01*
X123698000Y-90424000D02*
X123698000Y-89662000D01*
X126746000Y-100838000D02*
X122174000Y-100838000D01*
X122174000Y-100838000D02*
X122174000Y-89662000D01*
X122174000Y-89662000D02*
X126746000Y-89662000D01*
X126746000Y-89662000D02*
X126746000Y-100838000D01*
X105156000Y-100584000D02*
X100330000Y-100584000D01*
X100330000Y-100584000D02*
X100330000Y-90424000D01*
X100330000Y-90424000D02*
X105156000Y-90424000D01*
X105156000Y-90424000D02*
X105156000Y-100584000D01*
X103378000Y-90424000D02*
X103378000Y-91059000D01*
X103378000Y-91059000D02*
X102108000Y-91059000D01*
X102108000Y-91059000D02*
X102108000Y-90424000D01*
X112268000Y-99187000D02*
X112268000Y-98425000D01*
X112268000Y-98425000D02*
X113792000Y-98425000D01*
X113792000Y-98425000D02*
X113792000Y-99187000D01*
X110744000Y-88011000D02*
X115316000Y-88011000D01*
X115316000Y-88011000D02*
X115316000Y-99187000D01*
X115316000Y-99187000D02*
X110744000Y-99187000D01*
X110744000Y-99187000D02*
X110744000Y-88011000D01*
X112268000Y-113157000D02*
X112268000Y-112395000D01*
X112268000Y-112395000D02*
X113792000Y-112395000D01*
X113792000Y-112395000D02*
X113792000Y-113157000D01*
X110744000Y-101981000D02*
X115316000Y-101981000D01*
X115316000Y-101981000D02*
X115316000Y-113157000D01*
X115316000Y-113157000D02*
X110744000Y-113157000D01*
X110744000Y-113157000D02*
X110744000Y-101981000D01*
X89662000Y-106426000D02*
X89662000Y-107188000D01*
X89662000Y-107188000D02*
X88138000Y-107188000D01*
X88138000Y-107188000D02*
X88138000Y-106426000D01*
X91186000Y-117602000D02*
X86614000Y-117602000D01*
X86614000Y-117602000D02*
X86614000Y-106426000D01*
X86614000Y-106426000D02*
X91186000Y-106426000D01*
X91186000Y-106426000D02*
X91186000Y-117602000D01*
X90932000Y-89916000D02*
X90932000Y-90678000D01*
X90932000Y-90678000D02*
X89408000Y-90678000D01*
X89408000Y-90678000D02*
X89408000Y-89916000D01*
X92456000Y-101092000D02*
X87884000Y-101092000D01*
X87884000Y-101092000D02*
X87884000Y-89916000D01*
X87884000Y-89916000D02*
X92456000Y-89916000D01*
X92456000Y-89916000D02*
X92456000Y-101092000D01*
X144110000Y-99300000D02*
X142910000Y-99300000D01*
X142910000Y-97550000D02*
X144110000Y-97550000D01*
X144110000Y-96760000D02*
X142910000Y-96760000D01*
X142910000Y-95010000D02*
X144110000Y-95010000D01*
X152492000Y-129145000D02*
X151292000Y-129145000D01*
X151292000Y-127395000D02*
X152492000Y-127395000D01*
X147412000Y-129145000D02*
X146212000Y-129145000D01*
X146212000Y-127395000D02*
X147412000Y-127395000D01*
X164430000Y-129145000D02*
X163230000Y-129145000D01*
X163230000Y-127395000D02*
X164430000Y-127395000D01*
X159350000Y-129145000D02*
X158150000Y-129145000D01*
X158150000Y-127395000D02*
X159350000Y-127395000D01*
X79156000Y-113425000D02*
X80356000Y-113425000D01*
X80356000Y-115175000D02*
X79156000Y-115175000D01*
X79156000Y-122569000D02*
X80356000Y-122569000D01*
X80356000Y-124319000D02*
X79156000Y-124319000D01*
X80356000Y-126351000D02*
X79156000Y-126351000D01*
X79156000Y-124601000D02*
X80356000Y-124601000D01*
X79156000Y-129681000D02*
X80356000Y-129681000D01*
X80356000Y-131431000D02*
X79156000Y-131431000D01*
X80356000Y-133463000D02*
X79156000Y-133463000D01*
X79156000Y-131713000D02*
X80356000Y-131713000D01*
X79156000Y-134761000D02*
X80356000Y-134761000D01*
X80356000Y-136511000D02*
X79156000Y-136511000D01*
X80356000Y-140575000D02*
X79156000Y-140575000D01*
X79156000Y-138825000D02*
X80356000Y-138825000D01*
X79156000Y-141873000D02*
X80356000Y-141873000D01*
X80356000Y-143623000D02*
X79156000Y-143623000D01*
X80356000Y-145655000D02*
X79156000Y-145655000D01*
X79156000Y-143905000D02*
X80356000Y-143905000D01*
X79156000Y-148985000D02*
X80356000Y-148985000D01*
X80356000Y-150735000D02*
X79156000Y-150735000D01*
X80356000Y-152767000D02*
X79156000Y-152767000D01*
X79156000Y-151017000D02*
X80356000Y-151017000D01*
X79156000Y-155081000D02*
X80356000Y-155081000D01*
X80356000Y-156831000D02*
X79156000Y-156831000D01*
X101254000Y-150001000D02*
X102454000Y-150001000D01*
X102454000Y-151751000D02*
X101254000Y-151751000D01*
X107555000Y-141894000D02*
X107555000Y-143094000D01*
X105805000Y-143094000D02*
X105805000Y-141894000D01*
D14*
X101348000Y-145486000D02*
X101348000Y-146416000D01*
X101348000Y-148646000D02*
X101348000Y-147716000D01*
X101348000Y-148646000D02*
X104508000Y-148646000D01*
X101348000Y-145486000D02*
X102808000Y-145486000D01*
D11*
X141025112Y-104394904D02*
G75*
G03X141010000Y-101370000I2484888J1524904D01*
G01*
X141010000Y-104370000D02*
X141010000Y-101370000D01*
X146027936Y-102870000D02*
G75*
G03X146027936Y-102870000I-2517936J0D01*
G01*
X141025112Y-92964904D02*
G75*
G03X141010000Y-89940000I2484888J1524904D01*
G01*
X141010000Y-92940000D02*
X141010000Y-89940000D01*
X146027936Y-91440000D02*
G75*
G03X146027936Y-91440000I-2517936J0D01*
G01*
X156819000Y-110545000D02*
X150521000Y-110545000D01*
X156813000Y-110685000D02*
X150527000Y-110685000D01*
X156800000Y-110825000D02*
X154116000Y-110825000D01*
X153224000Y-110825000D02*
X150540000Y-110825000D01*
X156781000Y-110965000D02*
X154326000Y-110965000D01*
X153014000Y-110965000D02*
X150559000Y-110965000D01*
X156755000Y-111105000D02*
X154459000Y-111105000D01*
X152881000Y-111105000D02*
X150585000Y-111105000D01*
X156723000Y-111245000D02*
X154550000Y-111245000D01*
X152790000Y-111245000D02*
X150617000Y-111245000D01*
X156684000Y-111385000D02*
X154612000Y-111385000D01*
X152728000Y-111385000D02*
X150656000Y-111385000D01*
X156638000Y-111525000D02*
X154651000Y-111525000D01*
X152689000Y-111525000D02*
X150702000Y-111525000D01*
X156585000Y-111665000D02*
X154668000Y-111665000D01*
X152672000Y-111665000D02*
X150755000Y-111665000D01*
X156523000Y-111805000D02*
X154666000Y-111805000D01*
X152674000Y-111805000D02*
X150817000Y-111805000D01*
X156453000Y-111945000D02*
X154644000Y-111945000D01*
X152696000Y-111945000D02*
X150887000Y-111945000D01*
X156374000Y-112085000D02*
X154601000Y-112085000D01*
X152739000Y-112085000D02*
X150966000Y-112085000D01*
X156286000Y-112225000D02*
X154533000Y-112225000D01*
X152807000Y-112225000D02*
X151054000Y-112225000D01*
X156186000Y-112365000D02*
X154434000Y-112365000D01*
X152906000Y-112365000D02*
X151154000Y-112365000D01*
X156074000Y-112505000D02*
X154289000Y-112505000D01*
X153051000Y-112505000D02*
X151266000Y-112505000D01*
X155949000Y-112645000D02*
X154050000Y-112645000D01*
X153290000Y-112645000D02*
X151391000Y-112645000D01*
X155806000Y-112785000D02*
X151534000Y-112785000D01*
X155644000Y-112925000D02*
X151696000Y-112925000D01*
X155456000Y-113065000D02*
X151884000Y-113065000D01*
X155233000Y-113205000D02*
X152107000Y-113205000D01*
X154957000Y-113345000D02*
X152383000Y-113345000D01*
X154582000Y-113485000D02*
X152758000Y-113485000D01*
X154670000Y-111720000D02*
G75*
G03X154670000Y-111720000I-1000000J0D01*
G01*
X156857500Y-110470000D02*
G75*
G03X156857500Y-110470000I-3187500J0D01*
G01*
X136652000Y-103632000D02*
X136652000Y-104394000D01*
X136652000Y-104394000D02*
X135128000Y-104394000D01*
X135128000Y-104394000D02*
X135128000Y-103632000D01*
X138176000Y-114808000D02*
X133604000Y-114808000D01*
X133604000Y-114808000D02*
X133604000Y-103632000D01*
X133604000Y-103632000D02*
X138176000Y-103632000D01*
X138176000Y-103632000D02*
X138176000Y-114808000D01*
X103299400Y-138684000D02*
G75*
G03X103299400Y-138684000I-6779400J0D01*
G01*
X108379400Y-109220000D02*
G75*
G03X108379400Y-109220000I-6779400J0D01*
G01*
X131239400Y-109220000D02*
G75*
G03X131239400Y-109220000I-6779400J0D01*
G01*
X161446981Y-89662000D02*
G75*
G03X161446981Y-89662000I-283981J0D01*
G01*
X160020000Y-88900000D02*
X147320000Y-88900000D01*
X160020000Y-88900000D02*
X160020000Y-104140000D01*
X160020000Y-104140000D02*
X147320000Y-104140000D01*
X147320000Y-104140000D02*
X147320000Y-88900000D01*
X121051609Y-131318000D02*
G75*
G03X121051609Y-131318000I-401609J0D01*
G01*
X112395000Y-130810000D02*
X120015000Y-130810000D01*
X112395000Y-146050000D02*
X112395000Y-130810000D01*
X120015000Y-130810000D02*
X120015000Y-146050000D01*
X120015000Y-146050000D02*
X112395000Y-146050000D01*
X136136000Y-126658000D02*
X135136000Y-126658000D01*
X135136000Y-128358000D02*
X136136000Y-128358000D01*
D14*
X132248000Y-123306000D02*
X132248000Y-125106000D01*
X135468000Y-125106000D02*
X135468000Y-122656000D01*
D11*
X108116000Y-141994000D02*
X108116000Y-142994000D01*
X109816000Y-142994000D02*
X109816000Y-141994000D01*
X163830000Y-93345000D02*
X163830000Y-95885000D01*
X164110000Y-90525000D02*
X164110000Y-92075000D01*
X163830000Y-93345000D02*
X161290000Y-93345000D01*
X161010000Y-92075000D02*
X161010000Y-90525000D01*
X161010000Y-90525000D02*
X164110000Y-90525000D01*
X161290000Y-93345000D02*
X161290000Y-95885000D01*
X161290000Y-95885000D02*
X163830000Y-95885000D01*
X163830000Y-100965000D02*
X163830000Y-103505000D01*
X164110000Y-98145000D02*
X164110000Y-99695000D01*
X163830000Y-100965000D02*
X161290000Y-100965000D01*
X161010000Y-99695000D02*
X161010000Y-98145000D01*
X161010000Y-98145000D02*
X164110000Y-98145000D01*
X161290000Y-100965000D02*
X161290000Y-103505000D01*
X161290000Y-103505000D02*
X163830000Y-103505000D01*
X84494762Y-145232381D02*
X84161428Y-144756190D01*
X83923333Y-145232381D02*
X83923333Y-144232381D01*
X84304286Y-144232381D01*
X84399524Y-144280000D01*
X84447143Y-144327619D01*
X84494762Y-144422857D01*
X84494762Y-144565714D01*
X84447143Y-144660952D01*
X84399524Y-144708571D01*
X84304286Y-144756190D01*
X83923333Y-144756190D01*
X84780476Y-144232381D02*
X85113809Y-145232381D01*
X85447143Y-144232381D01*
X86304286Y-145232381D02*
X85732857Y-145232381D01*
X86018571Y-145232381D02*
X86018571Y-144232381D01*
X85923333Y-144375238D01*
X85828095Y-144470476D01*
X85732857Y-144518095D01*
X74541143Y-116784381D02*
X74207809Y-116308190D01*
X73969714Y-116784381D02*
X73969714Y-115784381D01*
X74350667Y-115784381D01*
X74445905Y-115832000D01*
X74493524Y-115879619D01*
X74541143Y-115974857D01*
X74541143Y-116117714D01*
X74493524Y-116212952D01*
X74445905Y-116260571D01*
X74350667Y-116308190D01*
X73969714Y-116308190D01*
X74922095Y-115879619D02*
X74969714Y-115832000D01*
X75064952Y-115784381D01*
X75303048Y-115784381D01*
X75398286Y-115832000D01*
X75445905Y-115879619D01*
X75493524Y-115974857D01*
X75493524Y-116070095D01*
X75445905Y-116212952D01*
X74874476Y-116784381D01*
X75493524Y-116784381D01*
X76112571Y-115784381D02*
X76207810Y-115784381D01*
X76303048Y-115832000D01*
X76350667Y-115879619D01*
X76398286Y-115974857D01*
X76445905Y-116165333D01*
X76445905Y-116403429D01*
X76398286Y-116593905D01*
X76350667Y-116689143D01*
X76303048Y-116736762D01*
X76207810Y-116784381D01*
X76112571Y-116784381D01*
X76017333Y-116736762D01*
X75969714Y-116689143D01*
X75922095Y-116593905D01*
X75874476Y-116403429D01*
X75874476Y-116165333D01*
X75922095Y-115974857D01*
X75969714Y-115879619D01*
X76017333Y-115832000D01*
X76112571Y-115784381D01*
X74541143Y-119832381D02*
X74207809Y-119356190D01*
X73969714Y-119832381D02*
X73969714Y-118832381D01*
X74350667Y-118832381D01*
X74445905Y-118880000D01*
X74493524Y-118927619D01*
X74541143Y-119022857D01*
X74541143Y-119165714D01*
X74493524Y-119260952D01*
X74445905Y-119308571D01*
X74350667Y-119356190D01*
X73969714Y-119356190D01*
X75493524Y-119832381D02*
X74922095Y-119832381D01*
X75207809Y-119832381D02*
X75207809Y-118832381D01*
X75112571Y-118975238D01*
X75017333Y-119070476D01*
X74922095Y-119118095D01*
X75969714Y-119832381D02*
X76160190Y-119832381D01*
X76255429Y-119784762D01*
X76303048Y-119737143D01*
X76398286Y-119594286D01*
X76445905Y-119403810D01*
X76445905Y-119022857D01*
X76398286Y-118927619D01*
X76350667Y-118880000D01*
X76255429Y-118832381D01*
X76064952Y-118832381D01*
X75969714Y-118880000D01*
X75922095Y-118927619D01*
X75874476Y-119022857D01*
X75874476Y-119260952D01*
X75922095Y-119356190D01*
X75969714Y-119403810D01*
X76064952Y-119451429D01*
X76255429Y-119451429D01*
X76350667Y-119403810D01*
X76398286Y-119356190D01*
X76445905Y-119260952D01*
X74541143Y-121864381D02*
X74207809Y-121388190D01*
X73969714Y-121864381D02*
X73969714Y-120864381D01*
X74350667Y-120864381D01*
X74445905Y-120912000D01*
X74493524Y-120959619D01*
X74541143Y-121054857D01*
X74541143Y-121197714D01*
X74493524Y-121292952D01*
X74445905Y-121340571D01*
X74350667Y-121388190D01*
X73969714Y-121388190D01*
X75493524Y-121864381D02*
X74922095Y-121864381D01*
X75207809Y-121864381D02*
X75207809Y-120864381D01*
X75112571Y-121007238D01*
X75017333Y-121102476D01*
X74922095Y-121150095D01*
X76064952Y-121292952D02*
X75969714Y-121245333D01*
X75922095Y-121197714D01*
X75874476Y-121102476D01*
X75874476Y-121054857D01*
X75922095Y-120959619D01*
X75969714Y-120912000D01*
X76064952Y-120864381D01*
X76255429Y-120864381D01*
X76350667Y-120912000D01*
X76398286Y-120959619D01*
X76445905Y-121054857D01*
X76445905Y-121102476D01*
X76398286Y-121197714D01*
X76350667Y-121245333D01*
X76255429Y-121292952D01*
X76064952Y-121292952D01*
X75969714Y-121340571D01*
X75922095Y-121388190D01*
X75874476Y-121483429D01*
X75874476Y-121673905D01*
X75922095Y-121769143D01*
X75969714Y-121816762D01*
X76064952Y-121864381D01*
X76255429Y-121864381D01*
X76350667Y-121816762D01*
X76398286Y-121769143D01*
X76445905Y-121673905D01*
X76445905Y-121483429D01*
X76398286Y-121388190D01*
X76350667Y-121340571D01*
X76255429Y-121292952D01*
X74541143Y-127960381D02*
X74207809Y-127484190D01*
X73969714Y-127960381D02*
X73969714Y-126960381D01*
X74350667Y-126960381D01*
X74445905Y-127008000D01*
X74493524Y-127055619D01*
X74541143Y-127150857D01*
X74541143Y-127293714D01*
X74493524Y-127388952D01*
X74445905Y-127436571D01*
X74350667Y-127484190D01*
X73969714Y-127484190D01*
X75493524Y-127960381D02*
X74922095Y-127960381D01*
X75207809Y-127960381D02*
X75207809Y-126960381D01*
X75112571Y-127103238D01*
X75017333Y-127198476D01*
X74922095Y-127246095D01*
X76398286Y-126960381D02*
X75922095Y-126960381D01*
X75874476Y-127436571D01*
X75922095Y-127388952D01*
X76017333Y-127341333D01*
X76255429Y-127341333D01*
X76350667Y-127388952D01*
X76398286Y-127436571D01*
X76445905Y-127531810D01*
X76445905Y-127769905D01*
X76398286Y-127865143D01*
X76350667Y-127912762D01*
X76255429Y-127960381D01*
X76017333Y-127960381D01*
X75922095Y-127912762D01*
X75874476Y-127865143D01*
X74541143Y-138120381D02*
X74207809Y-137644190D01*
X73969714Y-138120381D02*
X73969714Y-137120381D01*
X74350667Y-137120381D01*
X74445905Y-137168000D01*
X74493524Y-137215619D01*
X74541143Y-137310857D01*
X74541143Y-137453714D01*
X74493524Y-137548952D01*
X74445905Y-137596571D01*
X74350667Y-137644190D01*
X73969714Y-137644190D01*
X75493524Y-138120381D02*
X74922095Y-138120381D01*
X75207809Y-138120381D02*
X75207809Y-137120381D01*
X75112571Y-137263238D01*
X75017333Y-137358476D01*
X74922095Y-137406095D01*
X76445905Y-138120381D02*
X75874476Y-138120381D01*
X76160190Y-138120381D02*
X76160190Y-137120381D01*
X76064952Y-137263238D01*
X75969714Y-137358476D01*
X75874476Y-137406095D01*
X74509334Y-147264381D02*
X74176000Y-146788190D01*
X73937905Y-147264381D02*
X73937905Y-146264381D01*
X74318858Y-146264381D01*
X74414096Y-146312000D01*
X74461715Y-146359619D01*
X74509334Y-146454857D01*
X74509334Y-146597714D01*
X74461715Y-146692952D01*
X74414096Y-146740571D01*
X74318858Y-146788190D01*
X73937905Y-146788190D01*
X74842667Y-146264381D02*
X75509334Y-146264381D01*
X75080762Y-147264381D01*
X74509334Y-158440381D02*
X74176000Y-157964190D01*
X73937905Y-158440381D02*
X73937905Y-157440381D01*
X74318858Y-157440381D01*
X74414096Y-157488000D01*
X74461715Y-157535619D01*
X74509334Y-157630857D01*
X74509334Y-157773714D01*
X74461715Y-157868952D01*
X74414096Y-157916571D01*
X74318858Y-157964190D01*
X73937905Y-157964190D01*
X74842667Y-157440381D02*
X75461715Y-157440381D01*
X75128381Y-157821333D01*
X75271239Y-157821333D01*
X75366477Y-157868952D01*
X75414096Y-157916571D01*
X75461715Y-158011810D01*
X75461715Y-158249905D01*
X75414096Y-158345143D01*
X75366477Y-158392762D01*
X75271239Y-158440381D01*
X74985524Y-158440381D01*
X74890286Y-158392762D01*
X74842667Y-158345143D01*
X107307143Y-153392143D02*
X107259524Y-153439762D01*
X107116667Y-153487381D01*
X107021429Y-153487381D01*
X106878571Y-153439762D01*
X106783333Y-153344524D01*
X106735714Y-153249286D01*
X106688095Y-153058810D01*
X106688095Y-152915952D01*
X106735714Y-152725476D01*
X106783333Y-152630238D01*
X106878571Y-152535000D01*
X107021429Y-152487381D01*
X107116667Y-152487381D01*
X107259524Y-152535000D01*
X107307143Y-152582619D01*
X107688095Y-152582619D02*
X107735714Y-152535000D01*
X107830952Y-152487381D01*
X108069048Y-152487381D01*
X108164286Y-152535000D01*
X108211905Y-152582619D01*
X108259524Y-152677857D01*
X108259524Y-152773095D01*
X108211905Y-152915952D01*
X107640476Y-153487381D01*
X108259524Y-153487381D01*
X108878571Y-152487381D02*
X108973810Y-152487381D01*
X109069048Y-152535000D01*
X109116667Y-152582619D01*
X109164286Y-152677857D01*
X109211905Y-152868333D01*
X109211905Y-153106429D01*
X109164286Y-153296905D01*
X109116667Y-153392143D01*
X109069048Y-153439762D01*
X108973810Y-153487381D01*
X108878571Y-153487381D01*
X108783333Y-153439762D01*
X108735714Y-153392143D01*
X108688095Y-153296905D01*
X108640476Y-153106429D01*
X108640476Y-152868333D01*
X108688095Y-152677857D01*
X108735714Y-152582619D01*
X108783333Y-152535000D01*
X108878571Y-152487381D01*
X163695143Y-107037143D02*
X163647524Y-107084762D01*
X163504667Y-107132381D01*
X163409429Y-107132381D01*
X163266571Y-107084762D01*
X163171333Y-106989524D01*
X163123714Y-106894286D01*
X163076095Y-106703810D01*
X163076095Y-106560952D01*
X163123714Y-106370476D01*
X163171333Y-106275238D01*
X163266571Y-106180000D01*
X163409429Y-106132381D01*
X163504667Y-106132381D01*
X163647524Y-106180000D01*
X163695143Y-106227619D01*
X164647524Y-107132381D02*
X164076095Y-107132381D01*
X164361809Y-107132381D02*
X164361809Y-106132381D01*
X164266571Y-106275238D01*
X164171333Y-106370476D01*
X164076095Y-106418095D01*
X165504667Y-106465714D02*
X165504667Y-107132381D01*
X165266571Y-106084762D02*
X165028476Y-106799048D01*
X165647524Y-106799048D01*
X70207143Y-99956857D02*
X70254762Y-100004476D01*
X70302381Y-100147333D01*
X70302381Y-100242571D01*
X70254762Y-100385429D01*
X70159524Y-100480667D01*
X70064286Y-100528286D01*
X69873810Y-100575905D01*
X69730952Y-100575905D01*
X69540476Y-100528286D01*
X69445238Y-100480667D01*
X69350000Y-100385429D01*
X69302381Y-100242571D01*
X69302381Y-100147333D01*
X69350000Y-100004476D01*
X69397619Y-99956857D01*
X70302381Y-99004476D02*
X70302381Y-99575905D01*
X70302381Y-99290191D02*
X69302381Y-99290191D01*
X69445238Y-99385429D01*
X69540476Y-99480667D01*
X69588095Y-99575905D01*
X70302381Y-98528286D02*
X70302381Y-98337810D01*
X70254762Y-98242571D01*
X70207143Y-98194952D01*
X70064286Y-98099714D01*
X69873810Y-98052095D01*
X69492857Y-98052095D01*
X69397619Y-98099714D01*
X69350000Y-98147333D01*
X69302381Y-98242571D01*
X69302381Y-98433048D01*
X69350000Y-98528286D01*
X69397619Y-98575905D01*
X69492857Y-98623524D01*
X69730952Y-98623524D01*
X69826190Y-98575905D01*
X69873810Y-98528286D01*
X69921429Y-98433048D01*
X69921429Y-98242571D01*
X69873810Y-98147333D01*
X69826190Y-98099714D01*
X69730952Y-98052095D01*
X143121143Y-133707143D02*
X143073524Y-133754762D01*
X142930667Y-133802381D01*
X142835429Y-133802381D01*
X142692571Y-133754762D01*
X142597333Y-133659524D01*
X142549714Y-133564286D01*
X142502095Y-133373810D01*
X142502095Y-133230952D01*
X142549714Y-133040476D01*
X142597333Y-132945238D01*
X142692571Y-132850000D01*
X142835429Y-132802381D01*
X142930667Y-132802381D01*
X143073524Y-132850000D01*
X143121143Y-132897619D01*
X144073524Y-133802381D02*
X143502095Y-133802381D01*
X143787809Y-133802381D02*
X143787809Y-132802381D01*
X143692571Y-132945238D01*
X143597333Y-133040476D01*
X143502095Y-133088095D01*
X144644952Y-133230952D02*
X144549714Y-133183333D01*
X144502095Y-133135714D01*
X144454476Y-133040476D01*
X144454476Y-132992857D01*
X144502095Y-132897619D01*
X144549714Y-132850000D01*
X144644952Y-132802381D01*
X144835429Y-132802381D01*
X144930667Y-132850000D01*
X144978286Y-132897619D01*
X145025905Y-132992857D01*
X145025905Y-133040476D01*
X144978286Y-133135714D01*
X144930667Y-133183333D01*
X144835429Y-133230952D01*
X144644952Y-133230952D01*
X144549714Y-133278571D01*
X144502095Y-133326190D01*
X144454476Y-133421429D01*
X144454476Y-133611905D01*
X144502095Y-133707143D01*
X144549714Y-133754762D01*
X144644952Y-133802381D01*
X144835429Y-133802381D01*
X144930667Y-133754762D01*
X144978286Y-133707143D01*
X145025905Y-133611905D01*
X145025905Y-133421429D01*
X144978286Y-133326190D01*
X144930667Y-133278571D01*
X144835429Y-133230952D01*
X155313143Y-133707143D02*
X155265524Y-133754762D01*
X155122667Y-133802381D01*
X155027429Y-133802381D01*
X154884571Y-133754762D01*
X154789333Y-133659524D01*
X154741714Y-133564286D01*
X154694095Y-133373810D01*
X154694095Y-133230952D01*
X154741714Y-133040476D01*
X154789333Y-132945238D01*
X154884571Y-132850000D01*
X155027429Y-132802381D01*
X155122667Y-132802381D01*
X155265524Y-132850000D01*
X155313143Y-132897619D01*
X156265524Y-133802381D02*
X155694095Y-133802381D01*
X155979809Y-133802381D02*
X155979809Y-132802381D01*
X155884571Y-132945238D01*
X155789333Y-133040476D01*
X155694095Y-133088095D01*
X156598857Y-132802381D02*
X157265524Y-132802381D01*
X156836952Y-133802381D01*
X145661143Y-117197143D02*
X145613524Y-117244762D01*
X145470667Y-117292381D01*
X145375429Y-117292381D01*
X145232571Y-117244762D01*
X145137333Y-117149524D01*
X145089714Y-117054286D01*
X145042095Y-116863810D01*
X145042095Y-116720952D01*
X145089714Y-116530476D01*
X145137333Y-116435238D01*
X145232571Y-116340000D01*
X145375429Y-116292381D01*
X145470667Y-116292381D01*
X145613524Y-116340000D01*
X145661143Y-116387619D01*
X146613524Y-117292381D02*
X146042095Y-117292381D01*
X146327809Y-117292381D02*
X146327809Y-116292381D01*
X146232571Y-116435238D01*
X146137333Y-116530476D01*
X146042095Y-116578095D01*
X147470667Y-116292381D02*
X147280190Y-116292381D01*
X147184952Y-116340000D01*
X147137333Y-116387619D01*
X147042095Y-116530476D01*
X146994476Y-116720952D01*
X146994476Y-117101905D01*
X147042095Y-117197143D01*
X147089714Y-117244762D01*
X147184952Y-117292381D01*
X147375429Y-117292381D01*
X147470667Y-117244762D01*
X147518286Y-117197143D01*
X147565905Y-117101905D01*
X147565905Y-116863810D01*
X147518286Y-116768571D01*
X147470667Y-116720952D01*
X147375429Y-116673333D01*
X147184952Y-116673333D01*
X147089714Y-116720952D01*
X147042095Y-116768571D01*
X146994476Y-116863810D01*
X157853143Y-117197143D02*
X157805524Y-117244762D01*
X157662667Y-117292381D01*
X157567429Y-117292381D01*
X157424571Y-117244762D01*
X157329333Y-117149524D01*
X157281714Y-117054286D01*
X157234095Y-116863810D01*
X157234095Y-116720952D01*
X157281714Y-116530476D01*
X157329333Y-116435238D01*
X157424571Y-116340000D01*
X157567429Y-116292381D01*
X157662667Y-116292381D01*
X157805524Y-116340000D01*
X157853143Y-116387619D01*
X158805524Y-117292381D02*
X158234095Y-117292381D01*
X158519809Y-117292381D02*
X158519809Y-116292381D01*
X158424571Y-116435238D01*
X158329333Y-116530476D01*
X158234095Y-116578095D01*
X159710286Y-116292381D02*
X159234095Y-116292381D01*
X159186476Y-116768571D01*
X159234095Y-116720952D01*
X159329333Y-116673333D01*
X159567429Y-116673333D01*
X159662667Y-116720952D01*
X159710286Y-116768571D01*
X159757905Y-116863810D01*
X159757905Y-117101905D01*
X159710286Y-117197143D01*
X159662667Y-117244762D01*
X159567429Y-117292381D01*
X159329333Y-117292381D01*
X159234095Y-117244762D01*
X159186476Y-117197143D01*
X156329143Y-147169143D02*
X156281524Y-147216762D01*
X156138667Y-147264381D01*
X156043429Y-147264381D01*
X155900571Y-147216762D01*
X155805333Y-147121524D01*
X155757714Y-147026286D01*
X155710095Y-146835810D01*
X155710095Y-146692952D01*
X155757714Y-146502476D01*
X155805333Y-146407238D01*
X155900571Y-146312000D01*
X156043429Y-146264381D01*
X156138667Y-146264381D01*
X156281524Y-146312000D01*
X156329143Y-146359619D01*
X157281524Y-147264381D02*
X156710095Y-147264381D01*
X156995809Y-147264381D02*
X156995809Y-146264381D01*
X156900571Y-146407238D01*
X156805333Y-146502476D01*
X156710095Y-146550095D01*
X157662476Y-146359619D02*
X157710095Y-146312000D01*
X157805333Y-146264381D01*
X158043429Y-146264381D01*
X158138667Y-146312000D01*
X158186286Y-146359619D01*
X158233905Y-146454857D01*
X158233905Y-146550095D01*
X158186286Y-146692952D01*
X157614857Y-147264381D01*
X158233905Y-147264381D01*
X112625143Y-123070857D02*
X112672762Y-123118476D01*
X112720381Y-123261333D01*
X112720381Y-123356571D01*
X112672762Y-123499429D01*
X112577524Y-123594667D01*
X112482286Y-123642286D01*
X112291810Y-123689905D01*
X112148952Y-123689905D01*
X111958476Y-123642286D01*
X111863238Y-123594667D01*
X111768000Y-123499429D01*
X111720381Y-123356571D01*
X111720381Y-123261333D01*
X111768000Y-123118476D01*
X111815619Y-123070857D01*
X112720381Y-122118476D02*
X112720381Y-122689905D01*
X112720381Y-122404191D02*
X111720381Y-122404191D01*
X111863238Y-122499429D01*
X111958476Y-122594667D01*
X112006095Y-122689905D01*
X112720381Y-121166095D02*
X112720381Y-121737524D01*
X112720381Y-121451810D02*
X111720381Y-121451810D01*
X111863238Y-121547048D01*
X111958476Y-121642286D01*
X112006095Y-121737524D01*
X137025143Y-117197143D02*
X136977524Y-117244762D01*
X136834667Y-117292381D01*
X136739429Y-117292381D01*
X136596571Y-117244762D01*
X136501333Y-117149524D01*
X136453714Y-117054286D01*
X136406095Y-116863810D01*
X136406095Y-116720952D01*
X136453714Y-116530476D01*
X136501333Y-116435238D01*
X136596571Y-116340000D01*
X136739429Y-116292381D01*
X136834667Y-116292381D01*
X136977524Y-116340000D01*
X137025143Y-116387619D01*
X137977524Y-117292381D02*
X137406095Y-117292381D01*
X137691809Y-117292381D02*
X137691809Y-116292381D01*
X137596571Y-116435238D01*
X137501333Y-116530476D01*
X137406095Y-116578095D01*
X138596571Y-116292381D02*
X138691810Y-116292381D01*
X138787048Y-116340000D01*
X138834667Y-116387619D01*
X138882286Y-116482857D01*
X138929905Y-116673333D01*
X138929905Y-116911429D01*
X138882286Y-117101905D01*
X138834667Y-117197143D01*
X138787048Y-117244762D01*
X138691810Y-117292381D01*
X138596571Y-117292381D01*
X138501333Y-117244762D01*
X138453714Y-117197143D01*
X138406095Y-117101905D01*
X138358476Y-116911429D01*
X138358476Y-116673333D01*
X138406095Y-116482857D01*
X138453714Y-116387619D01*
X138501333Y-116340000D01*
X138596571Y-116292381D01*
X122261334Y-141581143D02*
X122213715Y-141628762D01*
X122070858Y-141676381D01*
X121975620Y-141676381D01*
X121832762Y-141628762D01*
X121737524Y-141533524D01*
X121689905Y-141438286D01*
X121642286Y-141247810D01*
X121642286Y-141104952D01*
X121689905Y-140914476D01*
X121737524Y-140819238D01*
X121832762Y-140724000D01*
X121975620Y-140676381D01*
X122070858Y-140676381D01*
X122213715Y-140724000D01*
X122261334Y-140771619D01*
X122737524Y-141676381D02*
X122928000Y-141676381D01*
X123023239Y-141628762D01*
X123070858Y-141581143D01*
X123166096Y-141438286D01*
X123213715Y-141247810D01*
X123213715Y-140866857D01*
X123166096Y-140771619D01*
X123118477Y-140724000D01*
X123023239Y-140676381D01*
X122832762Y-140676381D01*
X122737524Y-140724000D01*
X122689905Y-140771619D01*
X122642286Y-140866857D01*
X122642286Y-141104952D01*
X122689905Y-141200190D01*
X122737524Y-141247810D01*
X122832762Y-141295429D01*
X123023239Y-141295429D01*
X123118477Y-141247810D01*
X123166096Y-141200190D01*
X123213715Y-141104952D01*
X132929334Y-89257143D02*
X132881715Y-89304762D01*
X132738858Y-89352381D01*
X132643620Y-89352381D01*
X132500762Y-89304762D01*
X132405524Y-89209524D01*
X132357905Y-89114286D01*
X132310286Y-88923810D01*
X132310286Y-88780952D01*
X132357905Y-88590476D01*
X132405524Y-88495238D01*
X132500762Y-88400000D01*
X132643620Y-88352381D01*
X132738858Y-88352381D01*
X132881715Y-88400000D01*
X132929334Y-88447619D01*
X133500762Y-88780952D02*
X133405524Y-88733333D01*
X133357905Y-88685714D01*
X133310286Y-88590476D01*
X133310286Y-88542857D01*
X133357905Y-88447619D01*
X133405524Y-88400000D01*
X133500762Y-88352381D01*
X133691239Y-88352381D01*
X133786477Y-88400000D01*
X133834096Y-88447619D01*
X133881715Y-88542857D01*
X133881715Y-88590476D01*
X133834096Y-88685714D01*
X133786477Y-88733333D01*
X133691239Y-88780952D01*
X133500762Y-88780952D01*
X133405524Y-88828571D01*
X133357905Y-88876190D01*
X133310286Y-88971429D01*
X133310286Y-89161905D01*
X133357905Y-89257143D01*
X133405524Y-89304762D01*
X133500762Y-89352381D01*
X133691239Y-89352381D01*
X133786477Y-89304762D01*
X133834096Y-89257143D01*
X133881715Y-89161905D01*
X133881715Y-88971429D01*
X133834096Y-88876190D01*
X133786477Y-88828571D01*
X133691239Y-88780952D01*
X134199334Y-102719143D02*
X134151715Y-102766762D01*
X134008858Y-102814381D01*
X133913620Y-102814381D01*
X133770762Y-102766762D01*
X133675524Y-102671524D01*
X133627905Y-102576286D01*
X133580286Y-102385810D01*
X133580286Y-102242952D01*
X133627905Y-102052476D01*
X133675524Y-101957238D01*
X133770762Y-101862000D01*
X133913620Y-101814381D01*
X134008858Y-101814381D01*
X134151715Y-101862000D01*
X134199334Y-101909619D01*
X134532667Y-101814381D02*
X135199334Y-101814381D01*
X134770762Y-102814381D01*
X122007334Y-88749143D02*
X121959715Y-88796762D01*
X121816858Y-88844381D01*
X121721620Y-88844381D01*
X121578762Y-88796762D01*
X121483524Y-88701524D01*
X121435905Y-88606286D01*
X121388286Y-88415810D01*
X121388286Y-88272952D01*
X121435905Y-88082476D01*
X121483524Y-87987238D01*
X121578762Y-87892000D01*
X121721620Y-87844381D01*
X121816858Y-87844381D01*
X121959715Y-87892000D01*
X122007334Y-87939619D01*
X122864477Y-87844381D02*
X122674000Y-87844381D01*
X122578762Y-87892000D01*
X122531143Y-87939619D01*
X122435905Y-88082476D01*
X122388286Y-88272952D01*
X122388286Y-88653905D01*
X122435905Y-88749143D01*
X122483524Y-88796762D01*
X122578762Y-88844381D01*
X122769239Y-88844381D01*
X122864477Y-88796762D01*
X122912096Y-88749143D01*
X122959715Y-88653905D01*
X122959715Y-88415810D01*
X122912096Y-88320571D01*
X122864477Y-88272952D01*
X122769239Y-88225333D01*
X122578762Y-88225333D01*
X122483524Y-88272952D01*
X122435905Y-88320571D01*
X122388286Y-88415810D01*
X100163334Y-89003143D02*
X100115715Y-89050762D01*
X99972858Y-89098381D01*
X99877620Y-89098381D01*
X99734762Y-89050762D01*
X99639524Y-88955524D01*
X99591905Y-88860286D01*
X99544286Y-88669810D01*
X99544286Y-88526952D01*
X99591905Y-88336476D01*
X99639524Y-88241238D01*
X99734762Y-88146000D01*
X99877620Y-88098381D01*
X99972858Y-88098381D01*
X100115715Y-88146000D01*
X100163334Y-88193619D01*
X101068096Y-88098381D02*
X100591905Y-88098381D01*
X100544286Y-88574571D01*
X100591905Y-88526952D01*
X100687143Y-88479333D01*
X100925239Y-88479333D01*
X101020477Y-88526952D01*
X101068096Y-88574571D01*
X101115715Y-88669810D01*
X101115715Y-88907905D01*
X101068096Y-89003143D01*
X101020477Y-89050762D01*
X100925239Y-89098381D01*
X100687143Y-89098381D01*
X100591905Y-89050762D01*
X100544286Y-89003143D01*
X114387334Y-100941143D02*
X114339715Y-100988762D01*
X114196858Y-101036381D01*
X114101620Y-101036381D01*
X113958762Y-100988762D01*
X113863524Y-100893524D01*
X113815905Y-100798286D01*
X113768286Y-100607810D01*
X113768286Y-100464952D01*
X113815905Y-100274476D01*
X113863524Y-100179238D01*
X113958762Y-100084000D01*
X114101620Y-100036381D01*
X114196858Y-100036381D01*
X114339715Y-100084000D01*
X114387334Y-100131619D01*
X115244477Y-100369714D02*
X115244477Y-101036381D01*
X115006381Y-99988762D02*
X114768286Y-100703048D01*
X115387334Y-100703048D01*
X114387334Y-114911143D02*
X114339715Y-114958762D01*
X114196858Y-115006381D01*
X114101620Y-115006381D01*
X113958762Y-114958762D01*
X113863524Y-114863524D01*
X113815905Y-114768286D01*
X113768286Y-114577810D01*
X113768286Y-114434952D01*
X113815905Y-114244476D01*
X113863524Y-114149238D01*
X113958762Y-114054000D01*
X114101620Y-114006381D01*
X114196858Y-114006381D01*
X114339715Y-114054000D01*
X114387334Y-114101619D01*
X114720667Y-114006381D02*
X115339715Y-114006381D01*
X115006381Y-114387333D01*
X115149239Y-114387333D01*
X115244477Y-114434952D01*
X115292096Y-114482571D01*
X115339715Y-114577810D01*
X115339715Y-114815905D01*
X115292096Y-114911143D01*
X115244477Y-114958762D01*
X115149239Y-115006381D01*
X114863524Y-115006381D01*
X114768286Y-114958762D01*
X114720667Y-114911143D01*
X94575334Y-105259143D02*
X94527715Y-105306762D01*
X94384858Y-105354381D01*
X94289620Y-105354381D01*
X94146762Y-105306762D01*
X94051524Y-105211524D01*
X94003905Y-105116286D01*
X93956286Y-104925810D01*
X93956286Y-104782952D01*
X94003905Y-104592476D01*
X94051524Y-104497238D01*
X94146762Y-104402000D01*
X94289620Y-104354381D01*
X94384858Y-104354381D01*
X94527715Y-104402000D01*
X94575334Y-104449619D01*
X94956286Y-104449619D02*
X95003905Y-104402000D01*
X95099143Y-104354381D01*
X95337239Y-104354381D01*
X95432477Y-104402000D01*
X95480096Y-104449619D01*
X95527715Y-104544857D01*
X95527715Y-104640095D01*
X95480096Y-104782952D01*
X94908667Y-105354381D01*
X95527715Y-105354381D01*
X95591334Y-88749143D02*
X95543715Y-88796762D01*
X95400858Y-88844381D01*
X95305620Y-88844381D01*
X95162762Y-88796762D01*
X95067524Y-88701524D01*
X95019905Y-88606286D01*
X94972286Y-88415810D01*
X94972286Y-88272952D01*
X95019905Y-88082476D01*
X95067524Y-87987238D01*
X95162762Y-87892000D01*
X95305620Y-87844381D01*
X95400858Y-87844381D01*
X95543715Y-87892000D01*
X95591334Y-87939619D01*
X96543715Y-88844381D02*
X95972286Y-88844381D01*
X96258000Y-88844381D02*
X96258000Y-87844381D01*
X96162762Y-87987238D01*
X96067524Y-88082476D01*
X95972286Y-88130095D01*
X161567905Y-157424381D02*
X161567905Y-156424381D01*
X161948858Y-156424381D01*
X162044096Y-156472000D01*
X162091715Y-156519619D01*
X162139334Y-156614857D01*
X162139334Y-156757714D01*
X162091715Y-156852952D01*
X162044096Y-156900571D01*
X161948858Y-156948190D01*
X161567905Y-156948190D01*
X163091715Y-157424381D02*
X162520286Y-157424381D01*
X162806000Y-157424381D02*
X162806000Y-156424381D01*
X162710762Y-156567238D01*
X162615524Y-156662476D01*
X162520286Y-156710095D01*
X69802476Y-88098381D02*
X70469143Y-89098381D01*
X70469143Y-88098381D02*
X69802476Y-89098381D01*
X71373905Y-89098381D02*
X70802476Y-89098381D01*
X71088190Y-89098381D02*
X71088190Y-88098381D01*
X70992952Y-88241238D01*
X70897714Y-88336476D01*
X70802476Y-88384095D01*
X143470381Y-123158095D02*
X144279905Y-123158095D01*
X144375143Y-123110476D01*
X144422762Y-123062857D01*
X144470381Y-122967619D01*
X144470381Y-122777142D01*
X144422762Y-122681904D01*
X144375143Y-122634285D01*
X144279905Y-122586666D01*
X143470381Y-122586666D01*
X144470381Y-121586666D02*
X144470381Y-122158095D01*
X144470381Y-121872381D02*
X143470381Y-121872381D01*
X143613238Y-121967619D01*
X143708476Y-122062857D01*
X143756095Y-122158095D01*
X143803714Y-120729523D02*
X144470381Y-120729523D01*
X143422762Y-120967619D02*
X144137048Y-121205714D01*
X144137048Y-120586666D01*
X155408381Y-123158095D02*
X156217905Y-123158095D01*
X156313143Y-123110476D01*
X156360762Y-123062857D01*
X156408381Y-122967619D01*
X156408381Y-122777142D01*
X156360762Y-122681904D01*
X156313143Y-122634285D01*
X156217905Y-122586666D01*
X155408381Y-122586666D01*
X156408381Y-121586666D02*
X156408381Y-122158095D01*
X156408381Y-121872381D02*
X155408381Y-121872381D01*
X155551238Y-121967619D01*
X155646476Y-122062857D01*
X155694095Y-122158095D01*
X155408381Y-121253333D02*
X155408381Y-120634285D01*
X155789333Y-120967619D01*
X155789333Y-120824761D01*
X155836952Y-120729523D01*
X155884571Y-120681904D01*
X155979810Y-120634285D01*
X156217905Y-120634285D01*
X156313143Y-120681904D01*
X156360762Y-120729523D01*
X156408381Y-120824761D01*
X156408381Y-121110476D01*
X156360762Y-121205714D01*
X156313143Y-121253333D01*
X154209905Y-157948381D02*
X154209905Y-158757905D01*
X154257524Y-158853143D01*
X154305143Y-158900762D01*
X154400381Y-158948381D01*
X154590858Y-158948381D01*
X154686096Y-158900762D01*
X154733715Y-158853143D01*
X154781334Y-158757905D01*
X154781334Y-157948381D01*
X155781334Y-158948381D02*
X155209905Y-158948381D01*
X155495619Y-158948381D02*
X155495619Y-157948381D01*
X155400381Y-158091238D01*
X155305143Y-158186476D01*
X155209905Y-158234095D01*
X156162286Y-158043619D02*
X156209905Y-157996000D01*
X156305143Y-157948381D01*
X156543239Y-157948381D01*
X156638477Y-157996000D01*
X156686096Y-158043619D01*
X156733715Y-158138857D01*
X156733715Y-158234095D01*
X156686096Y-158376952D01*
X156114667Y-158948381D01*
X156733715Y-158948381D01*
X120681905Y-128992381D02*
X120681905Y-129801905D01*
X120729524Y-129897143D01*
X120777143Y-129944762D01*
X120872381Y-129992381D01*
X121062858Y-129992381D01*
X121158096Y-129944762D01*
X121205715Y-129897143D01*
X121253334Y-129801905D01*
X121253334Y-128992381D01*
X122253334Y-129992381D02*
X121681905Y-129992381D01*
X121967619Y-129992381D02*
X121967619Y-128992381D01*
X121872381Y-129135238D01*
X121777143Y-129230476D01*
X121681905Y-129278095D01*
X123205715Y-129992381D02*
X122634286Y-129992381D01*
X122920000Y-129992381D02*
X122920000Y-128992381D01*
X122824762Y-129135238D01*
X122729524Y-129230476D01*
X122634286Y-129278095D01*
X126777905Y-116292381D02*
X126777905Y-117101905D01*
X126825524Y-117197143D01*
X126873143Y-117244762D01*
X126968381Y-117292381D01*
X127158858Y-117292381D01*
X127254096Y-117244762D01*
X127301715Y-117197143D01*
X127349334Y-117101905D01*
X127349334Y-116292381D01*
X128349334Y-117292381D02*
X127777905Y-117292381D01*
X128063619Y-117292381D02*
X128063619Y-116292381D01*
X127968381Y-116435238D01*
X127873143Y-116530476D01*
X127777905Y-116578095D01*
X128968381Y-116292381D02*
X129063620Y-116292381D01*
X129158858Y-116340000D01*
X129206477Y-116387619D01*
X129254096Y-116482857D01*
X129301715Y-116673333D01*
X129301715Y-116911429D01*
X129254096Y-117101905D01*
X129206477Y-117197143D01*
X129158858Y-117244762D01*
X129063620Y-117292381D01*
X128968381Y-117292381D01*
X128873143Y-117244762D01*
X128825524Y-117197143D01*
X128777905Y-117101905D01*
X128730286Y-116911429D01*
X128730286Y-116673333D01*
X128777905Y-116482857D01*
X128825524Y-116387619D01*
X128873143Y-116340000D01*
X128968381Y-116292381D01*
X130810095Y-140168381D02*
X130810095Y-140977905D01*
X130857714Y-141073143D01*
X130905333Y-141120762D01*
X131000571Y-141168381D01*
X131191048Y-141168381D01*
X131286286Y-141120762D01*
X131333905Y-141073143D01*
X131381524Y-140977905D01*
X131381524Y-140168381D01*
X131905333Y-141168381D02*
X132095809Y-141168381D01*
X132191048Y-141120762D01*
X132238667Y-141073143D01*
X132333905Y-140930286D01*
X132381524Y-140739810D01*
X132381524Y-140358857D01*
X132333905Y-140263619D01*
X132286286Y-140216000D01*
X132191048Y-140168381D01*
X132000571Y-140168381D01*
X131905333Y-140216000D01*
X131857714Y-140263619D01*
X131810095Y-140358857D01*
X131810095Y-140596952D01*
X131857714Y-140692190D01*
X131905333Y-140739810D01*
X132000571Y-140787429D01*
X132191048Y-140787429D01*
X132286286Y-140739810D01*
X132333905Y-140692190D01*
X132381524Y-140596952D01*
X130810095Y-89622381D02*
X130810095Y-90431905D01*
X130857714Y-90527143D01*
X130905333Y-90574762D01*
X131000571Y-90622381D01*
X131191048Y-90622381D01*
X131286286Y-90574762D01*
X131333905Y-90527143D01*
X131381524Y-90431905D01*
X131381524Y-89622381D01*
X132000571Y-90050952D02*
X131905333Y-90003333D01*
X131857714Y-89955714D01*
X131810095Y-89860476D01*
X131810095Y-89812857D01*
X131857714Y-89717619D01*
X131905333Y-89670000D01*
X132000571Y-89622381D01*
X132191048Y-89622381D01*
X132286286Y-89670000D01*
X132333905Y-89717619D01*
X132381524Y-89812857D01*
X132381524Y-89860476D01*
X132333905Y-89955714D01*
X132286286Y-90003333D01*
X132191048Y-90050952D01*
X132000571Y-90050952D01*
X131905333Y-90098571D01*
X131857714Y-90146190D01*
X131810095Y-90241429D01*
X131810095Y-90431905D01*
X131857714Y-90527143D01*
X131905333Y-90574762D01*
X132000571Y-90622381D01*
X132191048Y-90622381D01*
X132286286Y-90574762D01*
X132333905Y-90527143D01*
X132381524Y-90431905D01*
X132381524Y-90241429D01*
X132333905Y-90146190D01*
X132286286Y-90098571D01*
X132191048Y-90050952D01*
X119888095Y-89114381D02*
X119888095Y-89923905D01*
X119935714Y-90019143D01*
X119983333Y-90066762D01*
X120078571Y-90114381D01*
X120269048Y-90114381D01*
X120364286Y-90066762D01*
X120411905Y-90019143D01*
X120459524Y-89923905D01*
X120459524Y-89114381D01*
X121364286Y-89114381D02*
X121173809Y-89114381D01*
X121078571Y-89162000D01*
X121030952Y-89209619D01*
X120935714Y-89352476D01*
X120888095Y-89542952D01*
X120888095Y-89923905D01*
X120935714Y-90019143D01*
X120983333Y-90066762D01*
X121078571Y-90114381D01*
X121269048Y-90114381D01*
X121364286Y-90066762D01*
X121411905Y-90019143D01*
X121459524Y-89923905D01*
X121459524Y-89685810D01*
X121411905Y-89590571D01*
X121364286Y-89542952D01*
X121269048Y-89495333D01*
X121078571Y-89495333D01*
X120983333Y-89542952D01*
X120935714Y-89590571D01*
X120888095Y-89685810D01*
X97790095Y-89876381D02*
X97790095Y-90685905D01*
X97837714Y-90781143D01*
X97885333Y-90828762D01*
X97980571Y-90876381D01*
X98171048Y-90876381D01*
X98266286Y-90828762D01*
X98313905Y-90781143D01*
X98361524Y-90685905D01*
X98361524Y-89876381D01*
X99313905Y-89876381D02*
X98837714Y-89876381D01*
X98790095Y-90352571D01*
X98837714Y-90304952D01*
X98932952Y-90257333D01*
X99171048Y-90257333D01*
X99266286Y-90304952D01*
X99313905Y-90352571D01*
X99361524Y-90447810D01*
X99361524Y-90685905D01*
X99313905Y-90781143D01*
X99266286Y-90828762D01*
X99171048Y-90876381D01*
X98932952Y-90876381D01*
X98837714Y-90828762D01*
X98790095Y-90781143D01*
X116078095Y-99020381D02*
X116078095Y-99829905D01*
X116125714Y-99925143D01*
X116173333Y-99972762D01*
X116268571Y-100020381D01*
X116459048Y-100020381D01*
X116554286Y-99972762D01*
X116601905Y-99925143D01*
X116649524Y-99829905D01*
X116649524Y-99020381D01*
X117554286Y-99353714D02*
X117554286Y-100020381D01*
X117316190Y-98972762D02*
X117078095Y-99687048D01*
X117697143Y-99687048D01*
X115824095Y-112990381D02*
X115824095Y-113799905D01*
X115871714Y-113895143D01*
X115919333Y-113942762D01*
X116014571Y-113990381D01*
X116205048Y-113990381D01*
X116300286Y-113942762D01*
X116347905Y-113895143D01*
X116395524Y-113799905D01*
X116395524Y-112990381D01*
X116776476Y-112990381D02*
X117395524Y-112990381D01*
X117062190Y-113371333D01*
X117205048Y-113371333D01*
X117300286Y-113418952D01*
X117347905Y-113466571D01*
X117395524Y-113561810D01*
X117395524Y-113799905D01*
X117347905Y-113895143D01*
X117300286Y-113942762D01*
X117205048Y-113990381D01*
X116919333Y-113990381D01*
X116824095Y-113942762D01*
X116776476Y-113895143D01*
X84328095Y-105624381D02*
X84328095Y-106433905D01*
X84375714Y-106529143D01*
X84423333Y-106576762D01*
X84518571Y-106624381D01*
X84709048Y-106624381D01*
X84804286Y-106576762D01*
X84851905Y-106529143D01*
X84899524Y-106433905D01*
X84899524Y-105624381D01*
X85328095Y-105719619D02*
X85375714Y-105672000D01*
X85470952Y-105624381D01*
X85709048Y-105624381D01*
X85804286Y-105672000D01*
X85851905Y-105719619D01*
X85899524Y-105814857D01*
X85899524Y-105910095D01*
X85851905Y-106052952D01*
X85280476Y-106624381D01*
X85899524Y-106624381D01*
X86614095Y-88352381D02*
X86614095Y-89161905D01*
X86661714Y-89257143D01*
X86709333Y-89304762D01*
X86804571Y-89352381D01*
X86995048Y-89352381D01*
X87090286Y-89304762D01*
X87137905Y-89257143D01*
X87185524Y-89161905D01*
X87185524Y-88352381D01*
X88185524Y-89352381D02*
X87614095Y-89352381D01*
X87899809Y-89352381D02*
X87899809Y-88352381D01*
X87804571Y-88495238D01*
X87709333Y-88590476D01*
X87614095Y-88638095D01*
X140914381Y-99448857D02*
X140438190Y-99782191D01*
X140914381Y-100020286D02*
X139914381Y-100020286D01*
X139914381Y-99639333D01*
X139962000Y-99544095D01*
X140009619Y-99496476D01*
X140104857Y-99448857D01*
X140247714Y-99448857D01*
X140342952Y-99496476D01*
X140390571Y-99544095D01*
X140438190Y-99639333D01*
X140438190Y-100020286D01*
X140009619Y-99067905D02*
X139962000Y-99020286D01*
X139914381Y-98925048D01*
X139914381Y-98686952D01*
X139962000Y-98591714D01*
X140009619Y-98544095D01*
X140104857Y-98496476D01*
X140200095Y-98496476D01*
X140342952Y-98544095D01*
X140914381Y-99115524D01*
X140914381Y-98496476D01*
X139914381Y-98163143D02*
X139914381Y-97496476D01*
X140914381Y-97925048D01*
X140914381Y-96400857D02*
X140438190Y-96734191D01*
X140914381Y-96972286D02*
X139914381Y-96972286D01*
X139914381Y-96591333D01*
X139962000Y-96496095D01*
X140009619Y-96448476D01*
X140104857Y-96400857D01*
X140247714Y-96400857D01*
X140342952Y-96448476D01*
X140390571Y-96496095D01*
X140438190Y-96591333D01*
X140438190Y-96972286D01*
X140009619Y-96019905D02*
X139962000Y-95972286D01*
X139914381Y-95877048D01*
X139914381Y-95638952D01*
X139962000Y-95543714D01*
X140009619Y-95496095D01*
X140104857Y-95448476D01*
X140200095Y-95448476D01*
X140342952Y-95496095D01*
X140914381Y-96067524D01*
X140914381Y-95448476D01*
X139914381Y-94591333D02*
X139914381Y-94781810D01*
X139962000Y-94877048D01*
X140009619Y-94924667D01*
X140152476Y-95019905D01*
X140342952Y-95067524D01*
X140723905Y-95067524D01*
X140819143Y-95019905D01*
X140866762Y-94972286D01*
X140914381Y-94877048D01*
X140914381Y-94686571D01*
X140866762Y-94591333D01*
X140819143Y-94543714D01*
X140723905Y-94496095D01*
X140485810Y-94496095D01*
X140390571Y-94543714D01*
X140342952Y-94591333D01*
X140295333Y-94686571D01*
X140295333Y-94877048D01*
X140342952Y-94972286D01*
X140390571Y-95019905D01*
X140485810Y-95067524D01*
X151249143Y-126944381D02*
X150915809Y-126468190D01*
X150677714Y-126944381D02*
X150677714Y-125944381D01*
X151058667Y-125944381D01*
X151153905Y-125992000D01*
X151201524Y-126039619D01*
X151249143Y-126134857D01*
X151249143Y-126277714D01*
X151201524Y-126372952D01*
X151153905Y-126420571D01*
X151058667Y-126468190D01*
X150677714Y-126468190D01*
X151630095Y-126039619D02*
X151677714Y-125992000D01*
X151772952Y-125944381D01*
X152011048Y-125944381D01*
X152106286Y-125992000D01*
X152153905Y-126039619D01*
X152201524Y-126134857D01*
X152201524Y-126230095D01*
X152153905Y-126372952D01*
X151582476Y-126944381D01*
X152201524Y-126944381D01*
X153106286Y-125944381D02*
X152630095Y-125944381D01*
X152582476Y-126420571D01*
X152630095Y-126372952D01*
X152725333Y-126325333D01*
X152963429Y-126325333D01*
X153058667Y-126372952D01*
X153106286Y-126420571D01*
X153153905Y-126515810D01*
X153153905Y-126753905D01*
X153106286Y-126849143D01*
X153058667Y-126896762D01*
X152963429Y-126944381D01*
X152725333Y-126944381D01*
X152630095Y-126896762D01*
X152582476Y-126849143D01*
X146169143Y-126944381D02*
X145835809Y-126468190D01*
X145597714Y-126944381D02*
X145597714Y-125944381D01*
X145978667Y-125944381D01*
X146073905Y-125992000D01*
X146121524Y-126039619D01*
X146169143Y-126134857D01*
X146169143Y-126277714D01*
X146121524Y-126372952D01*
X146073905Y-126420571D01*
X145978667Y-126468190D01*
X145597714Y-126468190D01*
X146550095Y-126039619D02*
X146597714Y-125992000D01*
X146692952Y-125944381D01*
X146931048Y-125944381D01*
X147026286Y-125992000D01*
X147073905Y-126039619D01*
X147121524Y-126134857D01*
X147121524Y-126230095D01*
X147073905Y-126372952D01*
X146502476Y-126944381D01*
X147121524Y-126944381D01*
X147978667Y-126277714D02*
X147978667Y-126944381D01*
X147740571Y-125896762D02*
X147502476Y-126611048D01*
X148121524Y-126611048D01*
X163187143Y-126944381D02*
X162853809Y-126468190D01*
X162615714Y-126944381D02*
X162615714Y-125944381D01*
X162996667Y-125944381D01*
X163091905Y-125992000D01*
X163139524Y-126039619D01*
X163187143Y-126134857D01*
X163187143Y-126277714D01*
X163139524Y-126372952D01*
X163091905Y-126420571D01*
X162996667Y-126468190D01*
X162615714Y-126468190D01*
X163568095Y-126039619D02*
X163615714Y-125992000D01*
X163710952Y-125944381D01*
X163949048Y-125944381D01*
X164044286Y-125992000D01*
X164091905Y-126039619D01*
X164139524Y-126134857D01*
X164139524Y-126230095D01*
X164091905Y-126372952D01*
X163520476Y-126944381D01*
X164139524Y-126944381D01*
X164472857Y-125944381D02*
X165091905Y-125944381D01*
X164758571Y-126325333D01*
X164901429Y-126325333D01*
X164996667Y-126372952D01*
X165044286Y-126420571D01*
X165091905Y-126515810D01*
X165091905Y-126753905D01*
X165044286Y-126849143D01*
X164996667Y-126896762D01*
X164901429Y-126944381D01*
X164615714Y-126944381D01*
X164520476Y-126896762D01*
X164472857Y-126849143D01*
X158107143Y-126944381D02*
X157773809Y-126468190D01*
X157535714Y-126944381D02*
X157535714Y-125944381D01*
X157916667Y-125944381D01*
X158011905Y-125992000D01*
X158059524Y-126039619D01*
X158107143Y-126134857D01*
X158107143Y-126277714D01*
X158059524Y-126372952D01*
X158011905Y-126420571D01*
X157916667Y-126468190D01*
X157535714Y-126468190D01*
X158488095Y-126039619D02*
X158535714Y-125992000D01*
X158630952Y-125944381D01*
X158869048Y-125944381D01*
X158964286Y-125992000D01*
X159011905Y-126039619D01*
X159059524Y-126134857D01*
X159059524Y-126230095D01*
X159011905Y-126372952D01*
X158440476Y-126944381D01*
X159059524Y-126944381D01*
X159440476Y-126039619D02*
X159488095Y-125992000D01*
X159583333Y-125944381D01*
X159821429Y-125944381D01*
X159916667Y-125992000D01*
X159964286Y-126039619D01*
X160011905Y-126134857D01*
X160011905Y-126230095D01*
X159964286Y-126372952D01*
X159392857Y-126944381D01*
X160011905Y-126944381D01*
X74541143Y-114752381D02*
X74207809Y-114276190D01*
X73969714Y-114752381D02*
X73969714Y-113752381D01*
X74350667Y-113752381D01*
X74445905Y-113800000D01*
X74493524Y-113847619D01*
X74541143Y-113942857D01*
X74541143Y-114085714D01*
X74493524Y-114180952D01*
X74445905Y-114228571D01*
X74350667Y-114276190D01*
X73969714Y-114276190D01*
X74922095Y-113847619D02*
X74969714Y-113800000D01*
X75064952Y-113752381D01*
X75303048Y-113752381D01*
X75398286Y-113800000D01*
X75445905Y-113847619D01*
X75493524Y-113942857D01*
X75493524Y-114038095D01*
X75445905Y-114180952D01*
X74874476Y-114752381D01*
X75493524Y-114752381D01*
X76445905Y-114752381D02*
X75874476Y-114752381D01*
X76160190Y-114752381D02*
X76160190Y-113752381D01*
X76064952Y-113895238D01*
X75969714Y-113990476D01*
X75874476Y-114038095D01*
X74541143Y-123896381D02*
X74207809Y-123420190D01*
X73969714Y-123896381D02*
X73969714Y-122896381D01*
X74350667Y-122896381D01*
X74445905Y-122944000D01*
X74493524Y-122991619D01*
X74541143Y-123086857D01*
X74541143Y-123229714D01*
X74493524Y-123324952D01*
X74445905Y-123372571D01*
X74350667Y-123420190D01*
X73969714Y-123420190D01*
X75493524Y-123896381D02*
X74922095Y-123896381D01*
X75207809Y-123896381D02*
X75207809Y-122896381D01*
X75112571Y-123039238D01*
X75017333Y-123134476D01*
X74922095Y-123182095D01*
X75826857Y-122896381D02*
X76493524Y-122896381D01*
X76064952Y-123896381D01*
X74541143Y-125928381D02*
X74207809Y-125452190D01*
X73969714Y-125928381D02*
X73969714Y-124928381D01*
X74350667Y-124928381D01*
X74445905Y-124976000D01*
X74493524Y-125023619D01*
X74541143Y-125118857D01*
X74541143Y-125261714D01*
X74493524Y-125356952D01*
X74445905Y-125404571D01*
X74350667Y-125452190D01*
X73969714Y-125452190D01*
X75493524Y-125928381D02*
X74922095Y-125928381D01*
X75207809Y-125928381D02*
X75207809Y-124928381D01*
X75112571Y-125071238D01*
X75017333Y-125166476D01*
X74922095Y-125214095D01*
X76350667Y-124928381D02*
X76160190Y-124928381D01*
X76064952Y-124976000D01*
X76017333Y-125023619D01*
X75922095Y-125166476D01*
X75874476Y-125356952D01*
X75874476Y-125737905D01*
X75922095Y-125833143D01*
X75969714Y-125880762D01*
X76064952Y-125928381D01*
X76255429Y-125928381D01*
X76350667Y-125880762D01*
X76398286Y-125833143D01*
X76445905Y-125737905D01*
X76445905Y-125499810D01*
X76398286Y-125404571D01*
X76350667Y-125356952D01*
X76255429Y-125309333D01*
X76064952Y-125309333D01*
X75969714Y-125356952D01*
X75922095Y-125404571D01*
X75874476Y-125499810D01*
X74541143Y-131008381D02*
X74207809Y-130532190D01*
X73969714Y-131008381D02*
X73969714Y-130008381D01*
X74350667Y-130008381D01*
X74445905Y-130056000D01*
X74493524Y-130103619D01*
X74541143Y-130198857D01*
X74541143Y-130341714D01*
X74493524Y-130436952D01*
X74445905Y-130484571D01*
X74350667Y-130532190D01*
X73969714Y-130532190D01*
X75493524Y-131008381D02*
X74922095Y-131008381D01*
X75207809Y-131008381D02*
X75207809Y-130008381D01*
X75112571Y-130151238D01*
X75017333Y-130246476D01*
X74922095Y-130294095D01*
X76350667Y-130341714D02*
X76350667Y-131008381D01*
X76112571Y-129960762D02*
X75874476Y-130675048D01*
X76493524Y-130675048D01*
X74541143Y-133040381D02*
X74207809Y-132564190D01*
X73969714Y-133040381D02*
X73969714Y-132040381D01*
X74350667Y-132040381D01*
X74445905Y-132088000D01*
X74493524Y-132135619D01*
X74541143Y-132230857D01*
X74541143Y-132373714D01*
X74493524Y-132468952D01*
X74445905Y-132516571D01*
X74350667Y-132564190D01*
X73969714Y-132564190D01*
X75493524Y-133040381D02*
X74922095Y-133040381D01*
X75207809Y-133040381D02*
X75207809Y-132040381D01*
X75112571Y-132183238D01*
X75017333Y-132278476D01*
X74922095Y-132326095D01*
X75826857Y-132040381D02*
X76445905Y-132040381D01*
X76112571Y-132421333D01*
X76255429Y-132421333D01*
X76350667Y-132468952D01*
X76398286Y-132516571D01*
X76445905Y-132611810D01*
X76445905Y-132849905D01*
X76398286Y-132945143D01*
X76350667Y-132992762D01*
X76255429Y-133040381D01*
X75969714Y-133040381D01*
X75874476Y-132992762D01*
X75826857Y-132945143D01*
X74541143Y-136088381D02*
X74207809Y-135612190D01*
X73969714Y-136088381D02*
X73969714Y-135088381D01*
X74350667Y-135088381D01*
X74445905Y-135136000D01*
X74493524Y-135183619D01*
X74541143Y-135278857D01*
X74541143Y-135421714D01*
X74493524Y-135516952D01*
X74445905Y-135564571D01*
X74350667Y-135612190D01*
X73969714Y-135612190D01*
X75493524Y-136088381D02*
X74922095Y-136088381D01*
X75207809Y-136088381D02*
X75207809Y-135088381D01*
X75112571Y-135231238D01*
X75017333Y-135326476D01*
X74922095Y-135374095D01*
X75874476Y-135183619D02*
X75922095Y-135136000D01*
X76017333Y-135088381D01*
X76255429Y-135088381D01*
X76350667Y-135136000D01*
X76398286Y-135183619D01*
X76445905Y-135278857D01*
X76445905Y-135374095D01*
X76398286Y-135516952D01*
X75826857Y-136088381D01*
X76445905Y-136088381D01*
X74541143Y-140152381D02*
X74207809Y-139676190D01*
X73969714Y-140152381D02*
X73969714Y-139152381D01*
X74350667Y-139152381D01*
X74445905Y-139200000D01*
X74493524Y-139247619D01*
X74541143Y-139342857D01*
X74541143Y-139485714D01*
X74493524Y-139580952D01*
X74445905Y-139628571D01*
X74350667Y-139676190D01*
X73969714Y-139676190D01*
X75493524Y-140152381D02*
X74922095Y-140152381D01*
X75207809Y-140152381D02*
X75207809Y-139152381D01*
X75112571Y-139295238D01*
X75017333Y-139390476D01*
X74922095Y-139438095D01*
X76112571Y-139152381D02*
X76207810Y-139152381D01*
X76303048Y-139200000D01*
X76350667Y-139247619D01*
X76398286Y-139342857D01*
X76445905Y-139533333D01*
X76445905Y-139771429D01*
X76398286Y-139961905D01*
X76350667Y-140057143D01*
X76303048Y-140104762D01*
X76207810Y-140152381D01*
X76112571Y-140152381D01*
X76017333Y-140104762D01*
X75969714Y-140057143D01*
X75922095Y-139961905D01*
X75874476Y-139771429D01*
X75874476Y-139533333D01*
X75922095Y-139342857D01*
X75969714Y-139247619D01*
X76017333Y-139200000D01*
X76112571Y-139152381D01*
X74509334Y-143200381D02*
X74176000Y-142724190D01*
X73937905Y-143200381D02*
X73937905Y-142200381D01*
X74318858Y-142200381D01*
X74414096Y-142248000D01*
X74461715Y-142295619D01*
X74509334Y-142390857D01*
X74509334Y-142533714D01*
X74461715Y-142628952D01*
X74414096Y-142676571D01*
X74318858Y-142724190D01*
X73937905Y-142724190D01*
X74985524Y-143200381D02*
X75176000Y-143200381D01*
X75271239Y-143152762D01*
X75318858Y-143105143D01*
X75414096Y-142962286D01*
X75461715Y-142771810D01*
X75461715Y-142390857D01*
X75414096Y-142295619D01*
X75366477Y-142248000D01*
X75271239Y-142200381D01*
X75080762Y-142200381D01*
X74985524Y-142248000D01*
X74937905Y-142295619D01*
X74890286Y-142390857D01*
X74890286Y-142628952D01*
X74937905Y-142724190D01*
X74985524Y-142771810D01*
X75080762Y-142819429D01*
X75271239Y-142819429D01*
X75366477Y-142771810D01*
X75414096Y-142724190D01*
X75461715Y-142628952D01*
X74509334Y-145232381D02*
X74176000Y-144756190D01*
X73937905Y-145232381D02*
X73937905Y-144232381D01*
X74318858Y-144232381D01*
X74414096Y-144280000D01*
X74461715Y-144327619D01*
X74509334Y-144422857D01*
X74509334Y-144565714D01*
X74461715Y-144660952D01*
X74414096Y-144708571D01*
X74318858Y-144756190D01*
X73937905Y-144756190D01*
X75080762Y-144660952D02*
X74985524Y-144613333D01*
X74937905Y-144565714D01*
X74890286Y-144470476D01*
X74890286Y-144422857D01*
X74937905Y-144327619D01*
X74985524Y-144280000D01*
X75080762Y-144232381D01*
X75271239Y-144232381D01*
X75366477Y-144280000D01*
X75414096Y-144327619D01*
X75461715Y-144422857D01*
X75461715Y-144470476D01*
X75414096Y-144565714D01*
X75366477Y-144613333D01*
X75271239Y-144660952D01*
X75080762Y-144660952D01*
X74985524Y-144708571D01*
X74937905Y-144756190D01*
X74890286Y-144851429D01*
X74890286Y-145041905D01*
X74937905Y-145137143D01*
X74985524Y-145184762D01*
X75080762Y-145232381D01*
X75271239Y-145232381D01*
X75366477Y-145184762D01*
X75414096Y-145137143D01*
X75461715Y-145041905D01*
X75461715Y-144851429D01*
X75414096Y-144756190D01*
X75366477Y-144708571D01*
X75271239Y-144660952D01*
X74509334Y-150312381D02*
X74176000Y-149836190D01*
X73937905Y-150312381D02*
X73937905Y-149312381D01*
X74318858Y-149312381D01*
X74414096Y-149360000D01*
X74461715Y-149407619D01*
X74509334Y-149502857D01*
X74509334Y-149645714D01*
X74461715Y-149740952D01*
X74414096Y-149788571D01*
X74318858Y-149836190D01*
X73937905Y-149836190D01*
X75366477Y-149312381D02*
X75176000Y-149312381D01*
X75080762Y-149360000D01*
X75033143Y-149407619D01*
X74937905Y-149550476D01*
X74890286Y-149740952D01*
X74890286Y-150121905D01*
X74937905Y-150217143D01*
X74985524Y-150264762D01*
X75080762Y-150312381D01*
X75271239Y-150312381D01*
X75366477Y-150264762D01*
X75414096Y-150217143D01*
X75461715Y-150121905D01*
X75461715Y-149883810D01*
X75414096Y-149788571D01*
X75366477Y-149740952D01*
X75271239Y-149693333D01*
X75080762Y-149693333D01*
X74985524Y-149740952D01*
X74937905Y-149788571D01*
X74890286Y-149883810D01*
X74509334Y-152344381D02*
X74176000Y-151868190D01*
X73937905Y-152344381D02*
X73937905Y-151344381D01*
X74318858Y-151344381D01*
X74414096Y-151392000D01*
X74461715Y-151439619D01*
X74509334Y-151534857D01*
X74509334Y-151677714D01*
X74461715Y-151772952D01*
X74414096Y-151820571D01*
X74318858Y-151868190D01*
X73937905Y-151868190D01*
X75414096Y-151344381D02*
X74937905Y-151344381D01*
X74890286Y-151820571D01*
X74937905Y-151772952D01*
X75033143Y-151725333D01*
X75271239Y-151725333D01*
X75366477Y-151772952D01*
X75414096Y-151820571D01*
X75461715Y-151915810D01*
X75461715Y-152153905D01*
X75414096Y-152249143D01*
X75366477Y-152296762D01*
X75271239Y-152344381D01*
X75033143Y-152344381D01*
X74937905Y-152296762D01*
X74890286Y-152249143D01*
X74509334Y-156408381D02*
X74176000Y-155932190D01*
X73937905Y-156408381D02*
X73937905Y-155408381D01*
X74318858Y-155408381D01*
X74414096Y-155456000D01*
X74461715Y-155503619D01*
X74509334Y-155598857D01*
X74509334Y-155741714D01*
X74461715Y-155836952D01*
X74414096Y-155884571D01*
X74318858Y-155932190D01*
X73937905Y-155932190D01*
X75366477Y-155741714D02*
X75366477Y-156408381D01*
X75128381Y-155360762D02*
X74890286Y-156075048D01*
X75509334Y-156075048D01*
X103338334Y-153487381D02*
X103005000Y-153011190D01*
X102766905Y-153487381D02*
X102766905Y-152487381D01*
X103147858Y-152487381D01*
X103243096Y-152535000D01*
X103290715Y-152582619D01*
X103338334Y-152677857D01*
X103338334Y-152820714D01*
X103290715Y-152915952D01*
X103243096Y-152963571D01*
X103147858Y-153011190D01*
X102766905Y-153011190D01*
X103719286Y-152582619D02*
X103766905Y-152535000D01*
X103862143Y-152487381D01*
X104100239Y-152487381D01*
X104195477Y-152535000D01*
X104243096Y-152582619D01*
X104290715Y-152677857D01*
X104290715Y-152773095D01*
X104243096Y-152915952D01*
X103671667Y-153487381D01*
X104290715Y-153487381D01*
X107132381Y-138850666D02*
X106656190Y-139184000D01*
X107132381Y-139422095D02*
X106132381Y-139422095D01*
X106132381Y-139041142D01*
X106180000Y-138945904D01*
X106227619Y-138898285D01*
X106322857Y-138850666D01*
X106465714Y-138850666D01*
X106560952Y-138898285D01*
X106608571Y-138945904D01*
X106656190Y-139041142D01*
X106656190Y-139422095D01*
X107132381Y-137898285D02*
X107132381Y-138469714D01*
X107132381Y-138184000D02*
X106132381Y-138184000D01*
X106275238Y-138279238D01*
X106370476Y-138374476D01*
X106418095Y-138469714D01*
X106076762Y-148375619D02*
X105981524Y-148328000D01*
X105886286Y-148232762D01*
X105743429Y-148089905D01*
X105648190Y-148042286D01*
X105552952Y-148042286D01*
X105600571Y-148280381D02*
X105505333Y-148232762D01*
X105410095Y-148137524D01*
X105362476Y-147947048D01*
X105362476Y-147613714D01*
X105410095Y-147423238D01*
X105505333Y-147328000D01*
X105600571Y-147280381D01*
X105791048Y-147280381D01*
X105886286Y-147328000D01*
X105981524Y-147423238D01*
X106029143Y-147613714D01*
X106029143Y-147947048D01*
X105981524Y-148137524D01*
X105886286Y-148232762D01*
X105791048Y-148280381D01*
X105600571Y-148280381D01*
X106981524Y-148280381D02*
X106410095Y-148280381D01*
X106695809Y-148280381D02*
X106695809Y-147280381D01*
X106600571Y-147423238D01*
X106505333Y-147518476D01*
X106410095Y-147566095D01*
X145819905Y-106878381D02*
X145819905Y-105878381D01*
X146058000Y-105878381D01*
X146200858Y-105926000D01*
X146296096Y-106021238D01*
X146343715Y-106116476D01*
X146391334Y-106306952D01*
X146391334Y-106449810D01*
X146343715Y-106640286D01*
X146296096Y-106735524D01*
X146200858Y-106830762D01*
X146058000Y-106878381D01*
X145819905Y-106878381D01*
X146772286Y-105973619D02*
X146819905Y-105926000D01*
X146915143Y-105878381D01*
X147153239Y-105878381D01*
X147248477Y-105926000D01*
X147296096Y-105973619D01*
X147343715Y-106068857D01*
X147343715Y-106164095D01*
X147296096Y-106306952D01*
X146724667Y-106878381D01*
X147343715Y-106878381D01*
X140073095Y-105227381D02*
X140073095Y-104227381D01*
X140644524Y-105227381D02*
X140215952Y-104655952D01*
X140644524Y-104227381D02*
X140073095Y-104798810D01*
X145057905Y-88082381D02*
X145057905Y-87082381D01*
X145296000Y-87082381D01*
X145438858Y-87130000D01*
X145534096Y-87225238D01*
X145581715Y-87320476D01*
X145629334Y-87510952D01*
X145629334Y-87653810D01*
X145581715Y-87844286D01*
X145534096Y-87939524D01*
X145438858Y-88034762D01*
X145296000Y-88082381D01*
X145057905Y-88082381D01*
X146581715Y-88082381D02*
X146010286Y-88082381D01*
X146296000Y-88082381D02*
X146296000Y-87082381D01*
X146200762Y-87225238D01*
X146105524Y-87320476D01*
X146010286Y-87368095D01*
X140073095Y-93797381D02*
X140073095Y-92797381D01*
X140644524Y-93797381D02*
X140215952Y-93225952D01*
X140644524Y-92797381D02*
X140073095Y-93368810D01*
X149725143Y-107037143D02*
X149677524Y-107084762D01*
X149534667Y-107132381D01*
X149439429Y-107132381D01*
X149296571Y-107084762D01*
X149201333Y-106989524D01*
X149153714Y-106894286D01*
X149106095Y-106703810D01*
X149106095Y-106560952D01*
X149153714Y-106370476D01*
X149201333Y-106275238D01*
X149296571Y-106180000D01*
X149439429Y-106132381D01*
X149534667Y-106132381D01*
X149677524Y-106180000D01*
X149725143Y-106227619D01*
X150677524Y-107132381D02*
X150106095Y-107132381D01*
X150391809Y-107132381D02*
X150391809Y-106132381D01*
X150296571Y-106275238D01*
X150201333Y-106370476D01*
X150106095Y-106418095D01*
X151010857Y-106132381D02*
X151629905Y-106132381D01*
X151296571Y-106513333D01*
X151439429Y-106513333D01*
X151534667Y-106560952D01*
X151582286Y-106608571D01*
X151629905Y-106703810D01*
X151629905Y-106941905D01*
X151582286Y-107037143D01*
X151534667Y-107084762D01*
X151439429Y-107132381D01*
X151153714Y-107132381D01*
X151058476Y-107084762D01*
X151010857Y-107037143D01*
X131572095Y-102830381D02*
X131572095Y-103639905D01*
X131619714Y-103735143D01*
X131667333Y-103782762D01*
X131762571Y-103830381D01*
X131953048Y-103830381D01*
X132048286Y-103782762D01*
X132095905Y-103735143D01*
X132143524Y-103639905D01*
X132143524Y-102830381D01*
X132524476Y-102830381D02*
X133191143Y-102830381D01*
X132762571Y-103830381D01*
X100000000Y-132565714D02*
X100171429Y-132622857D01*
X100457143Y-132622857D01*
X100571429Y-132565714D01*
X100628572Y-132508571D01*
X100685715Y-132394286D01*
X100685715Y-132280000D01*
X100628572Y-132165714D01*
X100571429Y-132108571D01*
X100457143Y-132051429D01*
X100228572Y-131994286D01*
X100114286Y-131937143D01*
X100057143Y-131880000D01*
X100000000Y-131765714D01*
X100000000Y-131651429D01*
X100057143Y-131537143D01*
X100114286Y-131480000D01*
X100228572Y-131422857D01*
X100514286Y-131422857D01*
X100685715Y-131480000D01*
X101085715Y-131422857D02*
X101371429Y-132622857D01*
X101600000Y-131765714D01*
X101828572Y-132622857D01*
X102114286Y-131422857D01*
X103085715Y-131822857D02*
X103085715Y-132622857D01*
X102800001Y-131365714D02*
X102514286Y-132222857D01*
X103257144Y-132222857D01*
X105080000Y-103101714D02*
X105251429Y-103158857D01*
X105537143Y-103158857D01*
X105651429Y-103101714D01*
X105708572Y-103044571D01*
X105765715Y-102930286D01*
X105765715Y-102816000D01*
X105708572Y-102701714D01*
X105651429Y-102644571D01*
X105537143Y-102587429D01*
X105308572Y-102530286D01*
X105194286Y-102473143D01*
X105137143Y-102416000D01*
X105080000Y-102301714D01*
X105080000Y-102187429D01*
X105137143Y-102073143D01*
X105194286Y-102016000D01*
X105308572Y-101958857D01*
X105594286Y-101958857D01*
X105765715Y-102016000D01*
X106165715Y-101958857D02*
X106451429Y-103158857D01*
X106680000Y-102301714D01*
X106908572Y-103158857D01*
X107194286Y-101958857D01*
X108280001Y-103158857D02*
X107594286Y-103158857D01*
X107937144Y-103158857D02*
X107937144Y-101958857D01*
X107822858Y-102130286D01*
X107708572Y-102244571D01*
X107594286Y-102301714D01*
X118341714Y-105740000D02*
X118398857Y-105568571D01*
X118398857Y-105282857D01*
X118341714Y-105168571D01*
X118284571Y-105111428D01*
X118170286Y-105054285D01*
X118056000Y-105054285D01*
X117941714Y-105111428D01*
X117884571Y-105168571D01*
X117827429Y-105282857D01*
X117770286Y-105511428D01*
X117713143Y-105625714D01*
X117656000Y-105682857D01*
X117541714Y-105740000D01*
X117427429Y-105740000D01*
X117313143Y-105682857D01*
X117256000Y-105625714D01*
X117198857Y-105511428D01*
X117198857Y-105225714D01*
X117256000Y-105054285D01*
X117198857Y-104654285D02*
X118398857Y-104368571D01*
X117541714Y-104140000D01*
X118398857Y-103911428D01*
X117198857Y-103625714D01*
X117313143Y-103225714D02*
X117256000Y-103168571D01*
X117198857Y-103054285D01*
X117198857Y-102768571D01*
X117256000Y-102654285D01*
X117313143Y-102597142D01*
X117427429Y-102539999D01*
X117541714Y-102539999D01*
X117713143Y-102597142D01*
X118398857Y-103282856D01*
X118398857Y-102539999D01*
X154876667Y-105814762D02*
X155019524Y-105862381D01*
X155257620Y-105862381D01*
X155352858Y-105814762D01*
X155400477Y-105767143D01*
X155448096Y-105671905D01*
X155448096Y-105576667D01*
X155400477Y-105481429D01*
X155352858Y-105433810D01*
X155257620Y-105386190D01*
X155067143Y-105338571D01*
X154971905Y-105290952D01*
X154924286Y-105243333D01*
X154876667Y-105148095D01*
X154876667Y-105052857D01*
X154924286Y-104957619D01*
X154971905Y-104910000D01*
X155067143Y-104862381D01*
X155305239Y-104862381D01*
X155448096Y-104910000D01*
X155781429Y-104862381D02*
X156019524Y-105862381D01*
X156210001Y-105148095D01*
X156400477Y-105862381D01*
X156638572Y-104862381D01*
X157495715Y-104862381D02*
X157019524Y-104862381D01*
X156971905Y-105338571D01*
X157019524Y-105290952D01*
X157114762Y-105243333D01*
X157352858Y-105243333D01*
X157448096Y-105290952D01*
X157495715Y-105338571D01*
X157543334Y-105433810D01*
X157543334Y-105671905D01*
X157495715Y-105767143D01*
X157448096Y-105814762D01*
X157352858Y-105862381D01*
X157114762Y-105862381D01*
X157019524Y-105814762D01*
X156971905Y-105767143D01*
X117411667Y-147724762D02*
X117554524Y-147772381D01*
X117792620Y-147772381D01*
X117887858Y-147724762D01*
X117935477Y-147677143D01*
X117983096Y-147581905D01*
X117983096Y-147486667D01*
X117935477Y-147391429D01*
X117887858Y-147343810D01*
X117792620Y-147296190D01*
X117602143Y-147248571D01*
X117506905Y-147200952D01*
X117459286Y-147153333D01*
X117411667Y-147058095D01*
X117411667Y-146962857D01*
X117459286Y-146867619D01*
X117506905Y-146820000D01*
X117602143Y-146772381D01*
X117840239Y-146772381D01*
X117983096Y-146820000D01*
X118316429Y-146772381D02*
X118554524Y-147772381D01*
X118745001Y-147058095D01*
X118935477Y-147772381D01*
X119173572Y-146772381D01*
X119459286Y-146772381D02*
X120078334Y-146772381D01*
X119745000Y-147153333D01*
X119887858Y-147153333D01*
X119983096Y-147200952D01*
X120030715Y-147248571D01*
X120078334Y-147343810D01*
X120078334Y-147581905D01*
X120030715Y-147677143D01*
X119983096Y-147724762D01*
X119887858Y-147772381D01*
X119602143Y-147772381D01*
X119506905Y-147724762D01*
X119459286Y-147677143D01*
X139057143Y-127865143D02*
X139009524Y-127912762D01*
X138866667Y-127960381D01*
X138771429Y-127960381D01*
X138628571Y-127912762D01*
X138533333Y-127817524D01*
X138485714Y-127722286D01*
X138438095Y-127531810D01*
X138438095Y-127388952D01*
X138485714Y-127198476D01*
X138533333Y-127103238D01*
X138628571Y-127008000D01*
X138771429Y-126960381D01*
X138866667Y-126960381D01*
X139009524Y-127008000D01*
X139057143Y-127055619D01*
X139438095Y-127055619D02*
X139485714Y-127008000D01*
X139580952Y-126960381D01*
X139819048Y-126960381D01*
X139914286Y-127008000D01*
X139961905Y-127055619D01*
X140009524Y-127150857D01*
X140009524Y-127246095D01*
X139961905Y-127388952D01*
X139390476Y-127960381D01*
X140009524Y-127960381D01*
X140961905Y-127960381D02*
X140390476Y-127960381D01*
X140676190Y-127960381D02*
X140676190Y-126960381D01*
X140580952Y-127103238D01*
X140485714Y-127198476D01*
X140390476Y-127246095D01*
X136210381Y-125444095D02*
X137019905Y-125444095D01*
X137115143Y-125396476D01*
X137162762Y-125348857D01*
X137210381Y-125253619D01*
X137210381Y-125063142D01*
X137162762Y-124967904D01*
X137115143Y-124920285D01*
X137019905Y-124872666D01*
X136210381Y-124872666D01*
X137210381Y-123872666D02*
X137210381Y-124444095D01*
X137210381Y-124158381D02*
X136210381Y-124158381D01*
X136353238Y-124253619D01*
X136448476Y-124348857D01*
X136496095Y-124444095D01*
X136210381Y-122967904D02*
X136210381Y-123444095D01*
X136686571Y-123491714D01*
X136638952Y-123444095D01*
X136591333Y-123348857D01*
X136591333Y-123110761D01*
X136638952Y-123015523D01*
X136686571Y-122967904D01*
X136781810Y-122920285D01*
X137019905Y-122920285D01*
X137115143Y-122967904D01*
X137162762Y-123015523D01*
X137210381Y-123110761D01*
X137210381Y-123348857D01*
X137162762Y-123444095D01*
X137115143Y-123491714D01*
X109323143Y-138818857D02*
X109370762Y-138866476D01*
X109418381Y-139009333D01*
X109418381Y-139104571D01*
X109370762Y-139247429D01*
X109275524Y-139342667D01*
X109180286Y-139390286D01*
X108989810Y-139437905D01*
X108846952Y-139437905D01*
X108656476Y-139390286D01*
X108561238Y-139342667D01*
X108466000Y-139247429D01*
X108418381Y-139104571D01*
X108418381Y-139009333D01*
X108466000Y-138866476D01*
X108513619Y-138818857D01*
X108513619Y-138437905D02*
X108466000Y-138390286D01*
X108418381Y-138295048D01*
X108418381Y-138056952D01*
X108466000Y-137961714D01*
X108513619Y-137914095D01*
X108608857Y-137866476D01*
X108704095Y-137866476D01*
X108846952Y-137914095D01*
X109418381Y-138485524D01*
X109418381Y-137866476D01*
X108513619Y-137485524D02*
X108466000Y-137437905D01*
X108418381Y-137342667D01*
X108418381Y-137104571D01*
X108466000Y-137009333D01*
X108513619Y-136961714D01*
X108608857Y-136914095D01*
X108704095Y-136914095D01*
X108846952Y-136961714D01*
X109418381Y-137533143D01*
X109418381Y-136914095D01*
X163679286Y-89463571D02*
X163822143Y-89511190D01*
X163869762Y-89558810D01*
X163917381Y-89654048D01*
X163917381Y-89796905D01*
X163869762Y-89892143D01*
X163822143Y-89939762D01*
X163726905Y-89987381D01*
X163345952Y-89987381D01*
X163345952Y-88987381D01*
X163679286Y-88987381D01*
X163774524Y-89035000D01*
X163822143Y-89082619D01*
X163869762Y-89177857D01*
X163869762Y-89273095D01*
X163822143Y-89368333D01*
X163774524Y-89415952D01*
X163679286Y-89463571D01*
X163345952Y-89463571D01*
X164203095Y-88987381D02*
X164774524Y-88987381D01*
X164488809Y-89987381D02*
X164488809Y-88987381D01*
X165631667Y-89987381D02*
X165060238Y-89987381D01*
X165345952Y-89987381D02*
X165345952Y-88987381D01*
X165250714Y-89130238D01*
X165155476Y-89225476D01*
X165060238Y-89273095D01*
X163679286Y-97083571D02*
X163822143Y-97131190D01*
X163869762Y-97178810D01*
X163917381Y-97274048D01*
X163917381Y-97416905D01*
X163869762Y-97512143D01*
X163822143Y-97559762D01*
X163726905Y-97607381D01*
X163345952Y-97607381D01*
X163345952Y-96607381D01*
X163679286Y-96607381D01*
X163774524Y-96655000D01*
X163822143Y-96702619D01*
X163869762Y-96797857D01*
X163869762Y-96893095D01*
X163822143Y-96988333D01*
X163774524Y-97035952D01*
X163679286Y-97083571D01*
X163345952Y-97083571D01*
X164203095Y-96607381D02*
X164774524Y-96607381D01*
X164488809Y-97607381D02*
X164488809Y-96607381D01*
X165060238Y-96702619D02*
X165107857Y-96655000D01*
X165203095Y-96607381D01*
X165441191Y-96607381D01*
X165536429Y-96655000D01*
X165584048Y-96702619D01*
X165631667Y-96797857D01*
X165631667Y-96893095D01*
X165584048Y-97035952D01*
X165012619Y-97607381D01*
X165631667Y-97607381D01*
M02*
